<svg width="536" height="133" viewBox="0 0 536 133" fill="none" xmlns="http://www.w3.org/2000/svg">
<g opacity="0.5" clip-path="url(#clip0_48_1526)">
<path d="M309.489 67.1479C309.489 67.1479 297.657 63.2731 290.106 58.7893C282.556 54.3055 277.456 52.5674 274.807 52.9549C272.159 53.3423 266.234 53.3423 261.948 54.1229C257.661 54.9034 255.012 55.6783 254.193 57.6213C253.374 59.5643 256.848 65.0112 261.134 66.1792C265.421 67.3472 273.988 72.7886 273.988 72.7886C273.988 72.7886 236.646 106.821 238.075 110.319C239.504 113.818 255.831 128.033 258.073 128.21C260.315 128.387 293.986 118.49 296.025 118.097C300.586 117.137 304.935 115.427 308.879 113.043C311.533 111.419 313.997 109.528 316.227 107.402L333.176 100.405L314.008 65.205L309.489 67.1479Z" fill="white" stroke="#495E4C" stroke-width="1.33333" stroke-linecap="round" stroke-linejoin="round"/>
<path d="M292.309 99.8633C292.309 99.8633 300.922 107.187 301.852 110.292C302.383 112.343 302.302 114.494 301.619 116.503L296.003 118.097L292.309 99.8633Z" fill="#495E4C" stroke="#495E4C" stroke-width="1.33333" stroke-linecap="round" stroke-linejoin="round"/>
<path d="M319.078 77.2324L326.995 102.524L333.158 100.404L319.078 77.2324Z" fill="#495E4C" stroke="#495E4C" stroke-width="1.33333" stroke-linecap="round" stroke-linejoin="round"/>
<path d="M261.15 66.1786C261.15 66.1786 276.252 68.7084 279.104 69.8708C281.956 71.0333 297.47 86.7929 302.977 91.6531C308.483 96.5133 311.346 104.097 311.55 108.957C311.753 113.817 309.697 120.239 307.037 121.207C304.376 122.176 302.547 120.82 301.733 118.877C300.92 116.934 300.508 113.236 300.508 113.236L297.244 106.82C297.463 109.355 297.324 111.905 296.831 114.404C296.018 118.096 294.589 125.874 291.325 127.822C288.061 129.771 284.181 128.597 283.774 127.628C283.445 126.737 283.174 125.828 282.961 124.905C282.961 124.905 281.939 128.403 278.895 129.378C275.851 130.352 271.547 129.184 271.547 129.184C271.547 129.184 268.062 133.059 265.222 132.295C262.382 131.531 259.512 128.597 259.512 128.597C259.512 128.597 249.923 122.962 241.146 117.128C232.37 111.293 216.664 93.0148 216.664 93.0148L209.113 88.5421L232.172 57.8145L241.983 63.6489L261.15 66.1786Z" fill="white" stroke="#495E4C" stroke-width="1.33333" stroke-linecap="round" stroke-linejoin="round"/>
<path d="M235.042 66.3613L219.185 95.4339L216.652 93.0149L235.042 66.3613Z" fill="#495E4C" stroke="#495E4C" stroke-width="1.33333" stroke-linecap="round" stroke-linejoin="round"/>
<path d="M265.624 53.929C265.624 53.929 257.045 53.7131 255.012 54.5102C251.527 55.872 251.341 60.3447 251.341 61.1196C251.341 61.8946 248.89 68.1221 248.483 70.4581C248.077 72.7941 250.929 73.9565 257.463 71.8198C263.997 69.6831 265.827 66.9541 265.827 61.1196" fill="white"/>
<path d="M265.624 53.929C265.624 53.929 257.045 53.7131 255.012 54.5102C251.527 55.872 251.341 60.3447 251.341 61.1196C251.341 61.8946 248.89 68.1221 248.483 70.4581C248.077 72.7941 250.929 73.9565 257.463 71.8198C263.997 69.6831 265.827 66.9541 265.827 61.1196" stroke="#495E4C" stroke-width="1.33333" stroke-linecap="round" stroke-linejoin="round"/>
<path d="M249.094 69.0962C249.425 68.7473 249.838 68.4775 250.299 68.3083C250.76 68.1391 251.257 68.0753 251.748 68.1219C253.38 68.3157 256.645 67.9282 256.848 65.5922C257.051 63.2562 256.238 62.0938 254.606 62.0938C253.511 62.1446 252.452 62.4816 251.545 63.068L249.094 69.0962Z" stroke="#495E4C" stroke-width="1.33333" stroke-linecap="round" stroke-linejoin="round"/>
<path d="M286.434 91.2988C287.392 92.8765 288.333 95.3176 290.104 97.2883C296.587 104.484 297.249 106.82 297.249 106.82" stroke="#495E4C" stroke-width="1.33333" stroke-linecap="round" stroke-linejoin="round"/>
<path d="M284.598 85.0391L285.004 88.9139L285.742 90.1428" stroke="#495E4C" stroke-width="1.33333" stroke-linecap="round" stroke-linejoin="round"/>
<path d="M273.582 95.5391L273.785 100.206C273.785 100.206 282.149 115.766 283.375 117.515C284.601 119.264 283.782 123.931 282.968 124.905" stroke="#495E4C" stroke-width="1.33333" stroke-linecap="round" stroke-linejoin="round"/>
<path d="M264.48 114.266C265.5 115.935 266.631 117.539 267.867 119.07C271.131 122.945 271.538 129.184 271.538 129.184" stroke="#495E4C" stroke-width="1.33333" stroke-linecap="round" stroke-linejoin="round"/>
<path d="M260.516 104.877V107.401C260.516 107.401 261.73 109.721 263.385 112.488" stroke="#495E4C" stroke-width="1.33333" stroke-linecap="round" stroke-linejoin="round"/>
<path d="M227.556 107.16C227.556 107.16 222.636 105.848 221.254 104.187C219.871 102.526 219.285 97.1513 219.192 95.463C219.099 93.7747 218.03 92.0863 220.173 91.3335C222.317 90.5807 225.192 92.8336 226.278 95.0866C227.364 97.3395 227.44 100.434 227.44 100.899C227.44 101.364 229.113 103.905 229.113 103.905C229.113 103.905 230.704 106.783 227.556 107.16Z" fill="white" stroke="#495E4C" stroke-width="1.33333" stroke-linecap="round" stroke-linejoin="round"/>
<path d="M219.754 99.0055C219.754 99.0055 221.496 100.666 222.774 100.583C224.052 100.5 223.163 96.4094 223.163 96.4094C222.264 96.1939 221.431 95.7806 220.73 95.2026C220.149 94.7053 219.596 94.1787 219.074 93.625L219.754 99.0055Z" fill="white" stroke="#495E4C" stroke-width="1.33333" stroke-linecap="round" stroke-linejoin="round"/>
<path d="M236.708 116.364C236.708 116.364 231.48 117.399 230.208 115.711C228.936 114.023 226.369 107.269 226.468 104.922C226.566 102.575 233.066 96.8569 236.342 94.5098C239.618 92.1627 241.656 91.4154 243.626 92.5392C245.595 93.6629 247.169 95.0744 246.576 97.0451C245.984 99.0157 241.262 107.457 240.477 108.958C239.693 110.458 238.898 115.711 238.898 115.711L236.708 116.364Z" fill="white" stroke="#495E4C" stroke-width="1.33333" stroke-linecap="round" stroke-linejoin="round"/>
<path d="M234.74 96.0883C234.74 96.0883 232.573 98.059 233.653 99.5591C234.734 101.059 237.493 102.471 238.678 102.094C239.863 101.718 243.696 97.8708 244.382 96.6529C245.067 95.4351 240.838 92.5234 240.838 92.5234C238.528 93.2141 236.433 94.4388 234.74 96.0883Z" fill="white" stroke="#495E4C" stroke-width="1.33333" stroke-linecap="round" stroke-linejoin="round"/>
<path d="M245.234 123.56C245.234 123.56 239.536 124.667 238.137 122.841C236.737 121.014 233.943 113.618 234.071 111.055C234.198 108.493 241.273 102.248 244.822 99.6855C248.371 97.1226 250.63 96.3033 252.779 97.5322C254.928 98.7611 256.648 100.3 256.003 102.453C255.358 104.607 250.195 113.823 249.335 115.462C248.475 117.1 247.593 122.841 247.593 122.841L245.234 123.56Z" fill="white" stroke="#495E4C" stroke-width="1.33333" stroke-linecap="round" stroke-linejoin="round"/>
<path d="M243.087 101.417C243.087 101.417 240.717 103.57 241.925 105.209C243.133 106.847 246.119 108.386 247.408 107.976C248.698 107.567 252.891 103.365 253.646 102.037C254.402 100.708 249.772 97.5254 249.772 97.5254C247.241 98.2761 244.944 99.6131 243.087 101.417Z" fill="white" stroke="#495E4C" stroke-width="1.33333" stroke-linecap="round" stroke-linejoin="round"/>
<path d="M256.319 126.832C256.319 126.832 254.814 122.542 254.814 122.149C254.814 121.756 257.544 115.507 257.271 112.778C256.998 110.049 254.675 106.921 253.205 107.702C251.736 108.482 248.971 110.696 246.514 114.211C244.057 117.727 243.238 120.456 244.057 121.756C244.876 123.057 249.79 128.006 251.84 128.786C253.891 129.567 258.102 128.233 258.102 128.233L256.319 126.832Z" fill="white" stroke="#495E4C" stroke-width="1.33333" stroke-linecap="round" stroke-linejoin="round"/>
<path d="M246.758 115.385C246.758 115.385 248.535 116.425 249.761 116.425C250.986 116.425 254.129 113.691 253.995 110.956C253.861 108.222 252.084 108.875 252.084 108.875C252.084 108.875 247.304 112.257 246.758 115.385Z" fill="white" stroke="#495E4C" stroke-width="1.33333" stroke-linecap="round" stroke-linejoin="round"/>
<path d="M312.363 63.9484L333.424 107.402L346.063 102.204L324.009 58.9941L312.363 63.9484Z" fill="white" stroke="#495E4C" stroke-width="1.33333" stroke-linecap="round" stroke-linejoin="round"/>
<path d="M414.415 6.82617L319.797 59.7015L351.075 120.625L534.843 41.3709" stroke="#495E4C" stroke-width="1.33333" stroke-linecap="round" stroke-linejoin="round"/>
<path d="M406.523 15.9023L320 59.3686L351.888 118.71L518.667 44.9546L406.523 15.9023Z" fill="#9BF9A6"/>
<path d="M238.771 60.6432L210.031 103.151L199.129 97.9582L229.356 55.2129L238.771 60.6432Z" fill="white" stroke="#495E4C" stroke-width="1.33333" stroke-linecap="round" stroke-linejoin="round"/>
<path d="M143.532 0.947266L233.818 55.45L190.296 119.014L0.578125 32.0207" stroke="#495E4C" stroke-width="1.33333" stroke-linecap="round" stroke-linejoin="round"/>
<path d="M189.719 119.016L233.241 55.4521L144.001 5.11523L16.668 36.2114L189.719 119.016Z" fill="#9BF9A6"/>
</g>
<defs>
<clipPath id="clip0_48_1526">
<rect width="536" height="132" fill="white" transform="translate(0 0.671875)"/>
</clipPath>
</defs>
</svg>
