<svg width="414" height="402" viewBox="0 0 414 402" fill="none" xmlns="http://www.w3.org/2000/svg">
<g opacity="0.5" clip-path="url(#clip0_48_1555)">
<path d="M224.452 57.6708L79.1089 130.85L348.453 186.748L243.64 61.5877C241.354 58.8627 238.214 56.9921 234.729 56.2807C231.245 55.5695 227.622 56.0594 224.452 57.6708Z" fill="#EBEBEB"/>
<path d="M77.4429 131.067L224.207 57.1713C227.488 55.4905 231.243 54.9777 234.855 55.7175C238.466 56.4573 241.717 58.4055 244.073 61.241L349.918 187.626L77.4429 131.067ZM238.164 57.9363C236.062 56.9271 233.755 56.4181 231.424 56.449C229.092 56.48 226.799 57.0501 224.725 58.1148L80.7619 130.638L347.013 185.894L243.244 61.93C241.845 60.2651 240.105 58.9193 238.142 57.9833L238.164 57.9363Z" fill="#E0E0E0"/>
<path d="M79.0938 130.881L349.385 186.977L318.989 333.437C318.387 336.337 316.658 338.879 314.181 340.504C311.705 342.129 308.684 342.704 305.784 342.102L57.3735 290.547C54.4733 289.945 51.9309 288.216 50.3058 285.739C48.6806 283.263 48.1058 280.242 48.7077 277.342L79.104 130.883L79.0938 130.881Z" fill="#F0F0F0"/>
<path d="M331.084 186.968L206.346 232.196L93.5769 142.922L111.362 68.9139C112.221 65.0648 114.559 61.7081 117.872 59.5688C121.186 57.4296 125.207 56.6795 129.069 57.4806L333.8 99.9967C335.731 100.396 337.565 101.172 339.195 102.28C340.826 103.389 342.222 104.808 343.304 106.457C344.385 108.105 345.131 109.951 345.498 111.888C345.866 113.826 345.847 115.816 345.444 117.747L331.084 186.968Z" fill="white"/>
<path d="M198.093 219.954L48.8625 275.978C48.5335 277.557 48.5191 279.186 48.82 280.77C49.1209 282.355 49.7313 283.865 50.6162 285.214C51.5011 286.563 52.6432 287.724 53.9772 288.631C55.3112 289.538 56.8109 290.173 58.3906 290.5L304.915 341.637C308.104 342.298 311.425 341.666 314.149 339.88C316.872 338.093 318.774 335.298 319.437 332.109L319.628 331.182L211.777 222.925C210.025 221.164 207.801 219.946 205.373 219.419C202.946 218.892 200.418 219.078 198.093 219.954Z" fill="#E0E0E0"/>
<path d="M212.085 109.63L131.98 93.0195L130.285 101.198L210.389 117.809L212.085 109.63Z" fill="#E0E0E0"/>
<path d="M305.406 150.608L127.676 113.754L125.76 122.995L303.49 159.849L305.406 150.608Z" fill="#E0E0E0"/>
<path d="M300.73 173.186L123 136.332L121.084 145.573L298.814 182.427L300.73 173.186Z" fill="#E0E0E0"/>
<path d="M291.229 201.508L283.867 204.088L133.844 174.831L118.387 162.387L118.638 160.182L295.795 196.923L295.166 199.987L291.229 201.508Z" fill="#E0E0E0"/>
<path d="M240.434 219.833L173.225 205.885L156.887 192.866L257.341 213.697L240.434 219.833Z" fill="#E0E0E0"/>
<path d="M192.649 221.986C192.649 221.986 192.533 222.058 192.287 222.159L191.198 222.596L187.021 224.208L171.575 230.122C158.522 235.08 140.446 241.915 120.5 249.344C100.554 256.773 82.3617 263.321 69.1864 267.931C62.5941 270.233 57.24 272.079 53.5418 273.32L49.282 274.743L48.1634 275.096C48.0399 275.147 47.9103 275.182 47.7779 275.2C47.8945 275.135 48.0171 275.082 48.1439 275.04L49.243 274.632L53.4499 273.102L69.0265 267.541C82.1684 262.881 100.317 256.254 120.301 248.82C140.284 241.386 158.33 234.71 171.42 229.747L186.915 223.996L191.126 222.457L192.235 222.076L192.649 221.986Z" fill="#FAFAFA"/>
<path d="M319.628 331.18C319.518 331.289 296.447 308.356 268.1 279.958C239.754 251.56 216.862 228.446 216.972 228.337C217.082 228.228 240.158 251.152 268.486 279.588C296.815 308.024 319.743 331.062 319.628 331.18Z" fill="#FAFAFA"/>
<path d="M337.04 184.764C336.947 184.823 336.85 184.873 336.748 184.913L335.863 185.286L332.447 186.686L319.824 191.712C309.137 195.911 294.346 201.595 277.914 207.659C261.483 213.723 246.531 218.995 235.684 222.734L222.813 227.097L219.3 228.243L218.385 228.532C218.172 228.591 218.065 228.621 218.06 228.607C218.158 228.555 218.26 228.511 218.366 228.476L219.261 228.131L222.74 226.888L235.543 222.354C246.365 218.522 261.292 213.181 277.71 207.121C294.128 201.062 308.953 195.429 319.669 191.337L332.407 186.505L335.791 185.171L336.7 184.844C336.81 184.804 336.924 184.777 337.04 184.764Z" fill="#FAFAFA"/>
<path d="M192.651 221.987C192.543 221.927 192.442 221.855 192.349 221.772L191.518 221.094L188.211 218.347C185.386 215.993 181.262 212.609 176.133 208.477C165.899 200.187 151.571 188.957 135.709 176.607C119.848 164.258 105.557 152.976 95.3861 144.601C90.2939 140.417 86.2021 136.991 83.4133 134.585L80.2419 131.868L79.4333 131.143C79.3336 131.067 79.2444 130.977 79.168 130.877L79.4652 131.101L80.3011 131.769L83.5612 134.494C86.3959 136.853 90.5242 140.227 95.6484 144.369C105.883 152.658 120.202 163.884 136.072 176.238C151.943 188.592 166.225 199.87 176.396 208.244C181.488 212.429 185.584 215.845 188.368 218.26L191.569 221.038L192.377 221.762L192.651 221.987Z" fill="#FAFAFA"/>
<path d="M331.083 186.968C331.083 186.968 331.138 186.613 331.281 185.906L331.874 182.917C332.407 180.268 333.192 176.399 334.202 171.412L342.872 129.157C343.335 126.927 343.805 124.642 344.282 122.302C344.525 121.147 344.773 119.958 345.011 118.765C345.137 118.166 345.273 117.572 345.352 116.973C345.451 116.372 345.507 115.765 345.52 115.156C345.603 112.6 345.017 110.067 343.822 107.805C342.627 105.544 340.863 103.634 338.704 102.262C337.585 101.541 336.373 100.978 335.101 100.587C333.817 100.225 332.456 99.975 331.104 99.6832L322.822 98.0148L305.603 94.4081L228.849 78.5075L152.056 62.5421L134.837 58.9587L130.673 58.1132C129.336 57.7712 127.971 57.5487 126.595 57.4483C125.246 57.3819 123.893 57.5111 122.581 57.8318C121.284 58.1348 120.035 58.6171 118.871 59.2647C117.726 59.898 116.668 60.6761 115.721 61.5798C114.809 62.4821 114.011 63.4938 113.347 64.592C111.958 66.7589 111.53 69.2841 110.928 71.6907C109.759 76.5282 108.637 81.1614 107.564 85.5901C103.233 103.306 99.8061 117.649 97.3603 127.547C96.1396 132.491 95.2003 136.32 94.5688 138.933C94.2482 140.225 93.9929 141.213 93.8261 141.897C93.6594 142.58 93.5433 142.918 93.5433 142.918C93.5433 142.918 93.6079 142.567 93.7698 141.869C93.9316 141.172 94.1591 140.194 94.4564 138.902C95.0737 136.271 95.9847 132.428 97.1539 127.471C99.5106 117.542 102.928 103.194 107.143 85.48C108.21 81.0482 109.318 76.4091 110.469 71.5625C111.058 69.184 111.503 66.5746 112.928 64.3326C113.602 63.2229 114.412 62.2014 115.339 61.2919C116.316 60.3596 117.407 59.5546 118.586 58.8959C119.785 58.2252 121.073 57.7266 122.411 57.4146C123.765 57.0737 125.161 56.9344 126.556 57.0011C127.963 57.0867 129.358 57.301 130.726 57.6413L134.937 58.5094L152.175 62.0785L228.985 78.0063L305.778 93.9717L322.945 97.4952L331.199 99.22C332.556 99.5023 333.894 99.7523 335.238 100.133C337.18 100.733 338.982 101.715 340.54 103.021C342.098 104.326 343.379 105.929 344.31 107.736C345.493 110.038 346.067 112.605 345.978 115.191C345.967 115.818 345.906 116.443 345.797 117.06C345.708 117.677 345.582 118.276 345.456 118.875C345.208 120.063 344.961 121.252 344.713 122.417C344.226 124.752 343.744 127.031 343.284 129.262L334.423 171.506C333.37 176.485 332.496 180.323 331.992 182.985C331.699 184.291 331.486 185.287 331.333 185.966C331.18 186.645 331.083 186.968 331.083 186.968Z" fill="#E0E0E0"/>
<path d="M249.859 86.8313L237.162 89.4378L231.113 103.169L225.858 92.3213L219.225 94.0837L211.973 63.4492L249.859 86.8313Z" fill="#5CCD6A"/>
<g opacity="0.3">
<path d="M232.294 90.636C232.095 91.0495 231.115 103.168 231.115 103.168L225.86 92.3207L232.294 90.636Z" fill="black"/>
</g>
<path d="M211.973 63.4492L232.283 90.6321L231.113 103.169L237.162 89.4378L211.973 63.4492Z" fill="#54BE61"/>
<path d="M199.463 281.941C197.819 281.082 196.37 279.892 195.207 278.447C196.851 279.306 198.3 280.495 199.463 281.941Z" fill="#495D4C"/>
<path d="M206.248 287.517C206.181 287.658 205.498 287.272 204.799 286.705C204.1 286.137 203.616 285.557 203.712 285.429C203.808 285.302 204.462 285.675 205.166 286.256C205.87 286.838 206.354 287.394 206.248 287.517Z" fill="#495D4C"/>
<path d="M252.05 111.06C251.21 110.671 250.443 110.142 249.782 109.495C249.002 108.999 248.319 108.364 247.766 107.623C248.657 107.916 249.469 108.409 250.139 109.065C250.927 109.567 251.582 110.251 252.05 111.06Z" fill="#495D4C"/>
<path d="M259.271 119.334C258.543 118.765 257.92 118.074 257.43 117.291C256.792 116.624 256.275 115.85 255.902 115.006C256.703 115.489 257.378 116.155 257.872 116.949C258.814 118.142 259.405 119.248 259.271 119.334Z" fill="#495D4C"/>
<path d="M264.28 129.104C264.127 129.158 263.63 128.051 263.002 126.661C262.375 125.271 261.909 124.122 262.09 124.059C262.747 124.726 263.24 125.538 263.53 126.429C264.14 127.833 264.42 129.055 264.28 129.104Z" fill="#495D4C"/>
<path d="M266.519 139.844C266.356 139.847 266.174 138.637 265.964 137.148C265.754 136.247 265.693 135.319 265.782 134.399C265.926 134.364 266.327 135.552 266.532 137.074C266.747 137.985 266.742 138.935 266.519 139.844Z" fill="#495D4C"/>
<path d="M265.47 150.76C265.417 149.837 265.518 148.912 265.768 148.022C265.827 147.097 266.048 146.189 266.422 145.34C266.615 146.26 266.582 147.213 266.325 148.116C266.262 149.055 265.969 149.963 265.47 150.76Z" fill="#495D4C"/>
<path d="M261.234 160.871C261.458 159.974 261.826 159.119 262.323 158.34C262.652 157.475 263.131 156.675 263.738 155.977C263.649 156.91 263.34 157.808 262.836 158.598C262.489 159.471 261.94 160.25 261.234 160.871Z" fill="#495D4C"/>
<path d="M254.082 169.167C254.58 168.391 255.201 167.701 255.921 167.124C256.5 166.41 257.188 165.792 257.959 165.292C257.598 166.161 257.021 166.923 256.282 167.506C255.697 168.232 254.941 168.803 254.082 169.167Z" fill="#495D4C"/>
<path d="M244.483 174.431C244.443 174.273 245.574 173.798 246.955 173.213C248.336 172.627 249.466 172.106 249.539 172.268C248.885 172.945 248.074 173.449 247.178 173.736C245.764 174.341 244.527 174.579 244.483 174.431Z" fill="#495D4C"/>
<path d="M233.624 175.783C234.517 175.552 235.442 175.465 236.362 175.527C237.278 175.4 238.208 175.425 239.115 175.601C238.257 175.989 237.316 176.16 236.376 176.1C235.446 176.223 234.501 176.114 233.624 175.783Z" fill="#495D4C"/>
<path d="M222.979 173.232C223.894 173.331 224.787 173.58 225.621 173.97C226.524 174.175 227.387 174.524 228.179 175.004C227.24 175.069 226.299 174.899 225.443 174.509C224.527 174.298 223.68 173.858 222.979 173.232Z" fill="#495D4C"/>
<path d="M214.203 166.697C214.99 167.179 215.702 167.775 216.315 168.465C217.051 169.016 217.703 169.673 218.248 170.413C217.355 170.113 216.556 169.585 215.93 168.882C215.17 168.32 214.574 167.566 214.203 166.697Z" fill="#495D4C"/>
<path d="M210.645 156.654C210.785 156.722 210.766 157.87 211.003 159.349C211.24 160.829 211.612 161.957 211.441 162.048C211.27 162.139 210.688 160.991 210.436 159.447C210.189 158.519 210.263 157.535 210.645 156.654Z" fill="#495D4C"/>
<path d="M218.472 150.941C218.399 151.092 217.217 150.928 215.779 151.174C214.342 151.42 213.312 152.093 213.217 151.955C213.121 151.816 214.077 150.888 215.678 150.616C216.616 150.365 217.616 150.481 218.472 150.941Z" fill="#495D4C"/>
<path d="M225.275 158.552C225.107 158.564 224.949 157.353 224.405 155.981C223.862 154.609 223.083 153.679 223.244 153.583C224.071 154.074 224.681 154.859 224.953 155.782C225.385 156.638 225.499 157.619 225.275 158.552Z" fill="#495D4C"/>
<path d="M220.98 168.3C221.444 167.515 221.987 166.78 222.602 166.106C223.068 165.318 223.613 164.58 224.229 163.903C224.018 164.821 223.618 165.685 223.056 166.44C222.493 167.196 221.78 167.826 220.961 168.291L220.98 168.3Z" fill="#495D4C"/>
<path d="M210.994 172.581C210.968 172.419 212.162 172.125 213.607 171.744C215.052 171.362 216.269 171.022 216.289 171.147C216.31 171.273 215.256 171.9 213.778 172.254C212.3 172.608 211.01 172.74 210.994 172.581Z" fill="#495D4C"/>
<path d="M200.01 172.921C200.902 172.657 201.838 172.576 202.762 172.683C203.694 172.603 204.631 172.719 205.515 173.023C204.618 173.282 203.68 173.361 202.753 173.257C201.825 173.334 200.891 173.219 200.01 172.921Z" fill="#495D4C"/>
<path d="M189.017 173.166C189 173.008 190.214 172.77 191.742 172.625C192.664 172.476 193.609 172.534 194.505 172.797C194.513 172.975 193.279 173.087 191.778 173.198C190.866 173.381 189.925 173.37 189.017 173.166Z" fill="#495D4C"/>
<path d="M178.415 176.029C178.357 175.885 179.448 175.276 180.901 174.782C182.353 174.289 183.549 174.089 183.63 174.255C183.712 174.422 182.502 174.87 181.082 175.344C179.662 175.818 178.501 176.139 178.415 176.029Z" fill="#495D4C"/>
<path d="M168.843 181.399C169.399 180.646 170.123 180.031 170.956 179.604C172.245 178.777 173.394 178.288 173.475 178.432C172.838 179.105 172.091 179.665 171.267 180.089C170.044 180.924 168.943 181.528 168.843 181.399Z" fill="#495D4C"/>
<path d="M160.807 188.874C161.164 188.009 161.723 187.243 162.437 186.639C163.012 185.897 163.754 185.302 164.603 184.903C164.147 185.71 163.554 186.431 162.849 187.033C162.281 187.761 161.589 188.384 160.807 188.874Z" fill="#495D4C"/>
<path d="M154.79 198.06C155.242 196.249 156.181 194.595 157.506 193.28C157.26 194.172 156.856 195.012 156.313 195.761C155.944 196.611 155.429 197.389 154.79 198.06Z" fill="#495D4C"/>
<path d="M151.372 208.486C151.3 207.556 151.422 206.622 151.731 205.743C151.834 204.808 152.179 203.917 152.732 203.157C152.722 204.083 152.572 205.002 152.288 205.883C152.166 206.805 151.854 207.691 151.372 208.486Z" fill="#495D4C"/>
<path d="M150.812 219.443C150.464 218.573 150.325 217.634 150.406 216.702C150.296 215.77 150.413 214.826 150.746 213.949C150.982 214.845 151.059 215.775 150.975 216.698C151.088 217.615 151.033 218.545 150.812 219.443Z" fill="#495D4C"/>
<path d="M152.944 230.221C152.804 230.27 152.302 229.149 151.869 227.644C151.547 226.763 151.431 225.821 151.528 224.888C151.695 224.853 152.04 226.037 152.426 227.496C152.812 228.954 153.097 230.167 152.944 230.221Z" fill="#495D4C"/>
<path d="M157.544 240.188C156.833 239.576 156.276 238.805 155.919 237.937C155.199 236.596 154.817 235.417 154.946 235.34C155.572 236.026 156.074 236.815 156.428 237.673C157.153 239.005 157.678 240.102 157.544 240.188Z" fill="#495D4C"/>
<path d="M164.42 248.747C163.577 248.335 162.846 247.725 162.289 246.97C161.584 246.35 161.043 245.565 160.715 244.686C161.479 245.203 162.153 245.843 162.708 246.581C163.39 247.208 163.968 247.939 164.42 248.747Z" fill="#495D4C"/>
<path d="M168.762 252.455C168.698 252.586 168.559 252.658 168.517 252.626C168.475 252.594 168.514 252.463 168.648 252.354C168.782 252.244 168.85 252.15 168.893 252.182C168.935 252.214 168.88 252.28 168.762 252.455Z" fill="#495D4C"/>
<path d="M173.427 224.343L164.773 216.025L159.599 221.409L168.253 229.726L173.427 224.343Z" fill="#43AF55"/>
<path d="M173.449 224.37C171.064 224.409 168.68 224.268 166.316 223.948L166.106 223.928L166.065 223.723L165.995 223.412C165.408 220.991 165.01 218.529 164.805 216.047C165.572 218.417 166.158 220.842 166.558 223.301L166.619 223.608L166.368 223.383C168.751 223.521 171.119 223.851 173.449 224.37Z" fill="#2A9348"/>
<path d="M165.835 221.366C164.821 221.662 163.762 221.768 162.71 221.68C161.658 221.771 160.598 221.68 159.576 221.411C160.594 221.121 161.656 221.017 162.711 221.101C163.759 221.011 164.816 221.1 165.835 221.366Z" fill="#2A9348"/>
<path d="M168.383 229.871C168.149 228.886 168.09 227.867 168.211 226.861C168.264 225.162 168.429 223.761 168.608 223.87C168.844 224.857 168.905 225.877 168.79 226.885C168.842 227.897 168.704 228.91 168.383 229.871Z" fill="#2A9348"/>
<path d="M203.278 269.544L181.023 248.154L167.713 262.003L189.967 283.393L203.278 269.544Z" fill="#5CCD6A"/>
<path d="M203.263 269.544C202.783 269.579 202.3 269.568 201.822 269.51L197.913 269.216C194.583 268.922 190.044 268.52 184.947 268.025L184.737 268.005L184.697 267.8L184.535 267.005C183.49 261.816 182.56 257.11 181.924 253.692L181.195 249.65C181.086 249.156 181.022 248.652 181.004 248.146C181.204 248.622 181.353 249.117 181.451 249.623L182.357 253.634C183.099 257.023 184.081 261.718 185.135 266.912L185.301 267.698L185.051 267.473C190.133 267.973 194.702 268.458 197.991 268.837L201.884 269.309C202.35 269.346 202.811 269.425 203.263 269.544Z" fill="#43AF55"/>
<path d="M183.792 261.906C181.12 262.201 178.43 262.311 175.743 262.234C173.059 262.34 170.371 262.262 167.698 261.999C170.368 261.688 173.057 261.574 175.743 261.656C178.429 261.542 181.119 261.626 183.792 261.906Z" fill="#43AF55"/>
<path d="M190.238 283.135C190.09 280.671 190.117 278.196 190.317 275.728C190.348 273.254 190.558 270.781 190.945 268.33C191.101 270.797 191.073 273.275 190.862 275.745C190.834 278.217 190.625 280.687 190.238 283.135Z" fill="#43AF55"/>
<path d="M180.552 252.909C179.663 253.075 178.743 252.974 177.911 252.618C177.079 252.261 176.371 251.667 175.877 250.908C175.382 250.15 175.124 249.262 175.134 248.357C175.144 247.452 175.423 246.57 175.934 245.823C176.445 245.076 177.166 244.497 178.007 244.16C178.847 243.823 179.768 243.742 180.654 243.929C181.54 244.115 182.35 244.56 182.984 245.207C183.617 245.853 184.044 246.674 184.211 247.563C184.322 248.155 184.315 248.762 184.192 249.351C184.068 249.939 183.829 250.498 183.49 250.994C183.15 251.491 182.715 251.915 182.212 252.244C181.708 252.572 181.144 252.798 180.552 252.909Z" fill="#495D4C"/>
<path d="M182.635 248.888C181.45 249.117 180.247 249.243 179.04 249.265L178.206 249.315L178.052 249.322L178.041 249.178C177.936 248.258 177.917 247.331 177.984 246.408C178.195 247.311 178.314 248.233 178.339 249.159L178.188 249.017L179.026 248.957C180.225 248.829 181.433 248.806 182.635 248.888Z" fill="white"/>
<path d="M196.97 239.216L185.309 228.008L178.335 235.263L189.996 246.471L196.97 239.216Z" fill="#43AF55"/>
<path d="M196.951 239.213C196.699 239.229 196.446 239.224 196.195 239.197L194.141 239.042C192.417 238.896 190.022 238.68 187.359 238.418L187.265 238.373L187.24 238.257L187.159 237.848C186.604 235.128 186.17 232.686 185.783 230.868L185.401 228.752C185.346 228.493 185.314 228.229 185.305 227.965C185.405 228.209 185.477 228.465 185.517 228.726L185.997 230.832C186.383 232.603 186.902 235.062 187.456 237.782L187.533 238.201L187.382 238.129C190.045 238.391 192.437 238.639 194.166 238.845L196.198 239.094C196.453 239.103 196.706 239.143 196.951 239.213Z" fill="#2A9348"/>
<path d="M186.75 235.21C185.351 235.361 183.943 235.419 182.536 235.382C181.128 235.44 179.717 235.399 178.313 235.26C179.713 235.099 181.123 235.039 182.532 235.079C183.939 235.021 185.349 235.065 186.75 235.21Z" fill="#2A9348"/>
<path d="M190.187 246.665C190.089 245.317 190.09 243.964 190.191 242.616C190.198 241.263 190.299 239.912 190.492 238.572C190.597 241.274 190.495 243.979 190.187 246.665Z" fill="#2A9348"/>
<path d="M137.603 77.8663C134.84 81.1682 131.161 83.5769 127.029 84.788C122.898 85.9991 118.5 85.9583 114.392 84.6707C110.284 83.3831 106.649 80.9065 103.948 77.5539C101.247 74.2013 99.6008 70.1233 99.2169 65.8352C98.833 61.5471 99.7289 57.2414 101.791 53.4623C103.854 49.6833 106.991 46.6005 110.805 44.6036C114.619 42.6067 118.939 41.7853 123.22 42.2433C127.501 42.7013 131.55 44.4181 134.855 47.1766C137.051 49.0111 138.864 51.2601 140.191 53.7954C141.517 56.3306 142.332 59.1024 142.587 61.9523C142.842 64.8022 142.533 67.6745 141.678 70.4051C140.823 73.1356 139.438 75.671 137.603 77.8663Z" fill="#5CCD6A"/>
<path d="M133.295 56.7471C133.575 57.0553 128.189 62.5531 121.255 69.0309C120.238 69.9653 119.273 70.8663 118.316 71.7486L117.797 72.2276L117.275 71.6992C112.093 66.1866 108.413 61.9288 108.666 61.6917C108.918 61.4546 113.017 65.3002 118.31 70.7039L117.302 70.6821C118.24 69.7908 119.21 68.8804 120.207 67.9369C127.169 61.4727 133.02 56.4529 133.295 56.7471Z" fill="white"/>
</g>
<defs>
<clipPath id="clip0_48_1555">
<rect width="317.451" height="292.538" fill="white" transform="translate(127.457 0.00390625) rotate(25.6848)"/>
</clipPath>
</defs>
</svg>
