<svg width="551" height="340" viewBox="0 0 551 340" fill="none" xmlns="http://www.w3.org/2000/svg">
<g opacity="0.5">
<path d="M398.694 326.866C399.2 321.057 398.132 315.22 395.601 309.965C393.069 304.71 389.168 300.232 384.306 297C379.444 293.768 373.8 291.901 367.967 291.596C362.134 291.291 356.325 292.558 351.151 295.264C348.651 288.591 346.085 281.801 341.664 276.218C337.243 270.636 330.558 266.354 323.426 266.617V326.866H398.694Z" fill="#D0FFD4"/>
<path d="M283.816 181.871H127.886L98.7532 140.575L68.2119 183.04L32.3283 182.462L71.0016 130.461L244.867 131.183L283.816 181.871Z" fill="#E0E0E0"/>
<path d="M205.84 182.463V327.222H50.1336V182.463H67.9767L98.7548 140.576L127.98 181.833L205.84 182.463Z" fill="#F5F5F5"/>
<path d="M147.417 264.463H183.84V327.221H147.417V264.463Z" fill="#E0E0E0"/>
<path d="M68.2142 262.689H125.586V298.167H68.2142V262.689Z" fill="#E0E0E0"/>
<path d="M108.36 262.689H109.676V298.495H108.36V262.689Z" fill="#EBEBEB"/>
<path d="M84.5044 262.689H85.8203V298.495H84.5044V262.689Z" fill="#EBEBEB"/>
<path d="M85.1629 281.014H109.02V282.327H85.1629V281.014Z" fill="#EBEBEB"/>
<path d="M68.2142 191.697H125.586V227.174H68.2142V191.697Z" fill="#E0E0E0"/>
<path d="M108.36 191.684H109.676V227.489H108.36V191.684Z" fill="#EBEBEB"/>
<path d="M84.5044 191.684H85.8203V227.489H84.5044V191.684Z" fill="#EBEBEB"/>
<path d="M85.1629 210.02H109.02V211.333H85.1629V210.02Z" fill="#EBEBEB"/>
<path d="M151.22 192.012H187.406V226.215H151.22V192.012Z" fill="#E0E0E0"/>
<path d="M205.826 182.463H269.027V327.208H205.826V182.463Z" fill="#E0E0E0"/>
<path d="M168.653 192.012H169.969V226.215H168.653V192.012Z" fill="#EBEBEB"/>
<path d="M151.22 209.297H187.406V210.61H151.22V209.297Z" fill="#EBEBEB"/>
<path d="M98.8324 175.868C94.5956 175.868 91.1609 172.439 91.1609 168.21C91.1609 163.981 94.5956 160.553 98.8324 160.553C103.069 160.553 106.504 163.981 106.504 168.21C106.504 172.439 103.069 175.868 98.8324 175.868Z" fill="#E0E0E0"/>
<path d="M153.56 158.82L143.875 146.894V118.221H164.152V159.044L153.56 158.82Z" fill="#F5F5F5"/>
<path d="M153.562 158.82V118.221H143.878V146.894L153.562 158.82Z" fill="#EBEBEB"/>
<path d="M142.522 114.004H166.418V118.22H142.522V114.004Z" fill="#EBEBEB"/>
<path d="M205.84 245.785H323.426V327.221H205.84V245.785Z" fill="#F5F5F5"/>
<path d="M249.803 245.785H323.426V327.221H249.803V245.785Z" fill="#E0E0E0"/>
<path d="M260.763 272.041H308.91V327.076H260.763V272.041Z" fill="#F5F5F5"/>
<path d="M212.313 271.818H243.328V279.699H212.313V271.818Z" fill="#EBEBEB"/>
<path d="M283.816 181.871V186.061H127.979V181.832L283.816 181.871Z" fill="#EBEBEB"/>
<path d="M127.98 186.062L98.8341 145.226L98.7551 140.576L127.888 181.872L127.98 186.062Z" fill="#EBEBEB"/>
<path d="M33.0798 182.463H67.9766V185.169H33.0798V182.463Z" fill="#EBEBEB"/>
<path d="M159.836 254.836H172.719V259.722H159.836V254.836Z" fill="#E0E0E0"/>
<path d="M526.648 64.5366C514.738 48.2585 497.438 40.6699 479.374 40.6699C479.374 40.6699 435.148 40.6699 422.05 80.0398C417.213 94.549 418.288 110.303 424.146 124.433C426.346 129.805 429.117 134.927 432.412 139.712C443.833 156.102 479.374 200.907 479.374 200.907H487.103C497.002 187.205 521.999 141.673 529.48 127.094C538.875 108.775 540.315 83.2356 526.648 64.5366ZM486.753 137.366C479.28 137.367 471.975 135.164 465.761 131.037C459.546 126.909 454.703 121.041 451.843 114.176C448.982 107.311 448.234 99.757 449.691 92.4689C451.149 85.1807 454.748 78.4861 460.032 73.2317C465.316 67.9772 472.049 64.399 479.378 62.9496C486.708 61.5001 494.305 62.2446 501.209 65.0888C508.113 67.9329 514.014 72.7491 518.165 78.928C522.316 85.107 524.531 92.3713 524.53 99.8022C524.529 109.764 520.548 119.318 513.464 126.362C506.38 133.406 496.772 137.364 486.753 137.366Z" fill="#71D281"/>
<path d="M534.425 64.8472C522.52 48.5691 505.215 40.9805 487.151 40.9805C487.151 40.9805 442.925 40.9805 429.827 80.3504C424.99 94.8595 426.065 110.614 431.929 124.744C434.125 130.116 436.894 135.238 440.189 140.022C451.61 156.423 487.151 201.212 487.151 201.212C487.151 201.212 528.217 145.041 537.257 127.405C546.652 109.075 548.097 83.5461 534.425 64.8472ZM486.791 137.676C479.318 137.676 472.014 135.473 465.8 131.345C459.587 127.217 454.744 121.349 451.885 114.484C449.025 107.62 448.277 100.066 449.735 92.7781C451.193 85.4904 454.791 78.7963 460.075 73.5422C465.359 68.2881 472.091 64.71 479.42 63.2604C486.749 61.8108 494.346 62.5548 501.25 65.3983C508.154 68.2418 514.054 73.0571 518.206 79.2353C522.358 85.4134 524.573 92.677 524.573 100.107C524.611 105.051 523.659 109.953 521.773 114.528C519.888 119.103 517.106 123.259 513.59 126.755C510.074 130.251 505.894 133.017 501.294 134.892C496.693 136.767 491.763 137.713 486.791 137.676Z" fill="#8EEE9E"/>
<path d="M486.756 62.2324C478.948 62.2324 471.332 64.6375 464.955 69.1171C458.578 73.5967 453.753 79.9307 451.145 87.2481C454.062 80.8432 459.009 75.5645 465.228 72.2188C471.448 68.8731 478.598 67.6445 485.586 68.7207C492.574 69.7969 499.015 73.1188 503.925 78.1786C508.835 83.2384 511.944 89.7577 512.776 96.7401C513.609 103.723 512.119 110.784 508.534 116.845C504.95 122.906 499.468 127.633 492.927 130.304C486.385 132.975 479.145 133.442 472.311 131.635C465.477 129.828 459.427 125.845 455.084 120.296C458.656 125.749 463.591 130.186 469.406 133.172C475.221 136.158 481.716 137.591 488.256 137.329C494.795 137.068 501.154 135.122 506.709 131.682C512.265 128.242 516.826 123.426 519.947 117.705C523.067 111.985 524.639 105.556 524.509 99.0501C524.379 92.5437 522.551 86.1825 519.205 80.5898C515.859 74.9971 511.109 70.3647 505.42 67.1467C499.732 63.9286 493.3 62.2352 486.756 62.2324Z" fill="#71D281"/>
</g>
</svg>
