<svg width="374" height="402" viewBox="0 0 374 402" fill="none" xmlns="http://www.w3.org/2000/svg">
<g opacity="0.5" clip-path="url(#clip0_48_1670)">
<path d="M299.143 85.0848L348.623 96.1649C350.756 96.6401 352.772 97.5354 354.554 98.7984C356.336 100.061 357.849 101.667 359.003 103.521C360.157 105.374 360.929 107.439 361.275 109.595C361.62 111.75 361.532 113.952 361.016 116.073L342.512 192.046C341.532 196.054 339.079 199.547 335.64 201.829C332.2 204.112 328.027 205.018 323.948 204.367C322.58 204.146 321.18 204.455 320.032 205.23C318.884 206.005 318.076 207.188 317.772 208.539L281.127 369.71C279.929 374.987 276.689 379.575 272.116 382.471C267.543 385.368 262.007 386.338 256.718 385.17L67.607 343.319C66.9024 343.164 66.2356 342.871 65.6451 342.456C65.0546 342.042 64.5523 341.515 64.1671 340.905C63.7819 340.295 63.5216 339.615 63.4011 338.905C63.2807 338.194 63.3026 337.466 63.4655 336.764L129.389 57.6568C129.713 56.2874 130.553 55.0959 131.735 54.3311C132.917 53.5662 134.349 53.287 135.733 53.5517L299.143 85.0848Z" fill="#5CCD6A"/>
<g opacity="0.3">
<path d="M64.7223 331.46L63.4699 336.744L269.693 372.18L340.052 94.2175C340.052 94.2175 289.246 88.5327 288.32 88.2847C287.394 88.0367 64.7223 331.46 64.7223 331.46Z" fill="black"/>
</g>
<path d="M277.644 63.391L337.003 75.4843L266.125 364.133L54.9628 329.879L101.199 36.2393L277.644 63.391Z" fill="#EBEBEB"/>
<path d="M277.648 63.3906L274.498 62.9387L265.336 61.5728L230.181 56.2264L101.171 36.4374L101.401 36.2703C89.0412 114.947 72.9707 217.156 55.2331 329.939L55.0109 329.629L102.339 337.312L266.204 363.892L265.912 364.086C296.917 237.878 322.391 134.344 336.885 75.4512L336.984 75.6086L292.824 66.5204L281.461 64.1727C278.921 63.6445 277.635 63.3546 277.635 63.3546C277.635 63.3546 278.934 63.5937 281.48 64.1016L292.859 66.3883L337.047 75.3315L337.18 75.3669L337.144 75.499C322.693 134.436 297.321 237.997 266.337 364.167L266.275 364.401L266.041 364.338L102.253 337.834L54.9257 330.151L54.6612 330.08L54.732 329.816C72.5075 217.053 88.6187 114.855 101.032 36.1824L101.084 35.9893L101.277 36.0411L230.246 55.9825L265.381 61.4434L274.535 62.8832C276.582 63.2576 277.648 63.3906 277.648 63.3906Z" fill="#495E4C"/>
<path d="M93.542 23.9725L43.9689 320.301L264.69 357.738L310.994 60.7506L93.542 23.9725Z" fill="white"/>
<path d="M93.531 24.0125L311.037 60.5108L311.25 60.568L311.193 60.7814C298.206 144.158 282.207 246.876 264.942 357.772L264.871 358.036L264.607 357.965L263.04 357.709L43.9237 320.55L43.6898 320.487L43.7524 320.254C73.2131 144.84 93.1899 26.0993 93.531 24.0125C93.1708 26.1705 73.39 144.952 44.1972 320.384L44.0001 320.102L263.166 357.241L264.729 357.508L264.409 357.727C281.733 246.771 297.758 144.082 310.775 60.713L310.957 60.9688L93.531 24.0125Z" fill="#495E4C"/>
<path d="M200.868 301.691C202.562 295.424 206.079 289.801 210.973 285.533C215.867 281.264 221.919 278.542 228.364 277.711C234.808 276.881 241.355 277.978 247.177 280.865C252.999 283.752 257.834 288.298 261.071 293.929C264.308 299.561 265.802 306.024 265.362 312.501C264.923 318.979 262.571 325.18 258.604 330.32C254.636 335.46 249.232 339.308 243.074 341.378C236.916 343.448 230.281 343.646 224.008 341.948C215.603 339.664 208.447 334.143 204.109 326.596C199.771 319.049 198.605 310.093 200.868 301.691ZM263.711 318.683C265.377 312.531 265.179 306.022 263.142 299.981C261.106 293.94 257.322 288.636 252.27 284.742C247.217 280.848 241.123 278.538 234.759 278.103C228.394 277.669 222.044 279.13 216.512 282.302C210.98 285.474 206.515 290.215 203.681 295.924C200.847 301.633 199.772 308.054 200.591 314.376C201.411 320.697 204.088 326.635 208.284 331.438C212.48 336.241 218.007 339.694 224.166 341.359C232.422 343.583 241.222 342.444 248.636 338.193C256.049 333.942 261.471 326.925 263.711 318.683Z" fill="#E0E0E0"/>
<path d="M204.517 302.67C205.996 297.206 209.064 292.303 213.333 288.582C217.601 284.861 222.879 282.489 228.498 281.765C234.118 281.042 239.827 281.999 244.903 284.517C249.98 287.034 254.196 290.999 257.018 295.909C259.841 300.82 261.144 306.455 260.761 312.104C260.379 317.752 258.329 323.159 254.87 327.642C251.411 332.125 246.7 335.482 241.33 337.288C235.961 339.094 230.176 339.269 224.705 337.791C217.372 335.8 211.127 330.983 207.342 324.399C203.557 317.814 202.541 310 204.517 302.67ZM255.76 316.531C257.021 311.872 256.871 306.942 255.328 302.366C253.785 297.79 250.919 293.773 247.092 290.824C243.265 287.874 238.649 286.125 233.828 285.796C229.007 285.467 224.198 286.574 220.008 288.977C215.818 291.38 212.436 294.971 210.29 299.296C208.144 303.62 207.33 308.484 207.951 313.272C208.572 318.06 210.6 322.558 213.779 326.195C216.958 329.833 221.145 332.448 225.81 333.708C232.059 335.38 238.715 334.51 244.321 331.288C249.926 328.067 254.025 322.757 255.719 316.52L255.76 316.531Z" fill="#E0E0E0"/>
<path d="M211.175 304.923C212.027 301.744 213.62 298.812 215.822 296.366L218.971 299.181C217.207 301.146 215.931 303.497 215.245 306.046C214.457 308.957 214.46 312.026 215.255 314.936C216.049 317.846 217.605 320.492 219.764 322.602C221.922 324.712 224.604 326.208 227.533 326.938C230.463 327.667 233.533 327.603 236.429 326.752L237.624 330.797C234.006 331.86 230.17 331.94 226.511 331.028C222.851 330.116 219.501 328.245 216.806 325.608C214.111 322.972 212.168 319.665 211.178 316.029C210.188 312.392 210.187 308.559 211.175 304.923Z" fill="#E0E0E0"/>
<path d="M227.06 289.749C231.605 288.75 236.354 289.272 240.574 291.236C244.794 293.2 248.25 296.496 250.411 300.616C252.572 304.737 253.316 309.452 252.529 314.035C251.742 318.618 249.468 322.814 246.057 325.977L243.184 322.866C245.914 320.334 247.735 316.974 248.364 313.306C248.993 309.637 248.397 305.862 246.667 302.565C244.937 299.267 242.169 296.629 238.79 295.058C235.412 293.487 231.61 293.069 227.972 293.871L227.06 289.749Z" fill="#E0E0E0"/>
<path d="M285.973 133.703C285.934 133.845 244.278 126.887 192.877 118.211C141.477 109.536 99.8322 102.33 99.8601 102.185C99.8881 102.04 141.555 109.001 192.968 117.669C244.382 126.337 286.003 133.547 285.973 133.703Z" fill="#495E4C"/>
<path d="M188.092 105.035C188.054 105.177 168.811 102.047 145.085 98.0313C121.359 94.0155 102.151 90.6331 102.169 90.4854C102.187 90.3377 121.45 93.4735 145.176 97.4893C168.902 101.505 188.107 104.898 188.092 105.035Z" fill="#495E4C"/>
<path d="M283.601 145.734C283.563 145.877 241.896 138.916 190.506 130.243C139.115 121.57 97.4604 114.362 97.4883 114.217C97.5163 114.072 139.183 121.033 190.594 129.711C242.004 138.39 283.642 145.539 283.601 145.734Z" fill="#495E4C"/>
<path d="M281.254 157.663C281.213 157.815 239.549 150.845 188.156 142.182C136.763 133.519 95.1109 126.301 95.1415 126.146C95.1722 125.991 136.836 132.961 188.247 141.64C239.658 150.318 281.282 157.518 281.254 157.663Z" fill="#495E4C"/>
<path d="M278.891 169.652C278.853 169.794 237.186 162.834 185.796 154.161C134.405 145.488 92.7506 138.28 92.7704 138.165C92.7901 138.051 134.465 144.981 185.878 153.649C237.292 162.317 278.913 169.527 278.891 169.652Z" fill="#495E4C"/>
<path d="M276.534 181.632C276.495 181.775 234.829 174.814 183.428 166.138C132.028 157.463 90.3933 150.26 90.4111 150.113C90.4288 149.965 132.106 156.928 183.519 165.596C234.932 174.265 276.551 181.485 276.534 181.632Z" fill="#495E4C"/>
<path d="M274.162 193.607C274.121 193.76 232.467 186.792 181.064 178.126C129.661 169.461 88.0187 162.245 88.0595 162.093C88.1003 161.941 129.754 168.909 181.165 177.587C232.575 186.265 274.19 193.462 274.162 193.607Z" fill="#495E4C"/>
<path d="M271.8 205.598C271.762 205.74 230.634 198.924 179.956 190.322C129.277 181.719 88.1304 174.648 88.1583 174.503C88.1863 174.358 129.324 181.177 180.056 189.782C230.789 198.388 271.831 205.442 271.8 205.598Z" fill="#495E4C"/>
<path d="M195.795 209.498C195.757 209.64 170.943 205.453 140.371 200.092C109.799 194.732 84.9962 190.341 85.0241 190.196C85.0521 190.051 109.866 194.238 140.462 199.55C171.058 204.862 195.816 209.34 195.795 209.498Z" fill="#495E4C"/>
<path d="M140.329 298.909C140.29 299.051 125.204 296.479 106.606 293.14C88.008 289.801 72.9616 287 72.982 286.842C73.0025 286.684 88.1062 289.272 106.704 292.611C125.303 295.95 140.359 298.753 140.329 298.909Z" fill="#495E4C"/>
<path d="M109.025 302.555C108.984 302.707 100.503 301.36 90.0805 299.45C79.6577 297.539 71.2017 295.938 71.2194 295.79C71.2372 295.642 79.7375 297.038 90.1712 298.908C100.605 300.778 109.053 302.41 109.025 302.555Z" fill="#495E4C"/>
<path d="M128.953 219.109C128.912 219.261 118.922 217.728 106.591 215.698C94.2593 213.668 84.2888 211.9 84.3195 211.745C84.3501 211.59 94.3527 213.116 106.681 215.156C119.01 217.196 128.981 218.964 128.953 219.109Z" fill="#5CCD6A"/>
<g opacity="0.3">
<path d="M52.6302 270.235L73.4149 271.721L88.9213 258.036L54.6606 259.932L52.6302 270.235Z" fill="black"/>
</g>
<path d="M23.6631 239.679L77.7709 248.829L88.9207 258.036L75.7272 266.71L20.5757 258.118L23.6631 239.679Z" fill="#5CCD6A"/>
<path d="M196.22 235.74L196.386 235.85C196.548 235.959 196.697 236.087 196.83 236.23C197.362 236.789 197.805 237.426 198.144 238.118C199.406 240.8 200.187 243.682 200.453 246.633C201.026 251.294 200.57 256.023 199.117 260.488C198.644 261.835 198.037 263.132 197.305 264.359C196.501 265.641 195.593 266.855 194.589 267.987C192.409 270.455 189.811 272.52 186.914 274.088C183.741 275.836 180.267 276.974 176.673 277.443C172.761 277.969 168.779 277.548 165.063 276.217C160.996 274.651 157.403 272.061 154.632 268.698C151.862 265.336 150.008 261.315 149.252 257.026C148.855 254.732 148.842 252.388 149.214 250.09C149.546 247.72 150.413 245.457 151.75 243.472C153.064 241.372 155.027 239.757 157.343 238.872C158.543 238.46 159.824 238.339 161.08 238.52C162.336 238.701 163.53 239.179 164.565 239.914C166.684 241.384 168.221 243.55 168.91 246.034C169.578 248.524 169.687 251.13 169.23 253.667C168.392 258.835 166.287 263.715 163.102 267.871C159.94 272.052 155.742 275.338 150.921 277.405C146.21 279.361 141.049 279.983 136.006 279.202C131.123 278.512 126.538 276.448 122.784 273.252C119.235 270.123 116.673 266.031 115.408 261.474C114.149 257.162 114.14 252.582 115.382 248.267C115.956 246.182 116.913 244.223 118.206 242.489C119.438 240.791 121.081 239.432 122.982 238.541C123.911 238.108 124.92 237.872 125.945 237.847C126.971 237.822 127.99 238.008 128.94 238.395C130.742 239.212 132.204 240.628 133.078 242.401C133.931 244.079 134.331 245.951 134.24 247.831C134.116 249.596 133.654 251.321 132.878 252.912C131.377 255.84 129.357 258.472 126.916 260.68C124.806 262.708 122.496 264.516 120.019 266.075C117.868 267.428 115.612 268.608 113.274 269.604C111.3 270.415 109.275 271.095 107.212 271.639C104.358 272.404 101.429 272.857 98.477 272.991C97.4504 273.054 96.4213 273.065 95.3935 273.025C95.3935 273.025 95.6621 272.999 96.1783 272.985C96.6945 272.971 97.4657 272.981 98.4737 272.881C101.41 272.699 104.32 272.216 107.156 271.439C109.202 270.874 111.209 270.179 113.165 269.357C115.481 268.353 117.713 267.167 119.84 265.809C122.294 264.281 124.588 262.509 126.686 260.521C129.081 258.327 131.063 255.723 132.54 252.832C133.301 251.273 133.754 249.583 133.874 247.853C133.96 246.048 133.568 244.253 132.74 242.648C131.904 240.968 130.516 239.627 128.808 238.85C127.914 238.491 126.956 238.321 125.993 238.35C125.03 238.378 124.084 238.606 123.214 239.017C121.385 239.881 119.804 241.191 118.617 242.828C117.369 244.509 116.446 246.407 115.896 248.426C114.694 252.665 114.719 257.158 115.967 261.384C117.223 265.834 119.738 269.828 123.209 272.887C126.895 276.001 131.384 278.016 136.162 278.699C141.115 279.459 146.182 278.847 150.809 276.928C155.538 274.885 159.649 271.643 162.738 267.523C165.862 263.434 167.932 258.641 168.767 253.565C169.2 251.105 169.095 248.58 168.461 246.164C167.803 243.806 166.346 241.749 164.34 240.344C163.358 239.661 162.234 239.211 161.052 239.027C159.885 238.871 158.698 238.986 157.583 239.361C155.376 240.205 153.505 241.746 152.254 243.749C150.953 245.668 150.111 247.861 149.795 250.158C149.404 252.388 149.394 254.669 149.765 256.903C150.506 261.106 152.318 265.049 155.027 268.35C157.737 271.651 161.251 274.2 165.232 275.75C168.88 277.061 172.788 277.485 176.632 276.986C180.178 276.53 183.607 275.418 186.745 273.705C190.933 271.443 194.465 268.14 197 264.114C197.728 262.92 198.327 261.653 198.787 260.334C200.268 255.903 200.758 251.201 200.221 246.56C199.98 243.627 199.237 240.758 198.025 238.075C197.701 237.386 197.281 236.746 196.779 236.173C196.442 235.887 196.201 235.768 196.22 235.74Z" fill="#495E4C"/>
<path d="M250.561 97.944C250.561 97.944 250.608 97.7713 250.624 97.427C250.64 97.0828 250.742 96.5767 250.837 95.9378C251.038 94.6193 251.338 92.6849 251.714 90.1827L255.05 68.6191L255.185 68.8077L142.232 50.936L142.542 50.7142C140.94 60.7622 139.403 70.5662 137.875 80.0132L137.653 79.7031L218.205 92.6505L241.921 96.5002L248.313 97.5484L249.971 97.8293L250.54 97.982L249.992 97.9114L248.357 97.6691L242.01 96.6983L218.327 93.0098L137.585 80.2404L137.321 80.1696L137.389 79.9155C138.822 70.4976 140.444 60.6618 142.036 50.6111L142.106 50.3469L142.371 50.4178L255.253 68.4337L255.415 68.4773L255.375 68.6297C253.859 77.9059 252.667 85.243 251.843 90.2716C251.429 92.7528 251.114 94.6614 250.893 95.9744C250.788 96.6107 250.703 97.089 250.644 97.4325C250.585 97.776 250.561 97.944 250.561 97.944Z" fill="#455A64"/>
<path d="M146.568 66.1888C146.883 64.1976 147.56 62.8252 148.597 62.0715C149.634 61.3179 151.149 61.0987 153.14 61.4141C154.846 61.6844 156.095 62.2223 156.885 63.0279C157.677 63.8229 158.066 64.9483 158.052 66.4039L155.776 66.0435C155.688 65.3059 155.401 64.7313 154.915 64.3196C154.44 63.9096 153.739 63.6311 152.812 63.4843C151.6 63.2924 150.675 63.4428 150.035 63.9355C149.397 64.4176 148.979 65.2855 148.78 66.5392C148.582 67.7929 148.711 68.7476 149.169 69.4033C149.627 70.059 150.461 70.4828 151.673 70.6747C152.6 70.8215 153.353 70.7733 153.931 70.5302C154.52 70.2887 154.971 69.8308 155.283 69.1567L157.574 69.5196C157.126 70.9174 156.402 71.8772 155.401 72.3991C154.402 72.9105 153.049 73.031 151.343 72.7607C149.351 72.4453 147.979 71.7689 147.225 70.7316C146.473 69.6837 146.254 68.1695 146.568 66.1888ZM158.567 73.7591L160.444 61.9068L162.53 62.2372L160.653 74.0895L158.567 73.7591ZM163.288 73.6159C162.731 72.8365 162.57 71.704 162.806 70.2186C163.041 68.7331 163.544 67.7058 164.314 67.1366C165.085 66.5675 166.213 66.4006 167.698 66.6358C169.173 66.8694 170.184 67.3751 170.73 68.1528C171.287 68.9322 171.448 70.0646 171.213 71.5501C171.189 71.6976 171.144 71.9172 171.076 72.2088L164.834 71.2202C164.782 72.4324 165.389 73.1386 166.653 73.3388C167.601 73.489 168.279 73.2669 168.686 72.6727L170.835 73.0131C170.463 74.0016 169.901 74.6471 169.152 74.9495C168.402 75.252 167.468 75.3147 166.352 75.1379C164.866 74.9026 163.845 74.3952 163.288 73.6159ZM167.429 68.4399C166.839 68.3464 166.351 68.3933 165.965 68.5806C165.579 68.7678 165.294 69.1331 165.111 69.6765L169.251 70.3323C169.245 69.7589 169.087 69.3235 168.778 69.0261C168.479 68.7304 168.029 68.535 167.429 68.4399ZM174.783 76.4733C173.719 76.3047 172.966 75.9803 172.524 75.4998C172.094 75.0105 171.949 74.3181 172.091 73.4226C172.236 72.506 172.614 71.8962 173.223 71.5932C173.835 71.2796 174.751 71.2196 175.973 71.4132L178.439 71.8036C178.485 71.2386 178.375 70.8107 178.107 70.52C177.852 70.2204 177.409 70.0206 176.777 69.9205C175.755 69.7586 175.097 70.027 174.803 70.7255L172.748 70.4002C173.035 69.4088 173.525 68.7358 174.218 68.3813C174.913 68.0161 175.887 67.9329 177.141 68.1314C178.511 68.3484 179.461 68.7905 179.993 69.4579C180.526 70.1147 180.693 71.07 180.495 72.3237L179.736 77.112L177.65 76.7816L177.773 76.0072C177.076 76.5232 176.079 76.6785 174.783 76.4733ZM174.192 73.6582C174.102 74.2271 174.568 74.5925 175.59 74.7543C176.306 74.8678 176.864 74.8265 177.262 74.6304C177.672 74.4254 177.974 74.0573 178.166 73.5262L178.196 73.3365L176.284 73.0337C174.988 72.8284 174.291 73.0366 174.192 73.6582ZM181.546 77.3987L182.848 69.1811L184.934 69.5115L184.816 70.2542C185.436 69.7477 186.294 69.5812 187.39 69.7547L188.18 69.8799L187.872 71.8236L186.45 71.5984C185.807 71.4966 185.315 71.6023 184.974 71.9154C184.644 72.2302 184.413 72.7985 184.283 73.6203L183.632 77.729L181.546 77.3987ZM192.322 79.1054L194.074 68.0432L200.316 69.0319C201.559 69.2288 202.428 69.6094 202.922 70.1736C203.417 70.7272 203.583 71.5203 203.42 72.5527C203.239 73.6906 202.771 74.4317 202.015 74.7763C202.861 75.364 203.178 76.3268 202.966 77.6648C202.798 78.7288 202.391 79.4581 201.745 79.8527C201.099 80.2472 200.15 80.3452 198.896 80.1466L192.322 79.1054ZM194.881 77.3723L199.226 78.0606C199.753 78.144 200.148 78.104 200.412 77.9405C200.687 77.7682 200.86 77.4608 200.93 77.0183C201.001 76.5758 200.93 76.2353 200.72 75.9968C200.521 75.7494 200.159 75.5839 199.632 75.5005L195.286 74.8122L194.881 77.3723ZM195.594 72.8684L199.545 73.4942C200.093 73.5809 200.503 73.5487 200.775 73.3974C201.058 73.2478 201.233 72.9623 201.299 72.5409C201.364 72.13 201.291 71.8106 201.079 71.5826C200.866 71.3546 200.502 71.1997 199.986 71.1179L195.972 70.4822L195.594 72.8684ZM204.032 80.96L205.333 72.7424L207.419 73.0728L207.302 73.8155C207.922 73.309 208.78 73.1425 209.875 73.316L210.666 73.4412L210.358 75.385L208.935 75.1597C208.293 75.0579 207.801 75.1636 207.46 75.4767C207.129 75.7915 206.899 76.3598 206.768 77.1816L206.118 81.2904L204.032 80.96ZM211.222 81.2078C210.665 80.4284 210.504 79.296 210.739 77.8105C210.975 76.325 211.477 75.2977 212.248 74.7286C213.018 74.1594 214.146 73.9925 215.632 74.2278C217.107 74.4614 218.118 74.9671 218.664 75.7448C219.221 76.5242 219.382 77.6566 219.146 79.1421C219.123 79.2896 219.078 79.5092 219.01 79.8008L212.768 78.8121C212.716 80.0243 213.322 80.7305 214.587 80.9308C215.535 81.081 216.212 80.8589 216.62 80.2646L218.769 80.605C218.396 81.5936 217.835 82.2391 217.085 82.5415C216.335 82.8439 215.402 82.9067 214.285 82.7298C212.8 82.4945 211.779 81.9872 211.222 81.2078ZM215.362 76.0318C214.772 75.9384 214.284 75.9853 213.898 76.1725C213.512 76.3598 213.228 76.7251 213.044 77.2685L217.185 77.9242C217.178 77.3508 217.021 76.9155 216.711 76.6181C216.413 76.3224 215.963 76.127 215.362 76.0318ZM222.717 84.0652C221.653 83.8967 220.9 83.5722 220.457 83.0918C220.027 82.6025 219.883 81.9101 220.025 81.0146C220.17 80.098 220.548 79.4882 221.157 79.1852C221.768 78.8716 222.685 78.8116 223.907 79.0051L226.372 79.3956C226.419 78.8305 226.308 78.4027 226.041 78.112C225.786 77.8124 225.343 77.6126 224.711 77.5124C223.689 77.3506 223.031 77.6189 222.736 78.3175L220.682 77.9921C220.969 77.0008 221.458 76.3278 222.152 75.9732C222.847 75.6081 223.821 75.5248 225.075 75.7234C226.444 75.9403 227.395 76.3825 227.927 77.0498C228.46 77.7067 228.627 78.6619 228.428 79.9156L227.67 84.7039L225.584 84.3735L225.707 83.5992C225.009 84.1151 224.013 84.2705 222.717 84.0652ZM222.126 81.2501C222.036 81.8191 222.502 82.1844 223.524 82.3463C224.24 82.4598 224.797 82.4184 225.196 82.2223C225.606 82.0173 225.907 81.6493 226.1 81.1181L226.13 80.9285L224.217 80.6256C222.922 80.4204 222.224 80.6286 222.126 81.2501ZM233.452 77.196L235.696 77.5515L235.388 79.4952L233.144 79.1398L232.644 82.3004C232.579 82.7113 232.626 83.0266 232.786 83.2463C232.947 83.4554 233.249 83.595 233.691 83.6651L234.845 83.8478L234.537 85.7916L233.32 85.5988C232.182 85.4186 231.391 85.0611 230.947 84.5263C230.502 83.9916 230.359 83.2237 230.518 82.2229L231.058 78.8094L229.857 78.6192L230.165 76.6754L231.366 76.8657L231.649 75.0799L233.735 75.4103L233.452 77.196ZM238.017 86.3427L235.931 86.0123L237.808 74.1601L239.894 74.4905L239.188 78.9469C239.838 78.391 240.774 78.2099 241.996 78.4034C243.155 78.587 243.95 79.0207 244.382 79.7047C244.826 80.3797 244.945 81.3652 244.74 82.6611L244.006 87.2913L241.92 86.961L242.654 82.3307C242.752 81.7091 242.671 81.2319 242.411 80.899C242.161 80.5678 241.714 80.3514 241.072 80.2496C240.355 80.1361 239.805 80.2379 239.42 80.5549C239.047 80.863 238.796 81.4227 238.668 82.2339L238.017 86.3427Z" fill="#78C081"/>
</g>
<defs>
<clipPath id="clip0_48_1670">
<rect width="295.655" height="336.177" fill="white" transform="translate(87.707 0.669922) rotate(15)"/>
</clipPath>
</defs>
</svg>
