<svg width="403" height="364" viewBox="0 0 403 364" fill="none" xmlns="http://www.w3.org/2000/svg">
<g opacity="0.5" clip-path="url(#clip0_48_1703)">
<path d="M21.8428 91.6314C23.0169 90.7103 24.3107 89.9526 25.6888 89.379L26.038 85.2795L32.8153 84.345L34.2741 88.2078C35.7547 88.3918 37.2045 88.7697 38.5862 89.3315L41.749 86.6755L47.1981 90.7998L45.4959 94.5542C46.4109 95.7301 47.1663 97.0217 47.7421 98.3955L51.8476 98.7512L52.7815 105.52L48.9126 106.97C48.7332 108.452 48.3547 109.903 47.7871 111.284L50.4449 114.434L46.3413 119.907L42.5455 118.163C41.3713 119.084 40.0775 119.842 38.6995 120.416L38.3422 124.516L31.573 125.45L30.1142 121.587C28.6331 121.405 27.1829 121.028 25.802 120.463L22.6892 123.13L17.2402 119.006L18.9424 115.252C18.0248 114.076 17.2668 112.785 16.6881 111.411L12.5358 111.076L11.6165 104.29L15.4853 102.84C15.6647 101.358 16.0433 99.9068 16.6108 98.5254L13.945 95.3763L18.0751 89.9251L21.8428 91.6314ZM26.5484 100.228C25.6732 101.382 25.1605 102.77 25.0751 104.216C24.9896 105.661 25.3352 107.099 26.0682 108.348C26.8012 109.597 27.8887 110.601 29.1931 111.233C30.4975 111.865 31.9602 112.096 33.3964 111.897C34.8326 111.699 36.1776 111.079 37.2615 110.117C38.3454 109.155 39.1194 107.894 39.4857 106.493C39.8519 105.092 39.794 103.614 39.3192 102.246C38.8445 100.878 37.9741 99.6814 36.8183 98.8076C35.2675 97.6378 33.3152 97.1303 31.3898 97.3966C29.4645 97.6628 27.7233 98.681 26.5484 100.228Z" fill="#B4FFCD"/>
<path d="M347.959 204.339C349.136 203.424 350.43 202.669 351.806 202.095L352.155 197.995L358.932 197.061L360.391 200.923C361.872 201.104 363.323 201.482 364.703 202.047L367.865 199.383L373.314 203.507L371.605 207.271C372.527 208.443 373.285 209.735 373.859 211.111L377.965 211.467L378.898 218.227L375.03 219.685C374.846 221.164 374.467 222.612 373.903 223.992L376.562 227.15L372.431 232.593L368.699 230.916C367.522 231.833 366.228 232.59 364.853 233.168L364.495 237.269L357.718 238.203L356.267 234.34C354.786 234.162 353.335 233.784 351.955 233.216L348.793 235.88L343.336 231.756L345.046 227.993C344.124 226.821 343.365 225.529 342.791 224.153L338.686 223.797L337.745 217.037L341.613 215.579C341.796 214.1 342.175 212.652 342.739 211.272L340.08 208.114L344.211 202.671L347.97 204.37L347.959 204.339ZM352.665 212.935C351.787 214.09 351.272 215.479 351.185 216.926C351.098 218.374 351.442 219.814 352.175 221.065C352.908 222.317 353.996 223.323 355.301 223.957C356.607 224.59 358.071 224.823 359.509 224.625C360.947 224.428 362.294 223.808 363.38 222.846C364.466 221.884 365.242 220.621 365.61 219.219C365.977 217.816 365.92 216.336 365.446 214.966C364.971 213.596 364.1 212.398 362.943 211.522C361.393 210.349 359.439 209.839 357.512 210.104C355.584 210.369 353.841 211.387 352.665 212.935Z" fill="#B4FFCD"/>
<path d="M27.249 54.4052C27.7992 53.9683 28.4073 53.6096 29.0559 53.3393L29.2151 51.4212L32.3636 50.9941L33.0467 52.7878C33.7325 52.8703 34.4041 53.0441 35.0436 53.3045L36.5484 52.0655L39.0836 53.9838L38.2588 55.7568C38.6869 56.3039 39.0398 56.9059 39.3078 57.5466L41.2203 57.7059L41.6552 60.8494L39.859 61.5322C39.7723 62.22 39.5958 62.8935 39.3338 63.5355L40.5741 65.038L38.6486 67.5302L36.9413 66.7327C36.3776 67.1689 35.7552 67.5237 35.0925 67.7865L34.9244 69.6974L31.8017 70.1381L31.1267 68.3436C30.4377 68.2586 29.7632 68.0824 29.1209 67.8196L27.6161 69.0587L25.0898 67.1476L25.8993 65.3842C25.4731 64.8388 25.1207 64.2398 24.851 63.6025L22.9377 63.4351L22.5029 60.2916L24.3079 59.6161C24.3904 58.9287 24.5643 58.2552 24.825 57.6136L23.5968 56.1506L25.5425 53.6157L27.249 54.4052ZM29.438 58.4066C29.0369 58.9452 28.8041 59.5901 28.7688 60.2603C28.7335 60.9305 28.8972 61.5962 29.2394 62.1736C29.5816 62.7511 30.087 63.2147 30.6922 63.5062C31.2975 63.7977 31.9755 63.9041 32.6411 63.8121C33.3068 63.72 33.9304 63.4336 34.4337 62.9888C34.937 62.544 35.2976 61.9606 35.4701 61.312C35.6426 60.6633 35.6193 59.9782 35.4033 59.3428C35.1873 58.7073 34.7881 58.1498 34.2558 57.7403C33.8978 57.4669 33.489 57.267 33.0531 57.1524C32.6172 57.0377 32.1629 57.0105 31.7164 57.0723C31.2698 57.1341 30.84 57.2837 30.4517 57.5125C30.0634 57.7412 29.7243 58.0446 29.4541 58.405L29.438 58.4066Z" fill="#B4FFCD"/>
<path d="M76.148 335.893L68.0822 340.159C68.0822 340.159 71.6693 346.923 64.6935 350.772C63.3683 351.542 61.8359 351.881 60.3093 351.741C58.7826 351.602 57.3375 350.991 56.1747 349.993C55.1873 349.164 54.4104 348.114 53.9075 346.928C53.4046 345.741 53.1901 344.453 53.2815 343.168C53.4575 340.191 55.3668 336.554 61.313 334.629L51.689 316.442L43.7167 320.666L49.3413 331.3C49.3413 331.3 39.6849 340.114 46.2249 352.422C52.4759 364.198 64.4982 361.327 69.0301 358.933C72.489 357.126 83.837 350.013 76.148 335.893Z" fill="#EBEBEB"/>
<path d="M41.632 316.963L49.7266 312.676L45.7209 305.129L37.6263 309.416L41.632 316.963Z" fill="#EBEBEB"/>
<path d="M348.956 95.6464L357.055 98.0925C357.055 98.0925 359.146 91.2995 366.252 93.3403C367.629 93.7108 368.856 94.5 369.763 95.5984C370.67 96.6968 371.213 98.05 371.315 99.4703C371.414 100.665 371.228 101.867 370.772 102.976C370.317 104.085 369.604 105.071 368.694 105.853C366.621 107.685 362.977 108.86 357.812 106.195L352.195 124.444L360.213 126.898L363.497 116.206C363.497 116.206 375.631 116.755 379.414 104.38C383.056 92.5465 373.277 86.5443 368.723 85.1195C365.301 84.1104 353.188 81.3158 348.956 95.6464Z" fill="#EBEBEB"/>
<path d="M359.173 130.738L351.043 128.246L348.71 135.833L356.84 138.325L359.173 130.738Z" fill="#EBEBEB"/>
<path d="M324.275 16.1324L317.454 43.7928C317.183 44.8855 317.323 46.0392 317.847 47.0356C318.371 48.0321 319.242 48.8024 320.295 49.2008C321.402 49.6234 322.629 49.6043 323.722 49.1474C324.815 48.6905 325.689 47.8309 326.165 46.7471L337.76 20.4407C337.967 19.9713 338.071 19.4634 338.066 18.9508C338.061 18.4382 337.947 17.9325 337.731 17.4673C337.515 17.0021 337.203 16.5881 336.815 16.2526C336.427 15.9172 335.972 15.668 335.48 15.5216L328.827 13.5333C328.357 13.3932 327.864 13.3498 327.377 13.4058C326.89 13.4617 326.419 13.6159 325.994 13.8589C325.568 14.102 325.196 14.4288 324.901 14.8196C324.605 15.2104 324.392 15.657 324.275 16.1324Z" fill="#E0E0E0"/>
<path d="M322.691 66.7172C321.887 67.8305 320.77 68.6807 319.482 69.1601C318.193 69.6396 316.792 69.7268 315.454 69.4107C314.117 69.0946 312.903 68.3895 311.967 67.3844C311.031 66.3793 310.414 65.1195 310.195 63.7642C309.976 62.409 310.164 61.0192 310.736 59.7706C311.308 58.522 312.237 57.4707 313.407 56.7497C314.577 56.0286 315.935 55.6702 317.309 55.7198C318.682 55.7694 320.011 56.2247 321.125 57.0281C321.866 57.5608 322.494 58.2342 322.973 59.0097C323.453 59.7853 323.775 60.6477 323.92 61.5477C324.066 62.4476 324.032 63.3675 323.821 64.2545C323.61 65.1416 323.226 65.9784 322.691 66.7172Z" fill="#E0E0E0"/>
<path d="M338.521 144.241C343.45 133.594 344.421 121.543 341.26 110.247C341.142 109.796 341 109.355 340.842 108.915C339.643 105.043 338.655 101.897 336.403 98.7396C336.167 98.3322 335.936 97.9731 335.682 97.5432C335.427 97.1132 335.182 96.7799 334.922 96.3749C330.143 89.4677 323.679 83.8908 316.143 80.1702C308.606 76.4496 300.244 74.708 291.845 75.1095C286.339 48.5616 265.125 25.8934 239.009 18.5818C212.892 11.2702 182.959 19.7601 164.496 39.6363C141.484 25.8049 111.492 24.3012 87.2635 35.8005C63.0347 47.2998 45.2272 71.4683 41.4383 98.0223C40.2846 106.145 40.3139 114.621 36.9723 122.107C34.442 127.765 30.1761 132.425 26.6443 137.508C20.9774 145.65 17.1615 154.932 15.4638 164.701C13.7661 174.47 14.2277 184.492 16.8162 194.063C19.4048 203.635 24.0577 212.525 30.449 220.11C36.8403 227.696 44.8154 233.794 53.8155 237.976C42.1289 257.886 49.7845 286.642 69.8277 298.119C81.3338 304.705 95.9575 306.218 105.175 315.739C109.095 319.796 111.644 324.956 115.136 329.381C127.015 344.458 150.501 348.731 166.955 338.859L256.353 306.479C287.785 305.719 317.701 292.821 339.815 270.494C347.876 262.253 354.895 252.613 357.62 241.391C360.346 230.169 358.161 217.371 349.973 209.284C365.509 189.772 359.743 157.259 338.521 144.241Z" fill="#E9E9E9"/>
<path d="M78.9002 270.499C78.6004 268.975 78.5059 267.416 78.6191 265.866L74.9652 263.585L77.2768 256.845L81.5552 257.309C82.4245 256.015 83.4615 254.842 84.639 253.821L83.6551 249.636L90.0695 246.507L92.7631 249.858C94.2896 249.56 95.8488 249.465 97.3999 249.576L99.6824 245.916L106.414 248.224L105.902 252.508C107.193 253.375 108.362 254.411 109.377 255.588L113.566 254.603L116.687 261.021L113.329 263.717C113.642 265.227 113.756 266.772 113.668 268.312L117.322 270.594L115.003 277.331L110.724 276.866C109.86 278.161 108.823 279.332 107.643 280.347L108.624 284.539L102.21 287.669L99.5117 284.306C97.9874 284.61 96.4296 284.709 94.8796 284.599L92.5971 288.259L85.8686 285.943L86.329 281.658C85.0378 280.791 83.869 279.755 82.8541 278.577L78.6729 279.565L75.5518 273.147L78.9056 270.441L78.9002 270.499ZM89.1155 270.168C89.7782 271.527 90.8286 272.657 92.1338 273.417C93.439 274.178 94.9405 274.533 96.4483 274.439C97.9561 274.345 99.4025 273.805 100.605 272.888C101.807 271.971 102.711 270.719 103.202 269.288C103.693 267.858 103.75 266.314 103.365 264.852C102.979 263.391 102.17 262.076 101.038 261.076C99.9061 260.075 98.503 259.434 97.0061 259.232C95.5092 259.03 93.9856 259.277 92.6281 259.941C91.7261 260.382 90.9196 260.996 90.2547 261.748C89.5898 262.501 89.0796 263.377 88.7533 264.327C88.427 265.277 88.2911 266.282 88.3532 267.284C88.4154 268.287 88.6744 269.267 89.1155 270.168Z" fill="white"/>
<path d="M241.691 82.5289C242.355 82.0136 243.085 81.5884 243.861 81.2643L244.053 78.9445L247.876 78.4179L248.695 80.5964C249.527 80.6951 250.343 80.9066 251.118 81.2252L252.899 79.7311L255.97 82.0513L255.008 84.1631C255.527 84.8258 255.955 85.5541 256.282 86.3289L258.597 86.5294L259.123 90.3387L256.949 91.1565C256.843 91.9903 256.629 92.8069 256.312 93.5856L257.808 95.3635L255.484 98.4319L253.369 97.4716C252.705 97.9869 251.975 98.4122 251.2 98.7362L250.999 101.057L247.185 101.583L246.366 99.4041C245.531 99.3044 244.713 99.0932 243.934 98.7761L242.154 100.27L239.082 97.95L240.043 95.8301C239.511 95.174 239.07 94.4497 238.73 93.6764L236.407 93.4767L235.889 89.6666L238.07 88.84C238.169 88.0073 238.384 87.1925 238.708 86.4189L237.222 84.6563L239.546 81.5879L241.691 82.5289ZM244.338 87.3709C243.846 88.0219 243.557 88.8041 243.51 89.6186C243.462 90.4331 243.658 91.2433 244.071 91.9468C244.485 92.6503 245.098 93.2155 245.833 93.571C246.568 93.9265 247.392 94.0562 248.202 93.9439C249.011 93.8316 249.768 93.4822 250.379 92.94C250.989 92.3977 251.425 91.6869 251.631 90.8974C251.837 90.1078 251.804 89.2751 251.537 88.5044C251.269 87.7336 250.779 87.0595 250.127 86.5673C249.694 86.2366 249.199 85.995 248.671 85.8565C248.143 85.7179 247.593 85.6852 247.053 85.7601C246.512 85.8351 245.992 86.0162 245.522 86.2931C245.052 86.57 244.641 86.9371 244.314 87.3733L244.338 87.3709Z" fill="#78C081"/>
<path d="M131.963 307.569C131.739 306.498 131.662 305.401 131.731 304.309L129.176 302.73L130.792 298.014L133.793 298.306C134.401 297.404 135.125 296.586 135.948 295.874L135.26 292.942L139.731 290.754L141.61 293.096C142.677 292.885 143.767 292.819 144.852 292.899L146.434 290.333L151.142 291.953L150.847 294.957C151.75 295.561 152.568 296.283 153.278 297.105L156.2 296.411L158.39 300.888L156.045 302.778C156.245 303.855 156.301 304.954 156.212 306.047L158.765 307.633L157.152 312.342L154.151 312.05C153.546 312.953 152.824 313.772 152.004 314.485L152.695 317.384L148.216 319.569L146.338 317.227C145.287 317.431 144.213 317.492 143.145 317.408L141.563 319.975L136.856 318.354L137.15 315.35C136.247 314.746 135.43 314.024 134.719 313.203L131.815 313.895L129.626 309.418L131.977 307.531L131.963 307.569ZM139.094 307.339C139.558 308.288 140.293 309.078 141.206 309.609C142.119 310.14 143.168 310.387 144.222 310.321C145.276 310.255 146.287 309.877 147.127 309.236C147.967 308.594 148.599 307.718 148.942 306.718C149.285 305.718 149.324 304.639 149.055 303.618C148.785 302.596 148.219 301.677 147.428 300.978C146.636 300.279 145.655 299.83 144.609 299.689C143.563 299.548 142.498 299.721 141.549 300.185C140.277 300.81 139.304 301.914 138.844 303.255C138.384 304.597 138.474 306.065 139.094 307.339Z" fill="#78C081"/>
<path d="M266.627 259.389C267.485 258.72 268.43 258.17 269.435 257.752L269.69 254.751L274.629 254.073L275.722 256.883C276.801 257.014 277.858 257.289 278.864 257.7L281.171 255.764L285.141 258.767L283.899 261.508C284.546 262.369 285.077 263.311 285.48 264.31L288.478 264.572L289.163 269.496L286.349 270.589C286.216 271.666 285.94 272.721 285.53 273.727L287.469 276.03L284.46 279.995L281.716 278.756C280.862 279.4 279.926 279.927 278.934 280.326L278.679 283.327L273.74 284.005L272.646 281.195C271.567 281.064 270.51 280.789 269.504 280.378L267.206 282.314L263.228 279.311L264.477 276.569C263.806 275.715 263.253 274.775 262.832 273.774L259.835 273.519L259.149 268.588L261.971 267.494C262.101 266.416 262.376 265.36 262.79 264.356L260.852 262.053L263.86 258.087L266.596 259.327L266.627 259.389ZM270.058 265.649C269.419 266.491 269.045 267.502 268.982 268.556C268.919 269.61 269.17 270.659 269.704 271.57C270.238 272.482 271.03 273.214 271.981 273.676C272.932 274.137 273.999 274.306 275.046 274.162C276.093 274.018 277.074 273.567 277.865 272.867C278.656 272.166 279.222 271.247 279.49 270.225C279.758 269.204 279.716 268.126 279.371 267.128C279.026 266.13 278.392 265.257 277.55 264.619C276.991 264.195 276.353 263.886 275.674 263.708C274.994 263.53 274.286 263.488 273.591 263.584C272.895 263.679 272.225 263.911 271.619 264.265C271.012 264.62 270.482 265.09 270.058 265.649Z" fill="white"/>
<path d="M85.7987 174.911C85.0806 173.521 84.0595 172.31 82.8104 171.366C81.5613 170.422 80.1162 169.771 78.5814 169.459C75.9453 168.981 72.9515 169.572 70.7771 168.008C69.7459 167.297 69.0599 166.13 68.1272 165.263C66.3563 163.796 64.1185 163.01 61.8177 163.046C54.1884 162.781 47.7924 168.612 45.6509 174.906C42.7745 177.249 39.8456 179.637 37.8093 182.734C35.7731 185.831 34.7187 189.797 35.9295 193.294C36.8282 195.863 38.8329 197.932 39.7469 200.491C40.5756 202.848 40.4305 205.399 40.869 207.843C41.3075 210.287 42.6245 212.887 45.0194 213.559C47.9664 214.38 51.2814 211.944 54.0636 213.237C55.9499 214.114 56.752 216.367 58.3567 217.687C61.1335 219.988 65.3245 218.913 68.609 217.399C72.4073 215.652 75.9954 213.482 79.3046 210.929C81.5291 209.33 83.4416 207.338 84.947 205.051C85.6905 203.904 86.1976 202.621 86.4384 201.277C86.6792 199.932 86.649 198.553 86.3495 197.221C85.9153 195.638 84.97 194.155 84.7083 192.506C84.233 189.611 85.904 186.851 86.6642 184.019C87.5212 180.981 87.2125 177.733 85.7987 174.911Z" fill="white"/>
<path d="M83.3164 207.074L76.461 212.869L76.4538 212.878L84.2472 214.794L83.3164 207.074Z" fill="#F5F5F5"/>
<path d="M57.5149 191.219C57.5744 191.817 57.4549 192.42 57.1714 192.951C56.8879 193.482 56.4532 193.917 55.9222 194.201C55.3912 194.485 54.7878 194.606 54.1883 194.548C53.5887 194.489 53.02 194.255 52.5541 193.874C52.0881 193.492 51.7458 192.982 51.5705 192.406C51.3951 191.831 51.3946 191.216 51.5689 190.64C51.7433 190.065 52.0847 189.553 52.55 189.171C53.0153 188.789 53.5836 188.553 54.183 188.493C54.9868 188.413 55.7894 188.656 56.4143 189.167C57.0391 189.678 57.435 190.416 57.5149 191.219Z" fill="#495E4C"/>
<path d="M66.9372 190.283C66.9986 190.884 66.8802 191.489 66.597 192.022C66.3138 192.555 65.8786 192.993 65.3465 193.279C64.8143 193.565 64.2092 193.687 63.6076 193.63C63.0061 193.572 62.4352 193.338 61.9672 192.956C61.4992 192.574 61.1552 192.062 60.9787 191.485C60.8022 190.908 60.8012 190.292 60.9757 189.714C61.1502 189.136 61.4925 188.623 61.9592 188.239C62.4259 187.856 62.996 187.619 63.5973 187.559C64.4019 187.479 65.2053 187.721 65.8314 188.232C66.4575 188.742 66.8552 189.48 66.9372 190.283Z" fill="#495E4C"/>
<path d="M76.3547 189.346C76.4143 189.944 76.2947 190.547 76.0112 191.078C75.7278 191.609 75.293 192.044 74.762 192.328C74.231 192.612 73.6276 192.733 73.0281 192.675C72.4286 192.616 71.8599 192.382 71.3939 192.001C70.9279 191.619 70.5856 191.109 70.4103 190.533C70.2349 189.958 70.2344 189.343 70.4088 188.767C70.5831 188.191 70.9246 187.68 71.3899 187.298C71.8552 186.916 72.4235 186.68 73.0229 186.62C73.8267 186.54 74.6293 186.783 75.2541 187.294C75.879 187.805 76.2749 188.543 76.3547 189.346Z" fill="#495E4C"/>
<path d="M311.443 100.847C310.648 99.8126 309.162 99.6921 307.853 99.7085C303.121 99.7505 298.412 100.386 293.837 101.599C292.251 102.017 289.866 102.108 289.54 100.465C289.515 99.9731 289.646 99.4851 289.914 99.0715C290.183 98.6578 290.576 98.3396 291.037 98.1623C292.588 97.3901 294.366 97.5059 296.063 97.2964C297.759 97.087 299.63 96.3318 300.16 94.71C300.965 92.248 298.019 90.0453 295.43 89.9534C292.84 89.8614 290.223 90.8047 287.689 90.2845L282.324 90.9321C278.356 91.3944 274.464 92.3608 270.742 93.8079C269.699 94.2124 268.491 94.9098 268.52 96.0206C268.549 97.1315 269.741 97.7445 270.352 98.6511C271.584 100.48 270.133 103.071 268.153 104.032C266.173 104.993 263.862 104.922 261.694 105.301C259.525 105.679 257.183 106.847 256.663 108.988C256.251 110.655 257.123 112.462 256.787 114.162C256.36 116.327 254.15 117.677 252.026 118.262C249.903 118.847 247.609 119.026 245.701 120.143C244.306 120.955 243.226 122.216 242.64 123.72C242.054 125.223 241.995 126.88 242.473 128.421C242.952 129.962 243.939 131.296 245.273 132.204C246.608 133.112 248.212 133.542 249.823 133.423C251.37 133.269 252.851 132.691 254.383 132.457C255.508 132.259 256.667 132.429 257.687 132.941C257.936 134.581 258.679 136.105 259.817 137.312C260.955 138.519 262.434 139.351 264.057 139.697C266.25 140.056 268.503 139.466 270.709 139.71C272.915 139.954 275.33 141.567 275.135 143.774C274.991 145.357 273.564 146.645 273.6 148.227C273.638 150.166 275.865 151.359 277.809 151.345C279.753 151.33 281.612 150.543 283.55 150.465C285.487 150.386 287.761 151.395 288.001 153.314C288.263 155.459 285.883 157.224 286.056 159.369C286.194 161.168 288.043 162.326 289.783 162.803C291.524 163.28 293.444 163.43 294.887 164.514C296.33 165.598 296.806 168.177 295.234 169.065C297.885 168.712 299.057 164.701 297.069 162.972C295.807 161.903 293.857 161.772 292.84 160.466C291.703 159.019 292.344 156.792 293.649 155.508C294.954 154.224 296.707 153.521 298.325 152.604C299.944 151.687 301.477 150.331 301.736 148.509C302.115 145.78 299.309 143.507 296.565 143.178C293.822 142.85 291.108 143.802 288.384 144.236C285.659 144.67 282.485 144.425 280.711 142.308L289.251 137.158C289.668 136.976 290.043 136.712 290.356 136.382C290.668 136.052 290.911 135.663 291.07 135.238C291.417 133.65 289.535 132.569 287.994 132.048L281.894 129.98C281.837 129.626 281.723 129.283 281.557 128.965C284.96 127.163 289.021 127.32 292.869 127.458C296.716 127.595 300.811 127.594 304.073 125.53C307.335 123.466 309.081 118.593 306.553 115.682C305.201 114.118 302.788 113.187 302.526 111.124C302.356 109.417 303.84 107.969 305.398 107.261C306.955 106.553 308.734 106.263 310.151 105.292C311.569 104.322 312.486 102.174 311.443 100.847Z" fill="white"/>
<path d="M270.135 117.745C271.737 117.586 272.907 116.159 272.748 114.559C272.589 112.958 271.161 111.79 269.558 111.95C267.955 112.109 266.785 113.536 266.945 115.136C267.104 116.737 268.532 117.905 270.135 117.745Z" fill="#495E4C"/>
<path d="M281.752 113.662C281.809 114.236 281.695 114.813 281.423 115.321C281.152 115.829 280.735 116.246 280.227 116.518C279.719 116.79 279.141 116.905 278.567 116.85C277.993 116.794 277.448 116.569 277.002 116.204C276.556 115.839 276.228 115.351 276.06 114.8C275.893 114.249 275.892 113.66 276.059 113.109C276.226 112.557 276.553 112.068 276.998 111.702C277.444 111.336 277.988 111.11 278.562 111.053C279.331 110.977 280.1 111.208 280.698 111.698C281.296 112.187 281.675 112.894 281.752 113.662Z" fill="#495E4C"/>
<path d="M288.15 115.953C289.753 115.793 290.923 114.366 290.764 112.766C290.604 111.165 289.176 109.997 287.574 110.157C285.971 110.316 284.801 111.743 284.96 113.343C285.119 114.944 286.548 116.112 288.15 115.953Z" fill="#495E4C"/>
<path d="M78.1098 66.5039C74.8625 66.8124 71.7777 68.0687 69.2401 70.1164C66.7025 72.164 64.8244 74.9122 63.8401 78.0183C62.8557 81.1244 62.8086 84.4509 63.7047 87.5831C64.6007 90.7153 66.4002 93.5145 68.8788 95.6317C61.1156 98.1112 56.9932 107.895 59.8577 115.495C62.7222 123.096 71.644 127.598 79.6491 126.241C87.6542 124.884 94.3231 118.277 96.5454 110.423C97.9605 113.454 100.261 115.986 103.145 117.686C106.029 119.387 109.36 120.175 112.702 119.948C116.043 119.721 119.238 118.49 121.866 116.415C124.493 114.341 126.431 111.521 127.424 108.326C131.656 114.612 141.937 114.703 147.289 109.341C152.641 103.98 153.086 94.9446 149.602 88.2428C146.119 81.5411 139.387 76.9591 132.244 74.4667C136.214 70.1046 136.046 62.8535 132.44 58.1882C128.834 53.523 122.45 51.4591 116.589 52.3512C110.727 53.2433 105.525 56.7606 101.795 61.3184C100.615 58.8866 98.6571 56.9178 96.2301 55.7239C93.8031 54.53 91.0464 54.1794 88.3968 54.7277C85.7473 55.276 83.3566 56.6919 81.6037 58.7507C79.8508 60.8096 78.836 63.3938 78.7202 66.0936" fill="white"/>
<path d="M88.4945 79.9913L97.3967 92.56C97.7475 93.0572 98.2687 93.4085 98.8617 93.5473C99.4547 93.6861 100.078 93.6028 100.614 93.313C101.178 93.0107 101.604 92.5037 101.804 91.8968C102.004 91.2898 101.963 90.6293 101.689 90.0517L95.0368 76.0398C94.9172 75.7895 94.7459 75.5673 94.5341 75.3879C94.3223 75.2084 94.0749 75.0758 93.8082 74.9987C93.5414 74.9216 93.2613 74.9017 92.9862 74.9404C92.7112 74.9792 92.4474 75.0756 92.2124 75.2233L89.0508 77.2369C88.8292 77.3779 88.6385 77.5621 88.4898 77.7785C88.3412 77.9948 88.2379 78.2389 88.1859 78.4961C88.134 78.7532 88.1345 79.0182 88.1876 79.2751C88.2406 79.5321 88.345 79.7756 88.4945 79.9913Z" fill="#495E4C"/>
<path d="M108.62 98.5405C108.788 99.2632 108.738 100.02 108.477 100.714C108.215 101.409 107.753 102.01 107.149 102.443C106.545 102.875 105.826 103.119 105.084 103.144C104.341 103.169 103.608 102.973 102.976 102.582C102.345 102.19 101.844 101.621 101.537 100.945C101.23 100.27 101.13 99.5182 101.25 98.7859C101.371 98.0535 101.706 97.3732 102.213 96.8307C102.72 96.2883 103.377 95.9082 104.1 95.7383C104.581 95.6254 105.08 95.6083 105.567 95.688C106.055 95.7678 106.522 95.9428 106.942 96.2031C107.362 96.4634 107.726 96.8038 108.014 97.2049C108.302 97.6059 108.508 98.0598 108.62 98.5405Z" fill="#495E4C"/>
<path d="M112.201 69.6252L113.767 82.8262C113.828 83.347 114.078 83.8274 114.47 84.1764C114.861 84.5254 115.368 84.7189 115.893 84.7203C116.445 84.7242 116.977 84.5157 117.379 84.1381C117.781 83.7605 118.022 83.2429 118.052 82.6926L118.803 69.3017C118.817 69.0625 118.779 68.8233 118.692 68.5998C118.606 68.3763 118.473 68.1738 118.302 68.0055C118.132 67.8372 117.927 67.7071 117.702 67.6238C117.478 67.5404 117.238 67.5058 116.998 67.5221L113.764 67.7462C113.537 67.7623 113.314 67.8243 113.111 67.9285C112.907 68.0327 112.727 68.1769 112.581 68.3525C112.435 68.5281 112.326 68.7313 112.261 68.9501C112.196 69.1688 112.175 69.3985 112.201 69.6252Z" fill="#E0E0E0"/>
<path d="M119.814 91.9793C119.645 92.5963 119.297 93.1495 118.813 93.569C118.329 93.9884 117.732 94.2553 117.096 94.3358C116.461 94.4164 115.816 94.3071 115.243 94.0216C114.669 93.7362 114.194 93.2875 113.876 92.7321C113.558 92.1768 113.412 91.5398 113.457 90.9016C113.501 90.2635 113.734 89.6527 114.126 89.1466C114.518 88.6405 115.051 88.2617 115.659 88.0581C116.266 87.8545 116.92 87.8352 117.538 88.0027C117.949 88.1141 118.334 88.3054 118.671 88.5657C119.008 88.8259 119.291 89.15 119.502 89.5193C119.713 89.8887 119.85 90.2961 119.903 90.7182C119.957 91.1403 119.927 91.5688 119.814 91.9793Z" fill="#E0E0E0"/>
<path d="M285.601 196.867L280.664 216.869C280.471 217.661 280.574 218.497 280.953 219.219C281.332 219.941 281.961 220.501 282.723 220.794C283.525 221.098 284.413 221.083 285.205 220.751C285.996 220.42 286.629 219.798 286.974 219.013L295.369 199.968C295.519 199.628 295.595 199.26 295.591 198.888C295.588 198.517 295.506 198.15 295.35 197.813C295.194 197.475 294.968 197.175 294.687 196.931C294.406 196.688 294.076 196.507 293.719 196.401L288.904 194.961C288.562 194.861 288.203 194.831 287.848 194.873C287.494 194.915 287.152 195.029 286.844 195.207C286.535 195.385 286.265 195.624 286.052 195.91C285.838 196.195 285.685 196.521 285.601 196.867Z" fill="white"/>
<path d="M284.456 233.483C283.874 234.289 283.065 234.905 282.133 235.252C281.2 235.599 280.185 235.661 279.217 235.432C278.249 235.203 277.37 234.692 276.693 233.964C276.015 233.236 275.57 232.324 275.412 231.343C275.253 230.362 275.39 229.356 275.805 228.452C276.22 227.548 276.893 226.788 277.741 226.267C278.588 225.745 279.572 225.487 280.566 225.524C281.56 225.561 282.522 225.891 283.328 226.474C283.863 226.86 284.317 227.347 284.664 227.908C285.01 228.469 285.243 229.093 285.347 229.744C285.452 230.395 285.428 231.061 285.275 231.702C285.122 232.344 284.844 232.949 284.456 233.483Z" fill="white"/>
<path d="M160.58 66.0485L167.109 65.3989C167.109 65.3989 166.51 59.3857 172.199 58.7141C173.334 58.5901 174.479 58.8325 175.467 59.4058C176.454 59.9791 177.231 60.8531 177.685 61.8998C178.125 62.8074 178.363 63.7993 178.383 64.8076C178.403 65.8159 178.205 66.8166 177.802 67.7413C176.889 69.8564 174.644 71.9171 170.159 71.5097L171.764 87.6496L178.213 87.0081L177.272 77.5495C177.272 77.5495 186.077 74.0883 184.988 63.1405C183.947 52.6757 175.138 51.1132 171.471 51.4781C168.679 51.7314 159.199 53.3981 160.58 66.0485Z" fill="white"/>
<path d="M178.639 90.3238L172.078 90.9766L172.746 97.6901L179.307 97.0374L178.639 90.3238Z" fill="white"/>
<path d="M337.257 165.503C337.257 165.503 337.337 165.406 337.507 165.234C337.778 164.98 338.095 164.78 338.442 164.646C339.012 164.431 339.629 164.37 340.231 164.468C341.076 164.57 341.857 164.964 342.442 165.581C343.177 166.367 343.646 167.364 343.784 168.431C343.94 169.714 343.758 171.015 343.256 172.207C341.927 175.128 339.988 177.733 337.569 179.845C336.164 181.126 334.692 182.331 333.158 183.455C331.559 184.646 329.857 185.872 328.004 187.048C326.078 188.287 324.046 189.351 321.931 190.23C320.809 190.702 319.653 191.089 318.473 191.387C317.246 191.699 315.992 191.892 314.728 191.962C313.409 192.144 312.065 191.939 310.86 191.372C310.241 191.037 309.775 190.478 309.557 189.81C309.36 189.132 309.376 188.41 309.603 187.741C310.097 186.422 310.852 185.216 311.823 184.195C312.765 183.113 313.782 182.099 314.867 181.161C317.062 179.251 319.431 177.455 321.866 175.587C324.353 173.644 327.065 172.009 329.945 170.718C331.45 170.066 333.025 169.59 334.639 169.3C336.296 168.972 337.999 168.962 339.659 169.272C341.397 169.552 342.967 170.472 344.059 171.85C344.563 172.592 344.882 173.445 344.987 174.335C345.093 175.226 344.983 176.129 344.666 176.969C344.04 178.675 342.905 180.15 341.415 181.194C339.934 182.265 338.323 183.144 336.62 183.809C333.118 185.134 329.418 185.864 325.675 185.971C321.821 186.08 317.965 185.921 314.134 185.494C312.162 185.331 310.202 185.053 308.263 184.663C307.282 184.456 306.315 184.189 305.367 183.862C304.372 183.578 303.453 183.078 302.674 182.398C302.276 182.03 301.991 181.557 301.854 181.033C301.719 180.489 301.756 179.918 301.96 179.396C302.379 178.421 303.074 177.589 303.96 177.002C305.694 175.828 307.664 175.047 309.732 174.713C313.874 173.935 318.076 173.517 322.29 173.463C324.438 173.445 326.585 173.552 328.72 173.783C329.797 173.895 330.872 174.057 331.943 174.275C333.05 174.408 334.12 174.751 335.097 175.287C335.608 175.573 336.032 175.992 336.323 176.5C336.614 177.008 336.762 177.585 336.751 178.171C336.649 178.739 336.427 179.28 336.102 179.758C335.776 180.236 335.354 180.64 334.862 180.944C333.017 182.231 330.942 183.153 328.75 183.657C327.649 183.908 326.527 184.055 325.399 184.096C324.258 184.163 323.114 184.066 322 183.809C320.839 183.563 319.8 182.922 319.06 181.995C318.722 181.497 318.514 180.923 318.455 180.324C318.395 179.725 318.486 179.121 318.719 178.566C319.181 177.469 319.956 176.532 320.946 175.871C321.937 175.211 323.101 174.855 324.292 174.849C325.508 174.823 326.687 175.268 327.582 176.091C328.456 176.947 328.958 178.112 328.979 179.334C328.986 179.95 328.843 180.559 328.561 181.107C328.266 181.648 327.838 182.105 327.318 182.434C326.271 183.071 325.034 183.321 323.822 183.139C323.203 183.094 322.602 182.906 322.067 182.592C321.532 182.277 321.076 181.843 320.736 181.325C320.577 181.037 320.495 180.714 320.495 180.386C320.495 180.057 320.578 179.735 320.736 179.447C321.063 178.889 321.583 178.47 322.198 178.269C323.387 177.991 324.627 178.016 325.803 178.341C326.994 178.541 328.145 178.929 329.214 179.489C330.305 180.075 331.195 180.975 331.767 182.073C332.059 182.629 332.225 183.243 332.254 183.871C332.283 184.499 332.173 185.125 331.933 185.706C331.42 186.833 330.598 187.791 329.562 188.47C328.553 189.182 327.409 189.681 326.2 189.935C323.764 190.461 321.221 190.096 319.032 188.908C316.861 187.692 315.094 185.867 313.951 183.658C312.717 181.475 312.29 178.927 312.747 176.461C313.012 175.211 313.665 174.077 314.614 173.219C315.564 172.404 316.668 171.788 317.861 171.408C320.188 170.647 322.611 170.212 325.058 170.115C327.481 169.909 329.919 169.938 332.336 170.204C334.798 170.471 337.081 171.619 338.763 173.434C339.565 174.376 340.098 175.516 340.304 176.736C340.489 177.944 340.418 179.179 340.095 180.358C339.398 182.672 338.034 184.731 336.174 186.276C335.287 187.062 334.347 187.785 333.361 188.442C332.393 189.114 331.386 189.727 330.345 190.279C328.267 191.439 325.898 191.977 323.523 191.827C318.882 191.224 314.593 189.033 311.388 185.629C309.873 183.885 308.853 181.77 308.434 179.5C308.019 177.264 308.098 174.964 308.667 172.762C309.213 170.583 310.214 168.545 311.604 166.779C312.972 165.031 314.648 163.548 316.549 162.401C318.436 161.282 320.498 160.491 322.65 160.063C324.806 159.648 327.021 159.645 329.177 160.055C331.32 160.416 333.29 161.451 334.803 163.008C336.175 164.64 337.059 166.626 337.351 168.738C337.999 172.819 337.684 176.995 336.432 180.934C335.838 182.861 335.007 184.708 333.959 186.432C332.925 188.144 331.552 189.628 329.924 190.792C328.299 191.921 326.389 192.571 324.412 192.666C322.453 192.705 320.534 192.108 318.944 190.966C317.415 189.862 315.987 188.625 314.677 187.269C313.278 186.03 312.075 184.588 311.109 182.99C310.669 182.173 310.371 181.287 310.229 180.37C310.108 179.456 310.148 178.527 310.347 177.627C310.779 175.882 311.538 174.234 312.583 172.771C314.497 169.84 317.286 167.586 320.554 166.328C322.118 165.735 323.784 165.461 325.455 165.521C327.125 165.581 328.767 165.974 330.284 166.677C333.119 168.16 335.386 170.534 336.736 173.433C338.088 176.112 338.76 179.082 338.695 182.083C338.67 184.95 337.641 187.718 335.786 189.908C333.939 191.853 331.597 193.26 329.012 193.98C326.646 194.74 324.168 195.093 321.684 195.026C319.362 194.949 317.122 194.155 315.271 192.754C313.597 191.463 312.275 189.771 311.428 187.836C310.651 186.08 310.275 184.174 310.327 182.255C310.419 179.036 311.462 175.917 313.327 173.29C314.686 171.375 316.372 169.713 318.308 168.38C319.486 167.557 320.737 166.842 322.044 166.244C322.931 165.839 323.403 165.67 323.403 165.67L323.06 165.826L322.064 166.283C320.769 166.898 319.528 167.623 318.356 168.449C316.442 169.789 314.775 171.451 313.431 173.361C311.593 175.974 310.57 179.071 310.491 182.263C310.447 184.152 310.823 186.028 311.591 187.755C312.436 189.661 313.746 191.325 315.402 192.595C317.223 193.964 319.424 194.736 321.702 194.805C324.152 194.862 326.593 194.506 328.924 193.753C331.461 193.04 333.758 191.657 335.575 189.75C337.382 187.596 338.381 184.881 338.401 182.071C338.469 179.104 337.805 176.166 336.467 173.516C335.135 170.676 332.901 168.355 330.112 166.913C328.641 166.234 327.048 165.855 325.428 165.8C323.808 165.745 322.193 166.014 320.678 166.592C317.475 167.828 314.743 170.043 312.875 172.92C311.852 174.349 311.111 175.96 310.693 177.666C310.504 178.526 310.465 179.413 310.579 180.287C310.721 181.165 311.009 182.012 311.431 182.795C312.357 184.37 313.517 185.795 314.872 187.022C316.169 188.358 317.582 189.577 319.093 190.666C320.625 191.768 322.473 192.346 324.361 192.313C326.275 192.216 328.125 191.584 329.698 190.489C331.283 189.349 332.62 187.899 333.629 186.229C334.662 184.532 335.479 182.714 336.062 180.816C337.292 176.935 337.599 172.821 336.959 168.801C336.677 166.759 335.826 164.838 334.502 163.257C333.045 161.761 331.147 160.77 329.085 160.43C327.004 160.028 324.865 160.026 322.783 160.423C320.675 160.838 318.654 161.611 316.808 162.709C313.007 164.941 310.242 168.582 309.114 172.839C308.564 174.973 308.486 177.2 308.884 179.366C309.281 181.587 310.272 183.66 311.752 185.365C314.884 188.694 319.076 190.834 323.612 191.42C325.909 191.58 328.203 191.07 330.214 189.95C331.239 189.407 332.231 188.803 333.185 188.143C334.154 187.496 335.079 186.785 335.952 186.014C337.753 184.52 339.075 182.531 339.754 180.294C340.059 179.173 340.126 178.001 339.949 176.852C339.761 175.703 339.26 174.628 338.5 173.745C336.886 172.005 334.695 170.909 332.333 170.659C329.945 170.392 327.537 170.36 325.143 170.562C322.729 170.655 320.338 171.081 318.041 171.829C316.909 172.197 315.86 172.784 314.957 173.559C314.073 174.357 313.463 175.413 313.214 176.578C312.781 178.957 313.195 181.412 314.385 183.517C315.49 185.653 317.196 187.419 319.294 188.598C321.399 189.722 323.838 190.056 326.168 189.54C327.322 189.3 328.413 188.826 329.376 188.148C330.334 187.498 331.091 186.591 331.557 185.532C331.775 185.007 331.874 184.441 331.848 183.873C331.823 183.305 331.673 182.75 331.41 182.246C330.874 181.225 330.045 180.388 329.029 179.841C327.996 179.304 326.885 178.932 325.737 178.738C324.632 178.435 323.469 178.406 322.35 178.652C321.833 178.821 321.393 179.171 321.113 179.637C320.989 179.865 320.924 180.122 320.926 180.382C320.928 180.642 320.995 180.897 321.123 181.124C321.432 181.581 321.842 181.962 322.321 182.239C322.799 182.515 323.335 182.679 323.886 182.719C324.992 182.88 326.119 182.656 327.079 182.084C327.544 181.792 327.925 181.385 328.184 180.901C328.443 180.418 328.571 179.875 328.555 179.327C328.554 178.776 328.441 178.232 328.223 177.725C328.006 177.219 327.688 176.762 327.289 176.382C326.89 176.002 326.418 175.706 325.901 175.513C325.385 175.319 324.835 175.232 324.283 175.257C323.176 175.262 322.094 175.59 321.171 176.202C320.248 176.814 319.525 177.682 319.091 178.7C318.885 179.194 318.805 179.731 318.858 180.264C318.911 180.796 319.095 181.307 319.394 181.751C320.075 182.601 321.032 183.187 322.099 183.408C323.175 183.655 324.281 183.75 325.383 183.691C326.487 183.646 327.584 183.498 328.661 183.252C330.8 182.764 332.825 181.87 334.626 180.618C335.072 180.347 335.455 179.985 335.752 179.556C336.049 179.128 336.252 178.642 336.348 178.129C336.355 177.617 336.223 177.113 335.965 176.67C335.708 176.228 335.334 175.863 334.885 175.617C333.952 175.109 332.931 174.783 331.875 174.656C330.807 174.47 329.749 174.307 328.676 174.161C326.557 173.929 324.426 173.82 322.294 173.837C318.104 173.872 313.925 174.271 309.804 175.031C307.791 175.341 305.871 176.087 304.177 177.216C303.35 177.761 302.7 178.535 302.306 179.443C302.133 179.883 302.099 180.366 302.209 180.826C302.319 181.286 302.567 181.701 302.921 182.016C303.669 182.655 304.549 183.123 305.499 183.385C306.432 183.71 307.386 183.973 308.353 184.174C310.279 184.562 312.225 184.838 314.182 185.001C317.99 185.469 321.827 185.671 325.663 185.607C329.369 185.509 333.032 184.787 336.497 183.472C338.172 182.827 339.756 181.967 341.208 180.914C342.647 179.913 343.745 178.496 344.353 176.853C344.653 176.064 344.759 175.214 344.663 174.375C344.567 173.536 344.271 172.732 343.8 172.031C342.76 170.711 341.26 169.833 339.599 169.571C337.986 169.265 336.328 169.273 334.717 169.593C333.123 169.878 331.566 170.344 330.077 170.981C327.222 172.262 324.53 173.878 322.058 175.795C319.631 177.663 317.253 179.452 315.066 181.369C313.991 182.298 312.981 183.3 312.044 184.368C311.094 185.366 310.356 186.546 309.873 187.836C309.658 188.454 309.639 189.123 309.82 189.752C310.024 190.362 310.449 190.874 311.012 191.186C312.174 191.731 313.469 191.927 314.74 191.75C315.99 191.684 317.231 191.495 318.444 191.186C319.614 190.889 320.76 190.504 321.871 190.032C323.977 189.161 326.002 188.106 327.922 186.878C329.769 185.718 331.471 184.5 333.079 183.316C334.609 182.197 336.079 180.997 337.484 179.724C339.894 177.638 341.831 175.062 343.162 172.167C343.666 170.996 343.853 169.713 343.704 168.447C343.575 167.399 343.122 166.419 342.407 165.641C341.836 165.034 341.072 164.643 340.246 164.531C339.652 164.438 339.044 164.498 338.48 164.707C338.015 164.871 337.596 165.144 337.257 165.503Z" fill="#F5F5F5"/>
<path d="M238.417 36.8589C238.543 36.705 238.678 36.5586 238.821 36.4203C239.25 36.0087 239.753 35.6826 240.305 35.4598C241.221 35.1192 242.209 35.0209 243.174 35.1743C244.521 35.3443 245.766 35.9762 246.698 36.9618C247.871 38.217 248.619 39.8093 248.835 41.513C249.077 43.5625 248.782 45.6396 247.978 47.541C246.305 51.6746 243.105 55.8382 238.879 59.7463C236.628 61.7996 234.269 63.7305 231.811 65.5305C229.238 67.4123 226.497 69.4003 223.55 71.2787C220.468 73.2735 217.215 74.9926 213.829 76.4163C212.039 77.1594 210.194 77.7642 208.311 78.2254C206.352 78.7243 204.349 79.0351 202.331 79.1537C200.22 79.4301 198.074 79.0901 196.153 78.1749C195.183 77.6379 194.45 76.7561 194.1 75.7045C193.786 74.636 193.815 73.496 194.183 72.4445C194.956 70.343 196.149 68.4208 197.691 66.7951C199.197 65.0667 200.823 63.4462 202.556 61.9454C204.308 60.4054 206.148 58.9379 208.029 57.4663C209.909 55.9948 211.803 54.4975 213.773 53.0251C217.753 49.9195 222.092 47.3041 226.698 45.2356C229.109 44.2063 231.628 43.4486 234.207 42.9766C236.851 42.4544 239.571 42.4404 242.221 42.9353C243.568 43.2007 244.868 43.6659 246.078 44.3156C247.317 44.966 248.387 45.8947 249.205 47.0287C250.002 48.2068 250.504 49.5585 250.67 50.9706C250.836 52.3826 250.661 53.8139 250.159 55.1446C249.156 57.8582 247.351 60.2036 244.984 61.8705C242.62 63.5764 240.048 64.9742 237.33 66.03C231.73 68.1569 225.812 69.3257 219.823 69.4871C213.651 69.6421 207.477 69.3655 201.344 68.6591C198.192 68.3924 195.058 67.9497 191.957 67.333C190.394 66.9978 188.853 66.5674 187.343 66.0442C185.758 65.5875 184.29 64.7933 183.041 63.7162C182.439 63.1361 182.013 62.398 181.812 61.5867C181.613 60.7553 181.677 59.8827 181.995 59.089C182.66 57.5499 183.756 56.2354 185.151 55.3036C187.916 53.4347 191.058 52.1952 194.355 51.6727C200.989 50.4466 207.717 49.7963 214.463 49.7291C217.898 49.7019 221.332 49.876 224.747 50.2506C226.466 50.4291 228.188 50.7212 229.899 50.9818C231.668 51.1891 233.38 51.7336 234.943 52.5856C235.713 53.0601 236.365 53.7044 236.848 54.4691C237.357 55.2452 237.597 56.1664 237.532 57.0919C237.436 58.0065 237.078 58.8744 236.503 59.5925C235.947 60.3034 235.291 60.93 234.555 61.4528C231.616 63.5019 228.31 64.9678 224.818 65.7709C223.06 66.1719 221.269 66.41 219.467 66.4821C217.632 66.5946 215.79 66.4382 214 66.018C212.166 65.6377 210.525 64.6273 209.361 63.1627C208.812 62.3884 208.485 61.4794 208.415 60.5333C208.359 59.5935 208.507 58.6525 208.849 57.7749C209.581 56.0433 210.806 54.5646 212.373 53.5227C213.939 52.4808 215.778 51.9217 217.66 51.915C218.613 51.8759 219.564 52.0292 220.457 52.3657C221.349 52.7022 222.164 53.215 222.854 53.8735C223.543 54.5319 224.092 55.3225 224.469 56.1979C224.845 57.0733 225.041 58.0155 225.044 58.9683C225.074 59.9357 224.849 60.8939 224.393 61.7479C223.936 62.6019 223.265 63.3219 222.444 63.8365C220.788 64.838 218.834 65.2281 216.92 64.9388C215.95 64.8659 215.01 64.5725 214.171 64.0811C213.332 63.5897 212.617 62.9133 212.08 62.1036C211.833 61.6614 211.703 61.1635 211.703 60.6572C211.702 60.1508 211.831 59.6526 212.077 59.2098C212.578 58.3385 213.381 57.6803 214.335 57.3592C215.263 57.0636 216.244 56.9661 217.212 57.0729C218.172 57.1482 219.108 57.3071 220.044 57.4741C221.942 57.7911 223.776 58.4101 225.477 59.3074C227.207 60.2301 228.618 61.6542 229.522 63.3924C229.964 64.2709 230.222 65.2297 230.283 66.2109C230.322 67.2035 230.143 68.1927 229.757 69.1085C228.965 70.9121 227.671 72.4514 226.031 73.544C225.238 74.1128 224.385 74.593 223.487 74.9759C222.588 75.3655 221.652 75.6629 220.693 75.8635C216.822 76.699 212.778 76.1206 209.298 74.2332C205.839 72.2977 203.027 69.3883 201.213 65.8675C200.275 64.1228 199.611 62.2452 199.242 60.2997C198.847 58.3436 198.863 56.3268 199.288 54.3768C199.704 52.3881 200.734 50.5796 202.233 49.2061C203.751 47.9179 205.506 46.9395 207.401 46.3263C211.131 45.1098 215.013 44.4172 218.934 44.2684C222.814 44.0775 226.706 43.8447 230.572 44.4112C234.438 44.9778 238.226 46.5601 240.786 49.541C242.068 51.0357 242.918 52.8509 243.245 54.7919C243.545 56.7009 243.434 58.6519 242.919 60.515C241.934 64.2713 239.489 67.433 236.669 69.941C235.252 71.1944 233.752 72.3513 232.179 73.4039C230.631 74.4716 229.021 75.4462 227.357 76.3224C225.688 77.1991 223.923 77.8794 222.097 78.3497C220.267 78.7964 218.376 78.9433 216.499 78.7847C212.798 78.4021 209.205 77.3134 205.915 75.5778C202.587 73.9617 199.601 71.7225 197.119 68.9819C194.709 66.2055 193.087 62.836 192.42 59.2225C191.453 53.8532 192.237 48.3154 194.657 43.4237C195.025 42.6148 195.52 41.8664 195.947 41.0842C196.374 40.3019 196.93 39.5962 197.488 38.9066C199.674 36.1215 202.349 33.7564 205.382 31.9266C208.39 30.1331 211.684 28.8704 215.121 28.1936C218.525 27.5535 222.019 27.5617 225.42 28.2176C228.831 28.7871 231.97 30.4319 234.377 32.9115C236.556 35.5175 237.959 38.6816 238.428 42.0444C239.457 48.5657 238.953 55.2369 236.956 61.531C236.008 64.6086 234.68 67.5563 233.002 70.3059C231.356 73.0385 229.168 75.4059 226.571 77.2623C223.976 79.0648 220.926 80.1034 217.769 80.2598C216.209 80.3079 214.653 80.0859 213.17 79.6037C211.716 79.1184 210.335 78.435 209.068 77.5728C206.623 75.8079 204.337 73.8319 202.237 71.6676C200.045 69.6692 198.167 67.3508 196.669 64.7911C195.975 63.4884 195.502 62.0794 195.269 60.6218C195.078 59.1709 195.144 57.6977 195.463 56.2695C196.147 53.486 197.355 50.8579 199.023 48.5255C202.078 43.8467 206.531 40.2466 211.748 38.2358C214.241 37.2855 216.899 36.8448 219.566 36.9399C222.232 37.0349 224.852 37.6637 227.27 38.789C229.574 39.9319 231.645 41.4929 233.377 43.3924C235.053 45.244 236.462 47.3201 237.564 49.5607C239.734 53.8609 240.804 58.6308 240.679 63.4449C240.616 65.7459 240.194 68.023 239.43 70.1948C238.672 72.3065 237.525 74.2573 236.046 75.9457C233.119 79.253 229.13 81.2188 225.239 82.4433C221.455 83.6554 217.493 84.22 213.521 84.1132C211.64 84.0282 209.782 83.6651 208.008 83.0357C206.307 82.434 204.71 81.5697 203.276 80.4741C200.596 78.4083 198.477 75.7038 197.113 72.6082C195.873 69.8069 195.27 66.7655 195.348 63.7032C195.404 60.9717 195.911 58.268 196.847 55.7009C197.659 53.4425 198.762 51.2995 200.129 49.3261C202.305 46.2653 204.999 43.6066 208.09 41.4695C209.975 40.1438 211.978 38.9922 214.072 38.029C215.481 37.3767 216.235 37.1065 216.235 37.1065L215.697 37.347C215.33 37.4974 214.792 37.7378 214.092 38.0676C212.009 39.0471 210.016 40.2084 208.137 41.5379C205.067 43.6806 202.392 46.3398 200.233 49.3969C198.873 51.3558 197.777 53.4848 196.972 55.7291C196.049 58.2809 195.551 60.9671 195.5 63.6799C195.429 66.7154 196.032 69.7288 197.266 72.5036C198.621 75.5687 200.726 78.2441 203.388 80.2842C206.313 82.4861 209.849 83.7302 213.51 83.8459C217.456 83.9464 221.391 83.3763 225.146 82.1599C229.015 80.962 232.966 78.943 235.836 75.7227C237.286 74.0562 238.415 72.1357 239.164 70.0587C239.915 67.9076 240.328 65.6535 240.388 63.3764C240.503 58.6092 239.44 53.8873 237.294 49.6282C236.194 47.418 234.796 45.3689 233.139 43.538C231.431 41.6689 229.39 40.1327 227.12 39.0071C222.521 36.7169 216.859 36.6624 211.838 38.4789C206.685 40.475 202.292 44.0409 199.282 48.6705C197.637 50.98 196.448 53.5815 195.779 56.3356C195.466 57.7259 195.405 59.161 195.598 60.5728C195.82 61.9933 196.281 63.3658 196.963 64.6319C198.463 67.1532 200.337 69.4335 202.52 71.3956C204.6 73.5357 206.867 75.4867 209.294 77.2252C211.766 79.0036 214.749 79.9334 217.796 79.8751C220.883 79.7219 223.865 78.704 226.401 76.9378C228.958 75.1095 231.114 72.7787 232.736 70.0885C234.389 67.3596 235.7 64.4389 236.641 61.3916C238.613 55.1547 239.109 48.5462 238.09 42.0861C237.631 38.7923 236.257 35.6931 234.123 33.14C231.772 30.7255 228.709 29.1247 225.382 28.571C222.004 27.9308 218.536 27.9366 215.16 28.5881C211.77 29.2552 208.521 30.4997 205.554 32.2671C202.566 34.0759 199.93 36.4093 197.774 39.1546C197.223 39.8354 196.76 40.5806 196.253 41.2976C195.746 42.0146 195.344 42.8025 194.984 43.6025C192.621 48.4138 191.859 53.8532 192.809 59.1268C193.463 62.6712 195.054 65.9764 197.416 68.7003C199.861 71.3989 202.799 73.6064 206.073 75.2044C209.311 76.9403 212.853 78.0396 216.506 78.4426C218.339 78.5945 220.186 78.4493 221.974 78.0124C223.79 77.5541 225.546 76.8828 227.204 76.0124C228.855 75.1379 230.452 74.1646 231.985 73.0979C233.541 72.0522 235.026 70.9051 236.43 69.664C239.212 67.1923 241.574 64.0957 242.546 60.4464C243.046 58.6336 243.156 56.7361 242.871 54.8778C242.562 53.02 241.75 51.282 240.524 49.8516C239.277 48.4239 237.746 47.272 236.028 46.4699C234.3 45.66 232.459 45.1168 230.568 44.8588C226.732 44.4439 222.865 44.3985 219.02 44.7232C215.139 44.8678 211.297 45.5537 207.607 46.7611C205.763 47.3529 204.054 48.302 202.577 49.554C201.147 50.8589 200.159 52.577 199.753 54.4688C199.345 56.363 199.331 58.3209 199.715 60.2202C200.074 62.1246 200.724 63.9627 201.641 65.6704C203.422 69.1053 206.176 71.9412 209.558 73.8252C212.935 75.6803 216.866 76.2642 220.638 75.4706C221.57 75.2723 222.479 74.9803 223.352 74.5991C224.227 74.2341 225.058 73.7696 225.827 73.2147C227.401 72.1693 228.642 70.6942 229.401 68.9651C229.756 68.1073 229.918 67.1824 229.877 66.2553C229.835 65.3282 229.59 64.4216 229.16 63.5992C228.295 61.9376 226.948 60.5756 225.295 59.6913C223.627 58.8229 221.831 58.225 219.975 57.92C218.144 57.6062 216.215 57.1965 214.483 57.7835C213.626 58.0635 212.9 58.6441 212.439 59.4176C212.228 59.7997 212.117 60.2293 212.118 60.6659C212.119 61.1024 212.231 61.5316 212.443 61.9129C212.905 62.6887 213.577 63.3179 214.382 63.728C215.188 64.1602 216.069 64.4341 216.978 64.5348C218.791 64.8127 220.644 64.4471 222.215 63.5016C222.98 63.0278 223.607 62.3607 224.031 61.5676C224.455 60.7745 224.662 59.8836 224.631 58.9851C224.626 58.088 224.44 57.201 224.084 56.3775C223.728 55.5539 223.209 54.8106 222.559 54.1922C221.908 53.5737 221.139 53.0928 220.298 52.7783C219.457 52.4638 218.561 52.3221 217.663 52.3617C215.87 52.3744 214.12 52.9105 212.628 53.9039C211.136 54.8973 209.967 56.3048 209.265 57.953C208.941 58.7716 208.801 59.6515 208.854 60.5303C208.922 61.4027 209.225 62.2406 209.731 62.9551C210.836 64.343 212.395 65.2986 214.134 65.655C215.858 66.053 217.63 66.2052 219.397 66.107C221.172 66.0363 222.936 65.8037 224.668 65.4119C228.111 64.6211 231.369 63.1764 234.265 61.1565C234.97 60.6452 235.597 60.0352 236.128 59.3452C236.662 58.6831 236.99 57.8787 237.07 57.0321C237.076 56.1954 236.857 55.3727 236.435 54.6496C236.014 53.9265 235.406 53.3296 234.675 52.9211C233.165 52.1019 231.514 51.5766 229.808 51.373C228.102 51.0793 226.391 50.8187 224.68 50.6393C221.278 50.2695 217.858 50.0967 214.437 50.1219C207.718 50.1851 201.016 50.8273 194.408 52.0414C191.164 52.5535 188.073 53.7714 185.353 55.6088C184.015 56.4996 182.961 57.7557 182.318 59.2275C182.029 59.9512 181.972 60.7464 182.154 61.5039C182.346 62.2599 182.757 62.9427 183.334 63.4676C184.533 64.5057 185.942 65.2724 187.465 65.715C188.969 66.2316 190.504 66.6545 192.06 66.9813C195.148 67.5956 198.269 68.0369 201.406 68.3033C207.522 69.0167 213.682 69.2977 219.838 69.1442C225.785 68.9838 231.663 67.8274 237.227 65.7233C239.917 64.6812 242.463 63.2995 244.803 61.612C247.114 59.9899 248.875 57.7017 249.849 55.0535C250.337 53.7717 250.51 52.3917 250.353 51.0294C250.196 49.6672 249.714 48.3625 248.948 47.225C248.157 46.1285 247.123 45.2296 245.927 44.5989C244.742 43.9653 243.471 43.5084 242.153 43.2428C239.544 42.7558 236.866 42.7712 234.262 43.2881C231.704 43.7506 229.207 44.4981 226.816 45.5166C222.23 47.5717 217.908 50.1688 213.942 53.2522C211.98 54.7157 210.077 56.2138 208.197 57.6853C206.316 59.1569 204.475 60.6164 202.739 62.1467C201.006 63.6346 199.385 65.2469 197.887 66.9706C196.349 68.5633 195.152 70.4529 194.37 72.5235C194.023 73.5312 193.995 74.621 194.289 75.6451C194.615 76.6401 195.309 77.4729 196.23 77.9721C198.106 78.8499 200.195 79.1698 202.248 78.8936C204.254 78.7829 206.243 78.4761 208.189 77.9774C210.072 77.5211 211.917 76.9217 213.709 76.1844C217.082 74.7934 220.328 73.1104 223.408 71.1547C226.373 69.2908 229.1 67.3366 231.673 65.4547C234.127 63.6612 236.485 61.7388 238.735 59.6955C242.955 55.8044 246.147 51.6415 247.826 47.5643C248.629 45.6824 248.929 43.6243 248.697 41.5919C248.496 39.9058 247.769 38.3256 246.619 37.0753C245.83 36.2437 244.815 35.6588 243.699 35.3918C242.583 35.1248 241.413 35.187 240.332 35.5709C239.598 35.8378 238.941 36.28 238.417 36.8589Z" fill="#495E4C"/>
<path d="M101.493 145.615C101.493 145.615 101.339 145.631 101.045 145.611L99.7187 145.54C98.0269 145.452 96.3541 145.143 94.7431 144.62C93.565 144.221 92.4802 143.588 91.5542 142.759C90.4284 141.777 89.6539 140.456 89.3482 138.995C89.1975 138.171 89.2704 137.321 89.5593 136.535C89.8912 135.708 90.4297 134.98 91.1235 134.42C91.8635 133.813 92.7907 133.479 93.7484 133.476C94.2521 133.503 94.7437 133.64 95.189 133.876C95.6343 134.113 96.0226 134.444 96.3267 134.845C96.9457 135.694 97.281 136.716 97.2847 137.766C97.3088 138.846 97.1049 139.919 96.6863 140.915C96.4699 141.428 96.1898 141.912 95.8528 142.356C95.5242 142.816 95.159 143.249 94.7607 143.651C93.9165 144.447 92.9599 145.115 91.9215 145.633C90.8375 146.152 89.6824 146.508 88.4938 146.689C87.2696 146.889 86.021 146.887 84.7976 146.683C83.5331 146.478 82.3158 146.049 81.2037 145.414C80.0636 144.75 79.0759 143.854 78.3046 142.784C76.7007 140.559 75.9163 137.849 76.0841 135.112C76.1674 133.704 76.5193 132.325 77.1208 131.049C77.4294 130.403 77.8082 129.793 78.2503 129.23C78.6775 128.635 79.2159 128.129 79.8359 127.739C80.4751 127.299 81.2605 127.125 82.026 127.253C82.4118 127.342 82.7734 127.514 83.0856 127.757C83.3811 128.02 83.6115 128.347 83.7588 128.714C84.0135 129.434 84.0902 130.204 83.9822 130.96C83.8939 131.703 83.7178 132.433 83.4578 133.134C82.8951 134.515 82.2696 135.838 81.5885 137.174C80.9008 138.526 80.0571 139.794 79.0747 140.952C78.0777 142.121 76.8508 143.073 75.4701 143.749C74.0938 144.422 72.5471 144.666 71.0303 144.451C69.5467 144.206 68.1576 143.563 67.0112 142.591C65.8802 141.655 64.9379 140.513 64.2343 139.225C63.0033 136.689 62.2221 133.958 61.9255 131.155C61.6777 129.812 61.5665 128.448 61.5936 127.082C61.5669 125.672 62.059 124.302 62.9767 123.23C63.4595 122.739 64.0719 122.397 64.7424 122.241C65.3977 122.085 66.0814 122.096 66.7316 122.271C68.005 122.612 69.1027 123.42 69.8058 124.534C70.4425 125.621 70.7635 126.865 70.7328 128.124C70.7272 129.326 70.5241 130.519 70.1317 131.655C69.7728 132.753 69.2875 133.805 68.6854 134.791C68.098 135.735 67.4199 136.619 66.6607 137.431C65.2157 138.954 63.4971 140.192 61.5943 141.081C59.8735 141.89 58.0147 142.364 56.1168 142.48C54.4245 142.581 52.7276 142.387 51.1023 141.906C48.4921 141.145 46.114 139.743 44.1847 137.83C42.9674 136.622 41.9658 135.215 41.2229 133.67C41.0228 133.273 40.8489 132.864 40.7022 132.445C40.6016 132.171 40.5542 132.021 40.5542 132.021C40.5542 132.021 40.7666 132.601 41.3003 133.629C42.0733 135.133 43.0892 136.498 44.3073 137.671C46.2296 139.536 48.5822 140.899 51.1573 141.64C52.7598 142.101 54.4302 142.281 56.0944 142.173C57.9564 142.046 59.7783 141.572 61.4664 140.777C64.3255 139.433 66.7289 137.284 68.3809 134.593C68.9631 133.626 69.4314 132.595 69.7764 131.52C70.1585 130.422 70.3546 129.267 70.3564 128.105C70.3813 126.912 70.0755 125.735 69.4728 124.705C68.8185 123.675 67.7998 122.929 66.6193 122.615C66.0287 122.445 65.4031 122.437 64.8082 122.592C64.2134 122.747 63.6714 123.059 63.2393 123.496C62.4174 124.487 61.9787 125.739 62.0031 127.025C61.9742 128.377 62.0868 129.728 62.339 131.057C62.6342 133.802 63.4014 136.476 64.6069 138.961C65.2902 140.199 66.2062 141.295 67.3049 142.188C68.391 143.115 69.7102 143.729 71.1201 143.963C72.5525 144.164 74.0123 143.931 75.3108 143.294C76.6375 142.648 77.8208 141.742 78.7904 140.631C80.7399 138.38 81.953 135.601 83.0887 132.943C83.6471 131.651 83.7587 130.209 83.4057 128.847C83.2735 128.56 83.0845 128.302 82.85 128.089C82.5984 127.89 82.3065 127.747 81.9943 127.67C81.3342 127.562 80.6577 127.714 80.1072 128.094C79.5262 128.462 79.0209 128.937 78.6185 129.494C78.1981 130.032 77.8358 130.613 77.5374 131.227C76.9561 132.455 76.6183 133.783 76.5427 135.139C76.3702 137.784 77.1202 140.407 78.665 142.562C79.4047 143.57 80.3374 144.421 81.4091 145.067C82.4808 145.712 83.6701 146.139 84.9082 146.322C86.6344 146.616 88.4055 146.507 90.0826 146.003C91.7596 145.499 93.2972 144.614 94.5746 143.418C95.3519 142.665 95.9836 141.775 96.4381 140.793C96.8341 139.825 97.0192 138.784 96.9809 137.74C96.9871 136.753 96.6805 135.791 96.1049 134.989C95.8191 134.628 95.4592 134.331 95.0493 134.12C94.6394 133.908 94.1889 133.786 93.728 133.763C92.837 133.762 91.973 134.069 91.2829 134.632C90.6113 135.164 90.0889 135.86 89.7664 136.653C89.4852 137.393 89.4103 138.195 89.5497 138.975C89.8401 140.391 90.5818 141.675 91.6639 142.634C92.5626 143.452 93.6162 144.083 94.7626 144.488C96.3737 145.027 98.0481 145.355 99.7437 145.464L101.066 145.585L101.493 145.615Z" fill="#495E4C"/>
<path d="M223.146 286.503L173.65 291.427C171.697 291.622 170.271 293.361 170.465 295.313L170.493 295.595C170.687 297.546 172.428 298.971 174.382 298.776L223.877 293.852C225.83 293.658 227.257 291.918 227.062 289.967L227.034 289.685C226.84 287.733 225.099 286.309 223.146 286.503Z" fill="#495E4C"/>
<path d="M184.848 302.176L215.337 299.142C215.337 299.142 212.086 307.644 200.27 308.82C187.947 310.046 184.848 302.176 184.848 302.176Z" fill="#495E4C"/>
<path d="M197.496 128.058C196.192 126.374 194.418 125.113 192.399 124.434C190.379 123.754 188.203 123.686 186.145 124.238C184.087 124.79 182.237 125.938 180.829 127.536C179.421 129.135 178.518 131.114 178.232 133.223C177.946 135.333 178.291 137.481 179.222 139.395C180.154 141.31 181.632 142.907 183.469 143.985C185.307 145.063 187.422 145.574 189.55 145.455C191.678 145.336 193.723 144.591 195.429 143.314L195.555 143.211L191.237 173.774L215.285 177.155L215.175 177.03C213.917 175.332 213.187 173.302 213.077 171.192C212.968 169.082 213.484 166.986 214.56 165.168C215.636 163.349 217.225 161.887 219.128 160.966C221.031 160.044 223.164 159.704 225.26 159.987C227.355 160.27 229.321 161.164 230.91 162.557C232.5 163.95 233.643 165.781 234.196 167.82C234.75 169.859 234.689 172.015 234.022 174.02C233.355 176.025 232.111 177.789 230.446 179.092L230.236 179.255L256.082 182.897C260.332 170.19 261.869 153.571 253.318 135.602C248.84 125.951 242.114 117.511 233.702 110.989C225.291 104.467 215.438 100.051 204.968 98.1117L201.976 97.6918L197.66 128.274L197.496 128.058Z" fill="#E9E9E9"/>
<path d="M197.497 128.057C197.557 128.124 197.613 128.193 197.666 128.266C197.805 127.056 199.329 116.03 201.891 97.68L201.881 97.584L201.977 97.5744L204.438 97.9179C205.277 98.0219 206.118 98.2163 206.976 98.383C208.683 98.7627 210.436 99.209 212.212 99.7564C215.99 100.903 219.658 102.381 223.174 104.174C227.057 106.165 230.748 108.509 234.199 111.178C237.894 114.139 241.284 117.462 244.317 121.097C245.104 122.04 245.807 123.063 246.552 124.049L247.679 125.553C248.029 126.074 248.355 126.617 248.699 127.152L250.743 130.394L252.554 133.835C255.038 138.597 256.915 143.651 258.141 148.879C259.392 154.387 259.872 160.042 259.567 165.682C259.516 167.122 259.336 168.562 259.195 170.012C259.054 171.461 258.79 172.897 258.493 174.335C257.927 177.243 257.172 180.11 256.234 182.919L256.195 183.053L256.061 183.066L238.019 180.529L230.211 179.457L229.811 179.4L230.136 179.154C231.907 177.837 233.222 176 233.897 173.899C234.228 172.863 234.396 171.782 234.393 170.695C234.409 169.614 234.25 168.539 233.921 167.509C233.762 166.996 233.567 166.495 233.338 166.009C233.095 165.532 232.82 165.071 232.515 164.63C231.917 163.748 231.184 162.966 230.343 162.312C229.111 161.349 227.681 160.67 226.156 160.324C224.63 159.978 223.047 159.974 221.519 160.311C219.992 160.649 218.558 161.319 217.32 162.275C216.082 163.232 215.072 164.449 214.36 165.841C213.896 166.74 213.569 167.703 213.389 168.699C213.188 169.679 213.137 170.685 213.239 171.681C213.445 173.654 214.201 175.53 215.422 177.095L215.66 177.407L215.279 177.355L191.237 173.96L191.092 173.936L191.11 173.792C192.7 162.643 194.158 152.393 195.447 143.234L195.646 143.343C194.113 144.535 192.29 145.297 190.365 145.549C188.539 145.78 186.684 145.534 184.981 144.837C183.525 144.252 182.213 143.358 181.136 142.217C180.059 141.077 179.242 139.716 178.742 138.23C178.242 136.744 178.07 135.167 178.238 133.608C178.406 132.049 178.911 130.544 179.717 129.198C181.004 127.098 182.954 125.484 185.26 124.613C186.239 124.266 187.26 124.05 188.295 123.968C189.206 123.923 190.119 123.979 191.017 124.137C193.301 124.557 195.384 125.712 196.949 127.426C197.154 127.641 197.343 127.871 197.515 128.113L197.369 127.947C197.273 127.827 197.127 127.66 196.925 127.448C196.325 126.814 195.653 126.254 194.921 125.779C193.728 125.01 192.396 124.484 191 124.229C190.111 124.08 189.207 124.032 188.307 124.083C187.282 124.166 186.272 124.384 185.304 124.731C183.032 125.601 181.115 127.202 179.855 129.282C179.064 130.606 178.57 132.086 178.407 133.62C178.244 135.153 178.416 136.704 178.91 138.165C179.405 139.625 180.211 140.961 181.273 142.081C182.334 143.2 183.626 144.076 185.059 144.648C186.774 145.344 188.642 145.573 190.475 145.313C192.307 145.054 194.039 144.315 195.493 143.171L195.733 142.985L195.691 143.28C194.404 152.459 192.967 162.668 191.4 173.847L191.281 173.685L215.321 177.053L215.185 177.312C213.919 175.698 213.136 173.759 212.926 171.719C212.816 170.693 212.866 169.656 213.073 168.646C213.258 167.62 213.595 166.627 214.075 165.702C215.043 163.816 216.537 162.251 218.376 161.194C220.258 160.11 222.421 159.61 224.588 159.757C226.755 159.904 228.83 160.691 230.547 162.02C231.413 162.688 232.171 163.484 232.795 164.382C233.108 164.837 233.39 165.313 233.642 165.804C233.878 166.304 234.079 166.82 234.242 167.348C234.584 168.41 234.751 169.52 234.737 170.635C234.741 172.337 234.345 174.016 233.58 175.538C232.815 177.059 231.703 178.38 230.334 179.393L230.259 179.09L238.069 180.188L256.105 182.732L255.922 182.841C256.854 180.044 257.606 177.19 258.172 174.296C258.469 172.864 258.663 171.429 258.87 169.992C259.076 168.556 259.192 167.122 259.238 165.695C259.55 160.085 259.078 154.46 257.834 148.981C256.624 143.757 254.763 138.705 252.293 133.945L250.49 130.517C249.813 129.433 249.13 128.357 248.46 127.286C248.123 126.757 247.797 126.214 247.448 125.699L246.328 124.201C245.582 123.208 244.873 122.192 244.094 121.255C238.343 114.228 231.182 108.483 223.073 104.391C219.573 102.599 215.922 101.12 212.162 99.9682C210.392 99.4138 208.646 98.9669 206.945 98.5866C206.087 98.4198 205.258 98.2242 204.419 98.1138L201.966 97.7889L202.075 97.707C199.462 116.069 197.877 127.068 197.667 128.272L197.497 128.057Z" fill="#495E4C"/>
<path d="M227.236 203.317L227.397 203.114C228.7 201.48 229.491 199.499 229.671 197.418C229.851 195.337 229.41 193.249 228.406 191.417C227.402 189.586 225.878 188.092 224.026 187.123C222.174 186.154 220.076 185.754 217.997 185.972C215.918 186.191 213.949 187.018 212.339 188.351C210.729 189.683 209.549 191.462 208.947 193.462C208.345 195.463 208.349 197.596 208.957 199.594C209.565 201.592 210.751 203.366 212.366 204.693L212.491 204.784L187.436 207.277L190.231 235.374L190.322 235.242C191.192 234.176 192.263 233.291 193.475 232.639C194.687 231.987 196.016 231.581 197.386 231.442C199.109 231.269 200.848 231.52 202.451 232.175C204.054 232.83 205.472 233.867 206.579 235.197C207.687 236.527 208.451 238.108 208.804 239.802C209.157 241.496 209.088 243.25 208.604 244.912C208.12 246.573 207.235 248.09 206.027 249.33C204.819 250.57 203.325 251.495 201.676 252.024C200.026 252.552 198.273 252.668 196.568 252.361C194.864 252.055 193.261 251.335 191.9 250.265L191.696 250.097L194.901 282.311L223.154 279.5C223.154 279.5 223.366 268.624 223.835 260.328C224.304 252.032 240.941 233.548 245.498 226.08C247.334 223.072 251.644 213.379 252.69 200.798L227.236 203.317Z" fill="#E9E9E9"/>
<path d="M239.085 234.859C238.703 234.177 238.094 233.65 237.365 233.369C236.635 233.087 235.83 233.069 235.088 233.317C234.095 233.674 233.266 234.513 232.184 234.504C231.703 234.451 231.243 234.281 230.843 234.008C230.444 233.736 230.118 233.369 229.893 232.942C229.372 232.127 229.04 231.197 228.446 230.435C228.181 230.029 227.804 229.709 227.361 229.512C226.918 229.315 226.427 229.251 225.948 229.326C224.732 229.654 224.107 231.248 222.854 231.398C222.48 231.407 222.109 231.324 221.775 231.156C221.44 230.989 221.151 230.743 220.933 230.439C220.453 229.84 220.129 229.187 219.64 228.628C218.831 227.775 217.721 227.272 216.546 227.226C215.371 227.18 214.225 227.594 213.351 228.381C212.207 229.109 211.126 231.253 211.158 233.325C211.256 239.586 208.945 240.941 208.945 240.941C209.152 243.003 208.747 245.08 207.781 246.914C206.815 248.748 205.33 250.258 203.512 251.256C201.693 252.253 199.622 252.694 197.554 252.524C195.487 252.354 193.516 251.58 191.885 250.299L191.681 250.132L194.886 282.345L223.139 279.535C223.139 279.535 223.351 268.659 223.82 260.363L223.755 260.162C223.766 260.076 223.772 259.989 223.774 259.902C224.026 253.974 239.085 234.859 239.085 234.859Z" fill="#5CCD6A"/>
<path d="M227.236 203.317L252.706 200.693L252.815 200.682L252.825 200.791C252.351 206.348 251.237 211.832 249.507 217.135C248.526 220.239 247.24 223.238 245.668 226.089C243.865 228.978 241.702 231.766 239.482 234.689C237.262 237.612 234.973 240.62 232.691 243.769C230.302 247.002 228.138 250.395 226.214 253.924C225.193 255.737 224.473 257.704 224.082 259.747C223.895 261.841 223.858 264.004 223.737 266.169C223.56 270.505 223.427 274.954 223.333 279.476L223.347 279.616L194.748 282.462L191.49 249.711L191.801 249.971C193.043 251.001 194.51 251.725 196.083 252.088C197.656 252.45 199.292 252.439 200.861 252.056C201.896 251.819 202.885 251.415 203.79 250.86C204.242 250.589 204.675 250.287 205.085 249.955C205.482 249.611 205.859 249.244 206.211 248.854C207.407 247.511 208.233 245.88 208.61 244.123C208.986 242.365 208.9 240.54 208.359 238.825C207.818 237.111 206.841 235.567 205.524 234.343C204.206 233.119 202.594 232.257 200.843 231.842C199.88 231.607 198.887 231.516 197.898 231.573C196.914 231.611 195.942 231.799 195.015 232.131C193.18 232.783 191.566 233.939 190.357 235.465L190.11 235.774L190.072 235.39C189.086 225.48 188.151 216.089 187.276 207.293L187.262 207.152L187.403 207.138L212.458 204.645L212.403 204.864C210.898 203.677 209.742 202.105 209.057 200.316C208.423 198.616 208.24 196.781 208.527 194.99C208.881 192.588 210.047 190.378 211.831 188.729C213.615 187.08 215.91 186.091 218.334 185.925C220.759 185.759 223.167 186.427 225.159 187.818C227.151 189.209 228.606 191.24 229.283 193.571C229.526 194.434 229.669 195.323 229.708 196.219C229.755 197.628 229.516 199.033 229.005 200.348C228.697 201.156 228.285 201.92 227.782 202.623C227.619 202.866 227.474 203.035 227.388 203.147L227.243 203.317L227.374 203.142C227.459 203.017 227.591 202.849 227.755 202.606C229.047 200.735 229.696 198.494 229.604 196.222C229.594 195.793 229.552 195.365 229.477 194.942C229.252 193.483 228.714 192.09 227.899 190.858C226.74 189.076 225.065 187.69 223.097 186.882C221.13 186.075 218.962 185.886 216.884 186.339C214.805 186.792 212.914 187.866 211.461 189.419C210.009 190.972 209.064 192.93 208.752 195.032C208.473 196.787 208.652 198.584 209.271 200.249C209.947 201.993 211.078 203.523 212.546 204.682L212.779 204.872L212.484 204.901L187.429 207.394L187.556 207.239C188.431 216.035 189.365 225.426 190.351 235.336L190.072 235.26C191.314 233.681 192.979 232.484 194.873 231.809C196.808 231.145 198.89 231.041 200.881 231.509C202.42 231.873 203.86 232.573 205.097 233.558C206.333 234.544 207.336 235.791 208.034 237.209C208.732 238.627 209.107 240.182 209.133 241.763C209.158 243.343 208.833 244.91 208.182 246.35C207.741 247.337 207.148 248.248 206.425 249.053C206.056 249.457 205.662 249.837 205.244 250.191C204.821 250.533 204.374 250.846 203.907 251.126C202.973 251.698 201.952 252.114 200.884 252.358C199.815 252.62 198.711 252.715 197.612 252.638C195.386 252.479 193.266 251.63 191.546 250.21L191.822 250.059L192.792 259.809C193.557 267.491 194.311 275.077 195.027 282.272L194.851 282.128L223.104 279.317L222.958 279.474C223.062 274.934 223.203 270.494 223.38 266.153C223.48 263.977 223.54 261.844 223.729 259.711C224.127 257.633 224.858 255.632 225.896 253.787C227.833 250.249 230.009 246.846 232.409 243.603C234.682 240.429 237.003 237.418 239.22 234.521C241.436 231.624 243.609 228.816 245.402 225.954C246.971 223.122 248.257 220.142 249.241 217.058C250.977 211.773 252.103 206.308 252.597 200.768L252.69 200.863L227.236 203.317Z" fill="#495E4C"/>
<path d="M210.43 225.289C210.478 225.772 210.382 226.257 210.154 226.685C209.925 227.113 209.575 227.464 209.147 227.692C208.72 227.921 208.233 228.019 207.75 227.972C207.268 227.925 206.809 227.736 206.434 227.428C206.059 227.121 205.783 226.71 205.642 226.246C205.5 225.782 205.5 225.287 205.64 224.823C205.781 224.359 206.056 223.947 206.431 223.639C206.805 223.331 207.263 223.141 207.746 223.093C208.394 223.029 209.04 223.224 209.544 223.636C210.047 224.048 210.366 224.642 210.43 225.289Z" fill="#5CCD6A"/>
<g opacity="0.2">
<path d="M200.436 252.195C197.97 252.647 195.114 251.916 193.727 249.811L191.889 250.847C192.016 252.127 193.862 254.484 195.082 254.848C197.532 255.659 200.188 255.596 202.597 254.669C203.803 254.114 204.846 253.261 205.63 252.191C206.413 251.121 206.911 249.869 207.075 248.554C205.037 250.373 202.902 251.743 200.436 252.195Z" fill="black"/>
</g>
<path d="M165.992 139.297C168.633 138.603 171.442 138.961 173.824 140.295L174.039 140.436L166.372 111.123L163.509 111.873C153.524 114.948 144.42 120.367 136.96 127.677C129.5 134.987 123.9 143.974 120.629 153.889C114.333 172.365 117.715 188.404 123.304 200.287L126.356 199.486L150.135 193.273L150.003 193.506C148.971 195.323 148.5 197.403 148.648 199.486C148.796 201.569 149.557 203.562 150.835 205.214C152.113 206.867 153.852 208.105 155.832 208.773C157.813 209.441 159.947 209.509 161.966 208.97C163.986 208.43 165.801 207.306 167.183 205.739C168.565 204.172 169.454 202.233 169.736 200.163C170.018 198.094 169.682 195.987 168.77 194.109C167.858 192.23 166.41 190.662 164.609 189.603L164.466 189.533L165.128 189.357L185.492 184.008L177.828 154.715L177.752 154.858C177.06 156.047 176.14 157.088 175.044 157.922C173.949 158.755 172.7 159.364 171.369 159.715C168.712 160.275 165.941 159.793 163.63 158.369C161.319 156.945 159.645 154.687 158.954 152.064C158.263 149.44 158.609 146.652 159.919 144.275C161.229 141.899 163.403 140.116 165.992 139.297Z" fill="#5CCD6A"/>
<path d="M165.99 139.297L165.301 139.527C165.018 139.618 164.742 139.728 164.473 139.855C164.312 139.93 164.138 139.999 163.954 140.095L163.377 140.417C162.379 141 161.485 141.745 160.73 142.62C159.707 143.82 158.963 145.232 158.552 146.754C158.431 147.189 158.337 147.63 158.27 148.075C158.208 148.554 158.18 149.036 158.187 149.519C158.181 150.556 158.338 151.588 158.653 152.576C159.403 155.022 161.024 157.108 163.21 158.439C165.396 159.77 167.995 160.255 170.515 159.8C171.982 159.538 173.373 158.958 174.591 158.102C175.878 157.203 176.944 156.025 177.711 154.656L177.848 154.409L177.92 154.68C180.183 163.306 182.767 173.153 185.61 183.971L185.624 184.105L185.489 184.119L164.499 189.614L164.529 189.333C166.256 190.297 167.68 191.722 168.641 193.45C169.133 194.323 169.487 195.267 169.689 196.248C169.919 197.235 170.002 198.251 169.937 199.262C169.869 200.283 169.658 201.29 169.309 202.253C168.948 203.227 168.454 204.147 167.84 204.985C166.577 206.678 164.844 207.964 162.856 208.681C160.828 209.419 158.624 209.521 156.537 208.974C154.417 208.418 152.516 207.232 151.086 205.572C150.351 204.748 149.764 203.802 149.352 202.778C148.91 201.76 148.634 200.679 148.535 199.575C148.325 197.327 148.832 195.07 149.984 193.127L150.17 193.374L132.818 197.906L123.357 200.379L123.216 200.393L123.158 200.263C120.761 195.17 119.04 189.786 118.038 184.248C117.551 181.552 117.251 178.825 117.142 176.088C117.123 174.732 117.066 173.38 117.14 172.034C117.166 171.385 117.162 170.694 117.218 170.029L117.389 168.034C117.89 162.852 119.051 157.755 120.843 152.866L122.201 149.337L122.541 148.462C122.661 148.172 122.808 147.899 122.935 147.615L123.746 145.937C124.007 145.381 124.282 144.824 124.544 144.274L124.941 143.446L125.399 142.657L127.229 139.514C127.513 138.988 127.873 138.506 128.206 138.014L129.218 136.549L130.219 135.092C130.56 134.618 130.95 134.178 131.312 133.722C132.044 132.822 132.749 131.905 133.498 131.042L135.839 128.552C138.88 125.464 142.207 122.671 145.778 120.213C149.081 117.988 152.569 116.049 156.202 114.417C159.478 112.927 162.89 111.756 166.39 110.921L166.493 110.911L166.503 111.014C169.948 124.305 172.529 134.25 174.112 140.338L174.124 140.46L174.038 140.436C172.224 139.358 170.129 138.846 168.022 138.966C167.509 138.997 166.999 139.063 166.495 139.163L166 139.264C166 139.264 166.157 139.216 166.492 139.137C166.994 139.022 167.503 138.948 168.017 138.915C170.139 138.769 172.255 139.269 174.087 140.347L174.009 140.407C172.407 134.327 169.788 124.386 166.286 111.113L166.417 111.19C162.932 112.026 159.538 113.199 156.282 114.694C148.683 118.067 141.797 122.858 135.994 128.808L133.684 131.288C132.935 132.151 132.237 133.068 131.504 133.962C131.148 134.417 130.765 134.856 130.427 135.362C130.089 135.867 129.766 136.326 129.432 136.812L128.425 138.27C128.073 138.752 127.747 139.253 127.448 139.77L125.636 142.892L125.175 143.649L124.777 144.471L123.985 146.133L123.187 147.803C123.053 148.082 122.912 148.361 122.792 148.644L122.458 149.518C122.004 150.681 121.558 151.851 121.105 153.027C119.326 157.895 118.174 162.97 117.676 168.128C117.625 168.78 117.567 169.432 117.509 170.084C117.451 170.736 117.45 171.383 117.429 172.083C117.352 173.384 117.411 174.762 117.435 176.11C117.543 178.833 117.841 181.545 118.327 184.226C119.325 189.736 121.04 195.092 123.426 200.159L123.236 200.068L132.697 197.595L150.055 193.062L150.446 192.958L150.241 193.302C149.403 194.702 148.911 196.28 148.804 197.907C148.697 199.534 148.978 201.163 149.625 202.66C149.831 203.153 150.074 203.63 150.349 204.088C150.636 204.538 150.956 204.966 151.305 205.37C152.692 206.979 154.535 208.13 156.591 208.671C157.601 208.93 158.643 209.044 159.685 209.01C160.72 208.948 161.74 208.745 162.719 208.404C163.683 208.058 164.592 207.573 165.416 206.965C167.045 205.75 168.284 204.088 168.985 202.182C169.318 201.245 169.524 200.268 169.596 199.277C169.657 198.295 169.577 197.31 169.356 196.352C169.156 195.401 168.814 194.485 168.342 193.634C167.409 191.959 166.033 190.573 164.364 189.628L164.029 189.441L164.395 189.346L185.423 183.912L185.324 184.083C182.476 173.215 179.93 163.37 177.688 154.749L177.89 154.767C177.103 156.165 176.011 157.368 174.694 158.285C173.448 159.153 172.025 159.736 170.528 159.993C167.963 160.448 165.321 159.947 163.102 158.585C160.883 157.224 159.241 155.096 158.487 152.605C158.175 151.601 158.021 150.554 158.03 149.502C158.009 148.552 158.133 147.605 158.397 146.692C158.761 145.361 159.384 144.114 160.23 143.024C161.077 141.933 162.13 141.021 163.331 140.338L163.913 140.015L164.441 139.788C164.71 139.662 164.99 139.558 165.277 139.478C165.747 139.321 165.99 139.297 165.99 139.297Z" fill="#495E4C"/>
<path d="M194.462 282.437L168.913 284.979C168.913 284.979 166.562 274.358 164.468 266.317C162.374 258.276 142.421 243.433 136.481 237.003C134.088 234.416 127.954 225.768 124.449 213.633L148.582 211.232L148.415 211.442C147.11 213.077 146.318 215.06 146.138 217.142C145.958 219.224 146.399 221.313 147.403 223.146C148.408 224.979 149.933 226.475 151.787 227.444C153.64 228.414 155.739 228.815 157.819 228.596C159.9 228.377 161.87 227.549 163.481 226.215C165.092 224.882 166.273 223.102 166.875 221.1C167.477 219.099 167.473 216.964 166.864 214.964C166.255 212.965 165.068 211.19 163.453 209.862L163.326 209.765L186.829 207.601L189.624 235.698C189.624 235.698 191.484 232.145 196.784 231.753C202.084 231.362 206.45 234.722 207.679 238.427C208.908 242.132 208.909 249.354 201.975 251.99C195.041 254.625 190.966 249.962 190.966 249.962L194.291 282.603" fill="white"/>
<path d="M194.1 281.024C194.19 281.016 194.302 281.366 194.346 281.808C194.39 282.25 194.356 282.615 194.259 282.625C194.163 282.634 194.057 282.283 194.013 281.841C193.969 281.4 194.004 281.034 194.1 281.024Z" fill="#495E4C"/>
<path d="M193.428 274.478C193.643 274.992 193.757 275.543 193.764 276.1C193.875 276.646 193.874 277.209 193.76 277.755C193.545 277.241 193.433 276.69 193.431 276.133C193.32 275.587 193.319 275.024 193.428 274.478Z" fill="#495E4C"/>
<path d="M192.766 267.931C192.981 268.445 193.093 268.996 193.095 269.553C193.206 270.099 193.207 270.661 193.098 271.208C192.879 270.695 192.765 270.143 192.762 269.586C192.651 269.04 192.652 268.476 192.766 267.931Z" fill="#495E4C"/>
<path d="M192.096 261.384C192.315 261.897 192.429 262.448 192.432 263.006C192.543 263.552 192.542 264.115 192.428 264.661C192.213 264.147 192.101 263.596 192.099 263.039C191.987 262.493 191.987 261.931 192.096 261.384Z" fill="#495E4C"/>
<path d="M191.43 254.837C191.645 255.351 191.757 255.902 191.759 256.459C191.871 257.005 191.871 257.568 191.762 258.114C191.546 257.6 191.432 257.049 191.426 256.492C191.315 255.946 191.316 255.383 191.43 254.837Z" fill="#495E4C"/>
<path d="M192.155 251.008C192.159 251.046 191.958 250.976 191.709 250.819C191.562 250.728 191.42 250.628 191.285 250.519L191.051 250.316L190.929 250.199L190.871 250.14L190.868 250.108L191.16 249.982C191.27 250.515 191.267 251.066 191.153 251.599C190.909 251.089 190.774 250.535 190.758 249.97L191.049 249.844L191.052 249.876L191.11 249.935L191.218 250.047L191.426 250.253L191.791 250.604C192.054 250.837 192.152 250.976 192.155 251.008Z" fill="#495E4C"/>
<path d="M198.066 252.792C197.018 253.049 195.911 252.903 194.965 252.383C195.489 252.367 196.012 252.421 196.521 252.545C197.045 252.56 197.564 252.643 198.066 252.792Z" fill="#495E4C"/>
<path d="M204.006 250.955C204.065 251.027 203.51 251.495 202.699 251.861C202.229 252.125 201.699 252.264 201.16 252.266C201.15 252.163 201.771 251.908 202.558 251.558C203.011 251.292 203.499 251.089 204.006 250.955Z" fill="#495E4C"/>
<path d="M207.73 246.039C207.73 246.582 207.574 247.113 207.28 247.57C206.88 248.36 206.369 248.883 206.305 248.824C206.241 248.766 206.6 248.149 206.98 247.413C207.36 246.677 207.636 246.009 207.73 246.039Z" fill="#495E4C"/>
<path d="M208.012 239.851C208.274 240.321 208.405 240.853 208.392 241.39C208.492 241.921 208.446 242.468 208.259 242.975C208.117 242.468 208.05 241.943 208.058 241.417C207.966 240.9 207.95 240.372 208.012 239.851Z" fill="#495E4C"/>
<path d="M204.938 234.486C204.996 234.415 205.618 234.819 206.165 235.501C206.556 235.876 206.828 236.357 206.95 236.884C206.87 236.931 206.464 236.364 205.912 235.695C205.36 235.025 204.874 234.557 204.938 234.486Z" fill="#495E4C"/>
<path d="M199.313 231.864C199.847 231.78 200.394 231.846 200.892 232.056C201.739 232.308 202.353 232.693 202.309 232.775C201.788 232.711 201.279 232.577 200.794 232.376C200.28 232.271 199.782 232.099 199.313 231.864Z" fill="#495E4C"/>
<path d="M193.151 232.639C193.554 232.275 194.053 232.034 194.59 231.947C195.093 231.75 195.641 231.696 196.173 231.789C195.696 232.011 195.191 232.166 194.672 232.249C194.182 232.439 193.671 232.57 193.151 232.639Z" fill="#495E4C"/>
<path d="M189.431 234.088C189.648 234.588 189.759 235.127 189.757 235.672L189.439 235.606L189.436 235.574L189.481 235.499L189.57 235.361L189.759 235.115C189.867 234.977 189.986 234.849 190.116 234.731C190.329 234.529 190.488 234.435 190.523 234.464C190.558 234.493 190.458 234.652 190.293 234.888C190.129 235.124 190.089 235.18 190.004 235.298L189.841 235.547L189.764 235.677L189.725 235.746L189.728 235.778L189.412 235.719C189.308 235.18 189.314 234.625 189.431 234.088Z" fill="#495E4C"/>
<path d="M188.725 226.978C189.064 228.129 189.184 229.334 189.079 230.53C188.74 229.379 188.62 228.174 188.725 226.978Z" fill="#495E4C"/>
<path d="M188.014 219.856C188.353 221.008 188.473 222.213 188.368 223.409C188.029 222.258 187.909 221.052 188.014 219.856Z" fill="#495E4C"/>
<path d="M187.307 212.751C187.646 213.903 187.766 215.108 187.661 216.304C187.322 215.152 187.202 213.947 187.307 212.751Z" fill="#495E4C"/>
<path d="M185.193 207.74C185.696 207.531 186.235 207.424 186.78 207.427L186.963 207.577L186.993 207.878C187.003 207.974 187.013 208.076 187.023 208.179C187.033 208.281 187.059 208.544 187.074 208.691C187.071 208.982 187.044 209.166 186.999 209.17C186.954 209.175 186.891 209 186.837 208.714C186.822 208.567 186.805 208.394 186.747 208.206L186.688 207.604L186.871 207.754C186.317 207.87 185.745 207.865 185.193 207.74Z" fill="#495E4C"/>
<path d="M179.393 208.277C179.841 208.066 180.331 207.962 180.826 207.973C181.311 207.876 181.812 207.888 182.292 208.008C181.842 208.212 181.352 208.314 180.859 208.306C180.374 208.403 179.874 208.393 179.393 208.277Z" fill="#495E4C"/>
<path d="M173.594 208.81C174.528 208.497 175.52 208.398 176.497 208.521C176.048 208.732 175.555 208.836 175.058 208.826C174.575 208.928 174.075 208.923 173.594 208.81Z" fill="#495E4C"/>
<path d="M167.796 209.346C168.243 209.134 168.733 209.03 169.228 209.042C169.713 208.94 170.214 208.952 170.694 209.077C170.244 209.28 169.755 209.382 169.261 209.374C168.776 209.471 168.276 209.462 167.796 209.346Z" fill="#495E4C"/>
<path d="M164.478 210.847C164.439 210.851 164.284 210.782 164.052 210.605C163.934 210.519 163.8 210.41 163.659 210.288L163.438 210.09L163.324 209.985L163.261 209.94C163.191 210.206 163.367 209.567 163.347 209.634C163.883 209.532 164.434 209.539 164.967 209.654C164.466 209.867 163.925 209.973 163.381 209.967C163.387 210.031 163.537 209.395 163.461 209.668L163.464 209.7L163.527 209.752L163.649 209.863L163.864 210.08C164.001 210.222 164.124 210.352 164.22 210.465C164.407 210.66 164.513 210.811 164.478 210.847Z" fill="#495E4C"/>
<path d="M167.153 216.367C166.922 215.901 166.751 215.407 166.645 214.898C166.439 214.42 166.3 213.916 166.23 213.4C166.604 213.788 166.859 214.274 166.965 214.801C167.177 215.294 167.242 215.838 167.153 216.367Z" fill="#495E4C"/>
<path d="M166.277 222.447C166.503 221.434 166.802 220.439 167.171 219.469C167.237 220.536 166.92 221.592 166.277 222.447Z" fill="#495E4C"/>
<path d="M162.162 227.007C162.115 226.921 162.676 226.516 163.354 225.977C164.032 225.437 164.509 224.963 164.554 225.03C164.599 225.096 164.22 225.71 163.542 226.236C163.164 226.618 162.686 226.886 162.162 227.007Z" fill="#495E4C"/>
<path d="M156.203 228.512C156.696 228.338 157.22 228.266 157.741 228.301C158.247 228.156 158.778 228.123 159.298 228.204C158.827 228.45 158.311 228.596 157.781 228.633C157.252 228.705 156.714 228.664 156.203 228.512Z" fill="#495E4C"/>
<path d="M150.413 226.456C150.47 226.38 151.088 226.738 151.775 227.142C152.463 227.546 153.138 227.827 153.147 227.917C152.608 227.897 152.086 227.724 151.641 227.42C150.877 227.024 150.355 226.527 150.413 226.456Z" fill="#495E4C"/>
<path d="M146.746 221.532C147.065 221.941 147.328 222.391 147.526 222.871C147.816 223.303 148.047 223.771 148.215 224.263C148.143 224.322 147.645 223.803 147.231 223.029C146.928 222.588 146.76 222.068 146.746 221.532Z" fill="#495E4C"/>
<path d="M146.438 215.397C146.476 215.915 146.443 216.436 146.34 216.946C146.345 217.466 146.276 217.984 146.137 218.485C145.86 217.453 145.967 216.356 146.438 215.397Z" fill="#495E4C"/>
<path d="M146.945 211.382C147.446 211.169 147.985 211.058 148.53 211.056C148.594 211.179 148.387 210.786 148.681 211.332L148.629 211.396L148.531 211.515L148.354 211.759L148.037 212.153C147.852 212.372 147.709 212.496 147.675 212.473C147.64 212.451 147.7 212.277 147.843 212.023C147.915 211.893 148.002 211.736 148.103 211.571L148.271 211.315C148.3 211.268 148.332 211.224 148.368 211.182L148.42 211.119C148.714 211.665 148.5 211.273 148.563 211.389C148.029 211.499 147.478 211.497 146.945 211.382Z" fill="#495E4C"/>
<path d="M141.392 211.934C141.383 211.844 141.734 211.732 142.176 211.688C142.618 211.644 142.985 211.685 142.994 211.775C143.002 211.864 142.651 211.977 142.209 212.021C141.767 212.065 141.401 212.03 141.392 211.934Z" fill="#495E4C"/>
<path d="M194.544 282.428L194.083 282.474L192.744 282.607L187.617 283.117L169.015 285.103L168.9 285.115L168.889 285C167.726 279.82 166.353 273.951 164.743 267.653C164.174 264.412 162.007 261.686 159.769 259.097C157.395 256.442 154.884 253.912 152.246 251.518C148.746 248.278 145.221 245.241 141.877 242.264C140.214 240.768 138.579 239.295 137.068 237.764C136.322 237.007 135.629 236.199 134.996 235.346C134.357 234.517 133.767 233.664 133.198 232.822C131.102 229.631 129.276 226.27 127.74 222.775C126.407 219.816 125.282 216.767 124.373 213.652L124.359 213.518L124.494 213.504L136.559 212.356L139.766 212.069L140.605 211.985L140.887 211.957L140.605 211.985L139.766 212.069L136.562 212.388L124.507 213.639L124.603 213.493C125.513 216.583 126.631 219.608 127.95 222.548C129.495 226.022 131.325 229.362 133.422 232.535C133.984 233.377 134.573 234.224 135.212 235.046C135.842 235.886 136.528 236.681 137.267 237.428C138.764 238.94 140.398 240.407 142.067 241.896C145.411 244.873 148.942 247.903 152.443 251.156C155.094 253.584 157.613 256.152 159.99 258.848C161.132 260.136 162.181 261.503 163.128 262.939C163.586 263.651 163.981 264.401 164.309 265.181C164.607 265.955 164.846 266.75 165.025 267.56C166.623 273.866 167.964 279.739 169.122 284.938L168.975 284.829L187.603 283.034L192.733 282.563L194.072 282.43C194.389 282.43 194.544 282.428 194.544 282.428Z" fill="#495E4C"/>
<path d="M192.86 282.598C192.851 282.502 193.203 282.396 193.645 282.352C194.087 282.308 194.453 282.343 194.462 282.439C194.472 282.535 194.12 282.641 193.678 282.685C193.236 282.729 192.869 282.688 192.86 282.598Z" fill="#495E4C"/>
<path d="M186.478 283.232C187.512 282.903 188.603 282.795 189.682 282.914C188.648 283.242 187.556 283.351 186.478 283.232Z" fill="#495E4C"/>
<path d="M180.087 283.869C181.121 283.54 182.212 283.432 183.291 283.55C182.257 283.879 181.166 283.988 180.087 283.869Z" fill="#495E4C"/>
<path d="M173.704 284.502C174.738 284.173 175.83 284.064 176.908 284.183C175.874 284.512 174.783 284.621 173.704 284.502Z" fill="#495E4C"/>
<path d="M168.555 283.412C168.6 283.407 168.681 283.567 168.779 283.842C168.794 283.989 168.874 284.149 168.926 284.338C168.977 284.527 168.978 284.54 169 284.628L169.016 284.788L169.024 284.871L169.031 284.942C168.948 284.885 169.206 285.08 168.85 284.811C169.384 284.701 169.935 284.704 170.468 284.818C169.967 285.032 169.428 285.143 168.883 285.144C168.849 284.805 168.657 285.089 168.701 285.007L168.686 284.853L168.67 284.693L168.64 284.399C168.621 284.207 168.604 284.034 168.589 283.887C168.51 283.604 168.511 283.423 168.555 283.412Z" fill="#495E4C"/>
<path d="M167.055 276.895C167.528 277.916 167.786 279.023 167.812 280.149C167.347 279.125 167.09 278.019 167.055 276.895Z" fill="#495E4C"/>
<path d="M165.49 270.411C165.781 270.894 165.971 271.432 166.049 271.991C166.234 272.525 166.314 273.09 166.286 273.655C165.808 272.637 165.537 271.534 165.49 270.411Z" fill="#495E4C"/>
<path d="M163.512 264.053C163.919 264.457 164.214 264.96 164.369 265.513C164.603 266.032 164.708 266.6 164.676 267.169C164.567 267.18 164.361 266.47 164.057 265.628C163.809 265.128 163.626 264.599 163.512 264.053Z" fill="#495E4C"/>
<path d="M159.547 258.693C160.015 259.006 160.419 259.404 160.738 259.868C161.139 260.265 161.454 260.74 161.666 261.262C161.594 261.321 161.063 260.792 160.475 260.088C160.075 259.69 159.76 259.216 159.547 258.693Z" fill="#495E4C"/>
<path d="M154.911 253.887C154.975 253.822 155.56 254.301 156.214 254.953C156.65 255.313 157.012 255.753 157.281 256.25C157.21 256.315 156.632 255.836 155.979 255.19C155.54 254.83 155.177 254.388 154.911 253.887Z" fill="#495E4C"/>
<path d="M150.019 249.337C150.078 249.273 150.704 249.715 151.362 250.342C151.814 250.682 152.195 251.107 152.483 251.594C152.419 251.665 151.798 251.216 151.134 250.591C150.47 249.965 149.936 249.41 150.019 249.337Z" fill="#495E4C"/>
<path d="M145.019 244.901C145.076 244.831 145.702 245.267 146.41 245.881C146.869 246.213 147.258 246.631 147.555 247.112C147.49 247.177 146.871 246.741 146.163 246.132C145.456 245.524 144.961 244.972 145.019 244.901Z" fill="#495E4C"/>
<path d="M140.027 240.458C140.085 240.388 140.711 240.83 141.381 241.449C141.832 241.788 142.216 242.208 142.514 242.687C142.45 242.758 141.83 242.315 141.154 241.697C140.477 241.079 139.988 240.52 140.027 240.458Z" fill="#495E4C"/>
<path d="M136.469 237.005C136.534 236.941 136.84 237.149 137.162 237.466C137.485 237.783 137.662 238.063 137.6 238.16C137.539 238.256 137.23 238.016 136.907 237.699C136.584 237.382 136.411 237.069 136.469 237.005Z" fill="#495E4C"/>
</g>
<defs>
<clipPath id="clip0_48_1703">
<rect width="372" height="328" fill="white" transform="translate(0.332031 37.498) rotate(-5.68159)"/>
</clipPath>
</defs>
</svg>
