<svg width="387" height="368" viewBox="0 0 387 368" fill="none" xmlns="http://www.w3.org/2000/svg">
<g opacity="0.5" clip-path="url(#clip0_48_1812)">
<path d="M358.484 294.017C358.484 294.017 225.598 291.598 169.237 294.484C128.916 296.547 7.66046 294.883 7.66046 294.883C7.66046 294.883 9.93101 206.148 7.33019 161.176C5.65611 132.494 7.04632 46.2528 7.04632 46.2528C7.04632 46.2528 136.125 46.1794 177.617 44.4722C246.275 41.6029 357.87 45.3862 357.87 45.3862C357.87 45.3862 360.701 107.075 358.113 143.8C355.499 181.262 358.484 294.017 358.484 294.017Z" fill="white"/>
<path opacity="0.5" d="M357.871 45.3859L358.01 101.738C334.196 101.202 268.244 100.157 181.797 102.447C90.0511 104.873 25.5317 103.541 7.14985 103.049L7.00955 46.2526C7.00955 46.2526 136.089 46.1886 177.58 44.472C246.276 41.6026 357.871 45.3859 357.871 45.3859Z" fill="#92E3A9" fill-opacity="0.7"/>
<path opacity="0.2" d="M225.502 290.634L221.813 99.3266L182.591 99.4235C180.92 129.53 182.37 250.67 182.912 290.739L225.502 290.634Z" fill="#92E3A9" fill-opacity="0.7"/>
<path opacity="0.2" d="M11.6101 103.132L54.6324 102.734C54.6324 102.734 58.2799 250.724 50.8915 291.067L14.5548 291.157C14.5548 291.157 14.9215 237.248 14.3118 192.752C13.702 148.257 11.6101 103.132 11.6101 103.132Z" fill="#92E3A9" fill-opacity="0.7"/>
<path d="M11.5362 73.333C11.5362 73.333 118.1 71.5689 150.319 72.9902C182.538 74.4115 271.171 71.5873 284.089 70.7719C297.008 69.9565 355.768 72.4827 355.768 72.4827C357.931 54.8258 353.714 46.7562 353.714 46.7562C353.714 46.7562 196.518 49.1928 120.415 50.4097C44.3112 51.6266 11.4803 50.6788 11.4803 50.6788C11.4803 50.6788 13.0142 64.6169 11.5362 73.333Z" fill="#5CCD6A"/>
<path d="M358.484 294.017C358.484 294.017 225.598 291.598 169.237 294.484C128.916 296.547 7.66046 294.883 7.66046 294.883C7.66046 294.883 9.93101 206.148 7.33019 161.176C5.65611 132.494 7.04632 46.2528 7.04632 46.2528C7.04632 46.2528 136.125 46.1794 177.617 44.4722C246.275 41.6029 357.87 45.3862 357.87 45.3862C357.87 45.3862 360.701 107.075 358.113 143.8C355.499 181.262 358.484 294.017 358.484 294.017Z" stroke="#495E4C" stroke-width="0.8" stroke-linecap="round" stroke-linejoin="round"/>
<path d="M16.8805 75.5649C16.8805 75.5649 57.5422 73.9636 104.181 75.3493C150.82 76.7349 221.736 75.5969 259.588 74.2952C297.44 72.9935 343.226 72.5122 343.226 72.5122" stroke="#495E4C" stroke-width="0.8" stroke-linecap="round" stroke-linejoin="round"/>
<path d="M16.9488 102.826C16.9488 102.826 312.227 99.1046 343.245 99.028" stroke="#495E4C" stroke-width="0.8" stroke-linecap="round" stroke-linejoin="round"/>
<path d="M54.5586 73.2266C54.5586 73.2266 59.0696 238.649 55.0475 271.14" stroke="#495E4C" stroke-width="0.8" stroke-linecap="round" stroke-linejoin="round"/>
<path d="M95.2247 73.1253C95.2247 73.1253 94.1845 255.231 95.7061 267.99" stroke="#495E4C" stroke-width="0.8" stroke-linecap="round" stroke-linejoin="round"/>
<path d="M137.758 73.0215C137.758 73.0215 139.336 108.887 139.811 140.611C140.285 172.336 138.235 266.385 140.148 276.877" stroke="#495E4C" stroke-width="0.8" stroke-linecap="round" stroke-linejoin="round"/>
<path d="M182.528 74.42C182.528 74.42 180.524 183.449 181.559 220.789C182.595 258.128 183.031 278.299 183.031 278.299" stroke="#495E4C" stroke-width="0.8" stroke-linecap="round" stroke-linejoin="round"/>
<path d="M221.699 72.8145C221.699 72.8145 225.792 202.425 225.445 230.225C225.099 258.025 225.552 273.542 225.552 273.542" stroke="#495E4C" stroke-width="0.8" stroke-linecap="round" stroke-linejoin="round"/>
<path d="M264.229 70.8203C264.229 70.8203 264.182 147.279 266.639 168.521C269.097 189.763 265.826 278.132 265.826 278.132" stroke="#495E4C" stroke-width="0.8" stroke-linecap="round" stroke-linejoin="round"/>
<path d="M306.062 70.7168C306.062 70.7168 307.762 109.82 308.099 131.662C308.436 153.503 307.684 264.993 310.335 273.369" stroke="#495E4C" stroke-width="0.8" stroke-linecap="round" stroke-linejoin="round"/>
<path d="M17.0051 125.972C17.0051 125.972 78.3776 124.706 117.273 125.724C117.273 125.724 117.204 136.183 117.309 140.289C117.309 140.289 26.7718 139.767 17.0411 140.536C17.0411 140.536 17.7566 128.584 17.0051 125.972Z" fill="white" stroke="#495E4C" stroke-width="1.33333" stroke-linecap="round" stroke-linejoin="round"/>
<path d="M223.208 124.972L223.245 140.075C223.245 140.075 299.83 139.14 308.022 137.628L307.835 123.064C307.835 123.064 250.391 122.536 223.208 124.972Z" fill="white" stroke="#495E4C" stroke-width="1.33333" stroke-linecap="round" stroke-linejoin="round"/>
<path d="M94.7305 144.451L181.927 144.236L181.414 158.151C181.414 158.151 144.684 159.081 124.909 159.602C105.134 160.123 95.4404 160.789 95.4404 160.789L94.7305 144.451Z" fill="#5CCD6A" stroke="#495E4C" stroke-width="1.33333" stroke-linecap="round" stroke-linejoin="round"/>
<path d="M309.914 139.814L310.298 150.271C310.298 150.271 337.425 148.316 341.415 148.703L341.389 138.245C341.389 138.245 317.378 137.926 309.914 139.814Z" fill="#5CCD6A" stroke="#495E4C" stroke-width="1.33333" stroke-linecap="round" stroke-linejoin="round"/>
<path d="M182.012 177.489C182.012 177.489 256.511 175.568 266.65 172.107L266.701 192.873C266.701 192.873 193.906 193.346 181.284 195.68C181.284 195.718 180.514 181.627 182.012 177.489Z" fill="white" stroke="#495E4C" stroke-width="1.33333" stroke-linecap="round" stroke-linejoin="round"/>
<path d="M187.14 177.344C187.14 177.344 180.048 188.358 181.513 189.761C182.978 191.164 190.169 177.818 192.375 177.463C194.581 177.109 184.715 195.813 185.66 196.472C186.605 197.13 199.087 176.701 202.058 176.694C205.029 176.686 195.501 194.475 197.386 194.385C199.272 194.295 208.057 177.019 211.262 176.671C214.468 176.323 203.874 194.105 206.335 194.023C208.796 193.941 218.624 175.048 220.663 176.053C222.703 177.058 210.566 192.512 213.794 193.769C217.023 195.025 225.221 177.231 229.17 176.325C233.119 175.418 220.072 192.535 223.893 192.979C227.713 193.423 233.392 175.144 236.376 176.59C239.36 178.036 230.935 188.195 232.181 188.871C233.428 189.548 237.376 176.644 241.355 176.578C245.335 176.511 236.669 188.181 237.615 189.585C238.562 190.989 242.595 186.137 242.595 186.137" stroke="#92E3A9" stroke-width="1.33333" stroke-linecap="round" stroke-linejoin="round"/>
<path d="M20.7289 125.906C20.7289 125.906 17.5788 133.465 18.3341 133.812C19.0894 134.16 22.088 126.337 25.0313 126.697C27.9746 127.058 19.7273 140.398 21.651 140.327C23.5747 140.256 30.1009 125.042 32.1117 125.849C34.1224 126.656 27.2956 138.548 28.5991 139.366C29.9026 140.184 36.4005 124.97 38.4585 125.805C40.5165 126.64 32.7095 138.789 34.7182 138.784C36.727 138.779 43.4562 125.547 45.5027 125.542C47.5491 125.537 39.1937 137.083 41.2439 138.608C43.2942 140.132 48.2999 124.044 51.2931 125.528C54.2864 127.012 46.8439 137.81 49.0818 138.966C51.3198 140.121 57.0625 124.589 58.9318 125.415C60.8012 126.241 53.404 140.116 54.6866 140.122C55.9692 140.129 64.1911 124.175 66.0614 125.369C67.9316 126.563 59.1945 140.121 60.8731 140.117C62.5518 140.112 71.282 123.723 73.5191 124.529C75.7562 125.336 67.7694 137.239 69.78 137.98C71.7906 138.721 76.6625 129.562 77.5962 129.56C78.5298 129.558 74.3445 137.969 75.5139 137.966C76.6833 137.963 81.1377 123.925 83.3668 125.336C85.596 126.746 80.7773 134.593 81.9005 134.967C83.0237 135.342 90.0804 124.857 92.1305 126.352C94.1807 127.848 84.1956 140.172 87.3644 140.164C90.5331 140.157 95.9127 126.522 98.5255 126.705C101.138 126.887 93.3308 138.856 95.3872 139.04C97.4436 139.224 101.512 125.583 103.749 126.324C105.986 127.064 100.606 136.601 102.097 137.155C103.589 137.708 106.733 127.619 109.345 127.801C111.958 127.984 104.522 137.526 107.692 137.886C110.861 138.247 111.956 127.238 115.126 127.598C118.296 127.958 111.143 137.717 112.872 138.997C114.601 140.276 117.255 134.125 117.255 134.125" stroke="#5CCD6A" stroke-width="1.33333" stroke-linecap="round" stroke-linejoin="round"/>
<path d="M18.2117 148.935L22.5545 147.036C22.5175 148.467 22.2273 149.881 21.6972 151.21C22.3254 151.066 22.8959 150.736 23.3352 150.264C23.7744 149.792 24.0622 149.199 24.1615 148.561L23.6843 150.092L27.7489 150.082C27.6831 149.859 27.6924 149.621 27.7754 149.404C27.8584 149.187 28.0104 149.003 28.208 148.882C27.7752 149.27 28.0412 150.062 28.5605 150.325C29.1151 150.527 29.7234 150.526 30.2769 150.321C31.7089 149.959 33.087 149.41 34.3752 148.687C34.272 149.156 34.3382 149.646 34.5619 150.071C34.7857 150.495 35.1526 150.827 35.5975 151.006C36.4801 151.345 37.4316 151.466 38.3709 151.358L50.5637 150.941" stroke="#495E4C" stroke-width="1.33333" stroke-linecap="round" stroke-linejoin="round"/>
<path d="M17.1776 157.442C17.1776 157.442 18.8509 155.267 20.351 155.546C21.8512 155.826 20.914 158.216 21.4714 158.592C22.0287 158.969 22.9585 153.614 23.8875 155.538C24.476 156.719 26.3281 158.599 26.3281 158.599C26.3281 158.599 28.3692 156.433 28.9267 156.847C29.4841 157.261 30.6053 156.842 30.6053 156.842L47.9576 156.8" stroke="#495E4C" stroke-width="1.33333" stroke-linecap="round" stroke-linejoin="round"/>
<path d="M71.8966 146.952C71.8966 146.952 57.9863 192.795 175.349 187.54" stroke="#495E4C" stroke-width="1.33333" stroke-linecap="round" stroke-linejoin="round"/>
<path d="M175.34 184.256L178.329 187.911L175.353 189.778" stroke="#495E4C" stroke-width="1.33333" stroke-linecap="round" stroke-linejoin="round"/>
<path d="M105.206 189.205C95.5008 184.746 77.9203 187.819 64.8886 196.063C51.857 204.308 49.2357 231.206 97.0199 223.244C144.804 215.282 114.515 193.288 97.7759 193.33" fill="white"/>
<path d="M105.206 189.205C95.5008 184.746 77.9203 187.819 64.8886 196.063C51.857 204.308 49.2357 231.206 97.0199 223.244C144.804 215.282 114.515 193.288 97.7759 193.33" stroke="#92E3A9" stroke-width="1.33333" stroke-linecap="round" stroke-linejoin="round"/>
<path d="M67.3312 203.862C67.3312 203.862 70.2482 201.202 71.5114 201.02C72.7747 200.837 69.1315 203.471 71.5184 203.852C73.9053 204.233 73.4022 202.903 75.7209 202.416C78.0397 201.929 78.7628 204.523 78.7628 204.523C78.7628 204.523 82.5319 203.239 84.7277 202.62C86.9235 202.001 85.4801 205.601 88.5046 204.499C91.5291 203.396 90.1575 201.72 94.9221 202.595C99.6868 203.471 108.927 202.881 113.076 202.55" stroke="#92E3A9" stroke-width="1.33333" stroke-linecap="round" stroke-linejoin="round"/>
<path d="M71.5846 211.771C72.522 209.485 71.3515 209.044 73.9666 210.198C76.5818 211.353 78.0757 212.916 79.195 211.752C79.6538 211.231 80.2626 210.865 80.9378 210.705C81.6129 210.544 82.3211 210.597 82.9651 210.856C84.079 211.325 81.4686 212.077 84.079 211.325C85.5947 210.908 86.9977 210.156 88.1854 209.125C88.1854 209.125 87.5291 210.712 90.2864 212.131C93.0436 213.549 94.9979 210.609 94.9979 210.609C99.2009 210.439 103.41 210.494 107.607 210.776" stroke="#92E3A9" stroke-width="1.33333" stroke-linecap="round" stroke-linejoin="round"/>
<path d="M97.6489 341.486L107.599 330.521L107.592 327.689L115.195 320.705C115.195 320.705 124.502 323.9 128.962 335.226L120.906 342.061L117.823 342.465L105.934 350.989C105.934 350.989 97.6653 348.14 97.6489 341.486Z" fill="#495E4C"/>
<path opacity="0.3" d="M115.5 322.818C115.5 322.818 118.929 332.948 127.724 334.993" stroke="white" stroke-width="0.8" stroke-linecap="round" stroke-linejoin="round"/>
<path opacity="0.3" d="M109.184 330.678C109.184 330.678 112.297 338.835 118.877 341.433" stroke="white" stroke-width="0.8" stroke-linecap="round" stroke-linejoin="round"/>
<path opacity="0.2" d="M224.977 28.5531L228.936 24.003L238.159 23.9803C240.646 23.4215 243.003 22.3902 245.102 20.9425C245.102 20.9425 241.585 17.3737 237.35 17.2615L229.391 17.2811L208.124 13.473L89.738 24.3469C88.9198 26.7514 88.6895 29.3172 89.0666 31.8292C89.4436 34.3411 90.417 36.726 91.905 38.7837L224.977 28.5531Z" fill="black" fill-opacity="0.7"/>
<path opacity="0.2" d="M278.266 38.3244L281.456 35.5886L291.773 35.4499C292.427 32.1077 292.495 28.6772 291.974 25.3117L263.743 15.5836C256.512 20.1228 259.499 38.3708 259.499 38.3708L278.266 38.3244Z" fill="black" fill-opacity="0.7"/>
<path d="M236.815 6.74661C236.815 6.74661 241.774 6.11137 244.609 8.40753C244.609 8.40753 244.248 11.3346 236.791 12.0987L236.815 6.74661Z" fill="#5CCD6A" stroke="#495E4C" stroke-width="0.666667" stroke-linecap="round" stroke-linejoin="round"/>
<path d="M227.626 5.45837L221.174 1.07558L89.5748 12.001C83.8169 21.379 91.0544 30.6589 91.0544 30.6589L223.482 19.2972L228.12 14.7266L237.302 13.1275C237.865 11.9729 238.147 10.7007 238.122 9.41583C238.193 8.0092 237.751 6.62476 236.877 5.52047L227.626 5.45837Z" fill="#495E4C"/>
<path d="M133.035 9.63816L191.719 4.67923C191.84 4.95553 191.892 5.25669 191.873 5.5575C191.853 5.85831 191.762 6.15003 191.606 6.40826C191.451 6.66649 191.236 6.88371 190.979 7.04175C190.723 7.1998 190.432 7.29407 190.132 7.31668L135.116 12.1722C134.853 12.1993 134.588 12.1707 134.336 12.0884C134.085 12.0061 133.854 11.8718 133.658 11.6943C133.462 11.5167 133.305 11.2999 133.198 11.0579C133.091 10.8159 133.036 10.5541 133.037 10.2895L133.035 9.63816Z" fill="#92E3A9"/>
<path opacity="0.3" d="M221.066 3.11523C221.066 3.11523 225.312 7.82432 222.346 17.2708" stroke="white" stroke-width="0.8" stroke-linecap="round" stroke-linejoin="round"/>
<path opacity="0.3" d="M228.137 6.7207C228.884 8.62196 229.082 10.6952 228.708 12.7037" stroke="white" stroke-width="0.8" stroke-linecap="round" stroke-linejoin="round"/>
<path opacity="0.3" d="M90.5781 13.7637C90.5781 13.7637 95.0673 17.6793 92.1055 28.8625" stroke="white" stroke-width="0.8" stroke-linecap="round" stroke-linejoin="round"/>
<path opacity="0.3" d="M93.0926 13.0118C93.0926 13.0118 94.5077 13.197 95.0911 20.294L221.076 8.28746C220.779 6.02375 219.882 3.88107 218.476 2.0828L93.0926 13.0118Z" fill="white"/>
<path opacity="0.3" d="M229.363 6.24805C230.004 7.27969 230.353 8.46658 230.371 9.68141L237.329 8.9846C237.201 8.02241 236.905 7.09021 236.455 6.23053L229.363 6.24805Z" fill="white"/>
<path d="M289.298 30.8494L274.945 27.2507L272.43 28.5973L262.699 25.1572C262.699 25.1572 261.119 15.4387 268.98 6.15008L278.807 10.0336L280.624 12.5683L293.729 19.0395C293.729 19.0395 295.146 27.6917 289.298 30.8494Z" fill="#5CCD6A"/>
<path d="M289.298 30.8494L274.945 27.2507L272.43 28.5973L262.699 25.1572C262.699 25.1572 261.119 15.4387 268.98 6.15008L278.807 10.0336L280.624 12.5683L293.729 19.0395C293.729 19.0395 295.146 27.6917 289.298 30.8494Z" stroke="#495E4C" stroke-width="0.8" stroke-linecap="round" stroke-linejoin="round"/>
<path d="M264.451 23.9149C264.451 23.9149 271.759 16.1001 269.408 7.38414" stroke="#495E4C" stroke-width="0.8" stroke-linecap="round" stroke-linejoin="round"/>
<path d="M274.331 25.7788C274.331 25.7788 280.048 19.1573 279.229 12.146" stroke="#495E4C" stroke-width="0.8" stroke-linecap="round" stroke-linejoin="round"/>
<path d="M298.7 365.496C298.7 365.496 291.047 298.241 285.844 283.982C280.641 269.722 273.602 222.392 273.602 222.392C273.602 222.392 289.48 221.078 294.289 221.019C299.099 220.96 305.302 216.338 305.302 216.338C304.777 217.284 303.578 216.711 302.677 210.936C302.073 207.068 296.195 205.912 296.195 205.912C296.195 205.912 282.099 207.004 270.202 205.428C267.323 206.344 264.231 206.352 261.347 205.45C257.014 203.885 256.133 202.197 258.504 199.897C258.504 199.897 255.126 195.507 266.616 189.211C266.616 189.211 258.951 182.349 262.675 177.894C266.398 173.438 275.186 168.961 275.186 168.961C275.186 168.961 275.546 165.6 277.166 164.728C278.785 163.855 287.604 160.218 292.443 156.846C297.282 153.473 299.395 153.714 308.354 153.446C317.312 153.179 328.246 150.905 332.353 152.764C335.544 154.21 337.039 159.898 337.039 159.898C340.022 160.834 340.335 165.714 340.527 166.912C341.417 172.262 347.63 194.429 350.375 198.274C353.119 202.118 354.749 208.844 354.267 212.338C353.785 215.832 352.541 219.894 351.313 227.033C350.086 234.172 345.922 258.781 343.865 265.885C341.808 272.988 340.678 285.309 341.806 291.281L370.766 348.743" fill="white"/>
<path opacity="0.4" d="M334.375 183.134C334.375 183.134 328.434 186.745 328.439 189.029C328.439 189.029 317.144 197.675 315.867 207.825C315.867 207.825 309.612 214.202 308.242 217.094C306.872 219.986 300.902 223.389 300.902 223.389C299.212 223.234 297.515 223.175 295.818 223.213C292.948 222.787 290.111 222.163 287.326 221.346C290.155 221.16 292.757 221.012 294.257 220.999C298.246 220.989 303.189 217.767 304.761 216.678C304.158 216.68 303.315 215.228 302.644 210.907C302.04 207.047 296.162 205.882 296.162 205.882C296.162 205.882 282.066 206.974 270.17 205.408C268.224 206.017 266.176 206.234 264.145 206.046C264.189 205.298 264.084 204.548 263.837 203.841C263.589 203.133 263.203 202.482 262.702 201.925C262.702 201.925 268.153 198.277 266.722 195.477C266.04 194.139 263.595 193.314 261.208 192.82C262.861 191.416 264.664 190.199 266.584 189.191C266.584 189.191 258.919 182.329 262.642 177.874C266.366 173.419 275.182 168.961 275.182 168.961C275.182 168.961 275.542 165.609 277.161 164.727C277.161 164.727 276.231 169.911 283.388 169.431C290.544 168.951 300.842 164.669 300.842 164.669C300.842 164.669 320.27 165.159 324.204 162.157C324.204 162.157 328.93 166.176 332.383 166.856C335.836 167.537 334.375 183.134 334.375 183.134Z" fill="#92E3A9"/>
<path opacity="0.4" d="M354.244 212.365C353.752 215.849 352.518 219.921 351.29 227.06C350.063 234.199 345.899 258.818 343.842 265.912C341.784 273.006 340.655 285.336 341.783 291.309L344.439 297.608C338.689 287.465 339.109 274.136 339.562 270.633C340.108 266.336 343.285 250.451 346.094 242.232C348.903 234.013 349.115 216.833 349.113 216.238C349.112 215.644 347.633 220.018 346.126 224.864C344.62 229.71 339.08 243.373 339.08 243.373C338.884 240.542 341.173 223.97 341.593 222.081C342.012 220.192 345.395 207.488 345.999 203.899C346.603 200.311 343.755 196.354 343.04 193.524C342.326 190.693 339.503 178.071 338.737 169.379C338.43 164.654 337.244 160.028 335.242 155.738C336.021 157.07 336.627 158.496 337.045 159.982C340.027 160.918 340.341 165.788 340.532 166.986C341.423 172.336 347.636 194.503 350.38 198.357C353.125 202.211 354.725 208.881 354.244 212.365Z" fill="#92E3A9"/>
<path opacity="0.4" d="M299.469 367.816C296.344 343.696 290.101 297.789 286.203 285.207C288.88 288.448 291.93 293.688 294.086 303.792C298.427 324.133 299.76 333.088 299.963 342.423C300.147 348.388 300.042 359.385 299.469 367.816Z" fill="#92E3A9"/>
<path d="M298.7 365.496C298.7 365.496 291.047 298.241 285.844 283.982C280.641 269.722 273.602 222.392 273.602 222.392C273.602 222.392 289.48 221.078 294.289 221.019C299.099 220.96 305.302 216.338 305.302 216.338C304.777 217.284 303.578 216.711 302.677 210.936C302.073 207.068 296.195 205.912 296.195 205.912C296.195 205.912 282.099 207.004 270.202 205.428C267.323 206.344 264.231 206.352 261.347 205.45C257.014 203.885 256.133 202.197 258.504 199.897C258.504 199.897 255.126 195.507 266.616 189.211C266.616 189.211 258.951 182.349 262.675 177.894C266.398 173.438 275.186 168.961 275.186 168.961C275.186 168.961 275.546 165.6 277.166 164.728C278.785 163.855 287.604 160.218 292.443 156.846C297.282 153.473 299.395 153.714 308.354 153.446C317.312 153.179 328.246 150.905 332.353 152.764C335.544 154.21 337.039 159.898 337.039 159.898C340.022 160.834 340.335 165.714 340.527 166.912C341.417 172.262 347.63 194.429 350.375 198.274C353.119 202.118 354.749 208.844 354.267 212.338C353.785 215.832 352.541 219.894 351.313 227.033C350.086 234.172 345.922 258.781 343.865 265.885C341.808 272.988 340.678 285.309 341.806 291.281L370.766 348.743" stroke="#495E4C" stroke-width="0.8" stroke-linecap="round" stroke-linejoin="round"/>
<path d="M258.457 199.896C258.457 199.896 260.946 203.26 269.524 201.861C278.102 200.461 288.361 191.856 288.361 191.856L294.512 189.235C294.512 189.235 302.351 190.084 305.205 188.709" stroke="#495E4C" stroke-width="0.8" stroke-linecap="round" stroke-linejoin="round"/>
<path d="M300.82 189.467C300.82 189.467 305.945 194.929 310.051 196.165" stroke="#495E4C" stroke-width="0.8" stroke-linecap="round" stroke-linejoin="round"/>
<path d="M305.253 216.339C308.727 214.093 313.314 207.823 317.537 207.35" stroke="#495E4C" stroke-width="0.666667" stroke-linecap="round" stroke-linejoin="round"/>
<path d="M304.519 208.75C306.39 202.506 312.032 196.159 312.032 196.159C312.959 194.079 314.122 192.112 315.498 190.298C316.895 188.222 319.023 186.751 321.457 186.177C321.457 186.177 316.481 172.191 317.936 169.375" stroke="#495E4C" stroke-width="0.8" stroke-linecap="round" stroke-linejoin="round"/>
<path d="M296.146 205.912C296.146 205.912 299.981 204.685 300.852 202.125" stroke="#495E4C" stroke-width="0.8" stroke-linecap="round" stroke-linejoin="round"/>
<path d="M295.266 200.684C295.266 200.684 295.04 204.668 289.064 205.928" stroke="#495E4C" stroke-width="0.8" stroke-linecap="round" stroke-linejoin="round"/>
<path d="M294.494 189.237C294.494 189.237 297.46 187.248 298.455 185.244" stroke="#495E4C" stroke-width="0.8" stroke-linecap="round" stroke-linejoin="round"/>
<path d="M275.184 168.962C275.184 168.962 274.126 171.957 278.58 173.182C283.035 174.408 294.97 173.019 299.93 168.901C299.93 168.901 301.148 165.415 300.774 163.179" stroke="#495E4C" stroke-width="0.8" stroke-linecap="round" stroke-linejoin="round"/>
<path d="M299.263 169.422C299.263 169.422 313.851 168.866 314.964 168.864C316.077 168.861 320.55 166.49 321.412 163.996" stroke="#495E4C" stroke-width="0.8" stroke-linecap="round" stroke-linejoin="round"/>
<path d="M321.438 186.178C321.438 186.178 324.722 187.302 326.994 186.806" stroke="#495E4C" stroke-width="0.8" stroke-linecap="round" stroke-linejoin="round"/>
<path d="M314.222 208.728C314.222 208.728 313.68 203.207 317.508 195.382" stroke="#495E4C" stroke-width="0.8" stroke-linecap="round" stroke-linejoin="round"/>
<path d="M337.02 159.926C339.019 167.623 342.128 192.95 344.195 197.74C346.263 202.53 346.512 204.163 345.033 208.65C343.554 213.137 341.176 223.97 341.176 223.97" stroke="#495E4C" stroke-width="0.8" stroke-linecap="round" stroke-linejoin="round"/>
<path d="M341.749 291.31C340.124 286.208 339.117 279.489 339.722 276.382" stroke="#495E4C" stroke-width="0.8" stroke-linecap="round" stroke-linejoin="round"/>
<path d="M246.929 183.135C246.929 183.135 242.8 183.919 241.41 186.16C241.41 186.16 242.631 188.044 247.619 187.522C252.606 187 246.929 183.135 246.929 183.135Z" fill="#495E4C"/>
<path d="M261.631 175.292L378.237 157.683L379.779 178.511L262.659 190.43L257.183 187.98L248.224 188.228C247.389 187.476 246.842 186.455 246.679 185.342C246.516 184.229 246.747 183.094 247.332 182.133L256.55 180.128L261.631 175.292Z" fill="#5CCD6A"/>
<path d="M281.69 176.335L329.769 169.383C330.253 169.314 330.746 169.344 331.219 169.471C331.691 169.597 332.133 169.818 332.518 170.119C332.904 170.42 333.225 170.796 333.462 171.224C333.699 171.652 333.847 172.123 333.898 172.61L333.995 173.554C334.096 174.5 333.821 175.447 333.23 176.192C332.639 176.937 331.779 177.419 330.836 177.535L282.67 183.516C282.19 183.575 281.703 183.537 281.238 183.405C280.772 183.273 280.338 183.049 279.961 182.747C279.583 182.444 279.269 182.069 279.039 181.644C278.808 181.219 278.664 180.751 278.616 180.27C278.529 179.345 278.799 178.422 279.371 177.69C279.943 176.958 280.772 176.474 281.69 176.335Z" fill="#495E4C"/>
<path opacity="0.3" d="M379.778 178.511L262.658 190.439L257.182 187.979L248.223 188.228C247.744 187.799 247.358 187.276 247.088 186.692L256.518 186.348L260.668 186.715L276.971 185.306L281.72 176.336C281.72 176.336 285.906 175.798 289.274 180.046C292.642 184.295 294.508 183.743 294.508 183.743L374.733 175.144L375.674 174.198C375.674 174.198 372.421 166.862 375.641 160.86C376.448 159.357 377.381 158.751 378.324 158.758L379.778 178.511Z" fill="black" fill-opacity="0.7"/>
<path d="M261.631 175.292L378.237 157.683L379.779 178.511L262.659 190.43L257.183 187.98L248.224 188.228C247.389 187.476 246.842 186.455 246.679 185.342C246.516 184.229 246.747 183.094 247.332 182.133L256.55 180.128L261.631 175.292Z" stroke="#495E4C" stroke-width="0.8" stroke-linecap="round" stroke-linejoin="round"/>
<path d="M378.235 157.681C386.315 157.019 388.102 177.658 379.777 178.509C371.81 179.322 370.032 158.343 378.235 157.681Z" fill="#5CCD6A"/>
<path opacity="0.3" d="M379.776 178.51C377.598 178.732 375.878 177.321 374.703 175.143L375.644 174.197C375.644 174.197 372.391 166.861 375.611 160.86C376.418 159.357 377.35 158.75 378.293 158.757C381.122 158.751 384.022 164.218 383.906 167.173L385.133 167.472C385.589 172.653 383.962 178.132 379.776 178.51Z" fill="black" fill-opacity="0.7"/>
<path d="M378.235 157.681C386.315 157.019 388.102 177.658 379.777 178.509C371.81 179.322 370.032 158.343 378.235 157.681Z" stroke="#495E4C" stroke-width="0.8" stroke-linecap="round" stroke-linejoin="round"/>
<path d="M261.63 175.29C261.63 175.29 259.327 178.203 259.963 183.714C260.184 186.169 261.121 188.504 262.658 190.428" stroke="#495E4C" stroke-width="0.8" stroke-linecap="round" stroke-linejoin="round"/>
<path d="M256.547 180.128C256.128 181.413 255.967 182.769 256.076 184.117C256.185 185.465 256.56 186.778 257.18 187.979" stroke="#495E4C" stroke-width="0.8" stroke-linecap="round" stroke-linejoin="round"/>
<path d="M374.667 179.032C366.691 179.845 365.104 159.781 373.221 158.44" stroke="#495E4C" stroke-width="0.8" stroke-linecap="round" stroke-linejoin="round"/>
<path d="M378.399 158.983C384.791 158.41 386.212 176.256 379.622 176.98C373.286 177.685 371.912 159.565 378.399 158.983Z" stroke="#495E4C" stroke-width="0.8" stroke-linecap="round" stroke-linejoin="round"/>
<path d="M378.422 160.258C378.422 160.258 381.763 161.486 382.372 167.554C382.982 173.622 379.563 175.499 379.563 175.499" stroke="#495E4C" stroke-width="0.8" stroke-linecap="round" stroke-linejoin="round"/>
<path d="M305.271 223.192C305.271 223.192 296.784 223.704 295.84 223.215C294.896 222.727 289.59 212.772 289.337 209.667C289.084 206.562 288.56 196.595 288.29 190.366C288.02 184.137 288.015 174.433 276.326 176.529C271.103 177.486 270.238 182.425 268.531 193.539C266.823 204.654 268.443 207.604 267.233 221.794C266.023 235.985 267.527 241.616 270.534 248.754C273.541 255.893 274.69 274.06 282.666 280.762C290.642 287.463 293.796 300.396 293.796 300.396" fill="white"/>
<path opacity="0.4" d="M284.378 187.534C282.238 188.059 274.006 188.504 273.476 191.252C272.945 194 277.833 195.281 279.867 197.74C279.791 197.74 271.379 197.761 269.503 201.871C267.627 205.982 271.091 214.79 271.103 219.642C271.115 224.494 266.914 234.217 270.161 239.25C273.001 243.641 275.648 253.763 274.304 263.385C272.866 257.631 271.872 252.064 270.496 248.754C267.508 241.663 266.004 236.003 267.214 221.841C268.423 207.679 266.794 204.691 268.511 193.577C269.736 185.598 270.526 180.791 272.821 178.369C275.508 177.777 278.544 177.543 280.367 178.841C284.269 181.522 286.546 187 284.378 187.534Z" fill="#92E3A9"/>
<path d="M305.271 223.192C305.271 223.192 296.784 223.704 295.84 223.215C294.896 222.727 289.59 212.772 289.337 209.667C289.084 206.562 288.56 196.595 288.29 190.366C288.02 184.137 288.015 174.433 276.326 176.529C271.103 177.486 270.238 182.425 268.531 193.539C266.823 204.654 268.443 207.604 267.233 221.794C266.023 235.985 267.527 241.616 270.534 248.754C273.541 255.893 274.69 274.06 282.666 280.762C290.642 287.463 293.796 300.396 293.796 300.396" stroke="#495E4C" stroke-width="0.8" stroke-linecap="round" stroke-linejoin="round"/>
<path d="M289.318 209.668C289.318 209.668 288.516 209.415 288.032 204.564C287.876 203.137 287.377 201.77 286.578 200.578C285.778 199.387 284.702 198.407 283.441 197.723" stroke="#495E4C" stroke-width="0.8" stroke-linecap="round" stroke-linejoin="round"/>
<path d="M272.504 197.75C272.504 197.75 269.035 198.504 267.67 203.369" stroke="#495E4C" stroke-width="0.8" stroke-linecap="round" stroke-linejoin="round"/>
<path d="M31.7863 97.6996C31.5155 97.7009 31.3066 97.5742 31.1596 97.3197C31.0125 97.06 30.9373 96.5577 30.9338 95.8129C30.9279 94.5317 31.2172 91.7751 31.8018 87.5432C31.8374 87.3607 31.7718 87.2516 31.605 87.216C31.4381 87.1751 30.7557 87.1574 29.5578 87.1629C27.9224 87.1705 26.9854 87.2712 26.7467 87.465C26.508 87.6588 26.3246 88.5295 26.1963 90.077C26.1471 90.6918 26.0006 91.6899 25.757 93.0712C25.4626 94.7288 25.317 95.9092 25.3203 96.6123L25.3538 97.1044C25.356 97.5731 25.1331 97.8085 24.6852 97.8106C24.1487 97.8131 23.879 97.4784 23.8758 96.8065C23.8734 96.2701 23.9154 95.7959 24.0021 95.3841C24.1447 94.6855 24.264 94.013 24.3599 93.3667C24.4206 92.9602 24.4914 92.5198 24.5726 92.0454C24.8972 90.1585 25.0576 88.814 25.0539 88.0119C25.0527 87.7411 24.927 87.5932 24.6769 87.5683C24.1818 87.5133 23.9335 87.3114 23.9319 86.9624C23.9308 86.728 23.9898 86.5377 24.1089 86.3913C24.2332 86.2449 24.3943 86.166 24.5922 86.1547C25.0921 86.1315 25.4563 86.0491 25.6848 85.9074C25.8927 85.8023 26.0487 85.7495 26.1528 85.749C26.3664 85.748 26.5515 85.794 26.7082 85.887C26.8805 85.9904 27.3808 86.0402 28.2089 86.0364C28.2193 86.0363 28.7713 86.0181 29.8649 85.9818C30.9637 85.9455 31.5651 85.9167 31.6692 85.8953C31.7733 85.874 31.9007 85.8318 32.0514 85.7686C32.2957 85.6633 32.496 85.6103 32.6523 85.6095L33.2777 85.7004L33.9728 85.6503C34.3946 85.6483 34.6064 85.8323 34.6081 86.2021C34.6093 86.4416 34.5321 86.6451 34.3766 86.8125C34.2211 86.9747 34.0444 87.0614 33.8465 87.0728C33.706 87.0838 33.5838 87.1365 33.4801 87.2307C33.3763 87.3197 33.2401 87.7162 33.0715 88.4201C32.9029 89.124 32.7393 90.3566 32.5808 92.1178C32.4275 93.8789 32.3541 95.4626 32.3606 96.8688L32.3619 97.1501C32.3624 97.2594 32.2952 97.3717 32.1603 97.4869C32.0255 97.6074 31.9008 97.6783 31.7863 97.6996Z" fill="#495E4C"/>
<path d="M41.5656 92.1855C41.6224 92.0759 41.7105 91.4218 41.83 90.2234C41.9193 89.2646 42.2217 88.784 42.7374 88.7816C43.1592 88.7797 43.3711 88.9897 43.3731 89.4115C43.3736 89.5105 43.338 89.7112 43.2665 90.0136C42.8732 91.6769 42.6791 93.071 42.6843 94.196C42.6899 95.4148 42.8941 96.2029 43.2968 96.5604C43.506 96.7521 43.6109 96.9079 43.6115 97.0277C43.6121 97.1735 43.506 97.3068 43.293 97.4276C43.0852 97.5484 42.8954 97.6091 42.7235 97.6099C41.911 97.6137 41.499 96.3604 41.4874 93.85C41.4866 93.6833 41.4237 93.6003 41.2987 93.6009C40.8091 93.6031 40.2103 93.6345 39.5023 93.6951C38.7942 93.7557 38.2867 93.8309 37.9798 93.9209C37.6782 94.0108 37.4911 94.095 37.4185 94.1735C37.3511 94.2467 37.2896 94.4475 37.2338 94.7759C37.1832 95.0991 37.1587 95.4351 37.1603 95.7841L37.1648 96.745C37.1674 97.3023 36.9134 97.5821 36.403 97.5845C35.9759 97.5865 35.7611 97.3088 35.7585 96.7515C35.7569 96.387 35.8016 95.9232 35.8927 95.3603C36.0598 94.3282 36.2235 92.5514 36.3837 90.0298C36.403 89.7016 36.4307 89.4931 36.4667 89.4044C36.5028 89.3157 36.5961 89.2189 36.7466 89.1141C36.9024 89.004 37.0714 88.9485 37.2537 88.9477C37.6287 88.9459 37.8169 89.0987 37.8183 89.406C37.8185 89.4529 37.7604 89.8438 37.6441 90.5787C37.5225 91.3136 37.4626 91.8842 37.4645 92.2905C37.4658 92.5769 37.5654 92.7197 37.7633 92.7188C38.1592 92.7169 38.8828 92.6485 39.9343 92.5134C40.9857 92.3731 41.5295 92.2638 41.5656 92.1855Z" fill="#495E4C"/>
<path d="M71.8139 89.9492C71.8143 90.0274 72.0232 90.1618 72.4408 90.3526C72.9053 90.5692 73.2474 90.776 73.4671 90.9729C73.6919 91.1645 73.8754 91.4241 74.0176 91.7516C74.1649 92.0738 74.2396 92.4615 74.2417 92.9146C74.2436 93.3313 73.965 93.9003 73.4059 94.6216C72.8519 95.3377 72.1307 95.94 71.2423 96.4285C70.3591 96.9118 69.4358 97.1556 68.4722 97.1601C68.2899 97.161 68.0345 97.1074 67.7059 96.9996C67.3824 96.8917 67.2205 96.7779 67.2199 96.6581C67.2169 96.0018 67.6789 95.6716 68.606 95.6673C68.8924 95.6712 69.1737 95.6673 69.4497 95.6556C69.7256 95.6387 70.0768 95.5459 70.5031 95.3773C70.9346 95.2034 71.3397 94.9619 71.7185 94.6529C72.0973 94.3438 72.3693 94.0431 72.5346 93.7506C72.6999 93.453 72.7819 93.1688 72.7807 92.8979C72.7785 92.4188 72.576 91.9952 72.1732 91.6273C71.7705 91.2594 71.2228 91.077 70.5301 91.0802C70.4259 91.0807 70.1789 91.1652 69.789 91.3336C69.3992 91.5073 69.1444 91.5944 69.0246 91.595C68.6184 91.5969 68.3629 91.546 68.2583 91.4423C68.1588 91.3386 68.1085 91.1539 68.1073 90.8883C68.1064 90.706 68.5427 90.441 69.4161 90.0932C70.2739 89.7506 71.0449 89.2288 71.7292 88.5277C72.4187 87.8266 72.7624 87.2677 72.7605 86.8511C72.7592 86.5698 72.6122 86.3231 72.3196 86.1109C72.0321 85.8935 71.6384 85.786 71.1384 85.7883C70.4926 85.7913 69.743 85.8833 68.8896 86.0643C68.0363 86.2401 67.5683 86.4116 67.4858 86.5786C67.4084 86.7456 67.1955 88.0149 66.8471 90.3863C66.4987 92.7525 66.3253 94.1205 66.327 94.4903C66.328 94.6882 66.3393 94.8783 66.3609 95.0605C66.3774 95.2479 66.3861 95.425 66.3868 95.5916C66.3901 96.3052 66.0454 96.6635 65.3527 96.6667C65.16 96.6676 65.0005 96.5303 64.8743 96.2549C64.748 95.9794 64.6843 95.7271 64.6833 95.4979C64.6828 95.399 64.7669 95.0001 64.9355 94.3014C65.1395 93.3526 65.3418 92.0547 65.5425 90.408C65.7432 88.756 65.8433 87.8753 65.8428 87.7659C65.8418 87.5472 65.8098 87.3859 65.7468 87.282C65.689 87.1781 65.5534 87.1266 65.3398 87.1276C65.2565 87.128 65.1732 87.131 65.0899 87.1366C65.0118 87.1422 64.9308 87.0931 64.847 86.9893C64.7684 86.8855 64.7288 86.7606 64.7281 86.6148C64.7262 86.2034 65.4064 85.7627 66.7689 85.2929C68.1313 84.8178 69.7578 84.5759 71.6484 84.5671C72.3411 84.5639 72.9567 84.7955 73.4954 85.2617C74.0392 85.728 74.3122 86.2085 74.3145 86.7033C74.3162 87.0574 74.0815 87.5611 73.6106 88.2144C73.1448 88.8623 72.5459 89.4406 71.8139 89.9492Z" fill="#495E4C"/>
<path d="M82.2064 90.3387C81.7221 90.3513 80.6923 91.791 79.117 94.6577C78.585 95.6237 78.275 96.1512 78.1868 96.2401C78.0987 96.3239 77.935 96.4002 77.6957 96.469C77.4616 96.5378 77.2665 96.5725 77.1102 96.5732C76.7613 96.5749 76.5837 95.896 76.5774 94.5366C76.5738 93.771 76.7315 92.3849 77.0503 90.3781C77.182 89.565 77.247 88.984 77.2454 88.635C77.2438 88.2913 77.3966 88.1187 77.7039 88.1173C78.282 88.1146 78.573 88.5299 78.5769 89.3633C78.5787 89.7539 78.4859 90.5199 78.2985 91.6614C78.0805 92.9646 77.9696 93.7567 77.9657 94.038C78.2872 93.724 78.758 93.0369 79.3781 91.9768C80.2568 90.5248 80.9036 89.6051 81.3184 89.2178C81.7385 88.8252 82.1725 88.6279 82.6204 88.6258C82.9589 88.6242 83.2282 88.8495 83.4282 89.3017C83.6334 89.7539 83.7608 90.8341 83.8104 92.5422C83.8228 92.9692 83.8633 93.2868 83.932 93.4948C84.0007 93.7028 84.0506 93.8067 84.0819 93.8066C84.3267 93.8054 84.8541 92.9697 85.6641 91.2992C86.0975 90.417 86.5189 89.7458 86.9282 89.2855C87.3427 88.8253 87.8026 88.594 88.3078 88.5916C88.7297 88.5897 89.038 88.807 89.2327 89.2436C89.4274 89.675 89.5684 90.3176 89.6557 91.1714C89.7378 92.0356 89.8613 92.8267 90.0261 93.5447C90.196 94.2627 90.5003 94.7222 90.9387 94.9233C91.2362 95.0625 91.3854 95.2259 91.3863 95.4134C91.3871 95.5957 91.263 95.7838 91.0139 95.9776C90.7648 96.1715 90.5361 96.2689 90.3277 96.2699C89.9111 96.2718 89.5375 96.0183 89.207 95.5094C88.8765 95.0005 88.624 93.8975 88.4495 92.2004C88.3734 91.5185 88.3009 91.0344 88.2318 90.7483C88.1628 90.4621 88.0554 90.3194 87.9095 90.3201C87.6908 90.3211 87.4313 90.5306 87.1312 90.9487C86.8363 91.3667 86.3584 92.2153 85.6977 93.4944C85.1814 94.4916 84.7887 95.1575 84.5194 95.4921C84.2553 95.8214 83.9982 95.9867 83.7482 95.9878C83.5243 95.9889 83.3233 95.9013 83.1454 95.725C82.9675 95.5435 82.8545 95.3279 82.8065 95.0781C82.7585 94.8231 82.7061 94.201 82.6494 93.2116C82.5637 91.5662 82.416 90.6085 82.2064 90.3387Z" fill="#495E4C"/>
<path d="M122.162 93.1783C122.365 93.1773 122.467 93.3019 122.468 93.5519C122.469 93.8123 122.182 94.186 121.606 94.673C121.03 95.1601 120.363 95.5486 119.604 95.8386C118.85 96.1285 118.158 96.275 117.528 96.2779C116.606 96.2821 115.763 95.9813 115 95.3755C114.242 94.7696 113.86 93.8886 113.855 92.7323C113.845 90.623 114.742 88.5667 116.545 86.5636C118.354 84.5552 120.099 83.5471 121.781 83.5393C122.411 83.5364 122.915 83.7294 123.292 84.1182C123.674 84.5019 123.866 84.9515 123.868 85.4672C123.87 85.9463 123.844 86.3241 123.788 86.6004C123.737 86.8766 123.574 87.1118 123.299 87.3057C123.023 87.4945 122.803 87.5893 122.636 87.5901C122.516 87.5906 122.412 87.539 122.323 87.4353C122.234 87.3315 122.189 87.1911 122.188 87.014C122.187 86.8942 122.23 86.644 122.317 86.2634C122.404 85.888 122.447 85.6092 122.446 85.4269C122.444 84.8956 122.211 84.6311 121.747 84.6332C121.028 84.6365 120.14 85.0547 119.081 85.8878C118.028 86.7156 117.134 87.7666 116.4 89.0408C115.667 90.3099 115.302 91.4782 115.307 92.5459C115.31 93.2595 115.524 93.8522 115.948 94.3242C116.377 94.791 116.985 95.0226 117.772 95.0189C118.225 95.0168 118.774 94.9023 119.419 94.6754C120.069 94.4432 120.664 94.1357 121.203 93.753C121.743 93.3703 122.063 93.1787 122.162 93.1783Z" fill="#495E4C"/>
<path d="M126.543 94.6111C126.293 95.5498 126.059 96.866 125.843 98.5597L125.631 100.037C125.596 100.246 125.5 100.452 125.345 100.656C125.19 100.865 125.047 100.97 124.917 100.97C124.755 100.971 124.57 100.889 124.361 100.723C124.157 100.562 124.055 100.433 124.054 100.334C124.053 100.047 124.116 99.6511 124.244 99.1453C125.179 95.2919 125.64 91.9095 125.627 88.9981L125.616 88.3419C125.603 87.7795 125.7 87.3702 125.907 87.114C126.114 86.8578 126.353 86.7291 126.624 86.7279C126.749 86.7273 126.869 86.8257 126.985 87.0231C127.1 87.2152 127.159 87.491 127.161 87.8504C127.163 88.3556 127.114 88.9678 127.013 89.687C126.882 90.5939 126.814 91.115 126.809 91.2505C127.579 89.8927 128.397 88.8317 129.263 88.0672C130.129 87.3028 130.935 86.9188 131.68 86.9154C132.206 86.913 132.649 87.1088 133.011 87.503C133.377 87.8919 133.562 88.3781 133.564 88.9614C133.572 90.6593 132.928 92.2039 131.633 93.5954C130.337 94.9868 129.072 95.6854 127.837 95.6911C127.53 95.6925 127.285 95.6155 127.102 95.4601C126.924 95.3047 126.738 95.0217 126.543 94.6111ZM131.366 88.2997C130.631 88.3031 129.726 88.9948 128.649 90.3748C127.572 91.7548 127.035 92.8276 127.039 93.5932C127.04 93.7807 127.147 93.9625 127.362 94.1386C127.576 94.3147 127.847 94.402 128.175 94.4004C128.92 94.397 129.774 93.8436 130.738 92.7401C131.702 91.6315 132.181 90.5459 132.176 89.4834C132.174 89.1032 132.095 88.8119 131.938 88.6095C131.786 88.4019 131.595 88.2986 131.366 88.2997Z" fill="#495E4C"/>
<path d="M160.957 85.1476L160.935 85.5305C160.909 85.6348 160.772 86.3178 160.522 87.5793L160.477 87.7827C160.431 88.1162 160.315 89.4163 160.127 91.6828L159.934 93.7384C159.904 94.0771 159.883 94.5459 159.87 95.1449C159.838 96.1868 159.781 96.7756 159.698 96.9114C159.621 97.0472 159.489 97.1702 159.302 97.2804C159.12 97.3958 158.946 97.4539 158.779 97.4547C158.592 97.4556 158.445 97.3443 158.34 97.1208C158.235 96.9025 158.182 96.6319 158.18 96.309C158.178 95.9288 158.284 95.0507 158.496 93.6747C158.643 92.7313 158.736 91.6241 158.777 90.3531C158.751 90.1813 158.675 90.0905 158.55 90.0807C158.409 90.0813 157.965 90.31 157.217 90.7665C156.35 91.3018 155.557 91.6727 154.839 91.8791C154.127 92.0803 153.559 92.1819 153.137 92.1839C152.45 92.1871 151.939 91.9707 151.603 91.5347C151.268 91.0936 151.097 90.1647 151.09 88.748C151.087 88.1178 151.183 87.3153 151.376 86.3404C151.575 85.3603 151.822 84.7967 152.118 84.6494C152.42 84.5022 152.646 84.4283 152.797 84.4276C152.922 84.427 153.034 84.4942 153.134 84.6291C153.233 84.7641 153.284 84.9566 153.285 85.2066C153.285 85.2586 153.147 85.7775 152.87 86.7632C152.588 87.7541 152.449 88.5021 152.451 89.0073C152.455 89.8094 152.509 90.317 152.614 90.53C152.719 90.7379 153.035 90.8406 153.561 90.8382C153.899 90.8366 154.386 90.7302 155.02 90.5189C155.655 90.3076 156.286 90.0261 156.915 89.6742C157.544 89.3223 158.026 88.9841 158.363 88.6597C158.7 88.3352 158.905 88.1077 158.977 87.9771C159.05 87.8414 159.108 87.5156 159.153 86.9997C159.162 86.8486 159.175 86.7158 159.19 86.6011C159.24 86.1738 159.264 85.7648 159.262 85.3742C159.262 85.2128 159.367 85.0169 159.58 84.7868C159.798 84.5566 159.992 84.4411 160.164 84.4403C160.357 84.4394 160.537 84.5089 160.704 84.6488C160.872 84.7834 160.956 84.9497 160.957 85.1476Z" fill="#495E4C"/>
<path d="M169.239 90.4609C168.755 90.4736 167.725 91.9132 166.15 94.7799C165.618 95.746 165.308 96.2734 165.219 96.3624C165.131 96.4461 164.968 96.5224 164.728 96.5912C164.494 96.66 164.299 96.6948 164.143 96.6955C163.794 96.6971 163.616 96.0182 163.61 94.6589C163.606 93.8933 163.764 92.5071 164.083 90.5004C164.215 89.6873 164.28 89.1062 164.278 88.7573C164.276 88.4135 164.429 88.241 164.737 88.2395C165.315 88.2369 165.606 88.6522 165.609 89.4855C165.611 89.8761 165.518 90.6422 165.331 91.7837C165.113 93.0868 165.002 93.879 164.998 94.1603C165.32 93.8463 165.791 93.1592 166.411 92.099C167.289 90.647 167.936 89.7273 168.351 89.34C168.771 88.9474 169.205 88.7501 169.653 88.748C169.992 88.7465 170.261 88.9718 170.461 89.424C170.666 89.8762 170.793 90.9563 170.843 92.6644C170.855 93.0915 170.896 93.409 170.965 93.617C171.033 93.825 171.083 93.929 171.114 93.9288C171.359 93.9277 171.887 93.0919 172.697 91.4215C173.13 90.5393 173.551 89.868 173.961 89.4078C174.375 88.9475 174.835 88.7162 175.34 88.7139C175.762 88.7119 176.071 88.9293 176.265 89.3659C176.46 89.7973 176.601 90.4399 176.688 91.2936C176.77 92.1578 176.894 92.9489 177.059 93.6669C177.229 94.3849 177.533 94.8444 177.971 95.0455C178.269 95.1848 178.418 95.3482 178.419 95.5357C178.42 95.718 178.296 95.906 178.046 96.0999C177.797 96.2938 177.569 96.3912 177.36 96.3921C176.944 96.3941 176.57 96.1406 176.24 95.6317C175.909 95.1228 175.657 94.0198 175.482 92.3227C175.406 91.6407 175.333 91.1567 175.264 90.8705C175.195 90.5844 175.088 90.4416 174.942 90.4423C174.723 90.4433 174.464 90.6529 174.164 91.0709C173.869 91.489 173.391 92.3375 172.73 93.6167C172.214 94.6139 171.821 95.2797 171.552 95.6143C171.288 95.9437 171.031 96.1089 170.781 96.1101C170.557 96.1111 170.356 96.0235 170.178 95.8472C170 95.6658 169.887 95.4501 169.839 95.2004C169.791 94.9454 169.739 94.3232 169.682 93.3339C169.596 91.6884 169.449 90.7308 169.239 90.4609Z" fill="#495E4C"/>
<path d="M203.611 97.5375C203.34 97.5388 203.131 97.4121 202.984 97.1576C202.837 96.8979 202.761 96.3956 202.758 95.6508C202.752 94.3696 203.041 91.613 203.626 87.3811C203.662 87.1986 203.596 87.0895 203.429 87.0539C203.262 87.013 202.58 86.9953 201.382 87.0008C199.747 87.0084 198.81 87.1091 198.571 87.3029C198.332 87.4967 198.149 88.3674 198.021 89.9149C197.971 90.5297 197.825 91.5278 197.581 92.9091C197.287 94.5667 197.141 95.7471 197.144 96.4502L197.178 96.9423C197.18 97.411 196.957 97.6464 196.509 97.6485C195.973 97.651 195.703 97.3163 195.7 96.6444C195.698 96.108 195.74 95.6338 195.826 95.2219C195.969 94.5234 196.088 93.8509 196.184 93.2046C196.245 92.7981 196.316 92.3577 196.397 91.8833C196.721 89.9964 196.882 88.6519 196.878 87.8498C196.877 87.579 196.751 87.4311 196.501 87.4062C196.006 87.3512 195.758 87.1493 195.756 86.8003C195.755 86.5659 195.814 86.3755 195.933 86.2292C196.057 86.0827 196.219 86.0039 196.416 85.9925C196.916 85.9694 197.281 85.887 197.509 85.7453C197.717 85.6402 197.873 85.5874 197.977 85.5869C198.191 85.5859 198.376 85.6319 198.532 85.7249C198.705 85.8283 199.205 85.8781 200.033 85.8742C200.044 85.8742 200.596 85.856 201.689 85.8197C202.788 85.7834 203.389 85.7545 203.493 85.7332C203.597 85.7119 203.725 85.6697 203.876 85.6065C204.12 85.5012 204.32 85.4481 204.476 85.4474L205.102 85.5383L205.797 85.4882C206.219 85.4862 206.431 85.6702 206.432 86.0399C206.433 86.2795 206.356 86.483 206.201 86.6504C206.045 86.8126 205.869 86.8993 205.671 86.9107C205.53 86.9217 205.408 86.9744 205.304 87.0686C205.201 87.1576 205.064 87.5541 204.896 88.258C204.727 88.9619 204.564 90.1945 204.405 91.9556C204.252 93.7168 204.178 95.3005 204.185 96.7067L204.186 96.988C204.187 97.0973 204.119 97.2096 203.985 97.3248C203.85 97.4453 203.725 97.5161 203.611 97.5375Z" fill="#495E4C"/>
<path d="M213.299 90.9457C212.815 90.9584 211.785 92.3981 210.209 95.2648C209.677 96.2308 209.367 96.7583 209.279 96.8472C209.191 96.9309 209.027 97.0072 208.788 97.076C208.554 97.1448 208.359 97.1796 208.203 97.1803C207.854 97.1819 207.676 96.5031 207.67 95.1437C207.666 94.3781 207.824 92.9919 208.143 90.9852C208.274 90.1721 208.339 89.5911 208.338 89.2421C208.336 88.8984 208.489 88.7258 208.796 88.7243C209.374 88.7217 209.665 89.137 209.669 89.9703C209.671 90.3609 209.578 91.127 209.391 92.2685C209.173 93.5716 209.062 94.3638 209.058 94.6451C209.38 94.3311 209.85 93.644 210.471 92.5838C211.349 91.1318 211.996 90.2122 212.411 89.8248C212.831 89.4322 213.265 89.2349 213.713 89.2328C214.051 89.2313 214.321 89.4566 214.521 89.9088C214.726 90.361 214.853 91.4411 214.903 93.1493C214.915 93.5763 214.956 93.8938 215.024 94.1018C215.093 94.3098 215.143 94.4138 215.174 94.4136C215.419 94.4125 215.947 93.5767 216.757 91.9063C217.19 91.0241 217.611 90.3528 218.021 89.8926C218.435 89.4323 218.895 89.2011 219.4 89.1987C219.822 89.1968 220.13 89.4141 220.325 89.8507C220.52 90.2821 220.661 90.9247 220.748 91.7784C220.83 92.6427 220.954 93.4338 221.119 94.1518C221.288 94.8697 221.593 95.3293 222.031 95.5304C222.329 95.6696 222.478 95.833 222.479 96.0205C222.48 96.2028 222.355 96.3908 222.106 96.5847C221.857 96.7786 221.629 96.876 221.42 96.877C221.004 96.8789 220.63 96.6254 220.299 96.1165C219.969 95.6076 219.716 94.5046 219.542 92.8075C219.466 92.1255 219.393 91.6415 219.324 91.3553C219.255 91.0692 219.148 90.9265 219.002 90.9271C218.783 90.9282 218.524 91.1377 218.224 91.5557C217.929 91.9738 217.451 92.8224 216.79 94.1015C216.274 95.0987 215.881 95.7646 215.612 96.0991C215.348 96.4285 215.091 96.5937 214.841 96.5949C214.617 96.5959 214.416 96.5083 214.238 96.3321C214.06 96.1506 213.947 95.935 213.899 95.6852C213.851 95.4302 213.799 94.808 213.742 93.8187C213.656 92.1732 213.508 91.2156 213.299 90.9457Z" fill="#495E4C"/>
<path d="M158.188 56.2027C158.102 56.7079 157.816 56.9628 157.33 56.9676L155.452 56.9859C155.24 56.988 154.071 57.0936 151.946 57.3028C151.187 57.377 150.732 57.4149 150.58 57.4164C150.471 57.4174 150.279 57.3737 150.005 57.2853C149.858 57.2381 149.752 57.2938 149.687 57.4524L149.696 57.4341C149.057 62.9155 148.739 65.8293 148.742 66.1756C148.745 66.4126 148.765 66.6707 148.805 66.9498C148.85 67.2653 148.874 67.5598 148.877 67.8333C148.88 68.1735 148.677 68.4793 148.266 68.7507C147.862 69.0281 147.59 69.1675 147.45 69.1689C147.225 69.1711 146.951 69.0522 146.626 68.8123C146.308 68.5724 146.147 68.2792 146.144 67.9329C146.139 67.5015 146.174 67.0423 146.249 66.5555C146.271 66.4094 146.294 66.2269 146.316 66.0079C146.349 65.6491 146.46 64.8489 146.648 63.6074C146.865 62.1894 146.974 61.4531 146.973 61.3984L147.351 58.1315C147.339 56.892 147.353 56.1141 147.392 55.7977C147.432 55.4753 147.578 55.2125 147.831 55.0095C148.09 54.8004 148.405 54.694 148.776 54.6904C149.043 54.6878 149.339 54.7548 149.662 54.8914C150.193 55.1049 150.753 55.2088 151.342 55.2031L155.468 54.8346C156.148 54.7733 156.768 54.8462 157.329 55.0534C157.897 55.2606 158.182 55.5981 158.187 56.0659L158.188 56.2027Z" fill="#495E4C"/>
<path d="M163.669 67.7161C163.552 68.2094 163.409 69.1163 163.239 70.4365C163.07 71.7629 162.969 72.6511 162.937 73.1011C162.905 73.5572 162.751 73.9445 162.475 74.2632C162.204 74.5818 161.96 74.7422 161.741 74.7444C161.468 74.747 161.196 74.6464 160.927 74.4424C160.657 74.2384 160.522 74.0149 160.519 73.7719C160.514 73.2797 160.585 72.7109 160.73 72.0653C161.606 68.4168 162.068 64.66 162.115 60.7947L162.113 60.6124C162.106 59.859 162.125 59.3514 162.171 59.0897C162.217 58.8218 162.367 58.5652 162.62 58.3196C162.872 58.0741 163.172 57.9496 163.518 57.9462C163.81 57.9434 164.048 58.0717 164.233 58.3312C164.424 58.5906 164.522 58.9664 164.527 59.4586C164.532 59.9568 164.449 60.8296 164.279 62.077C164.942 60.9464 165.738 60.0089 166.667 59.2645C167.601 58.514 168.455 58.135 169.226 58.1275C169.907 58.1208 170.486 58.3582 170.965 58.8397C171.45 59.3211 171.696 59.9294 171.703 60.6646C171.722 62.6272 170.977 64.421 169.468 66.0461C167.964 67.665 166.468 68.4817 164.98 68.4963C164.287 68.503 163.85 68.243 163.669 67.7161ZM168.891 60.1998C168.15 60.2071 167.194 60.9396 166.023 62.3972C164.858 63.8549 164.28 64.9969 164.288 65.8232C164.29 66.0359 164.395 66.2263 164.604 66.3944C164.818 66.5564 165.065 66.636 165.344 66.6332C166.116 66.6257 166.994 66.0125 167.979 64.7936C168.969 63.5686 169.459 62.391 169.448 61.2609C169.445 60.8841 169.384 60.6143 169.267 60.4514C169.15 60.2824 169.025 60.1985 168.891 60.1998Z" fill="#495E4C"/>
<path d="M183.148 65.0829C181.582 67.1947 180.068 68.2577 178.603 68.272C178.056 68.2774 177.583 68.0663 177.184 67.6387C176.785 67.2112 176.582 66.6632 176.576 65.9948C176.56 64.3847 177.26 62.6642 178.676 60.8334C180.093 58.9966 181.53 58.0711 182.988 58.0568C183.729 58.0496 184.219 58.4185 184.457 59.1636C185.156 59.1568 185.508 59.4207 185.513 59.9554C185.516 60.2106 185.453 60.673 185.326 61.3427C185.095 62.5968 184.984 63.5975 184.991 64.3448C184.999 65.1226 185.056 65.6689 185.162 65.9839C185.274 66.2988 185.355 66.5046 185.405 66.6013C185.455 66.6981 185.601 66.7999 185.846 66.9069C186.09 67.02 186.213 67.1798 186.215 67.3864C186.218 67.6963 186.062 67.9561 185.748 68.1657C185.441 68.3754 185.117 68.4818 184.776 68.4851C184.205 68.4907 183.789 68.2092 183.528 67.6405C183.274 67.0718 183.143 66.4047 183.135 65.6391L183.132 65.3656C183.132 65.2745 183.137 65.1803 183.148 65.0829ZM182.606 60.0112C181.992 60.0171 181.2 60.7055 180.229 62.0761C179.264 63.4407 178.786 64.5969 178.795 65.5447C178.8 66.043 178.906 66.2911 179.113 66.2891C179.83 66.2821 180.704 65.6385 181.737 64.3584C182.776 63.0721 183.29 61.952 183.281 60.9981C183.278 60.6943 183.206 60.455 183.064 60.2801C182.929 60.0991 182.776 60.0095 182.606 60.0112Z" fill="#495E4C"/>
<path d="M198.706 66.9818C198.648 67.2497 198.54 68.2899 198.381 70.1023L198.112 73.277C198.09 73.5263 197.955 73.7707 197.709 74.0101C197.462 74.2495 197.217 74.3704 196.974 74.3728C196.585 74.3766 196.286 74.2701 196.077 74.0534C195.869 73.8427 195.763 73.625 195.761 73.4002C195.756 72.8898 195.932 71.6393 196.29 69.6488C196.416 68.9244 196.551 68.1118 196.694 67.2111C195.862 67.8877 194.997 68.2303 194.097 68.2391C193.186 68.248 192.476 67.9997 191.966 67.4943C191.463 66.9888 191.207 66.2712 191.198 65.3415C191.184 63.8833 191.725 62.3649 192.821 60.7864C193.918 59.2079 195.013 58.4133 196.107 58.4026C196.702 58.3968 197.196 58.8265 197.587 59.6916C197.625 59.2294 197.64 58.6337 197.633 57.9046L197.57 55.1707C197.564 54.5752 197.533 54.1411 197.475 53.8682C197.438 53.747 197.419 53.6621 197.418 53.6135C197.415 53.2976 197.516 53.0049 197.72 52.7355C197.924 52.4662 198.174 52.33 198.472 52.3271C198.685 52.325 198.929 52.4168 199.204 52.6025C199.479 52.7821 199.652 53.0023 199.721 53.2629C199.796 53.5174 199.836 53.8937 199.841 54.392C199.865 56.8042 199.769 58.774 199.553 60.3013L199.375 61.6977C199.874 60.5564 200.525 59.6355 201.326 58.935C202.133 58.2343 202.959 57.8799 203.804 57.8717C204.49 57.8649 205.064 58.1054 205.525 58.5932C205.991 59.0747 206.228 59.6801 206.235 60.4092C206.249 61.8371 206.009 63.0457 205.514 64.0349C205.019 65.0181 204.256 65.9219 203.225 66.7462C202.194 67.5706 201.129 67.9881 200.029 67.9989C199.464 68.0044 199.023 67.6654 198.706 66.9818ZM199.379 64.8697C199.382 65.1856 199.478 65.4551 199.669 65.6781C199.866 65.8949 200.131 66.0017 200.465 65.9984C201.225 65.991 202.015 65.4455 202.837 64.3619C203.659 63.2783 204.065 62.1623 204.053 61.0139C204.05 60.6311 203.983 60.3583 203.854 60.1955C203.731 60.0326 203.602 59.9518 203.469 59.9532C203.074 59.957 202.69 60.1248 202.316 60.4566C201.942 60.7823 201.474 61.3429 200.911 62.1384C200.347 62.9278 199.836 63.8382 199.379 64.8697ZM196.983 65.0936C197.119 63.9924 197.193 63.1652 197.205 62.6121C197.213 62.1077 197.182 61.7343 197.112 61.4919C197.049 61.2434 196.889 60.9927 196.631 60.74C196.373 60.4813 196.12 60.3531 195.871 60.3555C195.579 60.3584 195.095 60.9282 194.42 62.0651C193.75 63.1958 193.421 64.2746 193.431 65.3015C193.434 65.6174 193.524 65.8748 193.703 66.0736C193.881 66.2724 194.134 66.3702 194.462 66.367C194.796 66.3637 195.247 66.2165 195.816 65.9253C196.384 65.6281 196.773 65.3509 196.983 65.0936Z" fill="#495E4C"/>
<path d="M218.041 64.4412C217.468 65.5102 216.799 66.3614 216.033 66.9948C215.274 67.6281 214.499 67.9486 213.709 67.9564C213.241 67.9609 212.765 67.7195 212.28 67.232C211.801 66.7445 211.557 65.9903 211.547 64.9695C211.54 64.2465 211.712 63.154 212.062 61.6922C212.366 60.486 212.515 59.57 212.509 58.9442C212.747 58.4314 213.124 58.1725 213.641 58.1675C213.993 58.164 214.274 58.2798 214.483 58.5147C214.698 58.7436 214.806 58.9764 214.809 59.2134C214.813 59.6448 214.667 60.26 214.371 61.0589C214.199 61.5346 214.014 62.2079 213.816 63.0788C213.624 63.9435 213.529 64.4974 213.532 64.7405C213.54 65.5486 213.711 65.951 214.045 65.9478C214.574 65.9426 215.283 65.4283 216.172 64.4048C217.061 63.3813 217.637 62.3365 217.9 61.2705C218.164 60.2289 218.4 59.546 218.61 59.2219C218.819 58.8977 219.118 58.7338 219.507 58.73C220.139 58.7238 220.459 59.0731 220.465 59.778C220.466 59.8813 220.417 60.0884 220.317 60.3992C219.969 61.4782 219.801 62.6922 219.814 64.041C219.83 65.6208 220.106 66.5631 220.644 66.8677C220.821 66.9693 220.911 67.096 220.912 67.2479C220.914 67.4667 220.761 67.6748 220.453 67.8722C220.145 68.0697 219.852 68.1698 219.572 68.1725C219.092 68.1772 218.718 67.8436 218.45 67.1717C218.188 66.4937 218.052 65.5835 218.041 64.4412Z" fill="#495E4C"/>
<path d="M231.27 62.9994C231.544 63.0636 231.8 63.1795 232.039 63.3474C232.277 63.5152 232.563 63.8223 232.896 64.2687C233.536 65.1375 234.04 65.7068 234.407 65.9767C234.774 66.2466 235.174 66.3794 235.605 66.3752C236.055 66.3708 236.281 66.5083 236.284 66.7878C236.286 67.0552 236.134 67.3271 235.827 67.6035C235.519 67.88 235.032 68.0215 234.363 68.028C233.336 68.038 232.286 67.2006 231.212 65.5157C230.589 64.5252 230.071 64.032 229.657 64.036C229.603 64.0366 229.454 64.0775 229.212 64.1589C228.976 64.2402 228.822 64.3146 228.749 64.3822C228.677 64.4436 228.62 64.8301 228.578 65.5414L228.494 67.2194C228.485 67.493 228.375 67.728 228.164 67.9245C227.953 68.1271 227.69 68.2299 227.374 68.233C227.04 68.2363 226.778 68.1447 226.588 67.9581C226.397 67.7777 226.301 67.5933 226.3 67.4049C226.297 67.174 226.368 66.6781 226.513 65.9171C226.859 63.9996 227.125 61.6574 227.31 58.8907C227.331 58.5381 227.474 58.2146 227.738 57.9204C228.003 57.6261 228.314 57.4772 228.673 57.4737C228.922 57.4713 229.129 57.5756 229.296 57.7867C229.462 57.9977 229.546 58.243 229.549 58.5225C229.551 58.7412 229.517 58.9634 229.446 59.1889C229.357 59.4511 229.232 59.987 229.07 60.7968C228.914 61.6065 228.819 62.2242 228.787 62.6499C229.508 62.4241 230.067 62.1148 230.464 61.722C230.862 61.3293 231.354 60.7016 231.941 59.839C232.432 59.1293 232.895 58.6053 233.329 58.2668C233.763 57.9223 234.242 57.7474 234.764 57.7423C235.05 57.7395 235.315 57.8585 235.561 58.0992C235.812 58.3337 235.939 58.5846 235.942 58.852C235.944 59.0768 235.876 59.2476 235.737 59.3644C235.604 59.4751 235.369 59.5837 235.029 59.6904C234.599 59.8222 234.141 60.173 233.654 60.7429C232.645 61.9256 231.85 62.6777 231.27 62.9994Z" fill="#495E4C"/>
<path d="M249.788 93.8872C249.991 93.8863 250.093 94.0108 250.095 94.2608C250.096 94.5212 249.808 94.895 249.233 95.382C248.657 95.8691 247.989 96.2576 247.23 96.5475C246.476 96.8375 245.784 96.9839 245.154 96.9868C244.232 96.9911 243.39 96.6903 242.626 96.0845C241.868 95.4786 241.487 94.5975 241.481 93.4413C241.471 91.3319 242.368 89.2757 244.171 87.2725C245.98 85.2641 247.725 84.256 249.408 84.2483C250.038 84.2453 250.541 84.4383 250.918 84.8272C251.3 85.2109 251.492 85.6605 251.495 86.1761C251.497 86.6553 251.47 87.033 251.414 87.3093C251.363 87.5856 251.2 87.8207 250.925 88.0147C250.65 88.2035 250.429 88.2983 250.262 88.299C250.142 88.2996 250.038 88.248 249.949 88.1442C249.86 88.0405 249.815 87.9001 249.814 87.723C249.814 87.6032 249.857 87.353 249.944 86.9724C250.03 86.597 250.073 86.3181 250.073 86.1358C250.07 85.6046 249.837 85.34 249.374 85.3422C248.655 85.3455 247.766 85.7637 246.707 86.5967C245.654 87.4245 244.76 88.4755 244.027 89.7498C243.293 91.0188 242.929 92.1872 242.934 93.2549C242.937 93.9684 243.151 94.5612 243.575 95.0332C244.004 95.5 244.612 95.7315 245.398 95.7279C245.851 95.7258 246.4 95.6113 247.045 95.3843C247.695 95.1521 248.29 94.8447 248.83 94.462C249.37 94.0793 249.689 93.8877 249.788 93.8872Z" fill="#495E4C"/>
<path d="M257.379 88.0942C257.178 87.5587 256.717 86.9801 255.996 86.3584C255.316 85.7782 254.975 85.2798 254.973 84.8631C254.971 84.5298 255.08 84.2611 255.297 84.0569C255.515 83.8476 255.921 83.6582 256.513 83.4888C257.252 83.2823 258.004 83.0496 258.768 82.7909C259.533 82.5269 259.993 82.3581 260.149 82.2845C260.247 82.2371 260.349 82.2132 260.453 82.2127C260.625 82.2119 260.711 82.3652 260.713 82.6725C260.714 82.8444 260.506 83.0797 260.091 83.3785C259.676 83.6773 258.94 83.9567 257.884 84.2168C257.218 84.3866 256.81 84.5135 256.659 84.5975C256.514 84.6763 256.441 84.7574 256.442 84.8407C256.442 85.0282 256.647 85.2981 257.055 85.6504C258.592 86.9818 259.366 88.6579 259.375 90.6788C259.379 91.5485 259.154 92.4819 258.7 93.4788C258.247 94.4705 257.638 95.2103 256.875 95.6982C256.117 96.1861 255.373 96.4317 254.644 96.4351C253.987 96.4381 253.489 96.1201 253.147 95.4811C252.806 94.842 252.633 94.1371 252.629 93.3663C252.623 92.0017 253.036 90.7133 253.869 89.5011C254.708 88.2889 255.595 87.6806 256.533 87.6763C256.658 87.6757 256.814 87.7557 257.003 87.9163C257.175 88.0717 257.301 88.131 257.379 88.0942ZM253.997 93.3912C253.999 93.9693 254.077 94.4221 254.23 94.7495C254.387 95.0769 254.591 95.24 254.841 95.2389C255.175 95.2373 255.624 95.0295 256.19 94.6154C256.756 94.2013 257.209 93.5899 257.549 92.781C257.894 91.9721 258.065 91.2161 258.062 90.513C258.059 89.9296 257.973 89.4587 257.805 89.1001C257.642 88.7362 257.49 88.5546 257.349 88.5553C256.422 88.5596 255.631 89.1284 254.974 90.2616C254.318 91.3949 253.992 92.4381 253.997 93.3912Z" fill="#495E4C"/>
<path d="M294.318 88.5235C294.318 88.6016 294.527 88.736 294.945 88.9268C295.409 89.1434 295.751 89.3502 295.971 89.5471C296.196 89.7387 296.379 89.9983 296.521 90.3258C296.669 90.648 296.744 91.0357 296.746 91.4888C296.748 91.9055 296.469 92.4745 295.91 93.1958C295.356 93.912 294.635 94.5143 293.746 95.0027C292.863 95.486 291.94 95.7299 290.976 95.7343C290.794 95.7352 290.538 95.6817 290.21 95.5738C289.886 95.4659 289.724 95.3521 289.724 95.2323C289.721 94.5761 290.183 94.2458 291.11 94.2415C291.396 94.2454 291.678 94.2415 291.954 94.2298C292.23 94.2129 292.581 94.1201 293.007 93.9515C293.438 93.7776 293.844 93.5361 294.222 93.2271C294.601 92.918 294.873 92.6173 295.039 92.3249C295.204 92.0272 295.286 91.743 295.285 91.4722C295.282 90.993 295.08 90.5694 294.677 90.2015C294.274 89.8336 293.727 89.6512 293.034 89.6544C292.93 89.6549 292.683 89.7394 292.293 89.9079C291.903 90.0815 291.648 90.1687 291.529 90.1692C291.122 90.1711 290.867 90.1202 290.762 90.0165C290.663 89.9128 290.612 89.7281 290.611 89.4625C290.61 89.2802 291.047 89.0152 291.92 88.6674C292.778 88.3249 293.549 87.8031 294.233 87.102C294.923 86.4009 295.266 85.842 295.264 85.4253C295.263 85.1441 295.116 84.8973 294.823 84.6851C294.536 84.4677 294.142 84.3602 293.642 84.3625C292.996 84.3655 292.247 84.4575 291.394 84.6385C290.54 84.8143 290.072 84.9858 289.99 85.1528C289.912 85.3199 289.699 86.5891 289.351 88.9605C289.003 91.3267 288.829 92.6947 288.831 93.0645C288.832 93.2625 288.843 93.4525 288.865 93.6347C288.881 93.8221 288.89 93.9992 288.891 94.1658C288.894 94.8794 288.549 95.2377 287.857 95.2409C287.664 95.2418 287.504 95.1046 287.378 94.8291C287.252 94.5536 287.188 94.3013 287.187 94.0722C287.187 93.9732 287.271 93.5744 287.439 92.8757C287.643 91.9268 287.846 90.629 288.046 88.9822C288.247 87.3302 288.347 86.4495 288.347 86.3401C288.346 86.1214 288.314 85.9601 288.251 85.8562C288.193 85.7523 288.057 85.7008 287.844 85.7018C287.76 85.7022 287.677 85.7052 287.594 85.7108C287.516 85.7164 287.435 85.6673 287.351 85.5635C287.272 85.4597 287.233 85.3349 287.232 85.189C287.23 84.7776 287.91 84.3369 289.273 83.8671C290.635 83.392 292.262 83.1501 294.152 83.1414C294.845 83.1382 295.461 83.3697 295.999 83.8359C296.543 84.3022 296.816 84.7827 296.818 85.2775C296.82 85.6316 296.585 86.1353 296.114 86.7886C295.649 87.4366 295.05 88.0149 294.318 88.5235Z" fill="#495E4C"/>
<path d="M300.975 95.5552C300.194 95.5589 299.592 95.3377 299.168 94.8917C298.749 94.4457 298.538 93.8191 298.534 93.0118C298.528 91.6525 299.06 90.2177 300.131 88.7075C301.202 87.1921 302.201 86.4323 303.129 86.428C303.55 86.426 303.913 86.6535 304.218 87.1104C304.527 87.5621 304.683 88.0432 304.685 88.5536C304.687 88.8609 304.62 89.1268 304.486 89.3514C304.357 89.5708 304.224 89.6808 304.089 89.6814C303.787 89.6828 303.572 89.3791 303.444 88.7703C303.3 88.1147 303.096 87.7875 302.83 87.7888C302.288 87.7913 301.651 88.4374 300.917 89.7273C300.184 91.0172 299.819 92.1048 299.823 92.9902C299.827 93.8756 300.332 94.316 301.337 94.3114C302.102 94.3078 303.002 93.9443 304.035 93.2207C304.398 92.9638 304.666 92.835 304.838 92.8342C305.015 92.8334 305.104 92.9345 305.105 93.1377C305.107 93.5335 304.643 94.0356 303.713 94.6441C302.784 95.2474 301.871 95.5511 300.975 95.5552Z" fill="#495E4C"/>
</g>
<defs>
<clipPath id="clip0_48_1812">
<rect width="384.945" height="365.502" fill="white" transform="translate(0.335938 1.62109) rotate(-0.141527)"/>
</clipPath>
</defs>
</svg>
