<svg width="402" height="253" viewBox="0 0 402 253" fill="none" xmlns="http://www.w3.org/2000/svg">
<g opacity="0.5" clip-path="url(#clip0_48_1918)">
<path d="M91.6875 94.998H14.5625V154.451H91.6875V94.998Z" fill="#8FE89A"/>
<path d="M72.368 154.03C72.3014 154.03 72.2422 140.78 72.2422 124.437C72.2422 108.094 72.3014 94.8438 72.368 94.8438C72.4347 94.8438 72.4939 108.087 72.4939 124.437C72.4939 140.787 72.4421 154.03 72.368 154.03Z" fill="#495D4C"/>
<path d="M84.04 140.92H78.125V147.601H84.04V140.92Z" fill="#F5F5F5"/>
<path d="M46.8477 95.1543H38.0898V107.842H46.8477V95.1543Z" fill="#495D4C"/>
<path d="M46.8477 141.586H38.0898V154.274H46.8477V141.586Z" fill="#495D4C"/>
<path d="M89.9088 95.0366C89.8427 95.0479 89.7751 95.0479 89.7089 95.0366H89.1315H86.9106H78.7154L51.6868 95.0736L24.6509 95.0366H16.4631H14.2422H13.6647C13.5986 95.0479 13.531 95.0479 13.4648 95.0366H13.6647H14.2422H16.4631L24.6509 94.9922H51.6868H78.7154L86.9106 95.0366H89.1315H89.7089H89.9088Z" fill="#263238"/>
<path d="M155.895 94.9316H78.7695V154.384H155.895V94.9316Z" fill="#E0E0E0"/>
<path d="M136.559 153.964C136.493 153.964 136.434 140.706 136.434 124.37C136.434 108.035 136.493 94.7773 136.559 94.7773C136.626 94.7773 136.685 108.028 136.685 124.37C136.685 140.713 136.641 153.964 136.559 153.964Z" fill="#495D4C"/>
<path d="M149.36 140.846H143.445V147.526H149.36V140.846Z" fill="#F5F5F5"/>
<path opacity="0.5" d="M111.055 95.0801H102.297V107.768H111.055V95.0801Z" fill="white"/>
<path opacity="0.5" d="M111.055 141.52H102.297V154.208H111.055V141.52Z" fill="white"/>
<path d="M157.26 94.9336H157.105H156.52H154.299L146.104 94.978H119.075H92.0394H83.8146H81.5937H81.0089H80.8164C80.8804 94.9717 80.9449 94.9717 81.0089 94.978H81.5937H83.8146L92.0024 94.941H119.038H146.067L154.262 94.978H156.483H157.068C157.13 94.9568 157.195 94.9419 157.26 94.9336Z" fill="#0A0D0E"/>
<path d="M160.227 35.4805H83.1016V94.933H160.227V35.4805Z" fill="#E0E0E0"/>
<path d="M140.903 94.5104C140.837 94.5104 140.777 81.2601 140.777 64.9173C140.777 48.5745 140.837 35.3242 140.903 35.3242C140.97 35.3242 141.029 48.5745 141.029 64.9173C141.029 81.2601 140.999 94.5104 140.903 94.5104Z" fill="#495D4C"/>
<path d="M153.688 81.3926H147.773V88.0732H153.688V81.3926Z" fill="#F5F5F5"/>
<path d="M115.387 35.6348H106.629V48.3228H115.387V35.6348Z" fill="#F5F5F5"/>
<path d="M115.387 82.0664H106.629V94.7545H115.387V82.0664Z" fill="#F5F5F5"/>
<path d="M158.983 35.4784H158.79H158.198H155.977L147.789 35.5228L120.761 35.5598L93.7247 35.5228L85.5295 35.4784H83.3086H82.7237H82.5312H82.7237H83.3086H85.5295H93.7247L120.761 35.4414L147.789 35.4784H155.977H158.198H158.783H158.983Z" fill="#263238"/>
<path d="M145.498 220.643V213.682H2.99628C2.74231 213.682 2.49089 213.732 2.25671 213.83C2.02253 213.929 1.81031 214.073 1.63246 214.254C1.45461 214.435 1.3147 214.65 1.22092 214.886C1.12714 215.121 1.08137 215.374 1.0863 215.627V218.779C1.08825 219.284 1.29035 219.768 1.64833 220.124C2.00631 220.48 2.491 220.68 2.99628 220.68H6.96432V223.854C6.96236 224.351 6.76339 224.827 6.41096 225.178C6.05853 225.529 5.58138 225.726 5.08395 225.726H2.96667C2.46797 225.726 1.98969 225.924 1.63705 226.276C1.28441 226.629 1.0863 227.107 1.0863 227.605V230.816C1.0998 231.305 1.30385 231.77 1.65504 232.111C2.00622 232.453 2.47682 232.644 2.96667 232.643H145.498V225.689H112.31V220.643H145.498ZM41.1146 220.643H49.6504V225.689H41.122L41.1146 220.643ZM35.4217 225.689H26.886V220.643H35.4291L35.4217 225.689ZM55.3433 220.643H63.8938V225.689H55.3507L55.3433 220.643ZM69.5794 220.643H78.1151V225.689H69.5868L69.5794 220.643ZM83.8081 220.643H92.3512V225.689H83.8155L83.8081 220.643ZM12.6499 220.643H21.1856V225.689H12.6573L12.6499 220.643ZM106.58 225.689H98.0441V220.643H106.587L106.58 225.689Z" fill="#89948F"/>
<path d="M265.549 108.653C265.784 108.437 265.969 108.182 266.092 107.902C266.215 107.622 266.276 107.323 266.269 107.022C266.262 106.721 266.188 106.425 266.052 106.15C265.915 105.874 265.719 105.626 265.475 105.42L241.33 84.9696C240.847 84.5638 240.211 84.3379 239.549 84.3379C238.887 84.3379 238.25 84.5638 237.768 84.9696C237.52 85.18 237.321 85.432 237.182 85.7115C237.043 85.9909 236.966 86.2922 236.957 86.5981C236.948 86.9039 237.007 87.2084 237.129 87.494C237.252 87.7796 237.436 88.0408 237.671 88.2625L247.301 97.3478L242.289 101.667L239.679 99.8274L221.46 118.538L211.726 110.146L199.992 141.081L202.32 183.075H229.313L227.432 133.176L245.509 110.039L245.65 104.533L250.856 99.7607L262.077 108.739C262.562 109.129 263.197 109.335 263.848 109.315C264.499 109.295 265.117 109.051 265.572 108.633L265.549 108.653Z" fill="#B8B8B8"/>
<path d="M254.488 180.127L271.685 140.315L265.229 138.133V130.412L312.248 129.802C313.355 129.783 314.416 129.429 315.234 128.807C316.052 128.185 316.571 127.336 316.696 126.419L323.596 75.2431C323.75 74.0973 324.404 73.0388 325.434 72.2698C326.464 71.5007 327.798 71.0751 329.181 71.0742C329.939 71.0746 330.689 71.2026 331.387 71.4506C332.084 71.6986 332.714 72.0615 333.24 72.5175C333.765 72.9735 334.174 73.5133 334.443 74.1044C334.712 74.6954 334.835 75.3257 334.804 75.9574L332.203 128.691L356.752 128.802L357.586 138.425L284.981 140.789L266.047 179.555L254.488 180.127Z" fill="#E9E9E9"/>
<path d="M265.927 179.28L205.883 179.688V183.074L230.756 182.802L270.372 182.549L366.42 171.05L355.533 135.917H290.501C289.377 135.903 288.265 136.121 287.263 136.552C286.261 136.984 285.397 137.616 284.748 138.394L265.927 179.28Z" fill="#B8B8B8"/>
<path d="M235.84 11.3018L193.605 145.899L193.902 183.334H207.338V146.135L241.94 11.657L335.692 11.1317L353.623 151.203H364.202L342.385 12.1157C342.045 10.2968 341.08 8.65376 339.656 7.47042C338.233 6.28709 336.441 5.6378 334.589 5.63477H243.45C241.74 5.63499 240.076 6.1866 238.705 7.20761C237.334 8.22861 236.329 9.66449 235.84 11.3018Z" fill="#E9E9E9"/>
<path d="M186.023 226.583V190.62L193.93 183.333L267.96 182.386L281.286 171.555C283.77 169.539 286.827 168.356 290.022 168.174L304.235 167.375C304.235 167.375 310.632 162.936 316.821 158.601C324.66 153.052 334.028 150.072 343.634 150.07H384.67C386.16 150.07 387.589 150.662 388.643 151.715C389.697 152.768 390.289 154.196 390.289 155.686V226.583H186.023Z" fill="#5CCD6A"/>
<path d="M390.28 214.992H185.297V226.815H390.28V214.992Z" fill="#495D4C"/>
<path d="M195.905 226.451C195.832 231.461 197.248 236.379 199.972 240.585C202.697 244.791 206.609 248.095 211.212 250.079C215.816 252.063 220.905 252.638 225.835 251.732C230.766 250.826 235.317 248.479 238.913 244.987C242.509 241.496 244.988 237.018 246.037 232.119C247.086 227.219 246.658 222.119 244.807 217.463C242.955 212.807 239.764 208.804 235.636 205.961C231.508 203.117 226.629 201.561 221.616 201.489C218.287 201.44 214.982 202.047 211.888 203.275C208.794 204.503 205.973 206.329 203.585 208.647C201.198 210.965 199.291 213.73 197.973 216.785C196.655 219.84 195.952 223.124 195.905 226.451Z" fill="#495D4C"/>
<path d="M195.914 226.385C195.914 226.385 195.914 226.429 195.914 226.451C195.876 233.131 198.479 239.555 203.157 244.326C207.835 249.096 214.209 251.828 220.892 251.925C227.575 252.023 234.026 249.479 238.841 244.846C243.657 240.214 246.446 233.869 246.603 227.191C246.603 227.191 246.603 227.147 246.603 227.125L195.914 226.385Z" fill="#495D4C"/>
<path d="M203.458 226.562C203.414 230.071 204.41 233.515 206.323 236.458C208.235 239.402 210.977 241.713 214.203 243.1C217.429 244.487 220.994 244.887 224.447 244.25C227.9 243.614 231.088 241.969 233.606 239.523C236.125 237.078 237.862 233.941 238.597 230.509C239.333 227.078 239.035 223.505 237.74 220.243C236.446 216.981 234.213 214.175 231.324 212.181C228.434 210.186 225.018 209.091 221.507 209.035C219.17 208.998 216.848 209.423 214.674 210.284C212.501 211.145 210.519 212.427 208.843 214.055C207.166 215.683 205.827 217.626 204.903 219.772C203.979 221.918 203.488 224.226 203.458 226.562Z" fill="#FAFAFA"/>
<path d="M221.506 209.035C219.168 208.998 216.846 209.423 214.673 210.284C212.5 211.145 210.518 212.427 208.841 214.055C207.164 215.683 205.826 217.626 204.902 219.772C203.978 221.918 203.487 224.226 203.457 226.562L239.044 227.072C239.081 224.736 238.656 222.416 237.794 220.244C236.932 218.072 235.65 216.092 234.021 214.416C232.392 212.74 230.447 211.403 228.3 210.479C226.152 209.556 223.843 209.065 221.506 209.035Z" fill="#E0E0E0"/>
<path d="M210.407 226.657C210.375 228.801 210.98 230.906 212.146 232.706C213.311 234.506 214.984 235.92 216.954 236.77C218.923 237.62 221.101 237.866 223.211 237.479C225.321 237.092 227.268 236.088 228.807 234.595C230.346 233.101 231.408 231.185 231.857 229.089C232.306 226.992 232.123 224.81 231.331 222.818C230.539 220.825 229.174 219.112 227.407 217.895C225.641 216.679 223.553 216.013 221.408 215.982C219.984 215.96 218.57 216.219 217.247 216.744C215.923 217.269 214.716 218.05 213.694 219.041C212.672 220.033 211.856 221.216 211.292 222.522C210.728 223.829 210.428 225.234 210.407 226.657Z" fill="#495D4C"/>
<path d="M319.936 226.451C319.864 231.46 321.279 236.379 324.004 240.585C326.728 244.791 330.64 248.095 335.243 250.079C339.847 252.063 344.936 252.638 349.867 251.732C354.797 250.826 359.349 248.479 362.944 244.987C366.54 241.496 369.02 237.018 370.069 232.118C371.118 227.219 370.689 222.119 368.838 217.463C366.986 212.807 363.795 208.804 359.667 205.961C355.539 203.117 350.66 201.561 345.647 201.489C338.925 201.392 332.441 203.968 327.619 208.649C322.797 213.33 320.034 219.733 319.936 226.451Z" fill="#495D4C"/>
<path d="M319.946 226.385C319.946 226.385 319.946 226.429 319.946 226.451C319.907 233.131 322.51 239.555 327.188 244.326C331.866 249.096 338.24 251.828 344.923 251.925C351.606 252.023 358.057 249.479 362.873 244.846C367.688 240.214 370.478 233.869 370.634 227.191C370.631 227.169 370.631 227.147 370.634 227.125L319.946 226.385Z" fill="#495D4C"/>
<path d="M327.49 226.562C327.445 230.071 328.441 233.515 330.354 236.458C332.266 239.402 335.008 241.713 338.234 243.1C341.46 244.487 345.025 244.887 348.478 244.25C351.932 243.614 355.119 241.969 357.637 239.523C360.156 237.078 361.893 233.941 362.629 230.509C363.364 227.078 363.066 223.505 361.772 220.243C360.477 216.981 358.244 214.175 355.355 212.181C352.466 210.186 349.05 209.091 345.538 209.035C343.201 208.998 340.879 209.423 338.706 210.284C336.532 211.145 334.551 212.427 332.874 214.055C331.197 215.683 329.858 217.626 328.935 219.772C328.011 221.918 327.52 224.226 327.49 226.562Z" fill="#FAFAFA"/>
<path d="M345.537 209.035C343.199 208.998 340.877 209.423 338.704 210.284C336.531 211.145 334.549 212.427 332.872 214.055C331.196 215.683 329.857 217.626 328.933 219.772C328.009 221.918 327.518 224.226 327.488 226.562L363.075 227.072C363.112 224.736 362.687 222.416 361.826 220.244C360.964 218.072 359.681 216.092 358.052 214.416C356.423 212.74 354.479 211.403 352.331 210.479C350.184 209.556 347.875 209.065 345.537 209.035Z" fill="#E0E0E0"/>
<path d="M334.446 226.657C334.416 228.799 335.022 230.902 336.187 232.7C337.352 234.498 339.025 235.91 340.993 236.758C342.962 237.606 345.137 237.852 347.245 237.464C349.353 237.076 351.299 236.072 352.836 234.579C354.374 233.087 355.433 231.172 355.882 229.077C356.33 226.982 356.147 224.802 355.355 222.811C354.563 220.821 353.199 219.109 351.434 217.894C349.669 216.678 347.583 216.013 345.44 215.982C344.016 215.96 342.603 216.219 341.279 216.744C339.956 217.269 338.749 218.05 337.728 219.042C336.707 220.033 335.892 221.216 335.329 222.523C334.766 223.83 334.466 225.235 334.446 226.657Z" fill="#495D4C"/>
<path d="M378.266 208.785C378.266 208.785 378.222 208.733 378.14 208.614L377.815 208.082L377.297 207.209C377.076 206.803 376.828 206.413 376.556 206.04C374.93 203.596 373.011 201.359 370.841 199.381C370.19 198.723 369.36 198.146 368.62 197.495C367.88 196.844 366.954 196.274 366.066 195.645C365.178 195.016 364.201 194.432 363.157 193.921C362.638 193.655 362.12 193.367 361.587 193.108L359.922 192.368C357.56 191.369 355.098 190.625 352.578 190.148C344.575 188.625 336.291 189.933 329.147 193.847L327.563 194.743C327.052 195.046 326.571 195.386 326.082 195.697C325.083 196.311 324.224 197.044 323.343 197.687C322.462 198.331 321.7 199.071 320.974 199.774C320.249 200.476 319.538 201.142 318.946 201.867C316.974 204.042 315.276 206.45 313.889 209.036C313.66 209.437 313.452 209.849 313.267 210.272C313.097 210.627 312.949 210.93 312.831 211.189C312.712 211.448 312.631 211.603 312.557 211.744C312.527 211.81 312.492 211.875 312.453 211.936C312.464 211.864 312.487 211.794 312.52 211.729L312.757 211.152L313.164 210.22C313.336 209.792 313.534 209.374 313.756 208.97C315.103 206.338 316.779 203.89 318.746 201.682C319.331 200.942 320.063 200.291 320.767 199.559C321.47 198.827 322.314 198.161 323.143 197.443C323.972 196.725 324.89 196.037 325.89 195.416C326.378 195.098 326.867 194.757 327.37 194.439L328.962 193.537C333.69 190.931 338.941 189.414 344.331 189.098C349.725 188.895 355.097 189.906 360.047 192.057L361.72 192.797C362.261 193.063 362.779 193.352 363.297 193.626C364.356 194.143 365.281 194.809 366.259 195.379C367.236 195.949 368.028 196.614 368.82 197.258C369.612 197.902 370.389 198.508 371.041 199.182C373.21 201.189 375.11 203.466 376.697 205.958C376.965 206.342 377.213 206.739 377.437 207.15C377.625 207.495 377.788 207.791 377.926 208.037L378.214 208.592C378.24 208.654 378.258 208.718 378.266 208.785Z" fill="#495D4C"/>
<path d="M254.347 213.453C254.304 213.389 254.272 213.319 254.251 213.246L253.999 212.646L253.599 211.655L253 210.338C251.711 207.541 250.104 204.902 248.21 202.474C245.449 198.83 241.928 195.83 237.89 193.684C235.471 192.507 232.907 191.654 230.265 191.147C227.433 190.568 224.545 190.305 221.655 190.363C218.765 190.407 215.889 190.777 213.082 191.465C210.47 192.13 207.952 193.125 205.59 194.424C201.553 196.567 197.943 199.431 194.937 202.873C192.927 205.201 191.177 207.742 189.718 210.449C189.2 211.411 188.815 212.158 188.563 212.668L188.267 213.246C188.238 213.316 188.2 213.383 188.156 213.445C188.173 213.371 188.198 213.299 188.23 213.231L188.497 212.631C188.719 212.099 189.089 211.337 189.585 210.36C191.001 207.605 192.727 205.021 194.73 202.659C197.732 199.162 201.356 196.252 205.42 194.077C207.805 192.771 210.348 191.777 212.986 191.117C215.821 190.415 218.727 190.037 221.648 189.993C224.568 189.932 227.486 190.2 230.346 190.792C233.018 191.311 235.61 192.182 238.053 193.381C242.122 195.564 245.66 198.615 248.417 202.318C250.307 204.772 251.897 207.442 253.155 210.271C253.362 210.774 253.555 211.218 253.718 211.61C253.881 212.003 253.984 212.35 254.088 212.617C254.192 212.883 254.243 213.075 254.303 213.231C254.327 213.302 254.342 213.377 254.347 213.453Z" fill="#495D4C"/>
<path d="M185.973 213.682H73.6094V226.814H185.973V213.682Z" fill="#495D4C"/>
<path d="M182.927 219.252C182.927 219.899 182.735 220.531 182.376 221.069C182.016 221.607 181.505 222.026 180.907 222.274C180.309 222.521 179.651 222.586 179.017 222.46C178.382 222.333 177.799 222.022 177.341 221.565C176.884 221.107 176.572 220.525 176.446 219.89C176.319 219.256 176.384 218.599 176.632 218.001C176.88 217.404 177.299 216.893 177.837 216.534C178.375 216.174 179.008 215.982 179.655 215.982C180.085 215.982 180.51 216.067 180.907 216.231C181.304 216.396 181.665 216.637 181.969 216.94C182.273 217.244 182.514 217.604 182.678 218.001C182.842 218.398 182.927 218.823 182.927 219.252Z" fill="#89948F"/>
<path d="M317.887 201.415C317.887 201.526 302.074 201.615 282.574 201.615C263.075 201.615 247.262 201.526 247.262 201.415C247.262 201.304 263.067 201.223 282.574 201.223C302.081 201.223 317.887 201.311 317.887 201.415Z" fill="#495D4C"/>
<path d="M303.493 198.611C303.382 198.611 303.301 191.738 303.301 183.267C303.301 174.796 303.382 167.916 303.493 167.916C303.604 167.916 303.686 174.789 303.686 183.267C303.686 191.746 303.597 198.611 303.493 198.611Z" fill="#495D4C"/>
<path d="M185.971 189.275H173.645V213.852H185.971V189.275Z" fill="#495D4C"/>
<path d="M158.465 154.398H81.3398V213.851H158.465V154.398Z" fill="#8FE89A"/>
<path d="M139.141 213.409C139.075 213.409 139.016 200.159 139.016 183.816C139.016 167.473 139.075 154.223 139.141 154.223C139.208 154.223 139.267 167.466 139.267 183.816C139.267 200.166 139.208 213.409 139.141 213.409Z" fill="#495D4C"/>
<path d="M151.927 200.32H146.012V207.001H151.927V200.32Z" fill="#F5F5F5"/>
<path d="M140.496 154.555H131.738V167.243H140.496V154.555Z" fill="#495D4C"/>
<path d="M113.625 200.994H104.867V213.682H113.625V200.994Z" fill="#495D4C"/>
<path d="M164.042 154.4C163.978 154.411 163.913 154.411 163.85 154.4H163.272H161.051L152.856 154.437H125.827H98.7915L90.6037 154.4H88.3828H87.8054C87.7392 154.412 87.6716 154.412 87.6055 154.4H87.8054H88.3828H90.6037L98.7915 154.363H125.827H152.856L161.051 154.4H163.272H163.85H164.042Z" fill="#263238"/>
<path d="M80.1797 154.398H3.05469V213.851H80.1797V154.398Z" fill="#E0E0E0"/>
<path d="M58.2509 213.409C58.1768 213.409 58.125 200.159 58.125 183.816C58.125 167.473 58.1768 154.223 58.2509 154.223C58.3249 154.223 58.3693 167.466 58.3693 183.816C58.3693 200.166 58.3175 213.409 58.2509 213.409Z" fill="#263238"/>
<path d="M71.0361 200.32H65.1211V207.001H71.0361V200.32Z" fill="#F5F5F5"/>
<path opacity="0.5" d="M32.7305 154.555H23.9727V167.243H32.7305V154.555Z" fill="white"/>
<path opacity="0.5" d="M32.7305 200.994H23.9727V213.682H32.7305V200.994Z" fill="white"/>
<path d="M75.7842 154.4C75.7181 154.412 75.6505 154.412 75.5843 154.4H75.0069H72.786L64.5982 154.437H37.5696H10.5337L2.33849 154.4H0.117569H-0.459868C-0.523552 154.411 -0.58866 154.411 -0.652344 154.4H-0.459868H0.117569H2.33849L10.5337 154.363H37.5696H64.5982L72.786 154.4H75.0069H75.5843H75.7842Z" fill="#263238"/>
<path d="M393.516 170.564C397.491 171.519 400.83 175.558 400.763 179.642C400.68 181.692 399.926 183.657 398.617 185.237C397.307 186.817 395.515 187.924 393.516 188.387" fill="#E8505B"/>
<g opacity="0.6">
<path d="M393.516 170.564C397.491 171.519 400.83 175.558 400.763 179.642C400.68 181.692 399.926 183.657 398.617 185.237C397.307 186.817 395.515 187.924 393.516 188.387" fill="white"/>
</g>
<path d="M393.679 168.264H390.281V190.762H393.679V168.264Z" fill="#498D51"/>
<path d="M425.333 252.145C425.333 252.249 318.182 252.338 186.037 252.338C53.8924 252.338 -53.2891 252.249 -53.2891 252.145C-53.2891 252.042 53.8406 251.953 186.037 251.953C318.233 251.953 425.333 252.034 425.333 252.145Z" fill="#495D4C"/>
</g>
<defs>
<clipPath id="clip0_48_1918">
<rect width="401.334" height="252" fill="white" transform="translate(0 0.337891)"/>
</clipPath>
</defs>
</svg>
