<svg width="1101" height="1213" viewBox="0 0 1101 1213" fill="none" xmlns="http://www.w3.org/2000/svg">
<path d="M1.32907 17.4235C17.3822 32.5417 107.609 58.717 118.32 68.3161C134.835 83.1173 152.178 93.7754 174.819 100.961C215.371 113.831 267.84 93.5904 292.577 73.7147C309.448 58.4711 313.28 44.7892 313.28 31.1064C313.28 13.3187 292.577 1.00391 277.147 1.00391C261.716 1.00369 247.422 1.00391 233.896 17.4235C211.559 44.5394 238.207 78.959 270.605 85.0181C312.746 92.8992 338.376 102.255 377.882 89.0302C413.415 77.1348 438.531 66.9487 471.321 57.1572C494.828 50.138 529.377 58.9342 545.854 63.6364C602.613 79.8345 644.37 59.0823 703.996 101.754" stroke="#5CCD6A" stroke-width="1.33333" stroke-linecap="round" stroke-dasharray="10.67 10.67"/>
<path d="M306.971 479.631C323.114 509.505 429.256 482.17 458.964 528.747C475.713 566.587 508.324 586.038 527.759 588.517C552.05 591.615 581.614 589.246 606.35 587.689" stroke="#5CCD6A" stroke-width="1.33333" stroke-linecap="round" stroke-dasharray="10.67 10.67"/>
<path d="M317.328 890.338C328.226 883.439 354.683 888.861 371.768 884.927C385.346 880.793 392.755 878.964 403.38 866.064C410.795 853.495 417.725 842.005 415.475 827.501C413.592 815.36 377.403 803.748 368.269 818.421C363.564 820.106 364.481 831.072 365.855 834.172C369.11 841.517 373.18 846.942 381.661 851.674C400.803 862.353 441.655 869.086 467.057 851.674C625.043 743.378 755.26 783.117 802.335 788.668C833.948 792.396 859.839 826.058 855.759 843.336C850.819 864.252 824.724 874.016 805.406 874.016C781.517 874.016 756.663 859.171 756.663 834.075C756.663 805.503 793.124 792.862 827.851 788.668C855.171 785.368 871.525 785.826 898.556 790.418C971.203 802.759 1067.33 788.668 1100 705.004" stroke="#5CCD6A" stroke-width="1.33333" stroke-linecap="round" stroke-dasharray="10.67 10.67"/>
<path d="M1070.66 1162.34C1042.66 1187.67 1006.8 1197.03 987.797 1201.79C960.955 1207.05 939.049 1211.67 917.348 1211.67C887.119 1211.67 859.316 1209.46 829.943 1203.61C803.398 1198.32 765.284 1175.06 737.331 1162.34" stroke="#5CCD6A" stroke-width="1.33333" stroke-linecap="round" stroke-dasharray="10.67 10.67"/>
<path d="M589.332 1082.34C554.892 1062.28 536.214 1054.98 495.714 1046.93C425.003 1032.86 372.877 1072.59 300.309 1072.19C245.606 1071.89 158.721 1028.9 139.998 991.672" stroke="#5CCD6A" stroke-width="1.33333" stroke-linecap="round" stroke-dasharray="10.67 10.67"/>
<path d="M955.902 295.982C932.582 321.136 895.991 328.904 873.917 330.252C812.596 340.094 758.15 304.405 705.997 278.33C645.306 261.311 615.242 310.929 584.208 326.846C553.175 342.763 480.501 328.332 439.42 294.463" stroke="#5CCD6A" stroke-width="1.33333" stroke-linecap="round" stroke-dasharray="10.67 10.67"/>
<path d="M282.664 288.604C299.848 273.077 306.597 263.637 333.45 256.084C360.303 248.53 373.886 254.213 389.451 263.961" stroke="#5CCD6A" stroke-width="1.33333" stroke-linecap="round" stroke-dasharray="10.67 10.67"/>
</svg>
