<svg width="30" height="30" viewBox="0 0 30 30" fill="none" xmlns="http://www.w3.org/2000/svg">
<g clip-path="url(#clip0_48_1328)">
<path d="M23.3006 1.47548H22.8041V0.885877C22.8041 0.396676 22.3865 0 21.8713 0C21.3562 0 20.9385 0.396676 20.9385 0.885877V1.47548H9.05886V0.885877C9.05886 0.396676 8.64118 0 8.12607 0C7.61096 0 7.19327 0.396676 7.19327 0.885877V1.47548H6.69992C3.18846 1.47548 0.332031 4.18823 0.332031 7.52306V23.2858C0.332031 26.6206 3.18846 29.3333 6.69992 29.3333H23.2975C26.809 29.3333 29.6654 26.6206 29.6654 23.2858V7.51913C29.6643 4.18724 26.81 1.47548 23.3006 1.47548ZM6.69992 3.24723H7.19327V3.83683C7.19327 4.32603 7.61096 4.72271 8.12607 4.72271C8.64118 4.72271 9.05886 4.32603 9.05886 3.83683V3.24723H20.9385V3.83683C20.9385 4.32603 21.3562 4.72271 21.8713 4.72271C22.3865 4.72271 22.8041 4.32603 22.8041 3.83683V3.24723H23.3006C25.7808 3.24723 27.7987 5.16368 27.7987 7.51913V9.59404H2.19762V7.52306C2.19762 5.16565 4.21765 3.24723 6.69992 3.24723ZM23.2975 27.5606H6.69992C4.21765 27.5606 2.19762 25.6422 2.19762 23.2848V11.3658H27.7987V23.2848C27.7998 25.6422 25.7798 27.5606 23.2975 27.5606Z" fill="#577A5B"/>
<path d="M6.69992 3.24723H7.19327V3.83683C7.19327 4.32603 7.61096 4.72271 8.12607 4.72271C8.64118 4.72271 9.05886 4.32603 9.05886 3.83683V3.24723H20.9385V3.83683C20.9385 4.32603 21.3562 4.72271 21.8713 4.72271C22.3865 4.72271 22.8041 4.32603 22.8041 3.83683V3.24723H23.3006C25.7808 3.24723 27.7987 5.16368 27.7987 7.51913V9.59404H2.19762V7.52306C2.19762 5.16565 4.21765 3.24723 6.69992 3.24723Z" fill="#78C081"/>
<path d="M23.2975 27.5606H6.69992C4.21765 27.5606 2.19762 25.6422 2.19762 23.2848V11.3658H27.7987V23.2848C27.7998 25.6422 25.7798 27.5606 23.2975 27.5606Z" fill="#78C081"/>
<path d="M9.16267 15.6641H7.70233C7.18722 15.6641 6.76953 16.0607 6.76953 16.5499C6.76953 17.0391 7.18722 17.4358 7.70233 17.4358H9.16267C9.67778 17.4358 10.0955 17.0391 10.0955 16.5499C10.0955 16.0607 9.67778 15.6641 9.16267 15.6641Z" fill="#577A5B"/>
<path d="M15.7291 15.6641H14.2687C13.7536 15.6641 13.3359 16.0607 13.3359 16.5499C13.3359 17.0391 13.7536 17.4358 14.2687 17.4358H15.7291C16.2442 17.4358 16.6619 17.0391 16.6619 16.5499C16.6619 16.0607 16.2442 15.6641 15.7291 15.6641Z" fill="#577A5B"/>
<path d="M20.839 17.4358H22.2994C22.8145 17.4358 23.2322 17.0391 23.2322 16.5499C23.2322 16.0607 22.8145 15.6641 22.2994 15.6641H20.839C20.3239 15.6641 19.9062 16.0607 19.9062 16.5499C19.9062 17.0391 20.3239 17.4358 20.839 17.4358Z" fill="#577A5B"/>
<path d="M9.16267 21.4902H7.70233C7.18722 21.4902 6.76953 21.8869 6.76953 22.3761C6.76953 22.8653 7.18722 23.262 7.70233 23.262H9.16267C9.67778 23.262 10.0955 22.8653 10.0955 22.3761C10.0955 21.8869 9.67778 21.4902 9.16267 21.4902Z" fill="#577A5B"/>
<path d="M15.7291 21.4902H14.2687C13.7536 21.4902 13.3359 21.8869 13.3359 22.3761C13.3359 22.8653 13.7536 23.262 14.2687 23.262H15.7291C16.2442 23.262 16.6619 22.8653 16.6619 22.3761C16.6619 21.8869 16.2442 21.4902 15.7291 21.4902Z" fill="#577A5B"/>
<path d="M22.2994 21.4902H20.839C20.3239 21.4902 19.9062 21.8869 19.9062 22.3761C19.9062 22.8653 20.3239 23.262 20.839 23.262H22.2994C22.8145 23.262 23.2322 22.8653 23.2322 22.3761C23.2322 21.8869 22.8155 21.4902 22.2994 21.4902Z" fill="#577A5B"/>
</g>
<defs>
<clipPath id="clip0_48_1328">
<rect width="29.3333" height="29.3333" fill="white" transform="translate(0.332031)"/>
</clipPath>
</defs>
</svg>
