<svg width="33" height="25" viewBox="0 0 33 25" fill="none" xmlns="http://www.w3.org/2000/svg">
<g clip-path="url(#clip0_48_1321)">
<path d="M29.6654 0.664062H2.99872C1.52797 0.664062 0.332031 1.86 0.332031 3.33075V21.9974C0.332031 23.4681 1.52797 24.6641 2.99872 24.6641H29.6654C31.1361 24.6641 32.332 23.4681 32.332 21.9974V3.33075C32.332 1.86 31.1361 0.664062 29.6654 0.664062ZM2.99872 1.99738H29.6654C29.7637 1.99738 29.8502 2.03319 29.9424 2.05344C27.6337 4.16638 19.9785 11.1696 17.2995 13.5833C17.0899 13.7721 16.752 13.9974 16.3321 13.9974C15.9122 13.9974 15.5743 13.7721 15.364 13.5827C12.6853 11.1694 5.0296 4.16575 2.72128 2.05356C2.81366 2.03331 2.90041 1.99738 2.99872 1.99738ZM1.66534 21.9974V3.33075C1.66534 3.20013 1.70472 3.08163 1.73997 2.96225C3.50697 4.5795 8.84847 9.466 12.312 12.6156C8.85972 15.581 3.51685 20.6465 1.73578 22.3449C1.70434 22.2315 1.66534 22.1206 1.66534 21.9974ZM29.6654 23.3308H2.99872C2.89222 23.3308 2.79753 23.2936 2.69809 23.2699C4.53853 21.5154 9.91541 16.4208 13.307 13.5193C13.7491 13.9204 14.153 14.2861 14.4714 14.5729C15.0209 15.0691 15.664 15.3308 16.332 15.3308C17 15.3308 17.6432 15.069 18.192 14.5736C18.5105 14.2866 18.9147 13.9206 19.3571 13.5193C22.7489 16.4204 28.125 21.5147 29.966 23.2699C29.8665 23.2936 29.772 23.3308 29.6654 23.3308ZM30.9987 21.9974C30.9987 22.1206 30.9597 22.2315 30.9284 22.3449C29.1466 20.6456 23.8044 15.5807 20.3522 12.6156C23.8158 9.46607 29.1565 4.58 30.9241 2.96213C30.9594 3.0815 30.9987 3.20006 30.9987 3.33069V21.9974Z" fill="#577A5B"/>
<path d="M2.99872 1.99738H29.6654C29.7637 1.99738 29.8502 2.03319 29.9424 2.05344C27.6337 4.16638 19.9785 11.1696 17.2995 13.5833C17.0899 13.7721 16.752 13.9974 16.3321 13.9974C15.9122 13.9974 15.5743 13.7721 15.364 13.5827C12.6853 11.1694 5.0296 4.16575 2.72128 2.05356C2.81366 2.03331 2.90041 1.99738 2.99872 1.99738Z" fill="#78C081"/>
<path d="M1.66534 21.9974V3.33075C1.66534 3.20013 1.70472 3.08163 1.73997 2.96225C3.50697 4.5795 8.84847 9.466 12.312 12.6156C8.85972 15.581 3.51685 20.6465 1.73578 22.3449C1.70434 22.2315 1.66534 22.1206 1.66534 21.9974Z" fill="#78C081"/>
<path d="M29.6654 23.3308H2.99872C2.89222 23.3308 2.79753 23.2936 2.69809 23.2699C4.53853 21.5154 9.91541 16.4208 13.307 13.5193C13.7491 13.9204 14.153 14.2861 14.4714 14.5729C15.0209 15.0691 15.664 15.3308 16.332 15.3308C17 15.3308 17.6432 15.069 18.192 14.5736C18.5105 14.2866 18.9147 13.9206 19.3571 13.5193C22.7489 16.4204 28.125 21.5147 29.966 23.2699C29.8665 23.2936 29.772 23.3308 29.6654 23.3308Z" fill="#78C081"/>
<path d="M30.9987 21.9974C30.9987 22.1206 30.9597 22.2315 30.9284 22.3449C29.1466 20.6456 23.8044 15.5807 20.3522 12.6156C23.8158 9.46607 29.1565 4.58 30.9241 2.96213C30.9594 3.0815 30.9987 3.20006 30.9987 3.33069V21.9974Z" fill="#78C081"/>
</g>
<defs>
<clipPath id="clip0_48_1321">
<rect width="32" height="24" fill="white" transform="translate(0.332031 0.664062)"/>
</clipPath>
</defs>
</svg>
