<svg width="480" height="146" viewBox="0 0 480 146" fill="none" xmlns="http://www.w3.org/2000/svg">
<path fill-rule="evenodd" clip-rule="evenodd" d="M165.022 145.446C147.445 145.942 128.022 146.663 116.289 134.367C103.994 121.481 102.279 102.111 107.974 85.6583C113.135 70.7491 128.172 62.1544 143.464 55.8569C157.891 49.9158 173.65 47.0455 188.251 52.5992C204.092 58.6247 217.595 70.166 221.906 85.6934C226.363 101.75 221.992 119.344 210.215 131.716C199.114 143.377 181.673 144.977 165.022 145.446Z" fill="#78C081" fill-opacity="0.15"/>
<path fill-rule="evenodd" clip-rule="evenodd" d="M6.04222 56.3783C0.43317 76.2618 -0.849751 97.0992 0.485382 117.561C-0.118785 124.066 3.43908 130.347 8.16799 134.828C15.0898 141.347 28.7246 140.458 37.6752 139.54C53.9728 137.994 61.2228 123.206 62.1775 108.96C62.9085 84.3351 63.0875 58.4599 63.0353 33.7917C63.024 33.0893 63.0255 32.3519 63.0271 31.5939C63.0338 28.3433 63.0412 24.7135 62.0432 21.8299C59.6191 13.7782 52.0782 10.8871 44.5 12.4339C42.9686 12.9168 41.4937 13.5539 40.0993 14.3348C35.5484 16.7869 31.2952 19.7252 27.4193 23.0947C19.6704 29.7225 13.5077 37.9093 9.36141 47.0835C8.95184 47.9142 8.53619 49.0483 8.15135 50.0984C7.93346 50.693 7.72544 51.2606 7.53399 51.7309C7.13768 52.7045 6.73301 54.0667 6.37938 55.2571C6.26047 55.6574 6.14733 56.0382 6.04222 56.3783ZM0.485382 117.561C2.84984 96.7379 6.17648 76.0016 13.7472 56.4C17.8546 46.0741 24.6917 36.9762 33.5728 30.0189C34.3868 29.3385 35.5942 28.4575 36.5783 27.7394C36.7755 27.5955 36.9638 27.4581 37.1381 27.3302C37.1381 27.3302 43.2395 22.1551 46.5437 21.8733C49.848 21.5914 51.6605 21.8227 52.4064 25.3787L52.6376 27.0772L52.6898 28.9564C52.6376 37.4779 52.6003 53.2271 52.6898 61.9003C52.8017 74.4115 52.9509 86.9226 53.2492 99.4266L53.4506 108.548C53.417 111.39 53.0821 114.221 52.4512 116.997C51.0191 123.567 47.3791 129.964 40.7781 132.551C36.5265 134.062 31.9095 134.654 27.4342 135.175C22.1906 135.623 16.7009 135.89 11.8601 133.78C5.94526 130.354 1.1716 124.42 0.485382 117.561Z" fill="#78C081"/>
<path d="M133.251 61.867C136.117 68.9198 141.337 79.9451 143.141 93.191C141.848 68.9861 140.165 68.9198 139.332 65.2086C137.999 59.2679 136.215 53.4308 133.995 47.7452C127.633 33.087 116.232 21.0226 101.734 13.6068C100.5 12.9378 99.1595 12.4733 97.7681 12.2323C96.9705 12.1889 96.5084 12.0587 95.3977 12.0587C87.8318 11.6391 82.1071 16.4499 80.8026 23.5105C80.1168 26.5706 80.3032 30.3251 80.3032 33.3418C80.2137 49.7129 80.1765 70.0267 80.4523 86.4918C80.5641 92.4094 80.6386 98.327 80.8026 104.245C80.7767 107.44 81.0261 110.632 81.548 113.787C84.0451 128.118 92.3788 139.193 108.301 139.83C116.217 140.387 124.662 140.712 132.027 137.226C137.804 134.122 140.156 128.879 141.848 123.091C142.955 119.307 144.453 115.435 150.749 109.25C144.453 112.961 142.369 114.829 138.158 125.332C132.515 134.679 128.464 135.822 117.924 135.178C114.986 134.958 112.064 134.571 109.173 134.021C106.549 133.507 103.679 133.015 101.331 131.778C94.0933 128.183 91.1042 120.109 90.2618 112.615C89.9716 109.899 89.9043 107.166 90.0606 104.44C90.314 94.1384 90.6122 79.3588 90.6122 68.9198C90.6122 58.4808 90.7687 43.571 90.6122 33.2839C90.642 30.2383 89.9786 25.5795 91.5812 23.0041C92.7143 21.1521 94.5655 20.5762 97.6265 21.9985C110.568 28.1257 121.142 38.1215 127.793 50.5159C129.731 54.3978 132.012 58.8159 133.251 61.867Z" fill="#78C081"/>
<path d="M72.2732 29.4629C72.7991 28.4056 72.3628 27.1248 71.2987 26.6022C70.2346 26.0795 68.9456 26.5129 68.4197 27.5702L58.2663 47.984C57.7404 49.0412 58.1767 50.322 59.2408 50.8447C60.3049 51.3673 61.5938 50.9339 62.1197 49.8766L72.2732 29.4629Z" fill="#78C081"/>
<path d="M69.7271 29.4629C69.2012 28.4056 69.6375 27.1248 70.7016 26.6022C71.7657 26.0795 73.0547 26.5129 73.5806 27.5702L83.734 47.984C84.2599 49.0412 83.8236 50.322 82.7595 50.8447C81.6954 51.3673 80.4065 50.9339 79.8806 49.8766L69.7271 29.4629Z" fill="#78C081"/>
<path d="M68.7749 2.46733C68.7749 1.28803 69.7372 0.332031 70.9241 0.332031C72.1111 0.332031 73.0734 1.28804 73.0734 2.46733V29.5208C73.0734 30.7001 72.1111 31.6561 70.9241 31.6561C69.7372 31.6561 68.7749 30.7001 68.7749 29.5208V2.46733Z" fill="#78C081"/>
<path d="M135.187 131.63C134.53 130.358 133.866 129.185 133.189 128.012C132.512 126.84 131.822 125.684 131.099 124.525C130.376 123.366 129.616 122.26 128.876 121.159C128.684 120.871 128.466 120.611 128.261 120.334C128.056 120.058 127.832 119.798 127.607 119.528C127.382 119.258 127.139 119.004 126.887 118.725C126.767 118.591 126.636 118.462 126.494 118.341C126.358 118.21 126.216 118.08 126.087 117.938C126.96 118.115 127.779 118.413 128.505 118.819C128.873 119.016 129.222 119.233 129.551 119.467C129.886 119.696 130.203 119.94 130.501 120.198C131.681 121.215 132.666 122.359 133.429 123.597C134.198 124.823 134.767 126.122 135.122 127.466C135.516 128.827 135.538 130.244 135.187 131.63Z" fill="#78C081"/>
<path d="M134.559 117.884C133.955 116.443 132.966 115.176 131.685 114.201C130.455 113.251 129.049 112.517 127.534 112.033C126.006 111.561 124.426 111.243 122.821 111.084C121.199 110.902 119.534 110.817 117.849 110.734L119.254 109.338C119.525 111.375 119.843 113.399 120.066 115.443C120.202 116.461 120.297 117.492 120.465 118.435C120.529 118.919 120.632 119.378 120.754 119.828C120.881 120.28 121.042 120.722 121.236 121.151C122.025 122.897 123.288 124.416 124.901 125.56C126.592 126.776 128.59 127.571 130.712 127.873C128.422 128.138 126.113 127.723 124.113 126.687C122.024 125.632 120.32 124.026 119.211 122.065C118.935 121.562 118.698 121.042 118.503 120.506C118.315 119.984 118.165 119.45 118.054 118.907C117.811 117.812 117.676 116.8 117.517 115.81C117.195 113.76 116.925 111.73 116.654 109.693L116.452 108.178L118.066 108.296C119.798 108.416 121.521 108.622 123.227 108.913C124.983 109.2 126.686 109.706 128.291 110.417C129.917 111.139 131.356 112.178 132.511 113.464C133.662 114.702 134.376 116.243 134.559 117.884Z" fill="#78C081"/>
<path d="M137.494 117.093C136.937 116.183 136.546 115.167 136.348 114.112C136.146 113.043 136.08 111.96 136.151 110.899C136.336 108.776 136.857 106.743 137.69 104.896C138.506 103.012 139.574 101.301 140.86 99.8176C141.534 99.0557 142.29 98.3909 143.112 97.836C143.926 97.3062 144.785 96.8584 145.678 96.4971C146.553 96.1183 147.443 95.8357 148.32 95.5673C149.196 95.2989 150.059 95.0655 150.937 94.8269C152.676 94.3757 154.373 93.9281 155.975 93.3504C157.52 92.8232 158.973 92.0464 160.291 91.0424C161.679 90.0021 162.799 88.5794 163.559 86.8904C164.13 85.4823 164.605 83.9946 165.129 82.5512C164.983 82.9723 165.464 84.4581 165.545 84.9659C165.984 87.6779 166.173 90.4082 166.109 93.1114C166.089 94.8875 165.961 96.6484 165.725 98.3815L165.618 99.052L165.247 100.959C165.073 101.793 164.884 102.632 164.653 103.475C164.177 105.19 163.462 106.787 162.533 108.207C162.068 108.903 161.558 109.557 161.005 110.162C160.44 110.751 159.877 111.29 159.296 111.804C158.134 112.834 156.896 113.757 155.595 114.565C153.01 116.176 150.181 117.297 147.21 117.889C149.884 116.663 152.395 115.075 154.692 113.158C155.822 112.218 156.892 111.192 157.895 110.086C158.885 109.034 159.765 107.855 160.519 106.57C161.209 105.292 161.709 103.882 162.004 102.39C162.167 101.63 162.306 100.848 162.428 100.042L162.604 98.8237L162.695 98.2089L162.766 97.6408C162.915 96.0403 162.981 94.4224 162.962 92.7954C162.961 91.142 163.908 92.7363 162.306 94.0201C160.735 95.2376 158.985 96.1539 157.116 96.7367C155.328 97.3253 153.531 97.7049 151.787 98.0873C150.043 98.4697 148.297 98.8223 146.7 99.3378C145.915 99.5813 145.156 99.902 144.431 100.297C143.716 100.691 143.05 101.181 142.447 101.756C141.174 102.951 140.071 104.356 139.169 105.932C138.222 107.501 137.523 109.261 137.101 111.141C136.635 113.055 136.773 115.154 137.494 117.093Z" fill="#78C081"/>
<path d="M178.208 55.532C178.208 49.484 179.568 45.1 182.288 42.38C185.008 39.66 189.392 38.3 195.44 38.3C200.624 38.3 204.576 39.308 207.296 41.324C210.016 43.308 211.696 46.46 212.336 50.78H205.424C204.816 48.636 203.696 47.068 202.064 46.076C200.464 45.084 198.256 44.588 195.44 44.588C191.76 44.588 189.088 45.468 187.424 47.228C185.76 48.956 184.928 51.724 184.928 55.532C184.928 59.34 185.76 62.108 187.424 63.836C189.088 65.564 191.76 66.428 195.44 66.428C198.256 66.428 200.464 65.932 202.064 64.94C203.696 63.948 204.816 62.38 205.424 60.236H212.384C211.712 64.588 210.016 67.772 207.296 69.788C204.576 71.772 200.624 72.764 195.44 72.764C189.392 72.764 185.008 71.404 182.288 68.684C179.568 65.932 178.208 61.548 178.208 55.532ZM217.315 72.332V36.332H223.651V72.332H217.315ZM231.236 69.692C229.22 67.644 228.212 64.364 228.212 59.852C228.212 55.34 229.22 52.06 231.236 50.012C233.252 47.964 236.516 46.94 241.028 46.94C245.508 46.94 248.74 47.964 250.724 50.012C252.74 52.06 253.748 55.34 253.748 59.852C253.748 60.3 253.716 60.972 253.652 61.868H234.692C235.108 65.484 237.236 67.292 241.076 67.292C243.956 67.292 245.86 66.316 246.788 64.364H253.316C252.676 67.468 251.316 69.644 249.236 70.892C247.156 72.14 244.42 72.764 241.028 72.764C236.516 72.764 233.252 71.74 231.236 69.692ZM241.076 52.412C239.284 52.412 237.86 52.78 236.804 53.516C235.748 54.252 235.076 55.468 234.788 57.164H247.364C247.076 55.468 246.404 54.252 245.348 53.516C244.324 52.78 242.9 52.412 241.076 52.412ZM266.638 72.764C263.406 72.764 261.022 72.156 259.486 70.94C257.982 69.692 257.23 67.708 257.23 64.988C257.23 62.204 258.062 60.22 259.726 59.036C261.39 57.82 264.078 57.212 267.79 57.212H275.278C275.15 55.516 274.622 54.3 273.694 53.564C272.798 52.796 271.39 52.412 269.47 52.412C266.366 52.412 264.542 53.516 263.998 55.724H257.758C258.142 52.652 259.278 50.428 261.166 49.052C263.054 47.644 265.902 46.94 269.71 46.94C273.87 46.94 276.894 47.804 278.782 49.532C280.67 51.228 281.614 53.98 281.614 57.788V72.332H275.278V69.98C273.454 71.836 270.574 72.764 266.638 72.764ZM263.566 64.7C263.566 66.428 265.118 67.292 268.222 67.292C270.398 67.292 272.03 66.908 273.118 66.14C274.238 65.34 274.958 64.108 275.278 62.444V61.868H269.47C265.534 61.868 263.566 62.812 263.566 64.7ZM287.112 72.332V47.372H293.448V49.628C295.048 47.836 297.512 46.94 300.84 46.94H303.24V52.844H298.92C296.968 52.844 295.56 53.388 294.696 54.476C293.864 55.564 293.448 57.356 293.448 59.852V72.332H287.112ZM319.842 72.332V38.732H338.802C342.578 38.732 345.33 39.452 347.058 40.892C348.786 42.3 349.65 44.572 349.65 47.708C349.65 51.164 348.61 53.58 346.53 54.956C349.314 56.3 350.706 59.004 350.706 63.068C350.706 66.3 349.842 68.652 348.114 70.124C346.386 71.596 343.618 72.332 339.81 72.332H319.842ZM326.61 65.996H339.81C341.41 65.996 342.562 65.692 343.266 65.084C344.002 64.444 344.37 63.452 344.37 62.108C344.37 60.764 344.002 59.788 343.266 59.18C342.562 58.54 341.41 58.22 339.81 58.22H326.61V65.996ZM326.61 52.316H338.61C340.274 52.316 341.474 52.028 342.21 51.452C342.978 50.876 343.362 49.948 343.362 48.668C343.362 47.42 342.994 46.508 342.258 45.932C341.522 45.356 340.37 45.068 338.802 45.068H326.61V52.316ZM355.409 72.332V47.372H361.745V49.628C363.345 47.836 365.809 46.94 369.137 46.94H371.537V52.844H367.217C365.265 52.844 363.857 53.388 362.993 54.476C362.161 55.564 361.745 57.356 361.745 59.852V72.332H355.409ZM376.83 69.692C374.814 67.644 373.806 64.364 373.806 59.852C373.806 55.34 374.814 52.06 376.83 50.012C378.846 47.964 382.11 46.94 386.622 46.94C391.102 46.94 394.334 47.964 396.318 50.012C398.334 52.06 399.342 55.34 399.342 59.852C399.342 60.3 399.31 60.972 399.246 61.868H380.286C380.702 65.484 382.83 67.292 386.67 67.292C389.55 67.292 391.454 66.316 392.382 64.364H398.91C398.27 67.468 396.91 69.644 394.83 70.892C392.75 72.14 390.014 72.764 386.622 72.764C382.11 72.764 378.846 71.74 376.83 69.692ZM386.67 52.412C384.878 52.412 383.454 52.78 382.398 53.516C381.342 54.252 380.67 55.468 380.382 57.164H392.958C392.67 55.468 391.998 54.252 390.942 53.516C389.918 52.78 388.494 52.412 386.67 52.412ZM412.232 72.764C409 72.764 406.616 72.156 405.08 70.94C403.576 69.692 402.824 67.708 402.824 64.988C402.824 62.204 403.656 60.22 405.32 59.036C406.984 57.82 409.672 57.212 413.384 57.212H420.872C420.744 55.516 420.216 54.3 419.288 53.564C418.392 52.796 416.984 52.412 415.064 52.412C411.96 52.412 410.136 53.516 409.592 55.724H403.352C403.736 52.652 404.872 50.428 406.76 49.052C408.648 47.644 411.496 46.94 415.304 46.94C419.464 46.94 422.488 47.804 424.376 49.532C426.264 51.228 427.208 53.98 427.208 57.788V72.332H420.872V69.98C419.048 71.836 416.168 72.764 412.232 72.764ZM409.16 64.7C409.16 66.428 410.712 67.292 413.816 67.292C415.992 67.292 417.624 66.908 418.712 66.14C419.832 65.34 420.552 64.108 420.872 62.444V61.868H415.064C411.128 61.868 409.16 62.812 409.16 64.7ZM440.818 47.372H447.634V53.276H440.818V62.876C440.818 64.124 441.106 65.036 441.682 65.612C442.258 66.156 443.218 66.428 444.562 66.428H448.066V72.332H444.37C440.914 72.332 438.402 71.644 436.834 70.268C435.266 68.892 434.482 66.684 434.482 63.644V53.276H430.834V47.372H434.482V41.948H440.818V47.372ZM458.636 72.332H452.3V36.332H458.636V49.868C460.3 47.916 462.988 46.94 466.7 46.94C470.22 46.94 472.78 47.852 474.38 49.676C476.012 51.468 476.828 54.332 476.828 58.268V72.332H470.492V58.268C470.492 56.38 470.028 55.004 469.1 54.14C468.204 53.276 466.78 52.844 464.828 52.844C462.652 52.844 461.068 53.404 460.076 54.524C459.116 55.612 458.636 57.388 458.636 59.852V72.332Z" fill="#495E4C"/>
<path d="M180.608 132.332V112.316H176.768V109.148H180.608V107.372C180.608 104.972 181.2 103.116 182.384 101.804C183.6 100.492 185.248 99.836 187.328 99.836C188.256 99.836 189.12 99.964 189.92 100.22C190.72 100.476 191.488 100.94 192.224 101.612L190.736 103.964C190.352 103.612 189.92 103.34 189.44 103.148C188.992 102.924 188.464 102.812 187.856 102.812C186.672 102.812 185.76 103.212 185.12 104.012C184.512 104.78 184.208 105.9 184.208 107.372V109.148H188.912V112.316H184.208V132.332H180.608ZM197.994 132.332V109.148H201.594V112.892C202.522 111.676 203.642 110.668 204.954 109.868C206.266 109.068 207.722 108.668 209.322 108.668V112.364C208.874 112.268 208.394 112.22 207.882 112.22C207.338 112.22 206.746 112.332 206.106 112.556C205.498 112.748 204.89 113.02 204.282 113.372C203.706 113.724 203.178 114.124 202.698 114.572C202.218 114.988 201.85 115.436 201.594 115.916V132.332H197.994ZM229.102 132.908C227.374 132.908 225.79 132.62 224.35 132.044C222.91 131.436 221.662 130.604 220.606 129.548C219.582 128.46 218.766 127.18 218.158 125.708C217.582 124.204 217.294 122.54 217.294 120.716C217.294 119.052 217.582 117.484 218.158 116.012C218.734 114.508 219.518 113.212 220.51 112.124C221.534 111.036 222.734 110.172 224.11 109.532C225.518 108.892 227.054 108.572 228.718 108.572C230.478 108.572 232.046 108.892 233.422 109.532C234.798 110.172 235.966 111.052 236.926 112.172C237.886 113.292 238.606 114.62 239.086 116.156C239.598 117.66 239.854 119.276 239.854 121.004V121.916H221.086C221.15 123.004 221.39 124.044 221.806 125.036C222.222 125.996 222.782 126.844 223.486 127.58C224.222 128.284 225.086 128.86 226.078 129.308C227.07 129.724 228.19 129.932 229.438 129.932C230.782 129.932 232.078 129.676 233.326 129.164C234.574 128.652 235.662 127.932 236.59 127.004L238.318 129.356C237.166 130.508 235.822 131.388 234.286 131.996C232.75 132.604 231.022 132.908 229.102 132.908ZM236.302 119.276C236.302 118.412 236.142 117.532 235.822 116.636C235.534 115.708 235.07 114.876 234.43 114.14C233.822 113.372 233.038 112.748 232.078 112.268C231.118 111.788 229.982 111.548 228.67 111.548C227.422 111.548 226.334 111.788 225.406 112.268C224.478 112.748 223.694 113.356 223.054 114.092C222.446 114.828 221.966 115.66 221.614 116.588C221.294 117.484 221.118 118.38 221.086 119.276H236.302ZM257.828 132.908C255.908 132.908 254.164 132.62 252.596 132.044C251.028 131.436 249.652 130.508 248.468 129.26L250.34 126.668C251.108 127.564 252.164 128.348 253.508 129.02C254.884 129.66 256.372 129.98 257.972 129.98C259.764 129.98 261.124 129.612 262.052 128.876C262.98 128.108 263.444 127.148 263.444 125.996C263.444 125.068 263.092 124.364 262.388 123.884C261.684 123.372 260.788 122.956 259.7 122.636C258.644 122.316 257.492 122.028 256.244 121.772C255.028 121.484 253.876 121.1 252.788 120.62C251.732 120.108 250.852 119.452 250.148 118.652C249.444 117.82 249.092 116.684 249.092 115.244C249.092 114.348 249.284 113.5 249.668 112.7C250.052 111.868 250.612 111.148 251.348 110.54C252.084 109.932 252.98 109.452 254.036 109.1C255.124 108.748 256.356 108.572 257.732 108.572C259.716 108.572 261.412 108.908 262.82 109.58C264.228 110.22 265.396 111.004 266.324 111.932L264.644 114.428C263.94 113.596 262.98 112.908 261.764 112.364C260.58 111.788 259.236 111.5 257.732 111.5C256.132 111.5 254.868 111.852 253.94 112.556C253.044 113.26 252.596 114.124 252.596 115.148C252.596 115.98 252.948 116.62 253.652 117.068C254.356 117.516 255.236 117.9 256.292 118.22C257.38 118.508 258.532 118.796 259.748 119.084C260.996 119.34 262.148 119.724 263.204 120.236C264.292 120.748 265.188 121.452 265.892 122.348C266.596 123.212 266.948 124.396 266.948 125.9C266.948 126.86 266.756 127.772 266.372 128.636C265.988 129.5 265.412 130.252 264.644 130.892C263.876 131.5 262.916 131.98 261.764 132.332C260.644 132.716 259.332 132.908 257.828 132.908ZM293.293 132.332V117.068C293.293 116.044 293.165 115.196 292.909 114.524C292.653 113.852 292.301 113.308 291.853 112.892C291.405 112.476 290.845 112.188 290.173 112.028C289.533 111.868 288.829 111.788 288.061 111.788C287.357 111.788 286.669 111.884 285.997 112.076C285.325 112.268 284.685 112.54 284.077 112.892C283.501 113.212 282.957 113.596 282.445 114.044C281.965 114.46 281.549 114.908 281.197 115.388V132.332H277.597V100.316H281.197V112.508C281.613 112.028 282.109 111.564 282.685 111.116C283.261 110.636 283.901 110.204 284.605 109.82C285.341 109.436 286.125 109.132 286.957 108.908C287.789 108.684 288.637 108.572 289.501 108.572C291.933 108.572 293.773 109.18 295.021 110.396C296.269 111.58 296.893 113.436 296.893 115.964V132.332H293.293ZM340.552 132.332V129.692C338.6 131.836 336.04 132.908 332.872 132.908C331.88 132.908 330.904 132.748 329.944 132.428C328.984 132.108 328.12 131.628 327.352 130.988C326.584 130.316 325.96 129.5 325.48 128.54C325 127.58 324.76 126.476 324.76 125.228C324.76 123.948 325 122.828 325.48 121.868C325.96 120.908 326.584 120.108 327.352 119.468C328.12 118.828 328.984 118.364 329.944 118.076C330.904 117.756 331.88 117.596 332.872 117.596C334.472 117.596 335.912 117.852 337.192 118.364C338.504 118.876 339.624 119.676 340.552 120.764V116.588C340.552 115.02 339.992 113.82 338.872 112.988C337.784 112.124 336.392 111.692 334.696 111.692C331.976 111.692 329.608 112.764 327.592 114.908L325.912 112.412C328.376 109.852 331.464 108.572 335.176 108.572C336.392 108.572 337.544 108.716 338.632 109.004C339.72 109.292 340.664 109.756 341.464 110.396C342.296 111.004 342.952 111.804 343.432 112.796C343.912 113.788 344.152 114.988 344.152 116.396V132.332H340.552ZM334.168 130.316C335.448 130.316 336.648 130.076 337.768 129.596C338.92 129.116 339.848 128.396 340.552 127.436V123.068C339.848 122.108 338.92 121.388 337.768 120.908C336.648 120.428 335.448 120.188 334.168 120.188C332.472 120.188 331.096 120.668 330.04 121.628C328.984 122.556 328.456 123.772 328.456 125.276C328.456 126.748 328.984 127.964 330.04 128.924C331.096 129.852 332.472 130.316 334.168 130.316ZM357.945 105.836C357.305 105.836 356.745 105.612 356.265 105.164C355.785 104.684 355.545 104.108 355.545 103.436C355.545 102.764 355.785 102.188 356.265 101.708C356.745 101.228 357.305 100.988 357.945 100.988C358.617 100.988 359.193 101.228 359.673 101.708C360.153 102.188 360.393 102.764 360.393 103.436C360.393 104.108 360.153 104.684 359.673 105.164C359.193 105.612 358.617 105.836 357.945 105.836ZM356.169 132.332V109.148H359.769V132.332H356.169ZM371.75 132.332V109.148H375.35V112.892C376.278 111.676 377.398 110.668 378.71 109.868C380.022 109.068 381.478 108.668 383.078 108.668V112.364C382.63 112.268 382.15 112.22 381.638 112.22C381.094 112.22 380.502 112.332 379.862 112.556C379.254 112.748 378.646 113.02 378.038 113.372C377.462 113.724 376.934 114.124 376.454 114.572C375.974 114.988 375.606 115.436 375.35 115.916V132.332H371.75Z" fill="#78C081"/>
</svg>
