<svg width="33" height="42" viewBox="0 0 33 42" fill="none" xmlns="http://www.w3.org/2000/svg">
<path d="M16.332 0.999023C20.4036 1.00447 24.3029 2.57342 27.1758 5.35645C29.9585 8.05216 31.5581 11.6729 31.6602 15.4658L31.665 15.833C31.6648 18.4739 30.7775 21.3265 29.3936 24.1592C28.0124 26.9862 26.1578 29.7513 24.2715 32.2041C21.4416 35.8837 18.5654 38.8299 17.1758 40.1924L16.3389 40.9961L16.3359 40.998C16.3351 40.9983 16.3338 40.999 16.332 40.999C16.3303 40.999 16.329 40.9983 16.3281 40.998L16.3291 40.999L16.3252 40.9961L15.4883 40.1924C14.0987 38.8298 11.2224 35.8837 8.39258 32.2041C6.50622 29.7513 4.6517 26.9862 3.27051 24.1592C1.88656 21.3265 0.99924 18.4739 0.999023 15.833C1.0044 11.9073 2.61595 8.13902 5.48828 5.35645C8.36112 2.57342 12.2605 1.00448 16.332 0.999023ZM19.3867 8.65039C17.9276 8.06488 16.3231 7.91175 14.7754 8.20996C13.2276 8.50822 11.8027 9.24498 10.6826 10.3301C9.56249 11.4153 8.79671 12.8003 8.48633 14.3115C8.17595 15.8231 8.33613 17.39 8.94434 18.8125C9.55247 20.2348 10.5803 21.4475 11.8955 22.2988C13.1284 23.0969 14.5626 23.5448 16.0371 23.5977L16.332 23.6025C18.4466 23.6013 20.479 22.7875 21.9805 21.333C23.4825 19.8778 24.3308 17.8993 24.332 15.832L24.3262 15.543C24.271 14.1028 23.805 12.7051 22.9785 11.5068C22.097 10.2288 20.846 9.23599 19.3867 8.65039Z" fill="#78C081" stroke="#577A5B" stroke-width="1.33333"/>
</svg>
