<svg width="30" height="30" viewBox="0 0 30 30" fill="none" xmlns="http://www.w3.org/2000/svg">
<path d="M6.49902 0.666992C6.57349 0.666992 6.62558 0.670974 6.65918 0.675781C6.66396 0.676467 6.66834 0.677122 6.67188 0.677734C6.67351 0.679308 6.6759 0.680801 6.67773 0.682617C6.71601 0.720524 6.77493 0.789557 6.85352 0.902344C7.01069 1.12796 7.20758 1.47036 7.44434 1.94434L7.45312 1.96289L7.46387 1.98145C7.53795 2.10934 7.62601 2.26551 7.72852 2.4502L8.0791 3.09082L8.81348 4.42285C9.03854 4.82356 9.25692 5.20128 9.46875 5.55469L9.48633 5.58301L9.50684 5.61035L9.85645 6.11133C9.95251 6.25056 10.0322 6.37422 10.0977 6.48242L10.2529 6.7627C10.313 6.88729 10.332 6.98718 10.332 7.06738C10.332 7.05079 10.3366 7.09164 10.2715 7.20605C10.2238 7.28974 10.1492 7.39368 10.041 7.51855L9.92188 7.65039C9.64449 7.94237 9.34902 8.2161 9.03516 8.47168L8.71484 8.72168C8.34865 8.99504 8.00171 9.28147 7.6748 9.58105L7.35449 9.88477C7.13476 10.1008 6.94644 10.32 6.80957 10.541C6.67596 10.7568 6.56158 11.0229 6.56152 11.3193C6.56152 11.5566 6.62494 11.7974 6.70703 12.0195C6.7788 12.2137 6.84732 12.3829 6.91211 12.5127V12.5137C6.94405 12.5778 6.98879 12.6571 7.04297 12.75L7.2334 13.0664C7.30597 13.184 7.36193 13.2744 7.40039 13.3379C7.4196 13.3696 7.43385 13.393 7.44336 13.4092C7.45693 13.4323 7.45263 13.4268 7.44434 13.4102L7.4502 13.4229L7.45801 13.4355C8.40464 15.1433 9.47526 16.6467 10.6729 17.9414L11.1943 18.4834C12.6047 19.8941 14.2882 21.1399 16.2383 22.2227L16.25 22.2285L16.2617 22.2354L16.2637 22.2363C16.28 22.246 16.3039 22.2609 16.3359 22.2803C16.3993 22.3187 16.4894 22.3731 16.6064 22.4453V22.4463C16.7246 22.5195 16.8307 22.5838 16.9229 22.6377L17.1562 22.7666L17.1641 22.7705C17.2273 22.8015 17.3001 22.8343 17.3818 22.8682L17.6533 22.9736H17.6543C17.8754 23.0551 18.116 23.1191 18.3535 23.1191C18.6499 23.1191 18.9161 23.0047 19.1318 22.8711C19.2975 22.7684 19.462 22.6365 19.625 22.4844L19.7881 22.3252C20.0958 22.0115 20.3908 21.6777 20.6729 21.3242L20.9502 20.9639H20.9512C21.2755 20.5284 21.6324 20.1261 22.0215 19.7559L22.0205 19.7549C22.2051 19.5795 22.3535 19.4698 22.4648 19.4062C22.5792 19.341 22.6195 19.3457 22.6025 19.3457C22.6821 19.3457 22.7818 19.3642 22.9062 19.4238V19.4248C23.0643 19.5012 23.2795 19.6285 23.5576 19.8203V19.8213C23.8555 20.0276 24.0144 20.1391 24.0566 20.1709L24.085 20.1914L24.1143 20.21C24.4668 20.4215 24.8439 20.6392 25.2451 20.8643V20.8652L26.5771 21.5996C27.0617 21.8631 27.4299 22.0677 27.6846 22.2158L27.7031 22.2266L27.7217 22.2354C28.1957 22.4723 28.5383 22.6698 28.7637 22.8271C28.8764 22.9058 28.9456 22.9647 28.9834 23.0029C28.9846 23.0041 28.9853 23.0057 28.9863 23.0068C28.987 23.0108 28.9894 23.0157 28.9902 23.0215L28.999 23.1816V23.1826C28.999 23.4102 28.9663 23.7117 28.8936 24.0938L28.8076 24.5029V24.5039C28.7066 24.9439 28.6052 25.2952 28.5068 25.5664L28.4092 25.8115L28.4043 25.8232C28.3124 26.042 28.1082 26.3203 27.7275 26.6514C27.3506 26.9793 26.8296 27.3328 26.1533 27.708C24.9317 28.37 23.7501 28.6875 22.6025 28.6875C22.2577 28.6875 21.9234 28.6649 21.5996 28.6211H21.6006C21.2837 28.5773 20.9148 28.4981 20.4912 28.3789H20.4922C20.2717 28.3167 20.0832 28.261 19.9258 28.2129L19.5449 28.0898C19.3359 28.0156 18.9553 27.8745 18.3994 27.666H18.4004C17.8673 27.4654 17.5173 27.3373 17.3682 27.2871H17.3691C16.2119 26.8732 15.1702 26.3952 14.2422 25.8545L13.8516 25.6191L13.8486 25.6172L13.1992 25.1992C11.8928 24.3262 10.5455 23.2286 9.15723 21.9023L8.45898 21.2207C6.82368 19.5842 5.50089 18.0025 4.4834 16.4775L4.06641 15.8271L4.06445 15.8252L3.8291 15.4336C3.36582 14.6375 2.94817 13.7583 2.57812 12.7939L2.39746 12.3047L2.01855 11.2734L1.5957 10.1279C1.56146 10.0312 1.52069 9.90461 1.47266 9.74707L1.30762 9.17969C1.21831 8.86225 1.15071 8.57555 1.10449 8.31836L1.06543 8.07129C1.02115 7.74805 0.999043 7.41333 0.999023 7.06738C0.999023 5.91833 1.31553 4.73522 1.97754 3.5127C2.35259 2.836 2.7056 2.31579 3.0332 1.93848C3.28171 1.65231 3.5006 1.46547 3.68652 1.35156L3.86133 1.26074L3.87207 1.25684C4.0913 1.16017 4.3877 1.05973 4.76953 0.958984L5.17969 0.858398C5.76187 0.724281 6.19597 0.666998 6.49902 0.666992Z" fill="#78C081" stroke="#577A5B" stroke-width="1.33333"/>
</svg>
