<svg width="24" height="24" viewBox="0 0 24 24" fill="none" xmlns="http://www.w3.org/2000/svg">
<path d="M10.8997 12.8309C7.74266 15.7498 3.40632 15.2202 1.6115 12.4198C-0.701936 8.80993 3.09854 3.76869 6.49231 7.58728C7.48011 8.69581 8.78854 11.2531 10.904 10.9732L10.8997 12.8309Z" fill="#D7FFDB"/>
<path d="M12.8331 13.1047C15.7491 16.2625 15.2197 20.602 12.4221 22.3972C8.81314 24.7112 3.77309 20.9077 7.58864 17.5131C8.69909 16.5272 11.2536 15.2185 10.9759 13.1025L12.8331 13.1047Z" fill="#9DFF94"/>
<path d="M17.515 16.4159C16.5293 15.3052 15.2209 12.7501 13.1055 13.03L13.1098 11.1724C16.2668 8.2535 20.6031 8.78302 22.398 11.5835C24.7114 15.1911 20.9087 20.2346 17.515 16.4159Z" fill="#D7FFDB"/>
<path d="M11.1751 10.8991C8.25689 7.74128 8.78846 3.40173 11.5861 1.60653C15.1951 -0.707455 20.2351 3.0961 16.4174 6.49068C15.3091 7.47654 12.7547 8.78528 13.0323 10.9012L11.1751 10.8991Z" fill="#9DFF94"/>
<path d="M11.9685 14.4274C13.252 14.4274 14.2925 13.3866 14.2925 12.1028C14.2925 10.819 13.252 9.77832 11.9685 9.77832C10.685 9.77832 9.64453 10.819 9.64453 12.1028C9.64453 13.3866 10.685 14.4274 11.9685 14.4274Z" fill="white"/>
<path d="M0.897465 10.0525C1.02824 10.0574 1.13832 9.95741 1.14408 9.82694C1.21077 8.329 2.06151 6.99719 3.21284 6.58845C4.23131 6.22699 5.33396 6.63795 6.31826 7.74549C6.99086 8.50084 7.81267 9.93779 8.98399 10.7129C9.09279 10.7848 9.2394 10.755 9.31134 10.6462C9.38332 10.5374 9.35354 10.3907 9.24465 10.3187C8.15906 9.60025 7.35852 8.20363 6.67117 7.43131C5.15932 5.73042 3.75721 5.8938 3.05479 6.14313C1.72698 6.61464 0.747074 8.12076 0.672114 9.80595C0.666301 9.93628 0.767113 10.0467 0.897465 10.0525Z" fill="#78C081"/>
<path d="M9.18181 13.7719C7.03762 14.9172 4.553 14.7867 2.85148 13.4407C2.74906 13.3593 2.60051 13.3774 2.51974 13.4794C2.43878 13.5818 2.45608 13.7304 2.5585 13.8113C3.57281 14.6139 4.8397 15.0208 6.15801 15.0208C7.24241 15.0208 8.3617 14.7455 9.40413 14.1889C9.51922 14.1274 9.56284 13.9844 9.50126 13.8692C9.43991 13.754 9.29623 13.7103 9.18181 13.7719Z" fill="#78C081"/>
<path d="M1.21843 11.6695C1.10008 11.7248 1.04913 11.8653 1.10424 11.9835C1.24149 12.2771 1.41244 12.5647 1.59856 12.8152C1.67612 12.9196 1.82396 12.942 1.92912 12.864C2.03386 12.7863 2.05555 12.6384 1.9778 12.5337C1.81035 12.3083 1.65622 12.0489 1.53235 11.7835C1.47729 11.6656 1.33654 11.6146 1.21843 11.6695Z" fill="#78C081"/>
<path d="M12.5514 22.5968C15.067 20.981 15.7657 17.533 14.1768 14.5766C14.115 14.4616 13.9715 14.4186 13.8568 14.4804C13.7419 14.5422 13.6988 14.6855 13.7607 14.8005C15.2317 17.5373 14.6022 20.7181 12.2965 22.1992C10.3697 23.4338 7.98213 22.8204 6.96163 21.4724C6.08807 20.3186 6.38195 18.905 7.74799 17.6909C8.48544 17.034 9.84884 16.2495 10.6393 15.1347C10.7147 15.0282 10.6898 14.8808 10.5833 14.8052C10.4772 14.7297 10.3293 14.7549 10.2541 14.8612C9.51833 15.899 8.17903 16.6741 7.43402 17.3377C5.5849 18.9811 5.78303 20.6985 6.5849 21.7577C7.78812 23.3466 10.4774 23.9262 12.5514 22.5968Z" fill="#78C081"/>
<path d="M21.4736 17.0441C20.319 17.919 18.9049 17.6251 17.69 16.2587C17.0232 15.5064 16.2089 14.0878 15.0542 13.3088C14.9455 13.2359 14.7993 13.2642 14.7262 13.3726C14.6533 13.4808 14.6819 13.6277 14.7898 13.7006C15.8601 14.4225 16.6606 15.8099 17.3368 16.5725C18.8674 18.2943 20.5729 18.3195 21.7589 17.4208C23.2738 16.2724 23.9723 13.6017 22.597 11.4563C20.9702 8.9189 17.3894 8.23673 14.4443 9.90382C14.3305 9.96806 14.2906 10.1122 14.355 10.2258C14.4191 10.3393 14.5635 10.3796 14.6768 10.315C17.4034 8.77216 20.7077 9.38489 22.1992 11.7113C23.4334 13.6367 22.8205 16.0232 21.4736 17.0441Z" fill="#78C081"/>
<path d="M11.4594 1.40713C8.9348 3.02789 8.24759 6.60117 9.89514 9.5421C9.95866 9.65599 10.1025 9.69636 10.2167 9.63278C10.3304 9.56896 10.371 9.425 10.3071 9.31112C8.78162 6.58793 9.39987 3.29083 11.7142 1.8049C13.6411 0.570377 16.0287 1.18305 17.0489 2.53056C17.9227 3.6841 17.6288 5.09817 16.2628 6.31322C15.5074 6.98593 13.9987 7.85077 13.2432 9.06047C13.174 9.17109 13.2076 9.31694 13.3181 9.38605C13.4289 9.4554 13.5744 9.4216 13.6436 9.31084C14.3454 8.18736 15.7911 7.36607 16.5767 6.66626C18.4258 5.02168 18.2277 3.30411 17.4256 2.24517C16.2775 0.72955 13.606 0.0311189 11.4594 1.40713Z" fill="#78C081"/>
<path d="M11.9663 14.6637C13.3781 14.6637 14.5267 13.5149 14.5267 12.1029C14.5267 10.6909 13.3781 9.54199 11.9663 9.54199C10.5548 9.54199 9.40625 10.6908 9.40625 12.1029C9.4063 13.5149 10.5548 14.6637 11.9663 14.6637ZM11.9663 10.0146C13.1177 10.0146 14.0542 10.9515 14.0542 12.103C14.0542 13.2545 13.1177 14.1912 11.9663 14.1912C10.8153 14.1912 9.87869 13.2544 9.87869 12.103C9.87869 10.9515 10.8153 10.0146 11.9663 10.0146Z" fill="#78C081"/>
</svg>
