<svg width="1921" height="170" viewBox="0 0 1921 170" fill="none" xmlns="http://www.w3.org/2000/svg">
<path d="M0 64.668C16.6529 75.002 72.2376 99.5453 161.353 115.046C272.748 134.423 330.133 114.271 359.838 110.396M359.838 110.396L346.198 104.001M359.838 110.396L349.445 121.335" stroke="#78C081" stroke-width="2.66667" stroke-linecap="round" stroke-linejoin="round"/>
<path d="M1030.15 125.329C1065.22 144.234 1121.08 167.257 1202.27 168.584C1324.38 170.581 1371.15 136.642 1396.48 124.392M1396.48 124.392L1382.84 122.002M1396.48 124.392L1388.69 136.642" stroke="#78C081" stroke-width="2.66667" stroke-linecap="round" stroke-linejoin="round"/>
<path d="M511.172 104.005C541.7 89.3368 593.012 65.3386 680.969 60.0042C783.324 53.7966 822.295 79.3366 879.453 102.003M879.453 102.003L872.309 90.6678M879.453 102.003L866.463 107.334" stroke="#78C081" stroke-width="2.66667" stroke-linecap="round" stroke-linejoin="round"/>
<path d="M1547.17 79.3353C1570.55 61.7231 1629.66 32.0034 1721.25 14.6683C1754.85 8.30728 1840.11 -1.32901 1920 13.3371M1920 13.3371L1912.86 2.00195M1920 13.3371L1907.01 18.6681" stroke="#78C081" stroke-width="2.66667" stroke-linecap="round" stroke-linejoin="round"/>
<ellipse cx="435.179" cy="99.3347" rx="64.9527" ry="66.6667" fill="#D9FADD"/>
<ellipse cx="954.8" cy="92.6687" rx="64.9527" ry="66.6667" fill="#D9FADD"/>
<ellipse cx="1471.83" cy="92.6687" rx="64.9527" ry="66.6667" fill="#D9FADD"/>
<path d="M980.916 68.3717V125.736C980.916 128.081 979.048 129.982 976.744 129.982H932.863C930.559 129.982 928.691 128.081 928.691 125.736V68.3717C928.691 66.0269 930.559 64.126 932.863 64.126H942.48V70.0712C942.48 70.9499 943.18 71.6623 944.043 71.6623H965.564C966.427 71.6623 967.127 70.9499 967.127 70.0712V64.126H976.744C979.048 64.126 980.916 66.0269 980.916 68.3717V68.3717Z" fill="#D9FADD"/>
<path d="M967.128 62.7877V70.0738C967.128 70.9525 966.428 71.6648 965.565 71.6648H944.044C943.18 71.6648 942.48 70.9525 942.48 70.0738V62.7877C942.48 61.909 943.18 61.1967 944.044 61.1967H949.962V61.1814C949.962 57.7979 953.373 55.2049 956.895 56.7314C958.607 57.4737 959.632 59.2872 959.632 61.1814V61.1967H965.565C966.428 61.1968 967.128 61.9092 967.128 62.7877V62.7877Z" fill="#D9FADD"/>
<path d="M965.565 60.0078H960.694C959.501 53.4082 950.158 53.5637 948.907 60.0078H944.043C942.537 60.0078 941.312 61.255 941.312 62.788V62.9372H932.863C929.918 62.9372 927.523 65.375 927.523 68.3716V125.736C927.523 128.733 929.919 131.17 932.863 131.17H976.744C979.689 131.17 982.084 128.732 982.084 125.736V68.3716C982.084 65.3749 979.689 62.9372 976.744 62.9372H968.295V62.788C968.295 61.255 967.071 60.0078 965.565 60.0078ZM944.043 62.3852H949.961C950.606 62.3852 951.129 61.8378 951.129 61.1815C951.129 56.4268 958.464 56.1175 958.464 61.1966C958.464 61.8532 958.987 62.3854 959.632 62.3854H965.565C965.782 62.3854 965.96 62.5658 965.96 62.7882C965.96 63.585 965.959 68.2504 965.959 70.0712C965.959 70.2935 965.782 70.474 965.563 70.474H944.043C943.825 70.474 943.648 70.2935 943.648 70.0712C943.648 69.9491 943.648 62.6661 943.648 62.7882C943.648 62.5657 943.825 62.3852 944.043 62.3852ZM944.043 72.8535H965.564C967.07 72.8535 968.295 71.6068 968.295 70.0739V70.071L974.208 70.0321C974.708 70.0321 975.113 70.4448 975.113 70.9527V123.155C975.113 123.663 974.708 124.076 974.208 124.076H935.399C934.9 124.076 934.494 123.663 934.494 123.155V70.9526C934.494 70.4447 934.9 70.032 935.399 70.032H941.312V70.0737C941.312 71.6068 942.537 72.8535 944.043 72.8535ZM976.745 65.3145C978.401 65.3145 979.748 66.6861 979.748 68.3716V125.736C979.748 127.421 978.401 128.793 976.745 128.793H932.863C931.207 128.793 929.859 127.421 929.859 125.736V68.3716C929.859 66.6861 931.207 65.3145 932.863 65.3145H941.312V67.6547H935.399C933.612 67.6547 932.158 69.1342 932.158 70.9526V123.155C932.158 124.973 933.612 126.453 935.399 126.453H974.208C975.995 126.453 977.449 124.973 977.449 123.155V70.9526C977.449 69.1341 975.995 67.6547 974.208 67.6547H968.295V65.3145H976.745Z" fill="#5CCD6A"/>
<path d="M955.636 60.681C956.068 60.216 956.107 59.5265 955.636 58.9931C955.204 58.5531 954.422 58.5531 953.978 58.9931C953.521 59.5079 953.535 60.2058 953.978 60.681C954.452 61.1389 955.162 61.1392 955.636 60.681Z" fill="#5CCD6A"/>
<path d="M956.105 81.7319H968.429C969.074 81.7319 969.597 81.1997 969.597 80.5432C969.597 79.8867 969.074 79.3545 968.429 79.3545H956.105C955.46 79.3545 954.938 79.8867 954.938 80.5432C954.938 81.1997 955.461 81.7319 956.105 81.7319Z" fill="#C3FF17"/>
<path d="M956.105 86.8647H963.4C964.045 86.8647 964.568 86.3325 964.568 85.676C964.568 85.0195 964.045 84.4873 963.4 84.4873H956.105C955.46 84.4873 954.938 85.0195 954.938 85.676C954.938 86.3325 955.461 86.8647 956.105 86.8647Z" fill="#C3FF17"/>
<path d="M941.146 86.148C941.146 87.781 942.443 89.1395 944.077 89.1395H948.642C950.275 89.1395 951.573 87.7812 951.573 86.148V81.4582C951.573 79.8247 950.275 78.4661 948.642 78.4661H944.077C942.443 78.4661 941.146 79.8245 941.146 81.4582V86.148Z" fill="#C3FF17" stroke="#5CCD6A" stroke-width="1.33333"/>
<path d="M956.105 96.3589H968.429C969.074 96.3589 969.597 95.8267 969.597 95.1702C969.597 94.5136 969.074 93.9814 968.429 93.9814H956.105C955.46 93.9814 954.938 94.5136 954.938 95.1702C954.938 95.8267 955.461 96.3589 956.105 96.3589Z" fill="#C3FF17"/>
<path d="M956.105 101.492H963.4C964.045 101.492 964.568 100.959 964.568 100.303C964.568 99.6465 964.045 99.1143 963.4 99.1143H956.105C955.46 99.1143 954.938 99.6465 954.938 100.303C954.938 100.959 955.461 101.492 956.105 101.492Z" fill="#C3FF17"/>
<path d="M951.573 96.135V96.1349C951.572 94.5015 950.275 93.1429 948.642 93.1429H944.077C942.443 93.1429 941.146 94.5015 941.146 96.135V100.825C941.146 102.458 942.443 103.816 944.077 103.816H948.642C950.275 103.816 951.573 102.458 951.573 100.825V96.135Z" fill="#C3FF17" stroke="#5CCD6A" stroke-width="1.33333"/>
<path d="M956.105 110.985H968.429C969.074 110.985 969.597 110.453 969.597 109.796C969.597 109.14 969.074 108.607 968.429 108.607H956.105C955.46 108.607 954.938 109.14 954.938 109.796C954.938 110.453 955.461 110.985 956.105 110.985Z" fill="#C3FF17"/>
<path d="M956.105 116.118H963.4C964.045 116.118 964.568 115.585 964.568 114.929C964.568 114.272 964.045 113.74 963.4 113.74H956.105C955.46 113.74 954.938 114.272 954.938 114.929C954.938 115.585 955.461 116.118 956.105 116.118Z" fill="#C3FF17"/>
<path d="M951.573 110.813V110.813C951.572 109.179 950.275 107.821 948.642 107.821H944.077C942.443 107.821 941.146 109.179 941.146 110.813V115.502C941.146 117.135 942.443 118.494 944.077 118.494H948.642C950.275 118.494 951.573 117.136 951.573 115.502V110.813Z" fill="#C3FF17" stroke="#5CCD6A" stroke-width="1.33333"/>
<path d="M446.72 111.931C443.162 115.598 443.607 122.999 443.607 122.999H425.564C425.564 122.999 425.945 115.598 422.451 111.931C418.575 108.394 416.098 103.286 416.098 97.5877C416.098 87.1088 424.357 78.5947 434.522 78.5947C444.687 78.5947 452.946 87.1088 452.946 97.5877C452.946 103.286 450.532 108.394 446.72 111.931Z" fill="#C3FF17"/>
<path d="M444.115 128.828C444.115 129.81 443.353 130.596 442.4 130.596H426.708C425.755 130.596 424.992 129.81 424.992 128.828C424.992 127.845 425.755 127.06 426.708 127.06H442.336C443.289 127.06 444.115 127.845 444.115 128.828Z" fill="#D9FADD"/>
<path d="M441.765 136.163C441.765 137.145 441.003 137.931 440.05 137.931H429.059C428.106 137.931 427.344 137.145 427.344 136.163C427.344 135.18 428.106 134.395 429.059 134.395H440.05C441.003 134.395 441.765 135.18 441.765 136.163Z" fill="#D9FADD"/>
<path d="M447.677 112.586C451.807 108.722 454.157 103.286 454.157 97.5879C454.157 86.4541 445.326 77.3506 434.526 77.3506C423.725 77.3506 414.895 86.4541 414.895 97.5879C414.895 103.417 417.372 108.984 421.565 112.782C424.678 115.991 424.361 122.803 424.361 122.868C424.361 123.196 424.488 123.523 424.678 123.785C424.933 124.047 425.25 124.178 425.568 124.178H443.547C443.865 124.178 444.183 124.047 444.437 123.785C444.691 123.523 444.755 123.196 444.755 122.868C444.755 122.803 444.437 115.991 447.55 112.782C447.613 112.717 447.677 112.651 447.677 112.586ZM445.898 110.949C445.771 111.014 445.707 111.145 445.644 111.276C442.849 114.354 442.404 119.397 442.34 121.755H426.775C426.711 119.332 426.203 114.092 423.217 111.014C419.469 107.608 417.309 102.762 417.309 97.6534C417.309 87.8295 425.06 79.9048 434.526 79.9048C444.056 79.9048 451.743 87.895 451.743 97.6534C451.743 102.696 449.646 107.608 445.898 110.949Z" fill="#5CCD6A"/>
<path d="M434.524 82.5898C433.888 82.5898 433.316 83.1138 433.316 83.8342C433.316 84.4891 433.825 85.0786 434.524 85.0786C441.639 85.0786 447.42 91.0384 447.42 98.3737C447.42 99.0286 447.929 99.618 448.628 99.618C449.263 99.618 449.835 99.0941 449.835 98.3737C449.835 89.6631 442.973 82.5898 434.524 82.5898Z" fill="#5CCD6A"/>
<path d="M445.322 128.828C445.322 127.125 443.988 125.815 442.4 125.815H426.708C425.056 125.815 423.785 127.191 423.785 128.828C423.785 130.531 425.119 131.841 426.708 131.841H442.336C443.988 131.841 445.322 130.531 445.322 128.828ZM442.336 129.352H426.708C426.39 129.352 426.199 129.09 426.199 128.828C426.199 128.501 426.453 128.304 426.708 128.304H442.336C442.654 128.304 442.845 128.566 442.845 128.828C442.908 129.156 442.654 129.352 442.336 129.352Z" fill="#5CCD6A"/>
<path d="M440.05 133.15H429.059C427.407 133.15 426.137 134.526 426.137 136.163C426.137 137.866 427.471 139.176 429.059 139.176H440.05C441.702 139.176 442.973 137.8 442.973 136.163C442.973 134.526 441.638 133.15 440.05 133.15ZM440.05 136.687H429.059C428.742 136.687 428.551 136.425 428.551 136.163C428.551 135.836 428.805 135.639 429.059 135.639H440.05C440.368 135.639 440.558 135.901 440.558 136.163C440.558 136.491 440.368 136.687 440.05 136.687Z" fill="#5CCD6A"/>
<path d="M435.731 70.0806V61.6975C435.731 61.0426 435.222 60.4531 434.524 60.4531C433.888 60.4531 433.316 60.9771 433.316 61.6975V70.1461C433.316 70.801 433.825 71.3905 434.524 71.3905C435.222 71.325 435.731 70.801 435.731 70.0806Z" fill="#5CCD6A"/>
<path d="M454.536 66.6752C453.964 66.2823 453.265 66.4787 452.884 67.0027L448.373 74.0104C447.992 74.5999 448.183 75.3203 448.691 75.7133C448.881 75.8442 449.135 75.9097 449.326 75.9097C449.707 75.9097 450.088 75.7133 450.343 75.3858L454.853 68.378C455.235 67.8541 455.044 67.0682 454.536 66.6752Z" fill="#5CCD6A"/>
<path d="M420.164 75.6474C420.355 75.6474 420.609 75.5819 420.799 75.4509C421.371 75.0579 421.498 74.3375 421.181 73.7481L416.797 66.6748C416.416 66.0854 415.717 65.9544 415.145 66.2819C414.573 66.6748 414.446 67.3953 414.764 67.9847L419.148 75.0579C419.402 75.4509 419.783 75.6474 420.164 75.6474Z" fill="#5CCD6A"/>
<path d="M403.33 81.5415L410.509 85.5366C410.699 85.6676 410.89 85.6676 411.081 85.6676C411.525 85.6676 411.906 85.4056 412.161 85.0126C412.478 84.4232 412.288 83.6373 411.652 83.3098L404.473 79.3147C403.901 78.9873 403.139 79.1838 402.821 79.8387C402.567 80.4936 402.758 81.214 403.33 81.5415Z" fill="#5CCD6A"/>
<path d="M457.968 85.7328C458.159 85.7328 458.35 85.6673 458.54 85.6018L465.719 81.6067C466.291 81.2793 466.545 80.5588 466.228 79.9039C465.91 79.3145 465.211 79.0525 464.576 79.38L457.397 83.375C456.825 83.7025 456.571 84.4229 456.888 85.0779C457.079 85.4708 457.524 85.7328 457.968 85.7328Z" fill="#5CCD6A"/>
<path d="M1478.06 79.8111C1478.06 82.323 1477.59 84.6371 1476.81 86.4904C1477.27 86.8183 1477.69 87.1896 1478.08 87.599L1489.15 76.2254C1484.78 71.6819 1478.72 68.8501 1472.03 68.7939C1475.36 68.8502 1478.06 73.7601 1478.06 79.8111Z" fill="#D9FADD"/>
<path d="M1457.78 99.1794C1459.51 97.4034 1461.43 96.105 1463.26 95.3623C1463.17 94.8576 1463.13 94.3392 1463.13 93.8091C1463.13 93.7592 1463.13 93.7099 1463.13 93.6602H1447.47C1447.47 93.7101 1447.47 93.7594 1447.47 93.8092C1447.47 100.645 1450.14 106.839 1454.46 111.354C1452.14 108.893 1453.61 103.46 1457.78 99.1794Z" fill="#D9FADD"/>
<path d="M1465.59 107.807C1465.59 105.296 1466.06 102.981 1466.84 101.128C1466.39 100.8 1465.96 100.429 1465.58 100.02L1454.5 111.393C1458.88 115.937 1464.93 118.768 1471.63 118.825C1468.29 118.768 1465.59 113.859 1465.59 107.807Z" fill="#D9FADD"/>
<path d="M1466.6 79.3838C1468.32 81.1598 1469.59 83.1338 1470.31 85.0121C1470.8 84.9236 1471.31 84.8748 1471.82 84.8748C1471.87 84.8748 1471.92 84.8778 1471.97 84.8786V68.7938C1471.92 68.7936 1471.87 68.792 1471.82 68.792C1465.17 68.792 1459.14 71.5343 1454.74 75.9774C1457.14 73.5894 1462.43 75.1031 1466.6 79.3838Z" fill="#D9FADD"/>
<path d="M1458.2 87.4057C1460.64 87.4057 1462.9 87.8835 1464.7 88.6865C1465.02 88.2189 1465.38 87.7842 1465.78 87.3882L1454.71 76.0146C1450.28 80.5047 1447.53 86.7217 1447.47 93.601C1447.53 90.1742 1452.31 87.4057 1458.2 87.4057Z" fill="#D9FADD"/>
<path d="M1485.45 100.213C1483.01 100.213 1480.75 99.7351 1478.95 98.932C1478.63 99.3997 1478.27 99.8342 1477.87 100.23L1488.94 111.604C1493.37 107.114 1496.12 100.897 1496.18 94.0176C1496.12 97.4444 1491.34 100.213 1485.45 100.213Z" fill="#D9FADD"/>
<path d="M1485.87 88.4389C1484.15 90.2149 1482.22 91.5132 1480.39 92.2561C1480.48 92.7607 1480.53 93.2792 1480.53 93.8093C1480.53 93.8592 1480.53 93.9084 1480.52 93.9582H1496.18C1496.18 93.9084 1496.19 93.8591 1496.19 93.8093C1496.19 86.974 1493.52 80.7801 1489.19 76.2646C1491.52 78.7259 1490.04 84.1583 1485.87 88.4389Z" fill="#D9FADD"/>
<path d="M1477.05 108.235C1475.32 106.459 1474.06 104.485 1473.34 102.606C1472.85 102.695 1472.34 102.744 1471.82 102.744C1471.78 102.744 1471.73 102.741 1471.68 102.74V118.825C1471.73 118.825 1471.78 118.827 1471.82 118.827C1478.48 118.827 1484.51 116.084 1488.91 111.641C1486.51 114.029 1481.22 112.515 1477.05 108.235Z" fill="#D9FADD"/>
<path d="M1485.45 100.212C1491.38 100.212 1496.18 97.4123 1496.18 93.958H1480.52C1480.49 95.8071 1479.91 97.5189 1478.95 98.9316C1480.75 99.7346 1483.01 100.212 1485.45 100.212Z" fill="#C3FF17"/>
<path d="M1485.87 88.4393C1490.06 84.1358 1491.53 78.6671 1489.15 76.2246L1478.08 87.5995C1479.26 88.8542 1480.09 90.463 1480.39 92.2564C1482.22 91.5136 1484.14 90.2153 1485.87 88.4393Z" fill="#C3FF17"/>
<path d="M1478.06 79.8117C1478.06 73.7256 1475.34 68.792 1471.97 68.792V84.8787C1473.77 84.909 1475.44 85.5005 1476.81 86.491C1477.6 84.6376 1478.06 82.3235 1478.06 79.8117Z" fill="#C3FF17"/>
<path d="M1466.6 79.3834C1462.41 75.08 1457.09 73.5714 1454.71 76.0138L1465.78 87.3886C1467 86.1748 1468.57 85.3263 1470.32 85.0118C1469.59 83.1335 1468.33 81.1594 1466.6 79.3834Z" fill="#C3FF17"/>
<path d="M1458.2 87.4062C1452.27 87.4062 1447.47 90.2064 1447.47 93.6607H1463.13C1463.16 91.8116 1463.74 90.0998 1464.7 88.6871C1462.9 87.8841 1460.64 87.4062 1458.2 87.4062Z" fill="#C3FF17"/>
<path d="M1457.78 99.1793C1453.59 103.483 1452.12 108.952 1454.5 111.394L1465.58 100.019C1464.39 98.7645 1463.57 97.1558 1463.26 95.3623C1461.43 96.105 1459.51 97.4033 1457.78 99.1793Z" fill="#C3FF17"/>
<path d="M1465.59 107.807C1465.59 113.893 1468.32 118.827 1471.68 118.827V102.74C1469.88 102.71 1468.22 102.119 1466.84 101.128C1466.06 102.981 1465.59 105.296 1465.59 107.807Z" fill="#C3FF17"/>
<path d="M1477.05 108.235C1481.24 112.538 1486.57 114.047 1488.94 111.604L1477.87 100.229C1476.65 101.443 1475.08 102.292 1473.34 102.606C1474.06 104.485 1475.32 106.459 1477.05 108.235Z" fill="#C3FF17"/>
<path d="M1471.83 84.875C1467.03 84.875 1463.13 88.8752 1463.13 93.81C1463.13 98.7446 1467.03 102.745 1471.83 102.745C1476.64 102.745 1480.53 98.7446 1480.53 93.81C1480.53 88.8754 1476.64 84.875 1471.83 84.875Z" fill="#D9FADD"/>
<path d="M1471.83 96.7886C1473.43 96.7886 1474.73 95.4552 1474.73 93.8103C1474.73 92.1655 1473.43 90.832 1471.83 90.832C1470.23 90.832 1468.93 92.1655 1468.93 93.8103C1468.93 95.4552 1470.23 96.7886 1471.83 96.7886Z" fill="#C3FF17"/>
<path d="M1497.96 60.4531H1445.69C1442.2 60.4531 1439.35 63.3758 1439.35 66.9682V120.652C1439.35 124.245 1442.2 127.167 1445.69 127.167H1497.96C1501.46 127.167 1504.3 124.245 1504.3 120.652V66.9682C1504.3 63.3758 1501.46 60.4531 1497.96 60.4531ZM1501.77 120.652C1501.77 122.808 1500.06 124.561 1497.96 124.561H1445.69C1443.6 124.561 1441.89 122.808 1441.89 120.652V66.9682C1441.89 64.8127 1443.6 63.0591 1445.69 63.0591H1497.96C1500.06 63.0591 1501.77 64.8127 1501.77 66.9682V120.652Z" fill="#5CCD6A"/>
<path d="M1497.84 114.007C1497.13 114.007 1496.57 114.59 1496.57 115.31C1496.57 117.465 1494.86 119.219 1492.76 119.219C1492.06 119.219 1491.49 119.802 1491.49 120.522C1491.49 121.241 1492.06 121.825 1492.76 121.825C1496.26 121.825 1499.1 118.902 1499.1 115.31C1499.1 114.59 1498.54 114.007 1497.84 114.007Z" fill="#5CCD6A"/>
<path d="M1492.76 65.7959C1492.06 65.7959 1491.49 66.3794 1491.49 67.0989C1491.49 67.8184 1492.06 68.4019 1492.76 68.4019C1494.86 68.4019 1496.57 70.1555 1496.57 72.3109C1496.57 73.0305 1497.13 73.614 1497.84 73.614C1498.54 73.614 1499.1 73.0305 1499.1 72.3109C1499.1 68.7185 1496.26 65.7959 1492.76 65.7959Z" fill="#5CCD6A"/>
<path d="M1445.82 73.614C1446.52 73.614 1447.09 73.0305 1447.09 72.3109C1447.09 70.1555 1448.8 68.4019 1450.9 68.4019C1451.6 68.4019 1452.17 67.8184 1452.17 67.0989C1452.17 66.3794 1451.6 65.7959 1450.9 65.7959C1447.4 65.7959 1444.55 68.7185 1444.55 72.3109C1444.55 73.0305 1445.12 73.614 1445.82 73.614Z" fill="#5CCD6A"/>
<path d="M1450.9 119.219C1448.8 119.219 1447.09 117.465 1447.09 115.31C1447.09 114.59 1446.52 114.007 1445.82 114.007C1445.12 114.007 1444.55 114.59 1444.55 115.31C1444.55 118.902 1447.4 121.825 1450.9 121.825C1451.6 121.825 1452.17 121.241 1452.17 120.522C1452.17 119.802 1451.6 119.219 1450.9 119.219Z" fill="#5CCD6A"/>
<path d="M1492.76 116.743C1493.53 116.743 1494.16 116.101 1494.16 115.309C1494.16 114.518 1493.53 113.876 1492.76 113.876C1491.99 113.876 1491.37 114.518 1491.37 115.309C1491.37 116.101 1491.99 116.743 1492.76 116.743Z" fill="#5CCD6A"/>
<path d="M1451.02 116.743C1451.79 116.743 1452.42 116.101 1452.42 115.309C1452.42 114.518 1451.79 113.876 1451.02 113.876C1450.25 113.876 1449.62 114.518 1449.62 115.309C1449.62 116.101 1450.25 116.743 1451.02 116.743Z" fill="#5CCD6A"/>
<path d="M1492.76 73.7436C1493.53 73.7436 1494.16 73.1019 1494.16 72.3103C1494.16 71.5187 1493.53 70.877 1492.76 70.877C1491.99 70.877 1491.37 71.5187 1491.37 72.3103C1491.37 73.1019 1491.99 73.7436 1492.76 73.7436Z" fill="#5CCD6A"/>
<path d="M1451.02 73.7436C1451.79 73.7436 1452.42 73.1019 1452.42 72.3103C1452.42 71.5187 1451.79 70.877 1451.02 70.877C1450.25 70.877 1449.62 71.5187 1449.62 72.3103C1449.62 73.1019 1450.25 73.7436 1451.02 73.7436Z" fill="#5CCD6A"/>
<path d="M1489.96 112.397C1494.51 107.71 1497.36 101.274 1497.45 94.1665C1497.45 94.0976 1497.45 94.0284 1497.45 93.959C1497.45 93.9488 1497.45 93.9392 1497.45 93.9291C1497.45 93.8893 1497.45 93.8498 1497.45 93.81C1497.45 86.7586 1494.74 80.3462 1490.33 75.6161C1490.24 75.5088 1490.15 75.4041 1490.05 75.3038C1490.01 75.2626 1489.97 75.226 1489.92 75.1915C1485.36 70.5129 1479.1 67.5887 1472.18 67.4938C1472.11 67.491 1472.04 67.4893 1471.97 67.4893C1471.96 67.4893 1471.95 67.4906 1471.94 67.4908C1471.91 67.4906 1471.87 67.4893 1471.83 67.4893C1464.97 67.4893 1458.72 70.2755 1454.12 74.8038C1454.01 74.8956 1453.91 74.9915 1453.81 75.0931C1453.77 75.1338 1453.74 75.1774 1453.7 75.2225C1449.15 79.909 1446.3 86.3459 1446.21 93.4535C1446.2 93.5225 1446.2 93.5917 1446.2 93.6611C1446.2 93.6713 1446.2 93.6809 1446.2 93.691C1446.2 93.7308 1446.2 93.7703 1446.2 93.81C1446.2 100.861 1448.92 107.274 1453.33 112.004C1453.42 112.111 1453.51 112.216 1453.61 112.316C1453.65 112.358 1453.69 112.394 1453.73 112.429C1458.3 117.107 1464.56 120.031 1471.48 120.126C1471.55 120.129 1471.62 120.131 1471.68 120.131C1471.69 120.131 1471.7 120.13 1471.71 120.129C1471.75 120.13 1471.79 120.131 1471.83 120.131C1478.7 120.131 1484.95 117.339 1489.55 112.804C1489.65 112.716 1489.75 112.624 1489.85 112.527C1489.89 112.486 1489.92 112.442 1489.96 112.397ZM1454.74 77.8849L1463.45 86.8406C1461.88 86.3673 1460.1 86.1037 1458.2 86.1037C1454.64 86.1037 1451.5 87.0314 1449.32 88.5317C1450.21 84.4965 1452.11 80.8497 1454.74 77.8849ZM1464.4 93.81C1464.4 89.6018 1467.73 86.1782 1471.83 86.1782C1475.93 86.1782 1479.26 89.6018 1479.26 93.81C1479.26 98.0182 1475.93 101.442 1471.83 101.442C1467.73 101.442 1464.4 98.0182 1464.4 93.81ZM1470.42 103.943V117.146C1469.72 116.729 1469.05 115.979 1468.48 114.957C1467.44 113.069 1466.86 110.53 1466.86 107.808C1466.86 106.108 1467.09 104.48 1467.51 103.037C1468.41 103.483 1469.39 103.793 1470.42 103.943ZM1462.42 97.1981C1462.77 98.1929 1463.25 99.1185 1463.86 99.9464L1454.76 109.284C1454.56 108.481 1454.6 107.465 1454.9 106.332C1455.47 104.239 1456.81 102.026 1458.68 100.102C1459.85 98.8992 1461.13 97.9111 1462.42 97.1981ZM1461.96 92.3581H1449.11C1449.52 91.6392 1450.24 90.952 1451.24 90.3718C1453.08 89.2999 1455.55 88.7097 1458.2 88.7097C1459.86 88.7097 1461.44 88.9414 1462.85 89.3759C1462.41 90.3014 1462.11 91.3045 1461.96 92.3581ZM1456.76 76.2826C1457.55 76.0692 1458.53 76.1128 1459.64 76.4257C1461.68 77.0031 1463.83 78.381 1465.7 80.3054C1466.87 81.5079 1467.84 82.8229 1468.53 84.1508C1467.56 84.5008 1466.66 84.9983 1465.85 85.6202L1456.76 76.2826ZM1473.24 83.6769V70.4745C1473.94 70.8914 1474.61 71.6406 1475.18 72.6631C1476.22 74.5514 1476.79 77.0904 1476.79 79.8119C1476.79 81.5122 1476.57 83.1397 1476.15 84.5829C1475.24 84.1365 1474.27 83.8272 1473.24 83.6769ZM1477.8 102L1486.89 111.337C1486.11 111.551 1485.12 111.507 1484.02 111.194C1481.98 110.617 1479.83 109.239 1477.95 107.315C1476.78 106.112 1475.82 104.797 1475.13 103.469C1476.1 103.119 1477 102.622 1477.8 102ZM1481.69 95.262H1494.55C1494.14 95.9809 1493.41 96.6681 1492.42 97.2483C1490.58 98.3202 1488.11 98.9104 1485.46 98.9104C1483.8 98.9104 1482.22 98.6789 1480.81 98.2446C1481.25 97.3191 1481.55 96.3157 1481.69 95.262ZM1479.8 87.6737L1488.89 78.336C1489.1 79.1391 1489.06 80.1549 1488.75 81.2881C1488.19 83.3813 1486.85 85.5939 1484.98 87.5183C1483.81 88.7209 1482.53 89.7084 1481.23 90.4214C1480.89 89.427 1480.41 88.5015 1479.8 87.6737ZM1482.55 92.656C1483.99 91.8441 1485.43 90.7381 1486.77 89.3613C1489.28 86.7828 1490.87 83.8455 1491.38 81.2056C1493.43 84.5541 1494.69 88.4637 1494.89 92.656H1482.55ZM1478.61 85.2085C1479.08 83.5869 1479.33 81.7589 1479.33 79.8121C1479.33 76.1596 1478.43 72.9258 1476.97 70.6883C1480.9 71.609 1484.45 73.5614 1487.33 76.2529L1478.61 85.2085ZM1470.71 82.7997C1469.91 81.3184 1468.84 79.8394 1467.5 78.4627C1465.32 76.2245 1462.77 74.6089 1460.31 73.9135C1460.06 73.841 1459.81 73.7827 1459.56 73.7313C1462.82 71.6219 1466.62 70.3258 1470.71 70.1238V82.7997ZM1461.11 94.9641C1459.67 95.776 1458.23 96.8822 1456.89 98.2588C1454.38 100.837 1452.79 103.775 1452.28 106.414C1450.23 103.066 1448.96 99.1563 1448.77 94.9641H1461.11V94.9641ZM1465.04 102.412C1464.58 104.033 1464.33 105.861 1464.33 107.808C1464.33 111.461 1465.23 114.694 1466.69 116.932C1462.76 116.011 1459.21 114.059 1456.32 111.367L1465.04 102.412ZM1472.95 104.82C1473.74 106.302 1474.82 107.781 1476.16 109.157C1478.67 111.736 1481.53 113.365 1484.1 113.889C1480.84 115.998 1477.03 117.294 1472.95 117.496V104.82ZM1480.2 100.779C1481.78 101.253 1483.56 101.516 1485.46 101.516C1489.01 101.516 1492.16 100.589 1494.34 99.0884C1493.44 103.124 1491.54 106.771 1488.92 109.735L1480.2 100.779Z" fill="#5CCD6A"/>
<path d="M1476 93.7957C1475.99 91.435 1474.11 89.5207 1471.81 89.5283C1469.52 89.536 1467.65 91.4629 1467.66 93.8237C1467.67 96.1844 1469.54 98.0988 1471.84 98.0911C1474.14 98.0832 1476 96.1564 1476 93.7957ZM1470.2 93.8151C1470.19 92.8913 1470.92 92.1374 1471.82 92.1344C1472.72 92.1314 1473.46 92.8805 1473.46 93.8042C1473.46 94.7279 1472.73 95.4819 1471.83 95.4849C1470.93 95.4879 1470.2 94.7389 1470.2 93.8151Z" fill="#5CCD6A"/>
</svg>
