<svg width="94" height="54" viewBox="0 0 94 54" fill="none" xmlns="http://www.w3.org/2000/svg">
<rect x="1.0026" y="1.0026" width="92" height="52" rx="26" stroke="#78C081" stroke-width="1.33333"/>
<path d="M26.2496 30.3974C28.7736 32.5157 31.6342 34.9168 37.1677 34.9168C42.7012 34.9167 45.5621 32.5157 48.0862 30.3974C50.4732 28.3941 52.5347 26.6639 56.8345 26.6639C61.1344 26.6639 63.1959 28.3941 65.5828 30.3974C66.2816 30.9837 67.3338 30.905 67.933 30.2213C68.5323 29.5376 68.4518 28.5081 67.753 27.9217C65.2289 25.8034 62.3681 23.4023 56.8345 23.4023C51.3009 23.4023 48.4401 25.8034 45.916 27.9217C43.529 29.925 41.4675 31.6552 37.1677 31.6552C32.8679 31.6552 30.8067 29.9251 28.4198 27.9217C27.7212 27.3354 26.669 27.4141 26.0697 28.0978C25.4703 28.7814 25.5509 29.811 26.2496 30.3974Z" fill="#78C081"/>
<path d="M26.2496 21.4765C28.7735 23.5949 31.6342 25.9959 37.1677 25.9959C42.7012 25.9959 45.5621 23.5949 48.0862 21.4765C50.4732 19.4732 52.5346 17.743 56.8345 17.743C61.1343 17.743 63.1958 19.4731 65.5828 21.4765C66.2816 22.063 67.3337 21.984 67.9329 21.3003C68.5323 20.6166 68.4515 19.587 67.7528 19.0007C65.2288 16.8823 62.3679 14.4814 56.8345 14.4814C51.3009 14.4814 48.4401 16.8825 45.916 19.0008C43.529 21.0041 41.4675 22.7343 37.1677 22.7343C32.868 22.7343 30.8067 21.0042 28.4198 19.0008C27.7212 18.4144 26.6689 18.4932 26.0697 19.1769C25.4703 19.8605 25.5509 20.8901 26.2496 21.4765Z" fill="#78C081"/>
<path d="M67.7529 36.8407C65.2289 34.7224 62.368 32.3213 56.8344 32.3213C51.3008 32.3213 48.44 34.7223 45.9159 36.8407C43.5289 38.844 41.4674 40.5741 37.1676 40.5741C32.8681 40.5741 30.8067 38.844 28.4198 36.8409L28.4197 36.8407C27.721 36.2545 26.6689 36.3333 26.0696 37.0168C25.4703 37.7004 25.5509 38.73 26.2496 39.3164C28.7736 41.4348 31.6343 43.8357 37.1676 43.8357C42.7012 43.8357 45.562 41.4347 48.0861 39.3163C50.4731 37.3131 52.5346 35.5829 56.8344 35.5829C61.1344 35.5829 63.1959 37.3131 65.5828 39.3163C66.2815 39.9027 67.3337 39.8239 67.9329 39.1403C68.5322 38.4566 68.4517 37.427 67.7529 36.8407Z" fill="#78C081"/>
</svg>
