<svg width="94" height="54" viewBox="0 0 94 54" fill="none" xmlns="http://www.w3.org/2000/svg">
<rect x="1.33464" y="1.0026" width="92" height="52" rx="26" stroke="#78C081" stroke-width="1.33333"/>
<path fill-rule="evenodd" clip-rule="evenodd" d="M42.2422 39.0103C42.2422 41.4631 44.1727 43.457 46.5482 43.457C48.9238 43.457 50.8543 41.4631 50.8543 39.0103C50.8543 36.5577 48.9238 34.5636 46.5482 34.5636C44.1727 34.5636 42.2422 36.5577 42.2422 39.0103ZM46.5482 41.268C45.344 41.268 44.3623 40.2545 44.3623 39.0103C44.3623 37.7662 45.344 36.7527 46.5482 36.7527C47.7525 36.7527 48.7342 37.7662 48.7342 39.0103C48.7342 40.2545 47.7525 41.268 46.5482 41.268Z" fill="#78C081"/>
<path fill-rule="evenodd" clip-rule="evenodd" d="M46.5483 36.7529C47.1338 36.7529 47.6084 36.2629 47.6084 35.6584V20.2701C47.6084 19.6656 47.1338 19.1755 46.5483 19.1755C45.9629 19.1755 45.4883 19.6656 45.4883 20.2701V35.6584C45.4883 36.2629 45.9629 36.7529 46.5483 36.7529Z" fill="#78C081"/>
<path fill-rule="evenodd" clip-rule="evenodd" d="M46.5463 45.6469C42.9974 45.6469 40.1201 42.6758 40.1201 39.0103C40.1201 36.7263 41.2365 34.7114 42.9411 33.5158C43.2316 33.312 43.4055 32.973 43.4055 32.6104V15.9089C43.4055 14.1172 44.8119 12.6651 46.5463 12.6651C48.2807 12.6651 49.6872 14.1172 49.6872 15.9089V32.6104C49.6872 32.973 49.8611 33.312 50.1515 33.5158C51.8562 34.7114 52.9725 36.7263 52.9725 39.0103C52.9725 42.6758 50.0953 45.6469 46.5463 45.6469ZM38 39.0103C38 43.8844 41.8261 47.8359 46.5463 47.8359C51.2666 47.8359 55.0926 43.8844 55.0926 39.0103C55.0926 36.184 53.8054 33.6687 51.8073 32.0548V15.9089C51.8073 12.9086 49.452 10.4761 46.5463 10.4761C43.6406 10.4761 41.2854 12.9086 41.2854 15.9089V32.0548C39.2873 33.6687 38 36.184 38 39.0103Z" fill="#78C081"/>
<path fill-rule="evenodd" clip-rule="evenodd" d="M53.9297 29.0461C53.9297 29.6506 54.4043 30.1406 54.9898 30.1406H58.2751C58.8606 30.1406 59.3352 29.6506 59.3352 29.0461C59.3352 28.4416 58.8606 27.9516 58.2751 27.9516H54.9898C54.4043 27.9516 53.9297 28.4416 53.9297 29.0461Z" fill="#78C081"/>
<path fill-rule="evenodd" clip-rule="evenodd" d="M53.9297 24.6672C53.9297 25.2717 54.4043 25.7617 54.9898 25.7617H58.2751C58.8606 25.7617 59.3352 25.2717 59.3352 24.6672C59.3352 24.0627 58.8606 23.5727 58.2751 23.5727H54.9898C54.4043 23.5727 53.9297 24.0627 53.9297 24.6672Z" fill="#78C081"/>
<path fill-rule="evenodd" clip-rule="evenodd" d="M53.9297 20.2883C53.9297 20.8928 54.4043 21.3828 54.9898 21.3828H58.2751C58.8606 21.3828 59.3352 20.8928 59.3352 20.2883C59.3352 19.6838 58.8606 19.1938 58.2751 19.1938H54.9898C54.4043 19.1938 53.9297 19.6838 53.9297 20.2883Z" fill="#78C081"/>
<path fill-rule="evenodd" clip-rule="evenodd" d="M53.9297 15.9094C53.9297 16.5139 54.4043 17.0039 54.9898 17.0039H58.2751C58.8606 17.0039 59.3352 16.5139 59.3352 15.9094C59.3352 15.3049 58.8606 14.8149 58.2751 14.8149H54.9898C54.4043 14.8149 53.9297 15.3049 53.9297 15.9094Z" fill="#78C081"/>
</svg>
