<svg width="94" height="54" viewBox="0 0 94 54" fill="none" xmlns="http://www.w3.org/2000/svg">
<rect x="0.670573" y="1.0026" width="92" height="52" rx="26" stroke="#78C081" stroke-width="1.33333"/>
<g clip-path="url(#clip0_170_5)">
<path d="M64.8257 18.8491L47.1962 8.47864C46.8715 8.28837 46.4697 8.28837 46.145 8.47864L28.5155 18.8491C28.1984 19.0352 28.0039 19.3755 28.0039 19.7431V44.632C28.0039 45.2047 28.4684 45.6692 29.0411 45.6692H38.4382C38.9832 45.6688 39.4347 45.2469 39.472 44.7031C39.6087 42.3591 40.2463 40.0717 41.3416 37.9951C42.4995 38.7733 43.8409 39.2339 45.2324 39.3308C45.4694 39.349 45.7037 39.3585 45.9353 39.3585C48.0731 39.3813 50.1273 38.5291 51.6209 36.9997C52.7618 35.4741 53.2866 33.5753 53.0914 31.6806C53.0629 29.8204 53.0345 27.8961 55.7012 24.6969C55.9454 24.4033 56.0089 23.9996 55.8661 23.6453C55.7236 23.2914 55.3978 23.0441 55.0184 23.0016C48.5774 22.2796 41.2493 25.4249 39.0155 29.8565C37.8735 32.0117 38.1868 34.6493 39.8012 36.4775C38.5514 38.6646 37.5913 40.4962 37.3372 43.0023L30.6706 43.0023V20.3356L46.6706 11.0023L62.6706 20.3356V43.0023L43.5595 43.0023C42.9868 43.0023 42.4429 43.669 42.4429 44.3356C42.4429 45.0023 42.9868 45.6692 43.5595 45.6692H64.3001C64.8728 45.6692 65.3373 45.2047 65.3373 44.632V19.7431C65.3373 19.3755 65.1428 19.0352 64.8257 18.8491ZM40.8665 30.79C42.3423 27.8642 47.426 25.0247 52.9061 24.9688C51.5123 26.9288 50.8447 29.3131 51.0171 31.7117C51.1975 33.0983 50.8542 34.5023 50.054 35.6492C48.8129 36.8455 47.1081 37.4357 45.3926 37.2625C44.3384 37.1945 43.3206 36.8489 42.4429 36.2607C43.4159 34.974 44.668 33.9254 46.1055 33.1936C46.6178 32.9373 46.8255 32.3144 46.5692 31.8021C46.3132 31.2898 45.69 31.0821 45.1777 31.3384C43.5906 32.1488 42.193 33.2863 41.0769 34.6755C40.2813 33.5232 40.2 32.0216 40.8665 30.79Z" fill="#78C081"/>
</g>
<defs>
<clipPath id="clip0_170_5">
<rect width="37.3334" height="37.3334" fill="white" transform="translate(28.0039 8.33594)"/>
</clipPath>
</defs>
</svg>
