<svg width="94" height="54" viewBox="0 0 94 54" fill="none" xmlns="http://www.w3.org/2000/svg">
<rect x="1.0026" y="1.0026" width="92" height="52" rx="26" stroke="#78C081" stroke-width="1.33333"/>
<path d="M47.0021 8.33691C43.3102 8.33698 39.7013 9.43182 36.6316 11.483C33.562 13.5342 31.1695 16.4495 29.7567 19.8604C28.344 23.2713 27.9744 27.0245 28.6947 30.6455C29.415 34.2664 31.1928 37.5925 33.8034 40.203C36.4139 42.8136 39.74 44.5914 43.3609 45.3116C46.9819 46.0318 50.7351 45.6622 54.1459 44.2493C57.5568 42.8365 60.4721 40.4439 62.5232 37.3742C64.5742 34.3045 65.669 30.6955 65.669 27.0036C65.6634 22.0545 63.6949 17.3098 60.1954 13.8104C56.6958 10.3109 51.9511 8.34246 47.0021 8.33691ZM47.0021 44.4268C43.5563 44.4268 40.1878 43.4049 37.3227 41.4904C34.4576 39.5759 32.2245 36.8548 30.9059 33.6712C29.5872 30.4876 29.2422 26.9845 29.9145 23.6048C30.5868 20.2251 32.2461 17.1207 34.6827 14.6841C37.1193 12.2475 40.2237 10.5881 43.6034 9.91584C46.983 9.24357 50.4861 9.58857 53.6697 10.9072C56.8533 12.2259 59.5744 14.459 61.4888 17.3241C63.4033 20.1892 64.4252 23.5577 64.4252 27.0036C64.42 31.6229 62.5826 36.0514 59.3163 39.3177C56.0499 42.584 51.6214 44.4217 47.0021 44.4268Z" fill="#78C081"/>
<path d="M47.0021 44.4268C43.5563 44.4268 40.1878 43.4049 37.3227 41.4904C34.4576 39.5759 32.2245 36.8548 30.9059 33.6712C29.5872 30.4876 29.2422 26.9845 29.9145 23.6048C30.5868 20.2251 32.2461 17.1207 34.6827 14.6841C37.1193 12.2475 40.2237 10.5881 43.6034 9.91584C46.983 9.24357 50.4861 9.58857 53.6697 10.9072C56.8533 12.2259 59.5744 14.459 61.4888 17.3241C63.4033 20.1892 64.4252 23.5577 64.4252 27.0036C64.42 31.6229 62.5826 36.0514 59.3163 39.3177C56.0499 42.584 51.6214 44.4217 47.0021 44.4268Z" fill="#78C081"/>
<path d="M35.21 34.7752C33.1021 32.0507 32.0913 28.6989 32.3608 25.3273C32.6303 21.9557 34.1622 18.7873 36.679 16.3964C39.1958 14.0054 42.5309 12.55 46.0799 12.2939C49.629 12.0379 53.1572 12.998 56.0252 15.0005L35.21 34.7752Z" fill="white"/>
<path fill-rule="evenodd" clip-rule="evenodd" d="M57.6697 14.9076C57.665 14.8206 57.6412 14.7355 57.5997 14.6578C57.5582 14.5801 57.5 14.5115 57.4289 14.4565C54.3184 12.0521 50.3798 10.8291 46.3751 11.0241C42.3703 11.2191 38.5839 12.8181 35.7485 15.512C32.913 18.2058 31.2301 21.8029 31.0251 25.6075C30.8201 29.412 32.1078 33.1536 34.6389 36.1083C34.6967 36.176 34.7689 36.2313 34.8507 36.2708C34.9325 36.3103 35.0221 36.333 35.1138 36.3374H35.1471C35.2331 36.3374 35.3184 36.3213 35.3978 36.29C35.4773 36.2587 35.5495 36.2128 35.6104 36.1549L57.4783 15.3808C57.5434 15.3191 57.594 15.2451 57.627 15.1636C57.66 15.082 57.6745 14.9948 57.6697 14.9076ZM32.3608 25.3273C32.0913 28.6989 33.1021 32.0507 35.21 34.7752L56.0252 15.0005C53.1572 12.998 49.629 12.0379 46.0799 12.2939C42.5309 12.55 39.1958 14.0054 36.679 16.3964C34.1622 18.7873 32.6303 21.9557 32.3608 25.3273Z" fill="white"/>
<path d="M46.6624 41.7475C43.5601 41.7574 40.5324 40.8438 38.0046 39.135L58.9287 19.2567C60.7278 21.6574 61.6901 24.5331 61.6806 27.48C61.6761 31.2627 60.0924 34.8892 57.2769 37.5639C54.4614 40.2387 50.6441 41.7433 46.6624 41.7475Z" fill="white"/>
<path fill-rule="evenodd" clip-rule="evenodd" d="M59.5232 17.91C59.4655 17.8402 59.3928 17.7827 59.31 17.7415C59.2272 17.7002 59.1361 17.6761 59.0428 17.6707C58.9496 17.6663 58.8564 17.6803 58.7692 17.7118C58.682 17.7433 58.6026 17.7916 58.5359 17.8537L36.5297 38.76C36.4636 38.8228 36.4122 38.8982 36.379 38.9812C36.3458 39.0643 36.3315 39.153 36.3371 39.2417C36.3427 39.3303 36.3681 39.4169 36.4115 39.4955C36.4549 39.5742 36.5154 39.6432 36.589 39.698C39.4573 41.8493 43.008 43.0144 46.6624 43.0034C50.9946 42.9987 55.1479 41.3617 58.2112 38.4515C61.2745 35.5414 62.9976 31.5956 63.0025 27.48C63.014 24.0082 61.7876 20.635 59.5232 17.91ZM38.0046 39.135C40.5324 40.8438 43.5601 41.7574 46.6624 41.7475C50.6441 41.7433 54.4614 40.2387 57.2769 37.5639C60.0924 34.8892 61.6761 31.2627 61.6806 27.48C61.6901 24.5331 60.7278 21.6574 58.9287 19.2567L38.0046 39.135Z" fill="white"/>
<path d="M44.3359 19.284C44.3359 19.6032 44.4306 19.9153 44.608 20.1807C44.7853 20.4462 45.0374 20.653 45.3323 20.7752C45.6273 20.8974 45.9518 20.9293 46.2649 20.8671C46.578 20.8048 46.8656 20.651 47.0913 20.4253C47.317 20.1996 47.4708 19.912 47.533 19.5989C47.5953 19.2858 47.5634 18.9612 47.4412 18.6663C47.319 18.3714 47.1122 18.1193 46.8467 17.9419C46.5813 17.7646 46.2692 17.6699 45.95 17.6699C45.5221 17.6704 45.1118 17.8406 44.8092 18.1432C44.5066 18.4458 44.3364 18.8561 44.3359 19.284ZM46.3199 19.284C46.3199 19.3572 46.2982 19.4288 46.2575 19.4897C46.2168 19.5506 46.159 19.5981 46.0913 19.6261C46.0237 19.6541 45.9492 19.6615 45.8774 19.6472C45.8056 19.6329 45.7396 19.5976 45.6878 19.5458C45.636 19.494 45.6008 19.4281 45.5865 19.3562C45.5722 19.2844 45.5795 19.21 45.6075 19.1423C45.6356 19.0746 45.683 19.0168 45.7439 18.9761C45.8048 18.9354 45.8764 18.9137 45.9496 18.9137C46.0478 18.9138 46.1419 18.9528 46.2114 19.0223C46.2808 19.0917 46.3198 19.1858 46.3199 19.284Z" fill="#78C081"/>
<path d="M57.95 25.6699C57.6308 25.6699 57.3187 25.7646 57.0533 25.9419C56.7878 26.1193 56.581 26.3714 56.4588 26.6663C56.3366 26.9612 56.3047 27.2858 56.367 27.5989C56.4292 27.912 56.583 28.1996 56.8087 28.4253C57.0344 28.651 57.322 28.8048 57.6351 28.8671C57.9482 28.9293 58.2727 28.8974 58.5677 28.7752C58.8626 28.653 59.1147 28.4462 59.292 28.1807C59.4694 27.9153 59.5641 27.6032 59.5641 27.284C59.5637 26.856 59.3935 26.4457 59.0909 26.1431C58.7883 25.8405 58.378 25.6703 57.95 25.6699ZM57.95 27.6539C57.8767 27.6539 57.8051 27.6322 57.7442 27.5915C57.6833 27.5508 57.6359 27.4929 57.6079 27.4253C57.5798 27.3576 57.5725 27.2831 57.5869 27.2113C57.6012 27.1394 57.6365 27.0735 57.6883 27.0217C57.7401 26.9699 57.8061 26.9347 57.878 26.9204C57.9498 26.9062 58.0243 26.9136 58.0919 26.9416C58.1596 26.9697 58.2174 27.0172 58.2581 27.0782C58.2987 27.1391 58.3204 27.2107 58.3203 27.284C58.3202 27.3821 58.2811 27.4762 58.2117 27.5456C58.1423 27.615 58.0481 27.6539 57.95 27.6539Z" fill="#78C081"/>
<path d="M37.0013 20.3369C36.342 20.3369 35.6976 20.5324 35.1494 20.8987C34.6012 21.265 34.174 21.7856 33.9217 22.3947C33.6694 23.0037 33.6034 23.674 33.732 24.3206C33.8606 24.9672 34.1781 25.5611 34.6443 26.0273C35.1105 26.4935 35.7044 26.811 36.351 26.9396C36.9976 27.0682 37.6678 27.0022 38.2769 26.7499C38.886 26.4976 39.4066 26.0704 39.7729 25.5222C40.1391 24.974 40.3346 24.3296 40.3346 23.6703C40.3337 22.7865 39.9822 21.9392 39.3573 21.3143C38.7323 20.6894 37.8851 20.3379 37.0013 20.3369ZM37.0013 25.1736C36.704 25.1736 36.4133 25.0854 36.1661 24.9202C35.9189 24.755 35.7262 24.5202 35.6125 24.2456C35.4987 23.9709 35.4689 23.6686 35.5269 23.377C35.5849 23.0854 35.7281 22.8175 35.9383 22.6073C36.1486 22.3971 36.4164 22.2539 36.708 22.1959C36.9996 22.1379 37.3019 22.1676 37.5766 22.2814C37.8513 22.3952 38.086 22.5879 38.2512 22.8351C38.4164 23.0823 38.5046 23.373 38.5046 23.6703C38.5042 24.0688 38.3456 24.451 38.0638 24.7328C37.782 25.0146 37.3999 25.1731 37.0013 25.1736Z" fill="#78C081"/>
<path d="M55.8541 35.1023L55.5323 34.9903C55.7419 34.3102 55.7094 33.5802 55.44 32.9207C55.1706 32.2612 54.6805 31.7116 54.0504 31.3625L54.1916 30.6888C54.2302 30.505 54.1928 30.3137 54.0878 30.1569C53.9828 30.0001 53.8187 29.8908 53.6316 29.8528C53.4444 29.8149 53.2496 29.8516 53.09 29.9548C52.9304 30.0579 52.8191 30.2192 52.7805 30.403L52.7221 30.6824C52.425 30.2801 52.0105 29.976 51.5336 29.8103C51.0566 29.6446 50.5396 29.6251 50.0512 29.7544C49.5627 29.8838 49.1257 30.1558 48.7981 30.5345C48.4706 30.9132 48.2678 31.3808 48.2168 31.8752C48.1398 31.9039 48.0694 31.9439 47.9953 31.9779L47.5528 31.4672C47.4282 31.3258 47.2517 31.2385 47.0618 31.2246C46.8719 31.2107 46.6841 31.2712 46.5395 31.3929C46.3949 31.5146 46.3052 31.6876 46.29 31.874C46.2749 32.0605 46.3356 32.2452 46.4587 32.3879L46.8502 32.8371C46.4436 33.3022 46.1766 33.8691 46.0788 34.4745C45.9811 35.08 46.0564 35.7002 46.2965 36.266L45.9561 36.5167C45.8033 36.6293 45.7022 36.7969 45.6752 36.9827C45.6482 37.1685 45.6974 37.3572 45.812 37.5074C45.9267 37.6575 46.0973 37.7568 46.2864 37.7833C46.4756 37.8098 46.6677 37.7615 46.8205 37.6489L47.1218 37.4269C47.5713 37.8411 48.1275 38.1268 48.7302 38.2529C49.333 38.3791 49.9594 38.3409 50.5417 38.1426L50.6314 38.4766C50.6802 38.658 50.8005 38.813 50.9656 38.9074C51.1308 39.0017 51.3274 39.0278 51.5121 38.9798C51.6968 38.9318 51.8545 38.8137 51.9506 38.6515C52.0467 38.4892 52.0732 38.2962 52.0243 38.1147L51.8185 37.3549C51.8766 37.2983 51.9354 37.2425 51.9894 37.1811C52.1515 37.2063 52.3154 37.219 52.4796 37.2191C52.9136 37.2189 53.343 37.1314 53.7413 36.962C54.1396 36.7926 54.4983 36.5449 54.7954 36.2341L55.3738 36.4363C55.463 36.4673 55.5575 36.4807 55.652 36.4758C55.7465 36.471 55.8391 36.4478 55.9244 36.4078C56.0098 36.3678 56.0864 36.3116 56.1497 36.2426C56.213 36.1735 56.2618 36.0928 56.2934 36.0052C56.3249 35.9176 56.3386 35.8247 56.3336 35.7319C56.3287 35.6391 56.3052 35.5482 56.2644 35.4643C56.2237 35.3804 56.1665 35.3052 56.0962 35.2431C56.0259 35.1809 55.9437 35.1329 55.8546 35.1019L55.8541 35.1023ZM52.4788 35.8047C52.2902 35.8041 52.103 35.7737 51.9243 35.7145C51.7711 35.6638 51.605 35.6653 51.4528 35.7188C51.3005 35.7723 51.1711 35.8746 51.0854 36.0093C50.9533 36.2165 50.7825 36.3973 50.582 36.5422C50.5766 36.5462 50.5701 36.5491 50.5647 36.5531C50.3264 36.7205 50.0527 36.833 49.7641 36.8825C49.4755 36.9319 49.1792 36.9169 48.8973 36.8386C48.6153 36.7604 48.3549 36.6208 48.1353 36.4303C47.9157 36.2398 47.7426 36.0031 47.6287 35.738C47.5148 35.4728 47.463 35.1859 47.4773 34.8984C47.4916 34.6109 47.5715 34.3303 47.7112 34.0773C47.8508 33.8243 48.0466 33.6054 48.284 33.4368C48.5215 33.2681 48.7945 33.1541 49.0828 33.1032C49.2685 33.0702 49.4335 32.967 49.5426 32.8158C49.6516 32.6646 49.696 32.4775 49.6661 32.2945C49.6216 32.0319 49.6816 31.7625 49.8336 31.542C49.9857 31.3216 50.2182 31.167 50.483 31.1103C50.7478 31.0536 51.0247 31.099 51.2564 31.2373C51.488 31.3755 51.6567 31.5959 51.7276 31.853C51.7697 32.0019 51.8604 32.1332 51.9858 32.2267C52.1111 32.3203 52.2642 32.3709 52.4216 32.3709C52.4343 32.3709 52.4627 32.3709 52.492 32.3681C52.9559 32.3695 53.4003 32.552 53.7274 32.8753C54.0544 33.1986 54.2373 33.6363 54.2358 34.092C54.2344 34.5478 54.0486 34.9843 53.7195 35.3056C53.3904 35.6268 52.9448 35.8065 52.4808 35.8051L52.4788 35.8047Z" fill="#78C081"/>
</svg>
