<svg width="94" height="54" viewBox="0 0 94 54" fill="none" xmlns="http://www.w3.org/2000/svg">
<rect x="1.33464" y="1.0026" width="92" height="52" rx="26" stroke="#78C081" stroke-width="1.33333"/>
<g clip-path="url(#clip0_170_7)">
<path d="M54.1229 16.5643C52.1233 14.1283 50.0553 11.6129 48.3882 8.91091C48.1682 8.55625 47.7673 8.33691 47.3346 8.33691C46.902 8.33691 46.5011 8.55625 46.2835 8.91091C44.6164 11.6106 42.5484 14.1283 40.5489 16.5619C36.496 21.4946 32.668 26.1543 32.668 31.6703C32.668 39.3913 39.246 45.6703 47.3346 45.6703C55.4233 45.6703 62.0013 39.3913 62.0013 31.6703C62.0013 26.1566 58.1758 21.4969 54.1229 16.5643ZM47.3346 43.3369C40.5953 43.3369 35.1124 38.1033 35.1124 31.6703C35.1124 26.9593 38.6862 22.6099 42.4726 18.0016C44.1251 15.9903 45.8215 13.9253 47.3346 11.7132C48.8478 13.9253 50.5442 15.9926 52.1966 18.0039C55.9831 22.6099 59.5569 26.9616 59.5569 31.6703C59.5569 38.1033 54.074 43.3369 47.3346 43.3369Z" fill="#78C081"/>
<path d="M43.6667 22.3369C41.6451 22.3369 40 23.9072 40 25.8369C40 27.7666 41.6451 29.3369 43.6667 29.3369C45.6882 29.3369 47.3333 27.7666 47.3333 25.8369C47.3333 23.9072 45.6882 22.3369 43.6667 22.3369ZM43.6667 27.0036C42.992 27.0036 42.4444 26.4809 42.4444 25.8369C42.4444 25.1929 42.992 24.6702 43.6667 24.6702C44.3413 24.6702 44.8889 25.1929 44.8889 25.8369C44.8889 26.4809 44.3413 27.0036 43.6667 27.0036Z" fill="#78C081"/>
<path d="M51.0026 34.0029C48.981 34.0029 47.3359 35.5733 47.3359 37.5029C47.3359 39.4326 48.981 41.0029 51.0026 41.0029C53.0242 41.0029 54.6693 39.4326 54.6693 37.5029C54.6693 35.5733 53.0242 34.0029 51.0026 34.0029ZM51.0026 38.6696C50.3304 38.6696 49.7804 38.1446 49.7804 37.5029C49.7804 36.8613 50.3304 36.3363 51.0026 36.3363C51.6748 36.3363 52.2248 36.8613 52.2248 37.5029C52.2248 38.1446 51.6748 38.6696 51.0026 38.6696Z" fill="#78C081"/>
<path d="M54.308 25.0121C53.8313 24.5571 53.0564 24.5571 52.5797 25.0121L40.3575 36.6788C39.8808 37.1338 39.8808 37.8735 40.3575 38.3285C40.5971 38.5548 40.9099 38.6692 41.2228 38.6692C41.5357 38.6692 41.8486 38.5548 42.0857 38.3285L54.308 26.6618C54.7846 26.2068 54.7846 25.4671 54.308 25.0121Z" fill="#78C081"/>
</g>
<defs>
<clipPath id="clip0_170_7">
<rect width="29.3333" height="37.3334" fill="white" transform="translate(32.668 8.33594)"/>
</clipPath>
</defs>
</svg>
