<svg width="94" height="54" viewBox="0 0 94 54" fill="none" xmlns="http://www.w3.org/2000/svg">
<rect x="0.670573" y="1.0026" width="92" height="52" rx="26" stroke="#78C081" stroke-width="1.33333"/>
<g clip-path="url(#clip0_170_8)">
<path fill-rule="evenodd" clip-rule="evenodd" d="M39.4457 15.4305C40.7422 12.8115 43.4887 11.0029 46.6706 11.0029C49.8524 11.0029 52.5988 12.8115 53.8953 15.4302C54.2294 15.3987 54.568 15.3826 54.9102 15.3826C60.6689 15.3826 65.3373 19.9404 65.3373 25.5628C65.3373 31.1851 60.6689 35.743 54.9102 35.743H52.4704C52.9635 37.6671 52.4395 39.7886 50.8984 41.2932C48.5634 43.5729 44.7777 43.5729 42.4427 41.2932C40.9016 39.7886 40.3776 37.6671 40.8707 35.743H38.431C32.6722 35.743 28.0039 31.1851 28.0039 25.5628C28.0039 19.9404 32.6722 15.3826 38.431 15.3826C38.7733 15.3826 39.1117 15.3988 39.4457 15.4305ZM43.4251 35.2496C43.4325 35.2383 43.4397 35.2268 43.4467 35.2153C43.5975 34.978 43.7785 34.7537 43.9894 34.5477C45.2013 33.3646 47.0294 33.1497 48.465 33.9032L43.3293 38.9173C42.6984 37.7715 42.7303 36.3695 43.4251 35.2496ZM44.8761 40.4275C46.3117 41.181 48.1398 40.9661 49.3517 39.783C50.5635 38.5998 50.7836 36.815 50.0118 35.4134L44.8761 40.4275ZM51.4115 33.6072C51.2553 33.4093 51.0842 33.219 50.8984 33.0376C48.5634 30.7579 44.7777 30.7579 42.4427 33.0376C42.2569 33.219 42.0858 33.4093 41.9296 33.6072H38.431C33.8804 33.6072 30.1914 30.0056 30.1914 25.5628C30.1914 21.1199 33.8804 17.5183 38.431 17.5183C38.944 17.5183 39.4456 17.5644 39.9324 17.6518C40.4626 17.747 40.9848 17.4508 41.1627 16.9539C41.9587 14.7308 44.1255 13.1386 46.6706 13.1386C49.2154 13.1386 51.3822 14.7307 52.1782 16.9536C52.3562 17.4504 52.8783 17.7466 53.4085 17.6514C53.8948 17.564 54.3965 17.5183 54.9102 17.5183C59.4607 17.5183 63.1498 21.1199 63.1498 25.5628C63.1498 30.0056 59.4607 33.6072 54.9102 33.6072H51.4115ZM46.6706 22.3614C46.0715 22.3614 45.5768 22.8444 45.5768 23.4293V26.2769C45.5768 26.8617 46.0714 27.3447 46.6706 27.3447C47.2696 27.3447 47.7643 26.8617 47.7643 26.2769V23.4293C47.7643 22.8444 47.2696 22.3614 46.6706 22.3614ZM43.3893 23.4293C43.3893 21.6649 44.8634 20.2257 46.6706 20.2257C48.4777 20.2257 49.9518 21.6649 49.9518 23.4293V26.2769C49.9518 28.0412 48.4777 29.4804 46.6706 29.4804C44.8634 29.4804 43.3893 28.0413 43.3893 26.2769V23.4293ZM35.5143 23.4293C35.5143 21.6632 36.9867 20.2257 38.7955 20.2257H40.983C41.5871 20.2257 42.0768 20.7038 42.0768 21.2936C42.0768 21.8833 41.5871 22.3614 40.983 22.3614H38.7955C38.1948 22.3614 37.7018 22.8428 37.7018 23.4293V26.2767C37.7018 26.8632 38.1948 27.3445 38.7955 27.3445H40.9101C41.5142 27.3445 42.0039 27.8226 42.0039 28.4124C42.0039 29.0021 41.5142 29.4802 40.9101 29.4802H38.7955C36.9867 29.4802 35.5143 28.0428 35.5143 26.2767V23.4293ZM54.179 25.7502C53.9913 25.6974 53.6482 25.6703 53.1151 25.8097C52.5316 25.9624 51.9319 25.6243 51.7755 25.0546C51.6192 24.485 51.9655 23.8994 52.549 23.7468C54.1479 23.3285 55.6521 23.6659 56.3244 24.8523C56.8707 25.8164 56.6126 26.918 55.8712 27.6971H56.8424C57.4465 27.6971 57.9362 28.1752 57.9362 28.7649C57.9362 29.3547 57.4465 29.8328 56.8424 29.8328H52.4674C51.9877 29.8328 51.564 29.5276 51.4224 29.08C51.2808 28.6325 51.4545 28.1472 51.8507 27.883L54.1034 26.3812L54.1034 26.3812C54.3098 26.2436 54.3869 26.1057 54.4121 26.026C54.4369 25.9472 54.4209 25.905 54.4102 25.8862C54.4019 25.8715 54.3574 25.8003 54.179 25.7502Z" fill="#78C081"/>
</g>
<defs>
<clipPath id="clip0_170_8">
<rect width="37.3334" height="32" fill="white" transform="translate(28.0039 11.0029)"/>
</clipPath>
</defs>
</svg>
