<svg width="46" height="46" viewBox="0 0 46 46" fill="none" xmlns="http://www.w3.org/2000/svg">
<rect x="0.335938" y="0.334961" width="45.3334" height="45.3334" rx="13.3333" fill="white"/>
<g clip-path="url(#clip0_48_1406)">
<path d="M33.668 36.335H12.3346C10.8625 36.3335 9.66943 35.1404 9.66797 33.6683V12.3349C9.66943 10.8628 10.8625 9.66974 12.3346 9.66828H33.668C35.1401 9.66974 36.3332 10.8628 36.3346 12.3349V33.6683C36.3332 35.1404 35.1401 36.3335 33.668 36.335V36.335ZM35.4457 12.3349C35.4457 11.3531 34.6498 10.5572 33.668 10.5572H12.3346C11.3528 10.5572 10.5569 11.3531 10.5569 12.3349V33.6683C10.5569 34.6501 11.3528 35.4461 12.3346 35.4461H33.668C34.6498 35.4461 35.4457 34.6501 35.4457 33.6683V12.3349Z" fill="#78C081"/>
<path d="M13.0009 31.4455C13.86 31.4455 14.5565 32.142 14.5565 33.0011C14.5565 33.8602 13.86 34.5566 13.0009 34.5566C12.1418 34.5566 11.4453 33.8602 11.4453 33.0011C11.4453 32.142 12.1418 31.4455 13.0009 31.4455ZM13.0009 33.6677C13.3691 33.6677 13.6676 33.3692 13.6676 33.0011C13.6676 32.6329 13.3691 32.3344 13.0009 32.3344C12.6327 32.3344 12.3342 32.6329 12.3342 33.0011C12.3342 33.3692 12.6327 33.6677 13.0009 33.6677Z" fill="#78C081"/>
<path d="M33.0009 34.5566C32.1418 34.5566 31.4453 33.8602 31.4453 33.0011C31.4453 32.142 32.1418 31.4455 33.0009 31.4455C33.86 31.4455 34.5565 32.142 34.5565 33.0011C34.5565 33.4136 34.3926 33.8093 34.1008 34.101C33.8091 34.3927 33.4134 34.5566 33.0009 34.5566ZM33.0009 32.3344C32.6327 32.3344 32.3342 32.6329 32.3342 33.0011C32.3342 33.3692 32.6327 33.6677 33.0009 33.6677C33.3691 33.6677 33.6676 33.3692 33.6676 33.0011C33.6676 32.6329 33.3691 32.3344 33.0009 32.3344Z" fill="#78C081"/>
<path d="M13.0009 14.5566C12.1418 14.5566 11.4453 13.8602 11.4453 13.0011C11.4453 12.142 12.1418 11.4455 13.0009 11.4455C13.86 11.4455 14.5565 12.142 14.5565 13.0011C14.5565 13.8602 13.86 14.5566 13.0009 14.5566ZM13.0009 12.3344C12.6327 12.3344 12.3342 12.6329 12.3342 13.0011C12.3342 13.3692 12.6327 13.6677 13.0009 13.6677C13.3691 13.6677 13.6676 13.3692 13.6676 13.0011C13.6676 12.6329 13.3691 12.3344 13.0009 12.3344Z" fill="#78C081"/>
<path d="M33.0009 14.5566C32.1418 14.5566 31.4453 13.8602 31.4453 13.0011C31.4453 12.142 32.1418 11.4455 33.0009 11.4455C33.86 11.4455 34.5565 12.142 34.5565 13.0011C34.5565 13.8602 33.86 14.5566 33.0009 14.5566ZM33.0009 12.3344C32.6327 12.3344 32.3342 12.6329 32.3342 13.0011C32.3342 13.3692 32.6327 13.6677 33.0009 13.6677C33.3691 13.6677 33.6676 13.3692 33.6676 13.0011C33.6676 12.6329 33.3691 12.3344 33.0009 12.3344Z" fill="#78C081"/>
<path d="M33.2016 28.7917L32.4016 30.1251C32.2403 30.3922 31.9514 30.5558 31.6394 30.5566H14.3647C14.0527 30.5556 13.7639 30.3921 13.6025 30.1251L12.8025 28.7917C12.6377 28.5172 12.6334 28.1751 12.7912 27.8964C12.9489 27.6177 13.2444 27.4455 13.5647 27.4455H32.4394C32.7597 27.4455 33.0551 27.6177 33.2129 27.8964C33.3707 28.1751 33.3664 28.5171 33.2016 28.7917ZM13.5647 28.3344L14.3647 29.6677H31.6394L32.4394 28.3344H13.5647Z" fill="#78C081"/>
<path d="M33.2016 24.7917L32.4016 26.1251C32.2403 26.3922 31.9514 26.5558 31.6394 26.5566H14.3647C14.0527 26.5556 13.7639 26.3921 13.6025 26.1251L12.8025 24.7917C12.6377 24.5172 12.6334 24.1751 12.7912 23.8964C12.9489 23.6177 13.2444 23.4455 13.5647 23.4455H32.4394C32.7597 23.4455 33.0551 23.6177 33.2129 23.8964C33.3707 24.1751 33.3664 24.5171 33.2016 24.7917ZM13.5647 24.3344L14.3647 25.6677H31.6394L32.4394 24.3344H13.5647Z" fill="#78C081"/>
<path d="M33.2016 20.7917L32.4016 22.1251C32.2403 22.3922 31.9514 22.5558 31.6394 22.5566H14.3647C14.0527 22.5556 13.7639 22.3921 13.6025 22.1251L12.8025 20.7917C12.6377 20.5172 12.6334 20.1751 12.7912 19.8964C12.9489 19.6177 13.2444 19.4455 13.5647 19.4455H32.4394C32.7597 19.4455 33.0551 19.6177 33.2129 19.8964C33.3707 20.1751 33.3664 20.5171 33.2016 20.7917ZM13.5647 20.3344L14.3647 21.6677H31.6394L32.4394 20.3344H13.5647Z" fill="#78C081"/>
<path d="M32.4012 18.1255C32.2399 18.3923 31.9512 18.5557 31.6394 18.5566H14.3647C14.0527 18.5556 13.7639 18.3921 13.6025 18.1251L12.8025 16.7917C12.6377 16.5172 12.6334 16.1751 12.7912 15.8964C12.9489 15.6177 13.2444 15.4455 13.5647 15.4455H32.4394C32.7597 15.4455 33.0551 15.6177 33.2129 15.8964C33.3707 16.1751 33.3664 16.5171 33.2016 16.7917L32.4012 18.1255ZM13.5647 16.3345L14.3647 17.6678H31.6394L32.4394 16.3345H13.5647Z" fill="#78C081"/>
</g>
<defs>
<clipPath id="clip0_48_1406">
<rect width="26.6667" height="26.6667" fill="white" transform="matrix(1 0 0 -1 9.66797 36.335)"/>
</clipPath>
</defs>
</svg>
