<svg width="45" height="45" viewBox="0 0 45 45" fill="none" xmlns="http://www.w3.org/2000/svg">
<path d="M22.6728 20.3135C21.3708 20.3098 20.3123 21.3622 20.3086 22.6641C20.3049 23.966 21.3574 25.0244 22.6595 25.0281H22.6642C23.9662 25.0305 25.0237 23.977 25.0261 22.6751C25.0284 21.3733 23.9749 20.3159 22.6728 20.3135Z" fill="white"/>
<path d="M22.683 16.3858H22.6775C19.2054 16.3792 16.3854 19.1884 16.3789 22.6601C16.3724 26.1319 19.1818 28.9515 22.6539 28.958C24.3292 28.9792 25.9402 28.3143 27.1129 27.1177C28.9144 25.3237 29.4567 22.6208 28.4867 20.2707C27.5166 17.9207 25.2256 16.387 22.683 16.3858ZM22.6673 26.6007H22.6594C20.4849 26.5986 18.7236 24.8348 18.7247 22.6605C18.7258 20.4862 20.4889 18.7242 22.6634 18.7242C24.8379 18.7242 26.601 20.4862 26.6021 22.6605C26.6031 24.8348 24.8418 26.5986 22.6673 26.6007Z" fill="white"/>
<path d="M8.23037 28.1644C9.25526 27.118 10.4546 26.2582 11.7745 25.6232C12.7964 25.0535 13.9555 24.7762 15.1246 24.8217C14.3411 22.1061 15.0886 19.1791 17.0782 17.1715C14.8352 15.088 11.9756 13.7902 8.93053 13.4737C7.03159 13.2324 5.12689 13.8754 3.76283 15.2181C2.74756 16.2383 1.9562 17.4589 1.43911 18.802C0.370721 21.1563 0.420315 23.8667 1.57431 26.1803C1.65914 26.3524 1.75429 26.5016 1.84618 26.6581C2.75753 31.4637 5.30696 35.8049 9.06024 38.9419C9.27443 39.1294 9.57337 39.1864 9.84154 39.0908C10.1097 38.9952 10.3053 38.7621 10.3526 38.4815C10.4001 38.2008 10.2919 37.9165 10.0701 37.7382C7.2292 35.3626 5.11907 32.2313 3.98372 28.7066C4.11437 28.7762 4.24863 28.8386 4.38607 28.8936C5.6916 29.4973 7.23659 29.2043 8.23037 28.1644Z" fill="white"/>
<path d="M43.9095 26.5442C44.9748 24.1891 44.9217 21.4791 43.7649 19.1675C43.6761 18.9875 43.5841 18.817 43.4883 18.6544C42.5758 13.8635 40.0336 9.53581 36.293 6.40584C36.0783 6.22115 35.7806 6.16632 35.5141 6.2624C35.2475 6.35849 35.0534 6.59062 35.0059 6.86994C34.9585 7.14925 35.065 7.43244 35.2848 7.6112C38.1133 9.97911 40.2145 13.0983 41.3461 16.609C41.2211 16.5517 41.0946 16.4967 40.9634 16.4518C39.6588 15.8483 38.1148 16.1408 37.1214 17.1794C36.0954 18.2263 34.8955 19.0869 33.5748 19.7229C32.5526 20.292 31.3939 20.5703 30.2247 20.5275C31.0094 23.2456 30.2595 26.1754 28.2656 28.1825C30.5094 30.2616 33.3668 31.5575 36.4093 31.8756C38.3115 32.115 40.2187 31.4719 41.5873 30.1296C42.6029 29.1095 43.3938 27.8882 43.9095 26.5442Z" fill="white"/>
<path d="M19.1678 1.58455C19.0033 1.66474 18.8462 1.74853 18.6963 1.83602C13.879 2.73946 9.5274 5.29395 6.39066 9.05955C6.21024 9.27475 6.15841 9.5698 6.2546 9.83356C6.35078 10.0973 6.58035 10.2898 6.85695 10.3384C7.13354 10.387 7.41504 10.2844 7.59536 10.0692C9.96412 7.23008 13.0896 5.12086 16.6091 3.98658C16.5465 4.1167 16.4906 4.24991 16.4417 4.38579C15.846 5.69298 16.1419 7.23394 17.1796 8.22736C18.2214 9.25748 19.0813 10.4565 19.7226 11.7736C20.29 12.796 20.5671 13.954 20.5242 15.1225C21.2234 14.9202 21.9472 14.8163 22.6751 14.8137H22.6821C24.7397 14.8154 26.7138 15.6276 28.1768 17.0744C30.2548 14.8312 31.5529 11.9772 31.8782 8.937C32.1203 7.03524 31.4733 5.12791 30.1241 3.76588C29.1067 2.74908 27.8877 1.95651 26.5453 1.43922C24.1923 0.362093 21.4767 0.415636 19.1678 1.58455Z" fill="white"/>
<path d="M18.8032 43.9059C21.1587 44.9714 23.8691 44.9179 26.1808 43.7605C26.356 43.6748 26.5108 43.5775 26.6704 43.4832C31.4718 42.5824 35.8101 40.0388 38.9407 36.2887C39.1285 36.074 39.1852 35.7744 39.0889 35.506C38.9926 35.2375 38.7584 35.0424 38.4769 34.996C38.1954 34.9497 37.911 35.0596 37.7336 35.283C35.3657 38.1203 32.2378 40.2238 28.7168 41.3467C28.7845 41.2213 28.845 41.0923 28.8983 40.9602C29.4947 39.653 29.199 38.1116 28.1612 37.1177C27.1232 36.0871 26.2668 34.8884 25.6285 33.5723C25.0599 32.551 24.7816 31.3937 24.8238 30.2258C24.1222 30.4261 23.3963 30.5282 22.6666 30.5291H22.6509C20.5955 30.5254 18.6246 29.7114 17.1657 28.2637C15.088 30.508 13.7923 33.3643 13.4722 36.4058C13.2295 38.3073 13.8729 40.2152 15.2176 41.5816C16.2379 42.5975 17.4592 43.3891 18.8032 43.9059Z" fill="white"/>
</svg>
