<svg width="45" height="37" viewBox="0 0 45 37" fill="none" xmlns="http://www.w3.org/2000/svg">
<g clip-path="url(#clip0_48_1355)">
<path d="M40.8047 0.333984H4.53906C2.40661 0.333984 0.671875 2.06421 0.671875 4.19113V17.0483C0.671875 19.1752 2.40661 20.9054 4.53906 20.9054H40.8047C42.9372 20.9054 44.6719 19.1752 44.6719 17.0483V4.19113C44.6719 2.06421 42.9372 0.333984 40.8047 0.333984ZM33.0703 8.04827C33.7822 8.04827 34.3594 8.62393 34.3594 9.33399C34.3594 10.044 33.7822 10.6197 33.0703 10.6197C32.3584 10.6197 31.7813 10.044 31.7813 9.33399C31.7813 8.62393 32.3584 8.04827 33.0703 8.04827ZM38.2266 15.7626H7.11719C6.40468 15.7626 5.82813 15.1875 5.82813 14.4768C5.82813 13.7662 6.40468 13.1911 7.11719 13.1911H38.2266C38.9391 13.1911 39.5156 13.7662 39.5156 14.4768C39.5156 15.1875 38.9391 15.7626 38.2266 15.7626ZM38.2266 10.6197C37.5147 10.6197 36.9375 10.044 36.9375 9.33399C36.9375 8.62393 37.5147 8.04827 38.2266 8.04827C38.9385 8.04827 39.5156 8.62393 39.5156 9.33399C39.5156 10.044 38.9385 10.6197 38.2266 10.6197Z" fill="#7CA281"/>
<path d="M12.3599 23.4766C11.6474 23.4766 11.0708 24.0516 11.0708 24.7623V26.7273C11.0708 29.7833 9.3676 32.5306 6.62706 33.8979C5.99009 34.2155 5.73202 34.9877 6.0505 35.6231C6.36744 36.2534 7.13675 36.5167 7.78017 36.1981C11.4006 34.3926 13.6489 30.764 13.6489 26.7273V24.7623C13.6489 24.0516 13.0724 23.4766 12.3599 23.4766Z" fill="#7CA281"/>
<path d="M32.9844 23.4766C32.2719 23.4766 31.6953 24.0516 31.6953 24.7623V26.7273C31.6953 30.764 33.9436 34.3926 37.5641 36.1981C38.2069 36.5164 38.9765 36.254 39.2937 35.6231C39.6122 34.9877 39.3542 34.2155 38.7172 33.8979C35.9766 32.5306 34.2734 29.7833 34.2734 26.7273V24.7623C34.2734 24.0516 33.6969 23.4766 32.9844 23.4766Z" fill="#7CA281"/>
<path d="M23.9609 35.048V24.7623C23.9609 24.0516 23.3844 23.4766 22.6719 23.4766C21.9594 23.4766 21.3828 24.0516 21.3828 24.7623V35.048C21.3828 35.7587 21.9594 36.3337 22.6719 36.3337C23.3844 36.3337 23.9609 35.7587 23.9609 35.048Z" fill="#7CA281"/>
<path d="M29.1172 35.048V24.7623C29.1172 24.0516 28.5406 23.4766 27.8281 23.4766C27.1156 23.4766 26.5391 24.0516 26.5391 24.7623V35.048C26.5391 35.7587 27.1156 36.3337 27.8281 36.3337C28.5406 36.3337 29.1172 35.7587 29.1172 35.048Z" fill="#7CA281"/>
<path d="M18.8047 35.048V24.7623C18.8047 24.0516 18.2281 23.4766 17.5156 23.4766C16.8031 23.4766 16.2266 24.0516 16.2266 24.7623V35.048C16.2266 35.7587 16.8031 36.3337 17.5156 36.3337C18.2281 36.3337 18.8047 35.7587 18.8047 35.048Z" fill="#7CA281"/>
</g>
<defs>
<clipPath id="clip0_48_1355">
<rect width="44" height="36" fill="white" transform="translate(0.671875 0.333984)"/>
</clipPath>
</defs>
</svg>
