<svg width="44" height="37" viewBox="0 0 44 37" fill="none" xmlns="http://www.w3.org/2000/svg">
<g clip-path="url(#clip0_48_2045)">
<path d="M40.1367 0.333984H3.8711C1.73864 0.333984 0.00390625 2.06421 0.00390625 4.19113V17.0483C0.00390625 19.1752 1.73864 20.9054 3.8711 20.9054H40.1367C42.2692 20.9054 44.0039 19.1752 44.0039 17.0483V4.19113C44.0039 2.06421 42.2692 0.333984 40.1367 0.333984ZM32.4024 8.04827C33.1143 8.04827 33.6914 8.62393 33.6914 9.33399C33.6914 10.044 33.1143 10.6197 32.4024 10.6197C31.6905 10.6197 31.1133 10.044 31.1133 9.33399C31.1133 8.62393 31.6905 8.04827 32.4024 8.04827ZM37.5586 15.7626H6.44922C5.73671 15.7626 5.16016 15.1875 5.16016 14.4768C5.16016 13.7662 5.73671 13.1911 6.44922 13.1911H37.5586C38.2711 13.1911 38.8477 13.7662 38.8477 14.4768C38.8477 15.1875 38.2711 15.7626 37.5586 15.7626ZM37.5586 10.6197C36.8467 10.6197 36.2696 10.044 36.2696 9.33399C36.2696 8.62393 36.8467 8.04827 37.5586 8.04827C38.2705 8.04827 38.8477 8.62393 38.8477 9.33399C38.8477 10.044 38.2705 10.6197 37.5586 10.6197Z" fill="#54E165"/>
<path d="M11.6919 23.4766C10.9794 23.4766 10.4028 24.0516 10.4028 24.7623V26.7273C10.4028 29.7833 8.69963 32.5306 5.95909 33.8979C5.32212 34.2155 5.06405 34.9877 5.38253 35.6231C5.69947 36.2534 6.46878 36.5167 7.1122 36.1981C10.7327 34.3926 12.981 30.764 12.981 26.7273V24.7623C12.981 24.0516 12.4044 23.4766 11.6919 23.4766Z" fill="#54E165"/>
<path d="M32.3164 23.4766C31.6039 23.4766 31.0273 24.0516 31.0273 24.7623V26.7273C31.0273 30.764 33.2756 34.3926 36.8961 36.1981C37.5389 36.5164 38.3086 36.254 38.6258 35.6231C38.9443 34.9877 38.6862 34.2155 38.0492 33.8979C35.3087 32.5306 33.6055 29.7833 33.6055 26.7273V24.7623C33.6055 24.0516 33.0289 23.4766 32.3164 23.4766Z" fill="#54E165"/>
<path d="M23.293 35.048V24.7623C23.293 24.0516 22.7164 23.4766 22.0039 23.4766C21.2914 23.4766 20.7148 24.0516 20.7148 24.7623V35.048C20.7148 35.7587 21.2914 36.3337 22.0039 36.3337C22.7164 36.3337 23.293 35.7587 23.293 35.048Z" fill="#54E165"/>
<path d="M28.4492 35.048V24.7623C28.4492 24.0516 27.8727 23.4766 27.1602 23.4766C26.4476 23.4766 25.8711 24.0516 25.8711 24.7623V35.048C25.8711 35.7587 26.4476 36.3337 27.1602 36.3337C27.8727 36.3337 28.4492 35.7587 28.4492 35.048Z" fill="#54E165"/>
<path d="M18.1367 35.048V24.7623C18.1367 24.0516 17.5602 23.4766 16.8477 23.4766C16.1351 23.4766 15.5586 24.0516 15.5586 24.7623V35.048C15.5586 35.7587 16.1351 36.3337 16.8477 36.3337C17.5602 36.3337 18.1367 35.7587 18.1367 35.048Z" fill="#54E165"/>
</g>
<defs>
<clipPath id="clip0_48_2045">
<rect width="44" height="36" fill="white" transform="translate(0.00390625 0.333984)"/>
</clipPath>
</defs>
</svg>
