<svg width="46" height="46" viewBox="0 0 46 46" fill="none" xmlns="http://www.w3.org/2000/svg">
<rect x="0.335938" y="0.00195312" width="45.3334" height="45.3334" rx="13.3333" fill="white"/>
<g clip-path="url(#clip0_48_1401)">
<path fill-rule="evenodd" clip-rule="evenodd" d="M28.7992 31.2043C28.7766 31.2043 28.7584 31.1856 28.7584 31.1627V30.2406V29.8418C28.7584 29.6249 28.5886 29.4484 28.3773 29.4433C28.3741 29.4432 28.371 29.4432 28.3678 29.4432C28.3646 29.4432 28.3615 29.4432 28.3583 29.4433C28.1469 29.4484 27.9772 29.6249 27.9772 29.8418V30.2406V31.1627C27.9772 31.6261 28.3453 32.0016 28.7992 32.0016H32.2507C32.7046 32.0016 33.0727 31.6261 33.0727 31.1627V30.2406V29.8418C33.0727 29.6249 32.9029 29.4484 32.6915 29.4433C32.6884 29.4432 32.6852 29.4432 32.6821 29.4432C32.6789 29.4432 32.6757 29.4432 32.6726 29.4433C32.4612 29.4484 32.2914 29.6249 32.2914 29.8418V30.2406V31.1627C32.2914 31.1857 32.2732 31.2043 32.2507 31.2043H28.7992Z" fill="#78C081"/>
<path fill-rule="evenodd" clip-rule="evenodd" d="M17.4086 21.3206C17.5611 21.4762 17.8085 21.4762 17.961 21.3206L20.517 18.7121C20.5534 18.6749 20.586 18.6356 20.6149 18.5946C20.8952 18.1962 20.8235 17.6354 20.4427 17.3204C20.4405 17.3186 20.4383 17.3168 20.4361 17.315C19.6344 16.6636 18.6533 16.2315 17.5804 16.1091C17.576 16.1086 17.5715 16.1081 17.5671 16.1077C17.0807 16.0596 16.6494 16.4072 16.5724 16.8857C16.5644 16.9355 16.5602 16.9867 16.5602 17.039V20.7283C16.5602 20.9485 16.7351 21.127 16.9509 21.127C17.1666 21.127 17.3415 20.9485 17.3415 20.7283V17.039C17.3415 16.9576 17.4112 16.8922 17.4938 16.9015C18.4158 17.0067 19.2592 17.3779 19.9495 17.9388C20.0179 17.9943 20.02 18.0917 19.9645 18.1483L17.4086 20.7568C17.256 20.9125 17.256 21.1649 17.4086 21.3206Z" fill="#78C081"/>
<path fill-rule="evenodd" clip-rule="evenodd" d="M11.3866 21.1455C11.3829 21.1794 11.381 21.2131 11.3809 21.2464C11.3789 21.7062 11.7066 22.1001 12.1477 22.1739C12.1965 22.1821 12.2466 22.1864 12.2978 22.1864H15.9128C16.1285 22.1864 16.3034 22.0079 16.3034 21.7877C16.3034 21.5675 16.1285 21.389 15.9128 21.389H12.2978C12.2181 21.389 12.1539 21.3179 12.1631 21.2336C12.2662 20.2926 12.6299 19.4318 13.1795 18.7274C13.2339 18.6576 13.3293 18.6555 13.3848 18.7121L15.9407 21.3205C16.0932 21.4762 16.3406 21.4762 16.4931 21.3205C16.6457 21.1649 16.6457 20.9124 16.4931 20.7568L13.9372 18.1483C13.8911 18.1012 13.8416 18.0603 13.7895 18.0256C13.4818 17.8201 13.086 17.8277 12.7856 18.0284C12.7051 18.0821 12.6315 18.1497 12.5683 18.2308C11.93 19.049 11.5065 20.0506 11.3866 21.1455Z" fill="#78C081"/>
<path fill-rule="evenodd" clip-rule="evenodd" d="M16.3217 27.4663C16.8133 27.522 17.2516 27.1725 17.3293 26.6898C17.3373 26.64 17.3415 26.5888 17.3415 26.5364V22.8471C17.3415 22.6269 17.1666 22.4484 16.9509 22.4484C16.7351 22.4484 16.5602 22.6269 16.5602 22.8471V26.5364C16.5602 26.6178 16.4905 26.6832 16.4079 26.6739C15.4859 26.5687 14.6425 26.1975 13.9522 25.6366C13.8838 25.5811 13.8817 25.4837 13.9372 25.427L16.4931 22.8186C16.6457 22.6629 16.6457 22.4105 16.4931 22.2548C16.3406 22.0991 16.0932 22.0991 15.9407 22.2548L13.3848 24.8633C13.3484 24.9004 13.3158 24.9397 13.2869 24.9808C13.005 25.3814 13.079 25.9463 13.4656 26.2604M16.3217 27.4663C15.2488 27.3439 14.2673 26.9117 13.4656 26.2604L16.3217 27.4663Z" fill="#78C081"/>
<path fill-rule="evenodd" clip-rule="evenodd" d="M19.9645 25.4271C20.0009 25.4642 20.0395 25.4975 20.0797 25.527C20.4722 25.8146 21.0257 25.7392 21.3334 25.3446C21.9717 24.5264 22.3951 23.525 22.5151 22.4301C22.5697 21.9284 22.2273 21.4809 21.7544 21.4015C21.7055 21.3933 21.6553 21.389 21.6039 21.389H17.9889C17.7732 21.389 17.5983 21.5675 17.5983 21.7877C17.5983 22.0079 17.7732 22.1864 17.9889 22.1864H21.6039C21.6838 22.1864 21.7478 22.2576 21.7386 22.3418C21.6355 23.2828 21.2718 24.1435 20.7222 24.848C20.6679 24.9177 20.5725 24.9199 20.5169 24.8633L17.961 22.2548C17.8085 22.0992 17.5611 22.0992 17.4086 22.2549C17.256 22.4105 17.256 22.663 17.4086 22.8186L19.9645 25.4271Z" fill="#78C081"/>
<path fill-rule="evenodd" clip-rule="evenodd" d="M15.522 21.7877C15.522 22.593 16.1617 23.2459 16.9508 23.2459C17.74 23.2459 18.3797 22.5931 18.3797 21.7877C18.3797 20.9823 17.74 20.3294 16.9508 20.3294C16.1617 20.3294 15.522 20.9823 15.522 21.7877ZM16.9509 22.4484C16.5933 22.4484 16.3034 22.1527 16.3034 21.7877C16.3034 21.4226 16.5933 21.127 16.9509 21.127C17.3086 21.127 17.5983 21.4226 17.5983 21.7877C17.5983 22.1527 17.3086 22.4484 16.9509 22.4484Z" fill="#78C081"/>
<path fill-rule="evenodd" clip-rule="evenodd" d="M29.4955 21.3206C29.648 21.4762 29.8954 21.4762 30.0479 21.3206L32.6039 18.7121C32.9955 18.3123 32.9492 17.6612 32.523 17.315C31.7213 16.6636 30.7401 16.2315 29.6672 16.1091C29.1248 16.0475 28.6471 16.4793 28.6471 17.039V20.7283C28.6471 20.9485 28.822 21.127 29.0378 21.127C29.2535 21.127 29.4284 20.9485 29.4284 20.7283V17.039C29.4284 16.9575 29.4982 16.8921 29.5807 16.9015C30.5028 17.0067 31.3461 17.3779 32.0364 17.9388C32.1048 17.9943 32.1069 18.0917 32.0514 18.1483L29.4955 20.7568C29.3429 20.9125 29.3429 21.1649 29.4955 21.3206Z" fill="#78C081"/>
<path fill-rule="evenodd" clip-rule="evenodd" d="M23.4735 21.1455C23.4133 21.6991 23.8363 22.1864 24.3847 22.1864H27.9997C28.2154 22.1864 28.3903 22.0079 28.3903 21.7877C28.3903 21.5675 28.2154 21.389 27.9997 21.389H24.3847C24.305 21.389 24.2408 21.3179 24.2499 21.2336C24.3531 20.2926 24.7168 19.4318 25.2664 18.7274C25.3208 18.6576 25.4162 18.6555 25.4717 18.7121L28.0276 21.3205C28.1801 21.4762 28.4275 21.4762 28.58 21.3205C28.7326 21.1649 28.7326 20.9124 28.58 20.7568L26.0241 18.1483C25.6324 17.7485 24.9943 17.7959 24.6551 18.2308C24.0169 19.049 23.5934 20.0506 23.4735 21.1455Z" fill="#78C081"/>
<path fill-rule="evenodd" clip-rule="evenodd" d="M28.4086 27.4663C28.9509 27.5278 29.4284 27.096 29.4284 26.5364V22.8471C29.4284 22.6269 29.2535 22.4484 29.0378 22.4484C28.822 22.4484 28.6471 22.6269 28.6471 22.8471V26.5364C28.6471 26.6178 28.5774 26.6832 28.4948 26.6739C27.5728 26.5687 26.7294 26.1975 26.0391 25.6366C25.9707 25.5811 25.9686 25.4837 26.0241 25.427L28.58 22.8186C28.7326 22.6629 28.7326 22.4105 28.58 22.2548C28.4275 22.0991 28.1801 22.0991 28.0276 22.2548L25.4717 24.8633C25.08 25.263 25.1263 25.9141 25.5525 26.2604M28.4086 27.4663C27.3357 27.3439 26.3542 26.9117 25.5525 26.2604L28.4086 27.4663Z" fill="#78C081"/>
<path fill-rule="evenodd" clip-rule="evenodd" d="M32.0514 25.4271C32.4431 25.8267 33.0811 25.7796 33.4203 25.3446C34.0586 24.5264 34.4821 23.525 34.602 22.4301C34.6623 21.8765 34.2392 21.389 33.6908 21.389H30.0758C29.8601 21.389 29.6852 21.5675 29.6852 21.7877C29.6852 22.0079 29.8601 22.1864 30.0758 22.1864H33.6908C33.7707 22.1864 33.8347 22.2576 33.8255 22.3418C33.7224 23.2828 33.3587 24.1435 32.8091 24.848C32.7548 24.9177 32.6594 24.9199 32.6038 24.8633L30.0479 22.2548C29.8954 22.0992 29.648 22.0992 29.4955 22.2549C29.3429 22.4105 29.3429 22.663 29.4955 22.8186L32.0514 25.4271Z" fill="#78C081"/>
<path fill-rule="evenodd" clip-rule="evenodd" d="M23.4385 21.7877C23.4385 24.9436 25.9454 27.5021 29.0377 27.5021C32.1302 27.5021 34.637 24.9436 34.637 21.7877C34.637 18.6317 32.1302 16.0733 29.0377 16.0733C25.9454 16.0733 23.4385 18.6317 23.4385 21.7877ZM29.0377 26.7048C26.3769 26.7048 24.2197 24.5033 24.2197 21.7877C24.2197 19.0721 26.3769 16.8706 29.0377 16.8706C31.6987 16.8706 33.8558 19.0721 33.8558 21.7877C33.8558 24.5033 31.6987 26.7048 29.0377 26.7048Z" fill="#78C081"/>
<path fill-rule="evenodd" clip-rule="evenodd" d="M27.6089 21.7877C27.6089 22.593 28.2486 23.2459 29.0377 23.2459C29.8269 23.2459 30.4666 22.593 30.4666 21.7877C30.4666 20.9823 29.8269 20.3294 29.0377 20.3294C28.2486 20.3294 27.6089 20.9823 27.6089 21.7877ZM29.0378 22.4484C28.6802 22.4484 28.3903 22.1527 28.3903 21.7877C28.3903 21.4226 28.6802 21.127 29.0378 21.127C29.3954 21.127 29.6852 21.4226 29.6852 21.7877C29.6852 22.1527 29.3954 22.4484 29.0378 22.4484Z" fill="#78C081"/>
<path fill-rule="evenodd" clip-rule="evenodd" d="M12.93 31.1627C12.93 31.6261 13.2981 32.0016 13.752 32.0016H17.2034C17.6574 32.0016 18.0255 31.6261 18.0255 31.1627V30.2406V29.8418C18.0255 29.6249 17.8557 29.4484 17.6443 29.4433C17.6412 29.4432 17.638 29.4432 17.6349 29.4432C17.6317 29.4432 17.6285 29.4432 17.6254 29.4433C17.414 29.4484 17.2442 29.6249 17.2442 29.8418V30.2406V31.1627C17.2442 31.1857 17.226 31.2043 17.2034 31.2043H13.752C13.7295 31.2043 13.7112 31.1857 13.7112 31.1627V30.2406V29.8418C13.7112 29.6249 13.5414 29.4484 13.3301 29.4433C13.3269 29.4432 13.3237 29.4432 13.3206 29.4432C13.3174 29.4432 13.3143 29.4432 13.3111 29.4433C13.0997 29.4484 12.93 29.6249 12.93 29.8418V30.2406V31.1627Z" fill="#78C081"/>
<path fill-rule="evenodd" clip-rule="evenodd" d="M21.341 27.1034C21.341 27.3236 21.5158 27.5021 21.7316 27.5021H24.257C24.4727 27.5021 24.6476 27.3236 24.6476 27.1034C24.6476 26.8832 24.4727 26.7048 24.257 26.7048H21.7316C21.5158 26.7048 21.341 26.8832 21.341 27.1034Z" fill="#78C081"/>
<path d="M27.9772 29.8418C27.9772 29.6249 28.1469 29.4484 28.3583 29.4433H20.7475H17.6443C17.8557 29.4484 18.0255 29.6249 18.0255 29.8418V30.2406H20.7475H27.9772V29.8418Z" fill="#78C081"/>
<path d="M17.2442 29.8418C17.2442 29.6249 17.414 29.4484 17.6254 29.4433H13.3301C13.5414 29.4484 13.7112 29.6249 13.7112 29.8418V30.2406H17.2442V29.8418Z" fill="#78C081"/>
<path d="M28.7584 29.8418V30.2406H32.2914V29.8418C32.2914 29.6249 32.4612 29.4484 32.6726 29.4433H28.3773C28.5886 29.4484 28.7584 29.6249 28.7584 29.8418Z" fill="#78C081"/>
<path d="M11.1107 29.4433C10.7458 29.4433 10.4492 29.1409 10.4492 28.7677V14.8073C10.4492 14.4344 10.7456 14.1323 11.1107 14.1323H28.911H34.8919C35.2571 14.1323 35.5534 14.4344 35.5534 14.8073V28.7677C35.5534 29.1409 35.2568 29.4433 34.8919 29.4433H32.6915C32.9029 29.4484 33.0727 29.6249 33.0727 29.8418V30.2406H34.8919C35.6885 30.2406 36.3346 29.5809 36.3346 28.7677V14.8073C36.3346 13.9938 35.6883 13.335 34.8919 13.335H28.911H11.1107C10.3143 13.335 9.66797 13.9938 9.66797 14.8073V28.7677C9.66797 29.5809 10.3141 30.2406 11.1107 30.2406H12.93V29.8418C12.93 29.6249 13.0997 29.4484 13.3111 29.4433H11.1107Z" fill="#78C081"/>
<path d="M16.5724 16.8857C16.6494 16.4072 17.0807 16.0596 17.5671 16.1077C17.3647 16.0851 17.1591 16.0734 16.9508 16.0734C16.4985 16.0734 16.0573 16.1282 15.6351 16.2324C14.3981 16.5989 13.4621 17.2508 12.7856 18.0284C13.086 17.8277 13.4818 17.8201 13.7895 18.0256C14.3206 17.5511 14.9914 17.1834 15.8186 17.0074C16.0626 16.9472 16.3146 16.9061 16.5724 16.8857Z" fill="#78C081"/>
<path d="M20.4427 17.3204C20.8235 17.6354 20.8952 18.1962 20.6149 18.5946C21.2578 19.3621 21.6732 20.334 21.7544 21.4015C22.2273 21.4809 22.5697 21.9284 22.5151 22.4301C22.3951 23.525 21.9717 24.5264 21.3334 25.3446C21.0257 25.7392 20.4722 25.8146 20.0797 25.527C19.3276 26.183 18.3753 26.6069 17.3293 26.6898C17.2516 27.1725 16.8133 27.522 16.3217 27.4663C15.2488 27.3439 14.2673 26.9117 13.4656 26.2604C13.079 25.9463 13.005 25.3814 13.2869 24.9808C12.6443 24.2133 12.229 23.2415 12.1477 22.1739C11.7066 22.1001 11.3789 21.7062 11.3809 21.2464C11.3614 21.431 11.3518 21.6119 11.3518 21.7875C11.3518 24.9439 13.8585 27.5021 16.9508 27.5021C20.043 27.5021 22.5503 24.9439 22.5503 21.7875C22.5503 19.9793 21.7272 18.3674 20.4427 17.3204Z" fill="#78C081"/>
</g>
<defs>
<clipPath id="clip0_48_1401">
<rect width="26.6667" height="18.6667" fill="white" transform="translate(9.66797 13.335)"/>
</clipPath>
</defs>
</svg>
