<svg width="46" height="46" viewBox="0 0 46 46" fill="none" xmlns="http://www.w3.org/2000/svg">
<rect x="0.335938" y="0.667969" width="45.3334" height="45.3334" rx="13.3333" fill="white"/>
<g clip-path="url(#clip0_48_1370)">
<path d="M36.1043 29.403L33.371 28.0363L31.6314 23.5113C31.6109 23.4578 31.5796 23.4091 31.5395 23.3683C31.4993 23.3274 31.4512 23.2952 31.3981 23.2738L20.6043 18.9592C20.5288 18.9292 20.4462 18.9219 20.3666 18.9381C20.2871 18.9544 20.214 18.9936 20.1564 19.0509L18.7168 20.4905C18.6603 20.5481 18.6217 20.621 18.6058 20.7001C18.5899 20.7793 18.5973 20.8613 18.6272 20.9363L22.9418 31.7301C22.9632 31.7832 22.9954 31.8314 23.0362 31.8715C23.0771 31.9116 23.1258 31.9429 23.1793 31.9634L27.7043 33.703L29.071 36.4363C29.0997 36.4966 29.1426 36.5491 29.1959 36.5893C29.2492 36.6296 29.3114 36.6564 29.3772 36.6676C29.3994 36.6696 29.4217 36.6696 29.4439 36.6676C29.5542 36.6671 29.6599 36.6229 29.7376 36.5447L36.2126 30.0697C36.2603 30.0237 36.2963 29.967 36.3177 29.9043C36.3391 29.8416 36.3452 29.7748 36.3356 29.7092C36.3244 29.6434 36.2975 29.5812 36.2573 29.5279C36.217 29.4746 36.1646 29.4318 36.1043 29.403ZM19.5001 20.8822L19.7314 20.653L25.1043 26.0259C24.7502 26.5277 24.5973 27.144 24.6758 27.7531C24.7542 28.3622 25.0584 28.9196 25.5281 29.3153C25.9978 29.7109 26.5989 29.9158 27.2124 29.8896C27.826 29.8634 28.4074 29.6079 28.8416 29.1736C29.2759 28.7394 29.5314 28.158 29.5576 27.5445C29.5838 26.9309 29.3788 26.3298 28.9832 25.8601C28.5876 25.3904 28.0302 25.0863 27.4211 25.0078C26.812 24.9293 26.1956 25.0822 25.6939 25.4363L20.321 20.0634L20.5501 19.8322L30.9189 23.9801L32.5543 28.2342L27.9022 32.8863L23.648 31.2509L19.5001 20.8822ZM27.1064 25.8197C27.4809 25.8202 27.8436 25.9506 28.1327 26.1886C28.4218 26.4265 28.6195 26.7574 28.6921 27.1248C28.7646 27.4922 28.7075 27.8733 28.5306 28.2034C28.3536 28.5334 28.0677 28.7919 27.7215 28.9347C27.3754 29.0776 26.9904 29.096 26.6322 28.9869C26.274 28.8777 25.9647 28.6478 25.757 28.3362C25.5493 28.0246 25.4561 27.6506 25.4932 27.278C25.5303 26.9053 25.6955 26.5571 25.9605 26.2926C26.2647 25.9893 26.6769 25.8192 27.1064 25.8197ZM29.5585 35.5467L28.5168 33.4634L33.1272 28.853L35.2106 29.8947L29.5585 35.5467Z" fill="#78C081"/>
<path d="M17.6351 32.2923C17.5554 32.217 17.4499 32.175 17.3403 32.175C17.2306 32.175 17.1252 32.217 17.0455 32.2923L16.5163 32.8215C15.1042 30.9049 14.3252 28.5955 14.2878 26.2152C14.2505 23.8349 14.9567 21.5022 16.308 19.5423C16.7128 19.765 17.179 19.8506 17.6366 19.7862C18.0942 19.7217 18.5185 19.5107 18.8461 19.1848C19.1737 18.8589 19.3868 18.4356 19.4535 17.9783C19.5203 17.5211 19.4371 17.0545 19.2163 16.6485C21.1762 15.2972 23.5089 14.591 25.8892 14.6284C28.2696 14.6657 30.5789 15.4447 32.4955 16.8569L31.958 17.3798C31.8805 17.4579 31.8371 17.5635 31.8372 17.6735C31.8368 17.7284 31.8474 17.7827 31.8681 17.8335C31.8888 17.8843 31.9194 17.9304 31.958 17.9694L33.7955 19.7923C33.8736 19.8699 33.9792 19.9134 34.0893 19.9134C34.1993 19.9134 34.3049 19.8699 34.383 19.7923L36.2101 17.9652C36.2488 17.9265 36.2796 17.8805 36.3005 17.83C36.3215 17.7794 36.3323 17.7252 36.3323 17.6704C36.3323 17.6156 36.3215 17.5614 36.3005 17.5108C36.2796 17.4603 36.2488 17.4143 36.2101 17.3756L34.383 15.5485C34.3049 15.4709 34.1993 15.4274 34.0893 15.4274C33.9792 15.4274 33.8736 15.4709 33.7955 15.5485L33.0893 16.2506C31.3486 14.9408 29.2908 14.1179 27.127 13.8664C24.9632 13.6148 22.7714 13.9438 20.7767 14.8194L23.1788 12.4235C23.4512 12.5537 23.7608 12.5831 24.0529 12.5067C24.3449 12.4302 24.6004 12.2528 24.774 12.0059C24.9477 11.759 25.0283 11.4586 25.0015 11.1579C24.9747 10.8572 24.8423 10.5758 24.6277 10.3634C24.4131 10.1511 24.1303 10.0217 23.8293 9.99806C23.5284 9.97444 23.2288 10.0582 22.9838 10.2344C22.7387 10.4107 22.564 10.668 22.4906 10.9608C22.4173 11.2536 22.45 11.563 22.583 11.8339L18.5288 15.8944C18.1172 15.6182 17.6225 15.4936 17.1291 15.5417C16.6358 15.5899 16.1745 15.8078 15.824 16.1583C15.4735 16.5088 15.2556 16.9701 15.2075 17.4634C15.1593 17.9567 15.284 18.4515 15.5601 18.8631L11.4997 22.9173C11.2276 22.7847 10.9174 22.7529 10.6241 22.8275C10.3308 22.902 10.0735 23.0782 9.8978 23.3246C9.72212 23.571 9.63947 23.8717 9.66456 24.1732C9.68965 24.4748 9.82084 24.7577 10.0348 24.9717C10.2488 25.1857 10.5317 25.3169 10.8333 25.342C11.1349 25.367 11.4356 25.2844 11.682 25.1087C11.9283 24.933 12.1045 24.6757 12.179 24.3824C12.2536 24.0891 12.2218 23.7789 12.0892 23.5069L14.4913 21.111C13.6148 23.1051 13.2849 25.2966 13.5353 27.4604C13.7857 29.6242 14.6075 31.6823 15.9163 33.4235L15.2122 34.1298C15.1346 34.2079 15.091 34.3135 15.091 34.4235C15.091 34.5336 15.1346 34.6392 15.2122 34.7173L17.0392 36.5444C17.117 36.6226 17.2227 36.6668 17.333 36.6673C17.388 36.6673 17.4424 36.6565 17.4932 36.6354C17.544 36.6143 17.5901 36.5834 17.6288 36.5444L19.458 34.7173C19.5356 34.6392 19.5792 34.5336 19.5792 34.4235C19.5792 34.3135 19.5356 34.2079 19.458 34.1298L17.6351 32.2923ZM34.0934 16.4277L35.3309 17.6652L34.0934 18.9027L32.8559 17.6652L34.0934 16.4277ZM23.4163 10.9652C23.4782 10.9028 23.5573 10.8601 23.6435 10.8427C23.7297 10.8253 23.8191 10.8339 23.9004 10.8674C23.9817 10.9009 24.0512 10.9577 24.1001 11.0308C24.149 11.1038 24.1751 11.1898 24.1751 11.2777C24.1751 11.3656 24.149 11.4515 24.1001 11.5246C24.0512 11.5977 23.9817 11.6545 23.9004 11.688C23.8191 11.7215 23.7297 11.7301 23.6435 11.7126C23.5573 11.6952 23.4782 11.6526 23.4163 11.5902C23.3753 11.5492 23.3427 11.5005 23.3204 11.4468C23.2982 11.3932 23.2868 11.3357 23.2868 11.2777C23.2868 11.2196 23.2982 11.1622 23.3204 11.1085C23.3427 11.0549 23.3753 11.0062 23.4163 10.9652ZM16.4163 16.7506C16.5373 16.629 16.6811 16.5326 16.8395 16.4667C16.9979 16.4009 17.1677 16.367 17.3392 16.367C17.5108 16.367 17.6806 16.4009 17.839 16.4667C17.9974 16.5326 18.1412 16.629 18.2622 16.7506C18.4451 16.9332 18.5697 17.166 18.6202 17.4194C18.6708 17.6728 18.6451 17.9356 18.5463 18.1744C18.4475 18.4132 18.28 18.6173 18.0652 18.761C17.8503 18.9046 17.5977 18.9813 17.3392 18.9813C17.0808 18.9813 16.8282 18.9046 16.6133 18.761C16.3985 18.6173 16.231 18.4132 16.1322 18.1744C16.0334 17.9356 16.0077 17.6728 16.0582 17.4194C16.1088 17.166 16.2334 16.9332 16.4163 16.7506ZM11.258 24.3756C11.1729 24.4466 11.0644 24.4831 10.9538 24.4781C10.8431 24.4731 10.7383 24.4269 10.66 24.3486C10.5817 24.2703 10.5355 24.1655 10.5305 24.0548C10.5255 23.9442 10.562 23.8357 10.633 23.7506C10.7164 23.6687 10.8286 23.6228 10.9455 23.6228C11.0624 23.6228 11.1746 23.6687 11.258 23.7506C11.2991 23.7916 11.3316 23.8403 11.3539 23.894C11.3761 23.9476 11.3875 24.0051 11.3875 24.0631C11.3875 24.1212 11.3761 24.1786 11.3539 24.2323C11.3316 24.2859 11.2991 24.3346 11.258 24.3756ZM17.3392 35.6527L16.1017 34.4152L17.3392 33.1777L18.5767 34.4152L17.3392 35.6527Z" fill="#78C081"/>
</g>
<defs>
<clipPath id="clip0_48_1370">
<rect width="26.6667" height="26.6667" fill="white" transform="translate(9.66797 10.001)"/>
</clipPath>
</defs>
</svg>
