<svg width="46" height="46" viewBox="0 0 46 46" fill="none" xmlns="http://www.w3.org/2000/svg">
<rect x="0.335938" y="0.000976562" width="45.3334" height="45.3334" rx="13.3333" fill="white"/>
<path d="M23 10.167C20.5277 10.167 18.111 10.9001 16.0554 12.2736C13.9998 13.6471 12.3976 15.5994 11.4515 17.8835C10.5054 20.1675 10.2579 22.6809 10.7402 25.1056C11.2225 27.5304 12.413 29.7577 14.1612 31.5058C15.9093 33.254 18.1366 34.4445 20.5614 34.9268C22.9861 35.4091 25.4995 35.1616 27.7836 34.2155C30.0676 33.2694 32.0199 31.6672 33.3934 29.6116C34.7669 27.556 35.5 25.1393 35.5 22.667C35.4963 19.3529 34.1781 16.1757 31.8347 13.8323C29.4913 11.4889 26.3141 10.1707 23 10.167ZM23 34.3337C20.6926 34.3337 18.4369 33.6494 16.5184 32.3675C14.5998 31.0855 13.1044 29.2634 12.2214 27.1316C11.3384 24.9998 11.1074 22.6541 11.5575 20.3909C12.0077 18.1278 13.1188 16.049 14.7504 14.4174C16.382 12.7858 18.4608 11.6747 20.724 11.2245C22.9871 10.7743 25.3329 11.0054 27.4647 11.8884C29.5965 12.7714 31.4185 14.2668 32.7005 16.1853C33.9825 18.1039 34.6667 20.3595 34.6667 22.667C34.6632 25.7601 33.4329 28.7256 31.2458 30.9128C29.0586 33.0999 26.0931 34.3302 23 34.3337Z" fill="#78C081"/>
<path d="M23.0026 13.5C21.1896 13.5 19.4173 14.0376 17.9099 15.0449C16.4024 16.0521 15.2275 17.4837 14.5337 19.1587C13.8399 20.8337 13.6584 22.6768 14.0121 24.455C14.3658 26.2332 15.2388 27.8665 16.5208 29.1485C17.8028 30.4305 19.4361 31.3035 21.2143 31.6572C22.9924 32.0109 24.8356 31.8294 26.5105 31.1356C28.1855 30.4418 29.6172 29.2669 30.6244 27.7594C31.6317 26.2519 32.1693 24.4797 32.1693 22.6667C32.1666 20.2364 31.1999 17.9064 29.4814 16.1879C27.7629 14.4694 25.4329 13.5027 23.0026 13.5ZM23.0026 31C21.3544 31 19.7433 30.5113 18.3729 29.5956C17.0024 28.6799 15.9343 27.3784 15.3036 25.8557C14.6729 24.333 14.5079 22.6574 14.8294 21.0409C15.1509 19.4244 15.9446 17.9395 17.1101 16.7741C18.2755 15.6087 19.7604 14.815 21.3769 14.4935C22.9934 14.1719 24.6689 14.3369 26.1916 14.9677C27.7144 15.5984 29.0159 16.6665 29.9315 18.0369C30.8472 19.4073 31.336 21.0185 31.336 22.6667C31.3334 24.876 30.4546 26.9942 28.8924 28.5564C27.3301 30.1187 25.212 30.9975 23.0026 31Z" fill="#78C081"/>
<path d="M24.9758 21.1382C24.9011 21.0416 24.8196 20.9507 24.7317 20.866C24.8725 20.4538 25.0668 20.062 25.3097 19.7004C25.4409 19.5104 25.5601 19.3436 25.6671 19.1938C26.1721 18.4869 26.4768 18.06 26.4768 17.3282C26.4768 16.2719 25.2289 15.1319 23.2129 15.1319C22.643 15.1025 22.074 15.2035 21.5491 15.4272C21.0241 15.6509 20.5572 15.9914 20.1837 16.4228C19.8747 16.761 19.6644 17.1775 19.5756 17.6269C19.4868 18.0764 19.5229 18.5415 19.68 18.9719L20.69 21.7182C20.6437 21.8322 20.606 21.9494 20.5772 22.069C20.1499 22.1531 19.7134 22.1808 19.279 22.1514C19.0487 22.1327 18.8446 22.1129 18.6613 22.095C17.7968 22.0112 17.2748 21.9604 16.6412 22.3266C16.3811 22.5008 16.1667 22.7352 16.0163 23.0098C15.8658 23.2844 15.7837 23.5912 15.7769 23.9042C15.7266 24.7294 15.9343 25.5497 16.3712 26.2515C16.6306 26.7597 17.0026 27.2021 17.4588 27.5449C17.915 27.8877 18.4434 28.1219 19.0038 28.2296C19.1818 28.2634 19.3626 28.2805 19.5438 28.2809C19.9098 28.2854 20.2722 28.2079 20.6044 28.0539C20.9365 27.8999 21.2299 27.6735 21.463 27.3912L23.338 25.1417C23.4596 25.1255 23.5799 25.1003 23.6979 25.0664C23.9846 25.3935 24.2264 25.7574 24.4169 26.1484C24.516 26.3571 24.6008 26.5437 24.6769 26.7113C25.0368 27.5022 25.2539 27.9795 25.8877 28.3455C26.1291 28.4798 26.4018 28.5482 26.6781 28.5436C27.5653 28.5436 28.664 27.9292 29.4218 26.617C29.7322 26.1381 29.9293 25.5948 29.998 25.0283C30.0667 24.4618 30.0053 23.8871 29.8183 23.3479C29.6799 22.9112 29.4245 22.5208 29.0797 22.2192C28.7349 21.9176 28.314 21.7164 27.8628 21.6373L24.9758 21.1382ZM23.0019 24.3334C22.6723 24.3334 22.35 24.2357 22.076 24.0525C21.8019 23.8694 21.5883 23.6091 21.4621 23.3045C21.336 23 21.303 22.6649 21.3673 22.3416C21.4316 22.0183 21.5903 21.7213 21.8234 21.4882C22.0565 21.2551 22.3535 21.0964 22.6768 21.0321C23.0001 20.9678 23.3352 21.0008 23.6397 21.1269C23.9443 21.2531 24.2046 21.4667 24.3877 21.7408C24.5708 22.0149 24.6686 22.3371 24.6686 22.6667C24.6681 23.1086 24.4923 23.5323 24.1799 23.8447C23.8674 24.1572 23.4438 24.3329 23.0019 24.3334ZM20.816 16.9654C21.1117 16.6256 21.4817 16.3585 21.8975 16.185C22.3132 16.0116 22.7633 15.9364 23.2129 15.9654C24.778 15.9654 25.6435 16.7713 25.6435 17.3284C25.6435 17.7733 25.497 17.9983 24.989 18.7096C24.8797 18.8626 24.7581 19.0329 24.624 19.2272C24.3793 19.5891 24.1765 19.9777 24.0195 20.3855C23.5648 20.181 23.0591 20.118 22.5681 20.2047C22.0772 20.2913 21.6236 20.5236 21.2664 20.8714L20.4622 18.6843C20.3585 18.3928 20.3367 18.0785 20.3991 17.7755C20.4615 17.4724 20.6057 17.1923 20.816 16.9654ZM20.8227 26.8576C20.6221 27.0931 20.3609 27.2691 20.0673 27.3665C19.7737 27.464 19.4591 27.4792 19.1575 27.4104C18.7153 27.3244 18.2989 27.1375 17.9408 26.8641C17.5827 26.5908 17.2925 26.2385 17.0929 25.8347C16.7478 25.2783 16.5784 24.6308 16.6069 23.9767C16.6071 23.798 16.6478 23.6216 16.7259 23.4608C16.804 23.3001 16.9175 23.1591 17.0579 23.0484C17.443 22.8254 17.7114 22.8403 18.5809 22.9245C18.7681 22.9426 18.9765 22.9629 19.2118 22.9819C19.6471 23.0132 20.0845 22.9947 20.5156 22.9267C20.5684 23.4221 20.7677 23.8905 21.088 24.272C21.4084 24.6535 21.8353 24.9308 22.314 25.0684L20.8227 26.8576ZM29.0322 23.6243C29.1788 24.0503 29.2251 24.5044 29.1675 24.9512C29.1098 25.398 28.9498 25.8255 28.7 26.2004C27.9177 27.5553 26.7863 27.9022 26.3043 27.6237C25.919 27.4013 25.7975 27.1621 25.4356 26.3664C25.3577 26.1951 25.271 26.0046 25.1699 25.7914C24.9783 25.3981 24.7427 25.0279 24.4675 24.6878C24.8731 24.3974 25.1814 23.9913 25.3522 23.5226C25.523 23.054 25.5483 22.5447 25.4247 22.0614L27.7206 22.4584C28.0249 22.5144 28.308 22.6526 28.5392 22.8581C28.7705 23.0636 28.941 23.3286 29.0322 23.6242V23.6243Z" fill="#78C081"/>
<path d="M23.0026 12.6673C23.2327 12.6673 23.4193 12.4808 23.4193 12.2507C23.4193 12.0205 23.2327 11.834 23.0026 11.834C22.7725 11.834 22.5859 12.0205 22.5859 12.2507C22.5859 12.4808 22.7725 12.6673 23.0026 12.6673Z" fill="#78C081"/>
<path d="M23.0026 33.5003C23.2327 33.5003 23.4193 33.3138 23.4193 33.0837C23.4193 32.8535 23.2327 32.667 23.0026 32.667C22.7725 32.667 22.5859 32.8535 22.5859 33.0837C22.5859 33.3138 22.7725 33.5003 23.0026 33.5003Z" fill="#78C081"/>
<path d="M12.5846 23.0833C12.8148 23.0833 13.0013 22.8968 13.0013 22.6667C13.0013 22.4365 12.8148 22.25 12.5846 22.25C12.3545 22.25 12.168 22.4365 12.168 22.6667C12.168 22.8968 12.3545 23.0833 12.5846 23.0833Z" fill="#78C081"/>
<path d="M33.4167 23.0833C33.6468 23.0833 33.8333 22.8968 33.8333 22.6667C33.8333 22.4365 33.6468 22.25 33.4167 22.25C33.1865 22.25 33 22.4365 33 22.6667C33 22.8968 33.1865 23.0833 33.4167 23.0833Z" fill="#78C081"/>
</svg>
