<svg width="46" height="46" viewBox="0 0 46 46" fill="none" xmlns="http://www.w3.org/2000/svg">
<rect x="0.335938" y="0.334961" width="45.3334" height="45.3334" rx="13.3333" fill="white"/>
<path d="M36.8784 25.3072V25.2648L36.7284 25.1073L31.9755 18.7786V11.5161L31.563 11.083H14.7088L14.2963 11.5161V18.7789L9.544 25.1067L9.39325 25.265V25.3074L9.35938 25.3524L9.39325 25.3803V27.651C9.39378 28.1484 9.5822 28.6252 9.91716 28.9769C10.2521 29.3287 10.7063 29.5265 11.18 29.5271H35.0918C35.5655 29.5265 36.0196 29.3286 36.3545 28.9769C36.6895 28.6252 36.8779 28.1483 36.8784 27.651V25.3803L36.9123 25.3523L36.8784 25.3072ZM15.1213 11.9493H31.1505V18.4971H15.1213V11.9493ZM14.908 19.3633H31.3636L35.4705 24.8318H10.8011L14.908 19.3633ZM36.0534 27.6512C36.0532 27.919 35.9518 28.1757 35.7715 28.365C35.5912 28.5543 35.3468 28.6608 35.0918 28.6611H11.18C10.925 28.6609 10.6805 28.5544 10.5002 28.3651C10.3198 28.1757 10.2184 27.919 10.2183 27.6512V25.6982H36.0534V27.6512Z" fill="#78C081"/>
<path d="M18.5297 14.1436L18.1172 14.5767V17.1122L18.5297 17.5453H27.7499L28.1624 17.1122V14.5767L27.7499 14.1436H18.5297ZM27.3374 16.6789H18.9422V15.0098H27.3374V16.6789Z" fill="#78C081"/>
<path d="M18.7657 31.957C18.7853 31.6836 19.0329 31.3559 19.4259 30.9157L18.824 30.3232C17.76 31.5147 17.5827 32.201 18.7084 33.6802C19.0502 34.1292 19.1898 34.5361 19.1233 34.8894C19.0304 35.384 18.5548 35.6664 18.55 35.6692L18.7478 36.0498L18.9432 36.4314C18.9763 36.4126 19.7567 35.9629 19.9307 35.0695C20.051 34.4511 19.8568 33.8019 19.353 33.1401C18.9224 32.5737 18.7468 32.2201 18.7657 31.957Z" fill="#78C081"/>
<path d="M22.9532 31.957C22.9728 31.6835 23.2204 31.3558 23.6134 30.9157L23.0115 30.3232C21.9475 31.5147 21.7702 32.201 22.8959 33.6802C23.2377 34.1292 23.3773 34.5361 23.3109 34.8896C23.218 35.384 22.7424 35.6666 22.7377 35.6693L22.9354 36.0499L23.1308 36.4315C23.1639 36.4127 23.9443 35.9631 24.1183 35.0696C24.2388 34.4512 24.0444 33.8019 23.5407 33.1403C23.1098 32.5737 22.9342 32.2201 22.9532 31.957Z" fill="#78C081"/>
<path d="M27.1368 31.957C27.1564 31.6835 27.404 31.3558 27.797 30.9157L27.1951 30.3232C26.1311 31.5147 25.9538 32.201 27.0795 33.6802C27.4213 34.1292 27.5609 34.5361 27.4945 34.8896C27.4016 35.384 26.926 35.6666 26.9213 35.6693L27.119 36.0499L27.3144 36.4315C27.3475 36.4127 28.1279 35.9631 28.3019 35.0696C28.4224 34.4512 28.228 33.8019 27.7243 33.1403C27.2935 32.5737 27.1179 32.2201 27.1368 31.957Z" fill="#78C081"/>
<path d="M28.3372 27.19C28.3372 27.5582 28.0388 27.8566 27.6706 27.8566C27.3024 27.8566 27.0039 27.5582 27.0039 27.19C27.0039 26.8218 27.3024 26.5233 27.6706 26.5233C28.0388 26.5233 28.3372 26.8218 28.3372 27.19Z" fill="#78C081"/>
<path d="M31.0013 27.19C31.0013 27.5582 30.7028 27.8566 30.3346 27.8566C29.9664 27.8566 29.668 27.5582 29.668 27.19C29.668 26.8218 29.9664 26.5233 30.3346 26.5233C30.7028 26.5233 31.0013 26.8218 31.0013 27.19Z" fill="#78C081"/>
<path d="M33.6693 27.19C33.6693 27.5582 33.3708 27.8566 33.0026 27.8566C32.6344 27.8566 32.3359 27.5582 32.3359 27.19C32.3359 26.8218 32.6344 26.5233 33.0026 26.5233C33.3708 26.5233 33.6693 26.8218 33.6693 27.19Z" fill="#78C081"/>
</svg>
