<svg width="46" height="46" viewBox="0 0 46 46" fill="none" xmlns="http://www.w3.org/2000/svg">
<rect x="0.335938" y="0.667969" width="45.3334" height="45.3334" rx="13.3333" fill="white"/>
<path d="M26.4189 11.2139C28.4501 11.2139 35.1213 22.2747 35.1213 26.5249C35.1213 31.4576 31.2251 35.4563 26.4189 35.4563C25.2855 35.4563 24.1812 35.2335 23.1522 34.8055C22.834 34.6732 22.6806 34.3012 22.8096 33.9747C22.9385 33.6481 23.301 33.4907 23.6191 33.623C24.5004 33.9895 25.4462 34.1804 26.4189 34.1804C30.5385 34.1804 33.8781 30.7014 33.8781 26.5249C33.7401 22.078 27.6248 13.1864 26.3704 12.4994C25.0804 13.2294 21.0947 19.8903 20.0927 22.3312C19.9548 22.6539 19.5881 22.8007 19.2738 22.6592C18.9594 22.5177 18.8163 22.1414 18.9542 21.8187C20.0927 18.8522 24.647 11.371 26.4189 11.2139ZM23.3109 30.9906C23.6542 30.9906 23.9325 31.2762 23.9325 31.6285C23.9325 31.9557 23.6894 32.2665 23.3109 32.2665C22.3555 32.2665 21.6181 33.5424 20.2046 33.5424C18.7911 33.5424 18.0729 32.2665 17.0949 32.2665C16.1169 32.2665 15.4177 33.5424 13.9869 33.5424C12.9928 33.5424 12.0181 33.0423 11.0654 32.0842C10.8202 31.8376 10.8163 31.4337 11.0565 31.182C11.2968 30.9304 11.6904 30.9263 11.9356 31.1729C12.6745 31.9161 13.3574 32.2665 13.9869 32.2665C14.8585 32.2665 15.6555 30.9905 17.0949 30.9906C18.5343 30.9907 19.268 32.2665 20.2013 32.2665C21.1345 32.2665 21.7862 30.9907 23.3109 30.9906ZM17.9776 27.1054C19.4745 27.1054 20.1969 28.3813 21.0916 28.3814C21.7173 28.3876 22.3973 28.0386 23.1348 27.2899C23.3789 27.0421 23.7725 27.0442 24.0139 27.2947C24.2553 27.5452 24.2532 27.9491 24.0092 28.1969C23.0551 29.1656 22.0789 29.6572 21.0795 29.6572C19.6409 29.6572 18.9632 28.3813 17.9776 28.3813C16.992 28.3813 16.2955 29.6574 14.8712 29.6573C13.447 29.6571 12.7438 28.3814 11.7616 28.3813C11.4183 28.3813 11.14 28.0957 11.14 27.7434C11.14 27.391 11.4183 27.1054 11.7616 27.1054C13.2495 27.1055 13.9567 28.3813 14.8679 28.3813C15.7792 28.3814 16.4807 27.1055 17.9776 27.1054ZM23.3109 23.3351C23.6542 23.3351 23.9325 23.6207 23.9325 23.973C23.9325 24.3002 23.6701 24.611 23.3109 24.611C22.2792 24.611 21.6596 25.883 20.2046 25.8869C18.7496 25.8909 18.0869 24.611 17.0949 24.611C16.1029 24.611 15.4457 25.8869 13.9869 25.8869C12.9927 25.8869 12.0181 25.3868 11.0654 24.4287C10.8202 24.1821 10.8163 23.7782 11.0565 23.5265C11.2968 23.2749 11.6904 23.2708 11.9356 23.5174C12.6745 24.2606 13.3574 24.611 13.9869 24.611C14.8886 24.6067 15.6276 23.3351 17.0949 23.3351C18.5622 23.3351 19.2738 24.6136 20.2013 24.611C21.1287 24.6085 21.8219 23.3351 23.3109 23.3351Z" fill="#78C081"/>
</svg>
