<svg width="286" height="82" viewBox="0 0 286 82" fill="none" xmlns="http://www.w3.org/2000/svg">
<path fill-rule="evenodd" clip-rule="evenodd" d="M92.221 81.8771C82.434 82.1547 71.6188 82.5579 65.0858 75.6764C58.2396 68.465 57.2851 57.6253 60.4561 48.4177C63.3296 40.074 71.7025 35.2641 80.2173 31.7398C88.2503 28.4149 97.0252 26.8087 105.155 29.9167C113.976 33.2888 121.494 39.7477 123.895 48.4373C126.377 57.423 123.943 67.2695 117.385 74.1932C111.204 80.7189 101.492 81.6142 92.221 81.8771Z" fill="#78C081" fill-opacity="0.15"/>
<path fill-rule="evenodd" clip-rule="evenodd" d="M3.70033 32.0324C0.577133 43.1598 -0.137215 54.8212 0.606205 66.2722C0.269797 69.9126 2.25087 73.4275 4.88398 75.9354C8.73814 79.5838 16.3302 79.0863 21.314 78.5726C30.3887 77.707 34.4256 69.4312 34.9572 61.4588C35.3642 47.6779 35.4639 33.1973 35.4348 19.3922C35.4285 18.999 35.4294 18.5864 35.4302 18.1622C35.434 16.343 35.4381 14.3117 34.8824 12.6979C33.5327 8.19193 29.3338 6.57398 25.1141 7.43959C24.2614 7.70986 23.4402 8.06641 22.6638 8.50339C20.1298 9.87571 17.7615 11.5201 15.6034 13.4058C11.2887 17.1149 7.85719 21.6965 5.54849 26.8307C5.32044 27.2956 5.089 27.9303 4.87472 28.5179C4.75339 28.8507 4.63756 29.1683 4.53096 29.4315C4.31029 29.9764 4.08497 30.7387 3.88806 31.4049C3.82185 31.6289 3.75885 31.842 3.70033 32.0324ZM0.606205 66.2722C1.92276 54.6189 3.77509 43.0142 7.99057 32.0445C10.2776 26.2658 14.0846 21.1743 19.0297 17.2807C19.483 16.9 20.1552 16.4069 20.7032 16.0051C20.8131 15.9245 20.9179 15.8476 21.015 15.7761C21.015 15.7761 24.4123 12.8799 26.2521 12.7222C28.092 12.5644 29.1012 12.6939 29.5165 14.6839L29.6453 15.6345L29.6743 16.6862C29.6453 21.455 29.6245 30.2688 29.6743 35.1227C29.7366 42.1243 29.8197 49.126 29.9858 56.1236L30.098 61.2282C30.0793 62.8188 29.8928 64.4033 29.5414 65.9567C28.744 69.6335 26.7173 73.2132 23.0417 74.6612C20.6744 75.5066 18.1036 75.8383 15.6117 76.1295C12.692 76.3803 9.63523 76.53 6.93981 75.3489C3.64634 73.4316 0.988298 70.1108 0.606205 66.2722Z" fill="#78C081"/>
<path d="M74.5321 35.104C76.1277 39.051 79.0345 45.2211 80.0389 52.634C79.319 39.0881 78.3818 39.051 77.918 36.9741C77.1755 33.6495 76.1822 30.3829 74.9462 27.201C71.4038 18.9978 65.0555 12.2461 56.9826 8.096C56.2956 7.72162 55.5493 7.46165 54.7745 7.32679C54.3304 7.30249 54.0731 7.22962 53.4547 7.22962C49.2419 6.99481 46.0543 9.68707 45.3279 13.6384C44.9461 15.351 45.0498 17.4521 45.0498 19.1404C45 28.3022 44.9793 39.6704 45.1328 48.8849C45.1951 52.1966 45.2366 55.5083 45.3279 58.82C45.3135 60.6081 45.4523 62.3943 45.743 64.1599C47.1334 72.1801 51.7737 78.3784 60.6393 78.7346C65.0471 79.0464 69.7497 79.2286 73.8504 77.2772C77.0671 75.5404 78.3768 72.606 79.319 69.3672C79.935 67.2495 80.7695 65.0827 84.275 61.6211C80.7695 63.698 79.6091 64.7431 77.264 70.6212C74.122 75.8519 71.8665 76.4917 65.9976 76.1314C64.3618 76.0079 62.7348 75.7916 61.1249 75.4837C59.6639 75.1962 58.0659 74.9209 56.7585 74.2286C52.7283 72.2165 51.064 67.6984 50.5949 63.5041C50.4333 61.9845 50.3958 60.4547 50.4829 58.9293C50.624 53.1642 50.79 44.893 50.79 39.051C50.79 33.209 50.8772 24.865 50.79 19.108C50.8066 17.4036 50.4372 14.7963 51.3296 13.355C51.9605 12.3186 52.9913 11.9963 54.6957 12.7923C61.9016 16.2213 67.7894 21.8153 71.4929 28.7516C72.5718 30.924 73.8419 33.3965 74.5321 35.104Z" fill="#78C081"/>
<path d="M40.5786 16.9696C40.8714 16.3779 40.6285 15.6611 40.036 15.3686C39.4435 15.0762 38.7258 15.3187 38.433 15.9104L32.7794 27.3346C32.4866 27.9263 32.7295 28.6431 33.322 28.9356C33.9145 29.2281 34.6322 28.9855 34.925 28.3938L40.5786 16.9696Z" fill="#78C081"/>
<path d="M39.1609 16.9696C38.8681 16.3779 39.1111 15.6611 39.7036 15.3686C40.2961 15.0762 41.0138 15.3187 41.3066 15.9104L46.9602 27.3346C47.253 27.9263 47.01 28.6431 46.4175 28.9356C45.825 29.2281 45.1073 28.9855 44.8145 28.3938L39.1609 16.9696Z" fill="#78C081"/>
<path d="M38.6307 1.86198C38.6307 1.202 39.1665 0.666992 39.8274 0.666992C40.4884 0.666992 41.0242 1.202 41.0242 1.86198V17.002C41.0242 17.662 40.4884 18.197 39.8274 18.197C39.1665 18.197 38.6307 17.662 38.6307 17.002V1.86198Z" fill="#78C081"/>
<path d="M75.61 74.1458C75.2443 73.434 74.8746 72.7774 74.4974 72.1212C74.1203 71.4651 73.7363 70.8181 73.3336 70.1694C72.9308 69.5207 72.5077 68.9022 72.0958 68.2859C71.9887 68.1249 71.8676 67.9792 71.7534 67.8244C71.6392 67.6696 71.5145 67.5241 71.3893 67.3729C71.2642 67.2217 71.1284 67.0798 70.9881 66.9238C70.9214 66.8484 70.8484 66.7767 70.7695 66.709C70.694 66.6357 70.6148 66.5626 70.5427 66.4832C71.0288 66.5822 71.485 66.7493 71.8895 66.9765C72.0942 67.0867 72.2886 67.2078 72.4715 67.3389C72.6581 67.4671 72.8348 67.6037 73.0006 67.7481C73.6575 68.3171 74.2062 68.9573 74.6308 69.6501C75.0593 70.3362 75.3759 71.0635 75.5735 71.8156C75.793 72.5768 75.8054 73.3703 75.61 74.1458Z" fill="#78C081"/>
<path d="M75.2601 66.4532C74.9241 65.6468 74.3734 64.9373 73.6601 64.3918C72.9748 63.8602 72.1919 63.4493 71.3483 63.1783C70.4978 62.9143 69.6183 62.7364 68.7246 62.6477C67.8213 62.5459 66.8941 62.498 65.9556 62.4516L66.7381 61.6704C66.8891 62.8104 67.0662 63.9433 67.1905 65.0869C67.266 65.6569 67.3191 66.2334 67.4122 66.7613C67.4481 67.032 67.5053 67.2891 67.5735 67.541C67.6444 67.7937 67.734 68.041 67.8418 68.2813C68.2812 69.2587 68.9842 70.1086 69.8824 70.7485C70.824 71.4293 71.9366 71.8744 73.118 72.043C71.8429 72.1913 70.5571 71.9591 69.4436 71.3792C68.2806 70.7891 67.332 69.8902 66.714 68.7928C66.5605 68.5116 66.4288 68.2201 66.32 67.9205C66.2151 67.6282 66.1316 67.3292 66.0699 67.0256C65.9346 66.4127 65.8596 65.8463 65.7708 65.2925C65.5918 64.1453 65.4413 63.0089 65.2903 61.8689L65.1781 61.021L66.0767 61.0871C67.0413 61.1542 68.0006 61.2695 68.9506 61.4325C69.9283 61.5934 70.8766 61.8765 71.7703 62.2744C72.6757 62.6785 73.4766 63.2596 74.12 63.9794C74.7605 64.6721 75.1581 65.5349 75.2601 66.4532Z" fill="#78C081"/>
<path d="M76.8943 66.0105C76.584 65.5013 76.3665 64.9325 76.2562 64.342C76.1441 63.7436 76.1072 63.1379 76.1467 62.5438C76.2495 61.3558 76.5396 60.2182 77.0034 59.1842C77.458 58.1301 78.0529 57.1726 78.7688 56.3425C79.1442 55.916 79.5647 55.544 80.0225 55.2335C80.4761 54.937 80.9541 54.6864 81.4517 54.4842C81.9389 54.2722 82.4341 54.1141 82.9223 53.9638C83.4105 53.8136 83.8908 53.683 84.3797 53.5495C85.3478 53.297 86.2927 53.0465 87.1848 52.7232C88.0453 52.4281 88.8541 51.9934 89.5879 51.4315C90.361 50.8493 90.9847 50.0531 91.408 49.1079C91.7256 48.3199 91.9902 47.4873 92.2821 46.6796C92.201 46.9153 92.4687 47.7467 92.5139 48.0309C92.7582 49.5487 92.8633 51.0766 92.8275 52.5894C92.8166 53.5834 92.7452 54.5689 92.6138 55.5388L92.5544 55.914L92.3476 56.9815C92.251 57.448 92.1458 57.9175 92.0172 58.389C91.7521 59.3492 91.3537 60.2426 90.8362 61.0374C90.5778 61.4272 90.2935 61.7928 89.9856 62.1316C89.6714 62.4613 89.3574 62.7627 89.0342 63.0502C88.3868 63.6267 87.698 64.1433 86.9734 64.5955C85.5338 65.4971 83.9588 66.1248 82.3046 66.456C83.7936 65.7697 85.1915 64.8811 86.4705 63.8079C87.0998 63.2821 87.6954 62.708 88.2537 62.0892C88.8051 61.5001 89.295 60.8405 89.7153 60.1212C90.0991 59.4061 90.3778 58.6171 90.5418 57.782C90.6327 57.3568 90.7101 56.9192 90.778 56.4678L90.8761 55.7862L90.9265 55.4422L90.9663 55.1242C91.0494 54.2285 91.0859 53.3231 91.0756 52.4126C91.0746 51.4873 91.6022 52.3795 90.71 53.098C89.8354 53.7793 88.8608 54.2921 87.8204 54.6183C86.8247 54.9477 85.8242 55.1601 84.853 55.3741C83.8818 55.5881 82.9099 55.7854 82.0207 56.0739C81.5835 56.2102 81.1608 56.3897 80.757 56.6105C80.3588 56.8313 79.9883 57.1053 79.6523 57.4274C78.9436 58.0958 78.3293 58.8822 77.8269 59.7641C77.2996 60.6423 76.9107 61.6271 76.6757 62.6792C76.4162 63.7504 76.4932 64.925 76.8943 66.0105Z" fill="#78C081"/>
<path d="M100.228 74V62.88H98.0946V61.12H100.228V60.1333C100.228 58.8 100.557 57.7689 101.215 57.04C101.89 56.3111 102.806 55.9467 103.961 55.9467C104.477 55.9467 104.957 56.0178 105.401 56.16C105.846 56.3022 106.272 56.56 106.681 56.9333L105.855 58.24C105.641 58.0444 105.401 57.8933 105.135 57.7867C104.886 57.6622 104.592 57.6 104.255 57.6C103.597 57.6 103.09 57.8222 102.735 58.2667C102.397 58.6933 102.228 59.3155 102.228 60.1333V61.12H104.841V62.88H102.228V74H100.228ZM109.887 74V61.12H111.887V63.2C112.402 62.5244 113.025 61.9644 113.753 61.52C114.482 61.0755 115.291 60.8533 116.18 60.8533V62.9067C115.931 62.8533 115.665 62.8267 115.38 62.8267C115.078 62.8267 114.749 62.8889 114.393 63.0133C114.056 63.12 113.718 63.2711 113.38 63.4667C113.06 63.6622 112.767 63.8844 112.5 64.1333C112.233 64.3644 112.029 64.6133 111.887 64.88V74H109.887ZM127.169 74.32C126.209 74.32 125.329 74.16 124.529 73.84C123.729 73.5022 123.035 73.04 122.449 72.4533C121.88 71.8489 121.427 71.1378 121.089 70.32C120.769 69.4844 120.609 68.56 120.609 67.5467C120.609 66.6222 120.769 65.7511 121.089 64.9333C121.409 64.0978 121.844 63.3778 122.395 62.7733C122.964 62.1689 123.631 61.6889 124.395 61.3333C125.178 60.9778 126.031 60.8 126.955 60.8C127.933 60.8 128.804 60.9778 129.569 61.3333C130.333 61.6889 130.982 62.1778 131.515 62.8C132.049 63.4222 132.449 64.16 132.715 65.0133C133 65.8489 133.142 66.7467 133.142 67.7067V68.2133H122.715C122.751 68.8178 122.884 69.3956 123.115 69.9467C123.347 70.48 123.658 70.9511 124.049 71.36C124.458 71.7511 124.938 72.0711 125.489 72.32C126.04 72.5511 126.662 72.6667 127.355 72.6667C128.102 72.6667 128.822 72.5244 129.515 72.24C130.209 71.9556 130.813 71.5556 131.329 71.04L132.289 72.3467C131.649 72.9867 130.902 73.4756 130.049 73.8133C129.195 74.1511 128.235 74.32 127.169 74.32ZM131.169 66.7467C131.169 66.2667 131.08 65.7778 130.902 65.28C130.742 64.7644 130.484 64.3022 130.129 63.8933C129.791 63.4667 129.355 63.12 128.822 62.8533C128.289 62.5867 127.658 62.4533 126.929 62.4533C126.235 62.4533 125.631 62.5867 125.115 62.8533C124.6 63.12 124.164 63.4578 123.809 63.8667C123.471 64.2756 123.204 64.7378 123.009 65.2533C122.831 65.7511 122.733 66.2489 122.715 66.7467H131.169ZM143.128 74.32C142.062 74.32 141.093 74.16 140.222 73.84C139.35 73.5022 138.586 72.9867 137.928 72.2933L138.968 70.8533C139.395 71.3511 139.982 71.7867 140.728 72.16C141.493 72.5156 142.319 72.6933 143.208 72.6933C144.204 72.6933 144.959 72.4889 145.475 72.08C145.99 71.6533 146.248 71.12 146.248 70.48C146.248 69.9644 146.053 69.5733 145.662 69.3067C145.27 69.0222 144.773 68.7911 144.168 68.6133C143.582 68.4356 142.942 68.2756 142.248 68.1333C141.573 67.9733 140.933 67.76 140.328 67.4933C139.742 67.2089 139.253 66.8444 138.862 66.4C138.47 65.9378 138.275 65.3067 138.275 64.5067C138.275 64.0089 138.382 63.5378 138.595 63.0933C138.808 62.6311 139.119 62.2311 139.528 61.8933C139.937 61.5555 140.435 61.2889 141.022 61.0933C141.626 60.8978 142.31 60.8 143.075 60.8C144.177 60.8 145.119 60.9867 145.902 61.36C146.684 61.7155 147.333 62.1511 147.848 62.6667L146.915 64.0533C146.524 63.5911 145.99 63.2089 145.315 62.9067C144.657 62.5867 143.91 62.4267 143.075 62.4267C142.186 62.4267 141.484 62.6222 140.968 63.0133C140.47 63.4044 140.222 63.8844 140.222 64.4533C140.222 64.9156 140.417 65.2711 140.808 65.52C141.199 65.7689 141.688 65.9822 142.275 66.16C142.879 66.32 143.519 66.48 144.195 66.64C144.888 66.7822 145.528 66.9956 146.115 67.28C146.719 67.5644 147.217 67.9556 147.608 68.4533C147.999 68.9333 148.195 69.5911 148.195 70.4267C148.195 70.96 148.088 71.4667 147.875 71.9467C147.662 72.4267 147.342 72.8444 146.915 73.2C146.488 73.5378 145.955 73.8044 145.315 74C144.693 74.2133 143.964 74.32 143.128 74.32ZM162.831 74V65.52C162.831 64.9511 162.76 64.48 162.617 64.1067C162.475 63.7333 162.28 63.4311 162.031 63.2C161.782 62.9689 161.471 62.8089 161.097 62.72C160.742 62.6311 160.351 62.5867 159.924 62.5867C159.533 62.5867 159.151 62.64 158.777 62.7467C158.404 62.8533 158.048 63.0044 157.711 63.2C157.391 63.3778 157.088 63.5911 156.804 63.84C156.537 64.0711 156.306 64.32 156.111 64.5867V74H154.111V56.2133H156.111V62.9867C156.342 62.72 156.617 62.4622 156.937 62.2133C157.257 61.9467 157.613 61.7067 158.004 61.4933C158.413 61.28 158.848 61.1111 159.311 60.9867C159.773 60.8622 160.244 60.8 160.724 60.8C162.075 60.8 163.097 61.1378 163.791 61.8133C164.484 62.4711 164.831 63.5022 164.831 64.9067V74H162.831ZM189.086 74V72.5333C188.001 73.7244 186.579 74.32 184.819 74.32C184.268 74.32 183.726 74.2311 183.193 74.0533C182.659 73.8756 182.179 73.6089 181.753 73.2533C181.326 72.88 180.979 72.4267 180.713 71.8933C180.446 71.36 180.313 70.7467 180.313 70.0533C180.313 69.3422 180.446 68.72 180.713 68.1867C180.979 67.6533 181.326 67.2089 181.753 66.8533C182.179 66.4978 182.659 66.24 183.193 66.08C183.726 65.9022 184.268 65.8133 184.819 65.8133C185.708 65.8133 186.508 65.9556 187.219 66.24C187.948 66.5244 188.57 66.9689 189.086 67.5733V65.2533C189.086 64.3822 188.775 63.7156 188.153 63.2533C187.548 62.7733 186.775 62.5333 185.833 62.5333C184.321 62.5333 183.006 63.1289 181.886 64.32L180.953 62.9333C182.321 61.5111 184.037 60.8 186.099 60.8C186.775 60.8 187.415 60.88 188.019 61.04C188.624 61.2 189.148 61.4578 189.593 61.8133C190.055 62.1511 190.419 62.5955 190.686 63.1467C190.953 63.6978 191.086 64.3644 191.086 65.1467V74H189.086ZM185.539 72.88C186.25 72.88 186.917 72.7467 187.539 72.48C188.179 72.2133 188.695 71.8133 189.086 71.28V68.8533C188.695 68.32 188.179 67.92 187.539 67.6533C186.917 67.3867 186.25 67.2533 185.539 67.2533C184.597 67.2533 183.833 67.52 183.246 68.0533C182.659 68.5689 182.366 69.2444 182.366 70.08C182.366 70.8978 182.659 71.5733 183.246 72.1067C183.833 72.6222 184.597 72.88 185.539 72.88ZM198.748 59.28C198.393 59.28 198.082 59.1555 197.815 58.9067C197.548 58.64 197.415 58.32 197.415 57.9467C197.415 57.5733 197.548 57.2533 197.815 56.9867C198.082 56.72 198.393 56.5867 198.748 56.5867C199.122 56.5867 199.442 56.72 199.708 56.9867C199.975 57.2533 200.108 57.5733 200.108 57.9467C200.108 58.32 199.975 58.64 199.708 58.9067C199.442 59.1555 199.122 59.28 198.748 59.28ZM197.762 74V61.12H199.762V74H197.762ZM206.418 74V61.12H208.418V63.2C208.934 62.5244 209.556 61.9644 210.285 61.52C211.014 61.0755 211.822 60.8533 212.711 60.8533V62.9067C212.462 62.8533 212.196 62.8267 211.911 62.8267C211.609 62.8267 211.28 62.8889 210.925 63.0133C210.587 63.12 210.249 63.2711 209.911 63.4667C209.591 63.6622 209.298 63.8844 209.031 64.1333C208.765 64.3644 208.56 64.6133 208.418 64.88V74H206.418Z" fill="#78C081"/>
<path d="M99.0173 30.7333C99.0173 27.0373 99.8484 24.3582 101.511 22.696C103.173 21.0338 105.852 20.2027 109.548 20.2027C112.716 20.2027 115.131 20.8187 116.793 22.0507C118.456 23.2631 119.482 25.1893 119.873 27.8293H115.649C115.278 26.5191 114.593 25.5609 113.596 24.9547C112.618 24.3484 111.269 24.0453 109.548 24.0453C107.299 24.0453 105.666 24.5831 104.649 25.6587C103.632 26.7147 103.124 28.4062 103.124 30.7333C103.124 33.0604 103.632 34.752 104.649 35.808C105.666 36.864 107.299 37.392 109.548 37.392C111.269 37.392 112.618 37.0889 113.596 36.4827C114.593 35.8764 115.278 34.9182 115.649 33.608H119.903C119.492 36.2676 118.456 38.2133 116.793 39.4453C115.131 40.6578 112.716 41.264 109.548 41.264C105.852 41.264 103.173 40.4329 101.511 38.7707C99.8484 37.0889 99.0173 34.4098 99.0173 30.7333ZM122.916 41V19H126.788V41H122.916ZM131.424 39.3867C130.192 38.1351 129.576 36.1307 129.576 33.3733C129.576 30.616 130.192 28.6115 131.424 27.36C132.656 26.1084 134.65 25.4827 137.408 25.4827C140.145 25.4827 142.12 26.1084 143.333 27.36C144.565 28.6115 145.181 30.616 145.181 33.3733C145.181 33.6471 145.161 34.0578 145.122 34.6053H133.536C133.79 36.8151 135.09 37.92 137.437 37.92C139.197 37.92 140.36 37.3236 140.928 36.1307H144.917C144.526 38.0276 143.695 39.3573 142.424 40.12C141.152 40.8827 139.48 41.264 137.408 41.264C134.65 41.264 132.656 40.6382 131.424 39.3867ZM137.437 28.8267C136.342 28.8267 135.472 29.0515 134.826 29.5013C134.181 29.9511 133.77 30.6942 133.594 31.7307H141.28C141.104 30.6942 140.693 29.9511 140.048 29.5013C139.422 29.0515 138.552 28.8267 137.437 28.8267ZM153.058 41.264C151.083 41.264 149.626 40.8924 148.687 40.1493C147.768 39.3867 147.309 38.1742 147.309 36.512C147.309 34.8107 147.817 33.5982 148.834 32.8747C149.851 32.1316 151.494 31.76 153.762 31.76H158.338C158.26 30.7235 157.937 29.9804 157.37 29.5307C156.822 29.0613 155.962 28.8267 154.789 28.8267C152.892 28.8267 151.777 29.5013 151.445 30.8507H147.631C147.866 28.9733 148.56 27.6142 149.714 26.7733C150.868 25.9129 152.608 25.4827 154.935 25.4827C157.478 25.4827 159.326 26.0107 160.479 27.0667C161.633 28.1031 162.21 29.7849 162.21 32.112V41H158.338V39.5627C157.223 40.6969 155.463 41.264 153.058 41.264ZM151.181 36.336C151.181 37.392 152.129 37.92 154.026 37.92C155.356 37.92 156.353 37.6853 157.018 37.216C157.702 36.7271 158.142 35.9742 158.338 34.9573V34.6053H154.789C152.383 34.6053 151.181 35.1822 151.181 36.336ZM165.57 41V25.7467H169.442V27.1253C170.42 26.0302 171.925 25.4827 173.959 25.4827H175.426V29.0907H172.786C171.593 29.0907 170.733 29.4231 170.205 30.088C169.696 30.7529 169.442 31.848 169.442 33.3733V41H165.57ZM185.572 41V20.4667H197.158C199.466 20.4667 201.148 20.9067 202.204 21.7867C203.26 22.6471 203.788 24.0355 203.788 25.952C203.788 28.064 203.152 29.5404 201.881 30.3813C203.582 31.2027 204.433 32.8551 204.433 35.3387C204.433 37.3138 203.905 38.7511 202.849 39.6507C201.793 40.5502 200.101 41 197.774 41H185.572ZM189.708 37.128H197.774C198.752 37.128 199.456 36.9422 199.886 36.5707C200.336 36.1796 200.561 35.5733 200.561 34.752C200.561 33.9307 200.336 33.3342 199.886 32.9627C199.456 32.5716 198.752 32.376 197.774 32.376H189.708V37.128ZM189.708 28.768H197.041C198.058 28.768 198.791 28.592 199.241 28.24C199.71 27.888 199.945 27.3209 199.945 26.5387C199.945 25.776 199.72 25.2187 199.27 24.8667C198.82 24.5147 198.116 24.3387 197.158 24.3387H189.708V28.768ZM207.307 41V25.7467H211.179V27.1253C212.157 26.0302 213.662 25.4827 215.696 25.4827H217.163V29.0907H214.523C213.33 29.0907 212.47 29.4231 211.942 30.088C211.433 30.7529 211.179 31.848 211.179 33.3733V41H207.307ZM220.398 39.3867C219.166 38.1351 218.55 36.1307 218.55 33.3733C218.55 30.616 219.166 28.6115 220.398 27.36C221.63 26.1084 223.624 25.4827 226.382 25.4827C229.119 25.4827 231.094 26.1084 232.307 27.36C233.539 28.6115 234.155 30.616 234.155 33.3733C234.155 33.6471 234.135 34.0578 234.096 34.6053H222.51C222.764 36.8151 224.064 37.92 226.411 37.92C228.171 37.92 229.334 37.3236 229.902 36.1307H233.891C233.5 38.0276 232.669 39.3573 231.398 40.12C230.126 40.8827 228.454 41.264 226.382 41.264C223.624 41.264 221.63 40.6382 220.398 39.3867ZM226.411 28.8267C225.316 28.8267 224.446 29.0515 223.8 29.5013C223.155 29.9511 222.744 30.6942 222.568 31.7307H230.254C230.078 30.6942 229.667 29.9511 229.022 29.5013C228.396 29.0515 227.526 28.8267 226.411 28.8267ZM242.032 41.264C240.057 41.264 238.6 40.8924 237.661 40.1493C236.742 39.3867 236.283 38.1742 236.283 36.512C236.283 34.8107 236.791 33.5982 237.808 32.8747C238.825 32.1316 240.468 31.76 242.736 31.76H247.312C247.234 30.7235 246.911 29.9804 246.344 29.5307C245.796 29.0613 244.936 28.8267 243.763 28.8267C241.866 28.8267 240.751 29.5013 240.419 30.8507H236.605C236.84 28.9733 237.534 27.6142 238.688 26.7733C239.842 25.9129 241.582 25.4827 243.909 25.4827C246.452 25.4827 248.3 26.0107 249.453 27.0667C250.607 28.1031 251.184 29.7849 251.184 32.112V41H247.312V39.5627C246.197 40.6969 244.437 41.264 242.032 41.264ZM240.155 36.336C240.155 37.392 241.103 37.92 243 37.92C244.33 37.92 245.327 37.6853 245.992 37.216C246.676 36.7271 247.116 35.9742 247.312 34.9573V34.6053H243.763C241.357 34.6053 240.155 35.1822 240.155 36.336ZM259.501 25.7467H263.667V29.3547H259.501V35.2213C259.501 35.984 259.677 36.5413 260.029 36.8933C260.381 37.2258 260.968 37.392 261.789 37.392H263.931V41H261.672C259.56 41 258.025 40.5796 257.067 39.7387C256.108 38.8978 255.629 37.5484 255.629 35.6907V29.3547H253.4V25.7467H255.629V22.432H259.501V25.7467ZM270.39 41H266.518V19H270.39V27.272C271.407 26.0791 273.049 25.4827 275.318 25.4827C277.469 25.4827 279.033 26.04 280.011 27.1547C281.008 28.2498 281.507 30 281.507 32.4053V41H277.635V32.4053C277.635 31.2516 277.352 30.4107 276.784 29.8827C276.237 29.3547 275.367 29.0907 274.174 29.0907C272.844 29.0907 271.876 29.4329 271.27 30.1173C270.683 30.7822 270.39 31.8676 270.39 33.3733V41Z" fill="#495E4C"/>
</svg>
