<svg width="214" height="61" viewBox="0 0 214 61" fill="none" xmlns="http://www.w3.org/2000/svg">
<path fill-rule="evenodd" clip-rule="evenodd" d="M68.9143 60.9079C61.5741 61.116 53.4627 61.4184 48.5629 56.2573C43.4283 50.8487 42.7124 42.719 45.0906 35.8133C47.2458 29.5555 53.5254 25.9481 59.9115 23.3049C65.9363 20.8112 72.5174 19.6065 78.6149 21.9375C85.2304 24.4666 90.8694 29.3108 92.6695 35.828C94.531 42.5673 92.7058 49.9521 87.7872 55.1449C83.1515 60.0391 75.8678 60.7106 68.9143 60.9079Z" fill="#78C081" fill-opacity="0.15"/>
<path fill-rule="evenodd" clip-rule="evenodd" d="M2.52329 23.524C0.180896 31.8696 -0.354865 40.6156 0.2027 49.2039C-0.0496056 51.9342 1.4362 54.5704 3.41103 56.4513C6.30165 59.1876 11.9957 58.8145 15.7335 58.4292C22.5396 57.78 25.5672 51.5731 25.9659 45.5938C26.2712 35.2582 26.3459 24.3977 26.3241 14.0439C26.3194 13.749 26.3201 13.4395 26.3207 13.1214C26.3235 11.757 26.3266 10.2335 25.9099 9.02319C24.8975 5.6437 21.7484 4.43024 18.5836 5.07944C17.9441 5.28215 17.3282 5.54956 16.7459 5.87729C14.8454 6.90653 13.0692 8.13981 11.4506 9.55407C8.21454 12.3359 5.64094 15.7721 3.90942 19.6228C3.73838 19.9714 3.5648 20.4474 3.40408 20.8882C3.31309 21.1377 3.22622 21.376 3.14627 21.5734C2.98076 21.982 2.81177 22.5538 2.66409 23.0534C2.61443 23.2214 2.56719 23.3813 2.52329 23.524ZM0.2027 49.2039C1.19012 40.4639 2.57936 31.7604 5.74097 23.5331C7.45625 19.1991 10.3115 15.3805 14.0203 12.4603C14.3603 12.1747 14.8645 11.805 15.2755 11.5035C15.3578 11.4431 15.4365 11.3855 15.5093 11.3318C15.5093 11.3318 18.0572 9.1597 19.4371 9.04139C20.817 8.92308 21.5739 9.02015 21.8854 10.5127L21.982 11.2256L22.0038 12.0144C21.982 15.591 21.9664 22.2014 22.0038 25.8417C22.0505 31.093 22.1128 36.3442 22.2374 41.5924L22.3215 45.4209C22.3075 46.6138 22.1676 47.8022 21.9041 48.9672C21.3061 51.7248 19.786 54.4096 17.0293 55.4957C15.2538 56.1297 13.3257 56.3784 11.4568 56.5969C9.26702 56.785 6.97446 56.8972 4.9529 56.0114C2.4828 54.5734 0.48927 52.0828 0.2027 49.2039Z" fill="#78C081"/>
<path d="M55.6471 25.8277C56.8438 28.788 59.0239 33.4156 59.7772 38.9752C59.2372 28.8158 58.5343 28.788 58.1865 27.2303C57.6296 24.7368 56.8847 22.2869 55.9576 19.9005C53.3009 13.7481 48.5397 8.68435 42.485 5.57176C41.9697 5.29097 41.41 5.09599 40.8289 4.99484C40.4958 4.97662 40.3029 4.92197 39.839 4.92197C36.6794 4.74586 34.2887 6.76506 33.744 9.72858C33.4576 11.013 33.5354 12.5889 33.5354 13.855C33.498 20.7264 33.4825 29.2526 33.5977 36.1634C33.6444 38.6472 33.6755 41.1309 33.744 43.6147C33.7332 44.9558 33.8373 46.2955 34.0553 47.6197C35.0981 53.6348 38.5783 58.2835 45.2275 58.5507C48.5334 58.7845 52.0603 58.9211 55.1358 57.4576C57.5483 56.155 58.5306 53.9542 59.2372 51.5251C59.6993 49.9369 60.3252 48.3117 62.9543 45.7155C60.3252 47.2733 59.4548 48.057 57.696 52.4656C55.3396 56.3886 53.6479 56.8685 49.2462 56.5983C48.0194 56.5057 46.7992 56.3435 45.5917 56.1125C44.4959 55.8969 43.2975 55.6904 42.3169 55.1712C39.2943 53.6621 38.046 50.2735 37.6942 47.1278C37.573 45.9881 37.5449 44.8408 37.6102 43.6967C37.716 39.3729 37.8405 33.1695 37.8405 28.788C37.8405 24.4065 37.9059 18.1485 37.8405 13.8307C37.853 12.5524 37.576 10.597 38.2452 9.51603C38.7184 8.73871 39.4915 8.49697 40.7698 9.09397C46.1743 11.6657 50.59 15.8612 53.3677 21.0634C54.1769 22.6927 55.1294 24.5471 55.6471 25.8277Z" fill="#78C081"/>
<path d="M30.182 12.227C30.4016 11.7832 30.2194 11.2456 29.775 11.0262C29.3306 10.8069 28.7924 10.9888 28.5728 11.4326L24.3326 20.0007C24.113 20.4445 24.2952 20.9821 24.7395 21.2014C25.1839 21.4208 25.7222 21.2389 25.9418 20.7951L30.182 12.227Z" fill="#78C081"/>
<path d="M29.1187 12.227C28.8991 11.7832 29.0813 11.2456 29.5257 11.0262C29.9701 10.8069 30.5083 10.9888 30.728 11.4326L34.9682 20.0007C35.1878 20.4445 35.0056 20.9821 34.5612 21.2014C34.1168 21.4208 33.5785 21.2389 33.3589 20.7951L29.1187 12.227Z" fill="#78C081"/>
<path d="M28.7211 0.896237C28.7211 0.401258 29.1229 0 29.6186 0C30.1143 0 30.5162 0.401259 30.5162 0.896238V12.2512C30.5162 12.7462 30.1143 13.1475 29.6186 13.1475C29.1229 13.1475 28.7211 12.7462 28.7211 12.2512V0.896237Z" fill="#78C081"/>
<path d="M56.4555 55.1091C56.1812 54.5752 55.9039 54.0828 55.6211 53.5907C55.3382 53.0986 55.0502 52.6133 54.7482 52.1268C54.4461 51.6403 54.1288 51.1764 53.8199 50.7142C53.7395 50.5934 53.6487 50.4841 53.5631 50.368C53.4774 50.2519 53.3839 50.1428 53.29 50.0294C53.1961 49.916 53.0944 49.8096 52.9891 49.6926C52.9391 49.636 52.8843 49.5823 52.8251 49.5315C52.7685 49.4765 52.7091 49.4217 52.6551 49.3622C53.0196 49.4364 53.3618 49.5617 53.6651 49.7321C53.8186 49.8148 53.9645 49.9056 54.1017 50.0039C54.2416 50.1 54.3741 50.2025 54.4985 50.3108C54.9911 50.7376 55.4027 51.2177 55.7211 51.7373C56.0425 52.2519 56.2799 52.7974 56.4282 53.3615C56.5928 53.9323 56.6021 54.5274 56.4555 55.1091Z" fill="#78C081"/>
<path d="M56.1931 49.3396C55.9411 48.7348 55.5281 48.2027 54.9931 47.7936C54.4791 47.3949 53.892 47.0867 53.2593 46.8835C52.6214 46.6855 51.9617 46.5521 51.2915 46.4855C50.614 46.4091 49.9186 46.3732 49.2147 46.3384L49.8016 45.7525C49.9148 46.6075 50.0476 47.4572 50.1409 48.3149C50.1975 48.7424 50.2374 49.1748 50.3072 49.5707C50.3341 49.7737 50.377 49.9665 50.4282 50.1555C50.4813 50.345 50.5485 50.5305 50.6294 50.7107C50.9589 51.4438 51.4861 52.0812 52.1598 52.5611C52.8661 53.0717 53.7004 53.4055 54.5865 53.532C53.6302 53.6432 52.6659 53.469 51.8307 53.0342C50.9585 52.5916 50.247 51.9174 49.7835 51.0943C49.6684 50.8834 49.5697 50.6648 49.488 50.4401C49.4094 50.2208 49.3467 49.9966 49.3005 49.7689C49.199 49.3093 49.1427 48.8844 49.0761 48.4691C48.9419 47.6087 48.829 46.7564 48.7158 45.9014L48.6316 45.2655L49.3055 45.3151C50.029 45.3654 50.7485 45.4519 51.4609 45.5741C52.1942 45.6948 52.9054 45.9071 53.5757 46.2055C54.2548 46.5086 54.8554 46.9444 55.3381 47.4843C55.8184 48.0038 56.1166 48.6509 56.1931 49.3396Z" fill="#78C081"/>
<path d="M57.4187 49.0076C57.186 48.6257 57.0229 48.1991 56.9402 47.7562C56.8561 47.3074 56.8284 46.8532 56.858 46.4076C56.9352 45.5166 57.1527 44.6634 57.5005 43.8879C57.8415 43.0973 58.2877 42.3792 58.8246 41.7566C59.1062 41.4368 59.4216 41.1578 59.7649 40.9249C60.1051 40.7025 60.4636 40.5145 60.8368 40.3629C61.2022 40.2039 61.5736 40.0853 61.9397 39.9726C62.3059 39.86 62.6661 39.762 63.0328 39.6618C63.7589 39.4725 64.4675 39.2846 65.1366 39.0421C65.782 38.8208 66.3886 38.4948 66.939 38.0734C67.5188 37.6367 67.9865 37.0396 68.304 36.3307C68.5422 35.7397 68.7406 35.1152 68.9596 34.5094C68.8987 34.6862 69.0995 35.3098 69.1334 35.5229C69.3167 36.6612 69.3955 37.8072 69.3687 38.9418C69.3605 39.6873 69.3069 40.4264 69.2083 41.1538L69.1638 41.4352L69.0087 42.2358C68.9363 42.5858 68.8573 42.9378 68.7609 43.2915C68.5621 44.0116 68.2633 44.6817 67.8752 45.2778C67.6814 45.5701 67.4682 45.8444 67.2372 46.0984C67.0015 46.3457 66.7661 46.5717 66.5237 46.7874C66.0381 47.2198 65.5215 47.6072 64.9781 47.9464C63.8984 48.6226 62.7172 49.0933 61.4764 49.3417C62.5932 48.827 63.6417 48.1606 64.6009 47.3557C65.0728 46.9613 65.5195 46.5307 65.9383 46.0666C66.3519 45.6248 66.7193 45.1301 67.0345 44.5907C67.3223 44.0543 67.5314 43.4625 67.6543 42.8363C67.7226 42.5174 67.7806 42.1891 67.8315 41.8506L67.9051 41.3394L67.9429 41.0814L67.9727 40.8429C68.0351 40.1711 68.0625 39.4921 68.0547 38.8092C68.054 38.1152 68.4497 38.7844 67.7805 39.3232C67.1246 39.8342 66.3936 40.2188 65.6133 40.4634C64.8665 40.7105 64.1161 40.8698 63.3877 41.0303C62.6594 41.1908 61.9305 41.3388 61.2636 41.5552C60.9357 41.6574 60.6186 41.792 60.3158 41.9576C60.0171 42.1232 59.7392 42.3287 59.4873 42.5703C58.9558 43.0716 58.495 43.6614 58.1182 44.3228C57.7227 44.9815 57.431 45.72 57.2548 46.5091C57.0601 47.3125 57.1179 48.1935 57.4187 49.0076Z" fill="#78C081"/>
<path d="M74.92 55V46.66H73.32V45.34H74.92V44.6C74.92 43.6 75.1667 42.8267 75.66 42.28C76.1667 41.7333 76.8533 41.46 77.72 41.46C78.1067 41.46 78.4667 41.5133 78.8 41.62C79.1333 41.7267 79.4533 41.92 79.76 42.2L79.14 43.18C78.98 43.0333 78.8 42.92 78.6 42.84C78.4133 42.7467 78.1933 42.7 77.94 42.7C77.4467 42.7 77.0667 42.8667 76.8 43.2C76.5467 43.52 76.42 43.9867 76.42 44.6V45.34H78.38V46.66H76.42V55H74.92ZM82.1641 55V45.34H83.6641V46.9C84.0507 46.3933 84.5174 45.9733 85.0641 45.64C85.6107 45.3067 86.2174 45.14 86.8841 45.14V46.68C86.6974 46.64 86.4974 46.62 86.2841 46.62C86.0574 46.62 85.8107 46.6667 85.5441 46.76C85.2907 46.84 85.0374 46.9533 84.7841 47.1C84.5441 47.2467 84.3241 47.4133 84.1241 47.6C83.9241 47.7733 83.7707 47.96 83.6641 48.16V55H82.1641ZM95.1256 55.24C94.4056 55.24 93.7456 55.12 93.1456 54.88C92.5456 54.6267 92.0256 54.28 91.5856 53.84C91.159 53.3867 90.819 52.8533 90.5656 52.24C90.3256 51.6133 90.2056 50.92 90.2056 50.16C90.2056 49.4667 90.3256 48.8133 90.5656 48.2C90.8056 47.5733 91.1323 47.0333 91.5456 46.58C91.9723 46.1267 92.4723 45.7667 93.0456 45.5C93.6323 45.2333 94.2723 45.1 94.9656 45.1C95.699 45.1 96.3523 45.2333 96.9256 45.5C97.499 45.7667 97.9856 46.1333 98.3856 46.6C98.7856 47.0667 99.0856 47.62 99.2856 48.26C99.499 48.8867 99.6056 49.56 99.6056 50.28V50.66H91.7856C91.8123 51.1133 91.9123 51.5467 92.0856 51.96C92.259 52.36 92.4923 52.7133 92.7856 53.02C93.0923 53.3133 93.4523 53.5533 93.8656 53.74C94.279 53.9133 94.7456 54 95.2656 54C95.8256 54 96.3656 53.8933 96.8856 53.68C97.4056 53.4667 97.859 53.1667 98.2456 52.78L98.9656 53.76C98.4856 54.24 97.9256 54.6067 97.2856 54.86C96.6456 55.1133 95.9256 55.24 95.1256 55.24ZM98.1256 49.56C98.1256 49.2 98.059 48.8333 97.9256 48.46C97.8056 48.0733 97.6123 47.7267 97.3456 47.42C97.0923 47.1 96.7656 46.84 96.3656 46.64C95.9656 46.44 95.4923 46.34 94.9456 46.34C94.4256 46.34 93.9723 46.44 93.5856 46.64C93.199 46.84 92.8723 47.0933 92.6056 47.4C92.3523 47.7067 92.1523 48.0533 92.0056 48.44C91.8723 48.8133 91.799 49.1867 91.7856 49.56H98.1256ZM107.095 55.24C106.295 55.24 105.568 55.12 104.915 54.88C104.262 54.6267 103.688 54.24 103.195 53.72L103.975 52.64C104.295 53.0133 104.735 53.34 105.295 53.62C105.868 53.8867 106.488 54.02 107.155 54.02C107.902 54.02 108.468 53.8667 108.855 53.56C109.242 53.24 109.435 52.84 109.435 52.36C109.435 51.9733 109.288 51.68 108.995 51.48C108.702 51.2667 108.328 51.0933 107.875 50.96C107.435 50.8267 106.955 50.7067 106.435 50.6C105.928 50.48 105.448 50.32 104.995 50.12C104.555 49.9067 104.188 49.6333 103.895 49.3C103.602 48.9533 103.455 48.48 103.455 47.88C103.455 47.5067 103.535 47.1533 103.695 46.82C103.855 46.4733 104.088 46.1733 104.395 45.92C104.702 45.6667 105.075 45.4667 105.515 45.32C105.968 45.1733 106.482 45.1 107.055 45.1C107.882 45.1 108.588 45.24 109.175 45.52C109.762 45.7867 110.248 46.1133 110.635 46.5L109.935 47.54C109.642 47.1933 109.242 46.9067 108.735 46.68C108.242 46.44 107.682 46.32 107.055 46.32C106.388 46.32 105.862 46.4667 105.475 46.76C105.102 47.0533 104.915 47.4133 104.915 47.84C104.915 48.1867 105.062 48.4533 105.355 48.64C105.648 48.8267 106.015 48.9867 106.455 49.12C106.908 49.24 107.388 49.36 107.895 49.48C108.415 49.5867 108.895 49.7467 109.335 49.96C109.788 50.1733 110.162 50.4667 110.455 50.84C110.748 51.2 110.895 51.6933 110.895 52.32C110.895 52.72 110.815 53.1 110.655 53.46C110.495 53.82 110.255 54.1333 109.935 54.4C109.615 54.6533 109.215 54.8533 108.735 55C108.268 55.16 107.722 55.24 107.095 55.24ZM121.872 55V48.64C121.872 48.2133 121.819 47.86 121.712 47.58C121.605 47.3 121.459 47.0733 121.272 46.9C121.085 46.7267 120.852 46.6067 120.572 46.54C120.305 46.4733 120.012 46.44 119.692 46.44C119.399 46.44 119.112 46.48 118.832 46.56C118.552 46.64 118.285 46.7533 118.032 46.9C117.792 47.0333 117.565 47.1933 117.352 47.38C117.152 47.5533 116.979 47.74 116.832 47.94V55H115.332V41.66H116.832V46.74C117.005 46.54 117.212 46.3467 117.452 46.16C117.692 45.96 117.959 45.78 118.252 45.62C118.559 45.46 118.885 45.3333 119.232 45.24C119.579 45.1467 119.932 45.1 120.292 45.1C121.305 45.1 122.072 45.3533 122.592 45.86C123.112 46.3533 123.372 47.1267 123.372 48.18V55H121.872ZM141.563 55V53.9C140.75 54.7933 139.683 55.24 138.363 55.24C137.95 55.24 137.543 55.1733 137.143 55.04C136.743 54.9067 136.383 54.7067 136.063 54.44C135.743 54.16 135.483 53.82 135.283 53.42C135.083 53.02 134.983 52.56 134.983 52.04C134.983 51.5067 135.083 51.04 135.283 50.64C135.483 50.24 135.743 49.9067 136.063 49.64C136.383 49.3733 136.743 49.18 137.143 49.06C137.543 48.9267 137.95 48.86 138.363 48.86C139.03 48.86 139.63 48.9667 140.163 49.18C140.71 49.3933 141.177 49.7267 141.563 50.18V48.44C141.563 47.7867 141.33 47.2867 140.863 46.94C140.41 46.58 139.83 46.4 139.123 46.4C137.99 46.4 137.003 46.8467 136.163 47.74L135.463 46.7C136.49 45.6333 137.777 45.1 139.323 45.1C139.83 45.1 140.31 45.16 140.763 45.28C141.217 45.4 141.61 45.5933 141.943 45.86C142.29 46.1133 142.563 46.4467 142.763 46.86C142.963 47.2733 143.063 47.7733 143.063 48.36V55H141.563ZM138.903 54.16C139.437 54.16 139.937 54.06 140.403 53.86C140.883 53.66 141.27 53.36 141.563 52.96V51.14C141.27 50.74 140.883 50.44 140.403 50.24C139.937 50.04 139.437 49.94 138.903 49.94C138.197 49.94 137.623 50.14 137.183 50.54C136.743 50.9267 136.523 51.4333 136.523 52.06C136.523 52.6733 136.743 53.18 137.183 53.58C137.623 53.9667 138.197 54.16 138.903 54.16ZM148.81 43.96C148.544 43.96 148.31 43.8667 148.11 43.68C147.91 43.48 147.81 43.24 147.81 42.96C147.81 42.68 147.91 42.44 148.11 42.24C148.31 42.04 148.544 41.94 148.81 41.94C149.09 41.94 149.33 42.04 149.53 42.24C149.73 42.44 149.83 42.68 149.83 42.96C149.83 43.24 149.73 43.48 149.53 43.68C149.33 43.8667 149.09 43.96 148.81 43.96ZM148.07 55V45.34H149.57V55H148.07ZM154.563 55V45.34H156.063V46.9C156.449 46.3933 156.916 45.9733 157.463 45.64C158.009 45.3067 158.616 45.14 159.283 45.14V46.68C159.096 46.64 158.896 46.62 158.683 46.62C158.456 46.62 158.209 46.6667 157.943 46.76C157.689 46.84 157.436 46.9533 157.183 47.1C156.943 47.2467 156.723 47.4133 156.523 47.6C156.323 47.7733 156.169 47.96 156.063 48.16V55H154.563Z" fill="#78C081"/>
<path d="M74.012 22.3C74.012 19.528 74.6353 17.5187 75.882 16.272C77.1287 15.0253 79.138 14.402 81.91 14.402C84.286 14.402 86.0973 14.864 87.344 15.788C88.5907 16.6973 89.3607 18.142 89.654 20.122H86.486C86.2073 19.1393 85.694 18.4207 84.946 17.966C84.2127 17.5113 83.2007 17.284 81.91 17.284C80.2233 17.284 78.9987 17.6873 78.236 18.494C77.4733 19.286 77.092 20.5547 77.092 22.3C77.092 24.0453 77.4733 25.314 78.236 26.106C78.9987 26.898 80.2233 27.294 81.91 27.294C83.2007 27.294 84.2127 27.0667 84.946 26.612C85.694 26.1573 86.2073 25.4387 86.486 24.456H89.676C89.368 26.4507 88.5907 27.91 87.344 28.834C86.0973 29.7433 84.286 30.198 81.91 30.198C79.138 30.198 77.1287 29.5747 75.882 28.328C74.6353 27.0667 74.012 25.0573 74.012 22.3ZM91.9362 30V13.5H94.8402V30H91.9362ZM98.3167 28.79C97.3927 27.8513 96.9307 26.348 96.9307 24.28C96.9307 22.212 97.3927 20.7087 98.3167 19.77C99.2407 18.8313 100.737 18.362 102.805 18.362C104.858 18.362 106.339 18.8313 107.249 19.77C108.173 20.7087 108.635 22.212 108.635 24.28C108.635 24.4853 108.62 24.7933 108.591 25.204H99.9007C100.091 26.8613 101.067 27.69 102.827 27.69C104.147 27.69 105.019 27.2427 105.445 26.348H108.437C108.143 27.7707 107.52 28.768 106.567 29.34C105.613 29.912 104.359 30.198 102.805 30.198C100.737 30.198 99.2407 29.7287 98.3167 28.79ZM102.827 20.87C102.005 20.87 101.353 21.0387 100.869 21.376C100.385 21.7133 100.077 22.2707 99.9447 23.048H105.709C105.577 22.2707 105.269 21.7133 104.785 21.376C104.315 21.0387 103.663 20.87 102.827 20.87ZM114.543 30.198C113.061 30.198 111.969 29.9193 111.265 29.362C110.575 28.79 110.231 27.8807 110.231 26.634C110.231 25.358 110.612 24.4487 111.375 23.906C112.137 23.3487 113.369 23.07 115.071 23.07H118.503C118.444 22.2927 118.202 21.7353 117.777 21.398C117.366 21.046 116.721 20.87 115.841 20.87C114.418 20.87 113.582 21.376 113.333 22.388H110.473C110.649 20.98 111.169 19.9607 112.035 19.33C112.9 18.6847 114.205 18.362 115.951 18.362C117.857 18.362 119.243 18.758 120.109 19.55C120.974 20.3273 121.407 21.5887 121.407 23.334V30H118.503V28.922C117.667 29.7727 116.347 30.198 114.543 30.198ZM113.135 26.502C113.135 27.294 113.846 27.69 115.269 27.69C116.266 27.69 117.014 27.514 117.513 27.162C118.026 26.7953 118.356 26.2307 118.503 25.468V25.204H115.841C114.037 25.204 113.135 25.6367 113.135 26.502ZM123.926 30V18.56H126.83V19.594C127.564 18.7727 128.693 18.362 130.218 18.362H131.318V21.068H129.338C128.444 21.068 127.798 21.3173 127.402 21.816C127.021 22.3147 126.83 23.136 126.83 24.28V30H123.926ZM138.928 30V14.6H147.618C149.348 14.6 150.61 14.93 151.402 15.59C152.194 16.2353 152.59 17.2767 152.59 18.714C152.59 20.298 152.113 21.4053 151.16 22.036C152.436 22.652 153.074 23.8913 153.074 25.754C153.074 27.2353 152.678 28.3133 151.886 28.988C151.094 29.6627 149.825 30 148.08 30H138.928ZM142.03 27.096H148.08C148.813 27.096 149.341 26.9567 149.664 26.678C150.001 26.3847 150.17 25.93 150.17 25.314C150.17 24.698 150.001 24.2507 149.664 23.972C149.341 23.6787 148.813 23.532 148.08 23.532H142.03V27.096ZM142.03 20.826H147.53C148.292 20.826 148.842 20.694 149.18 20.43C149.532 20.166 149.708 19.7407 149.708 19.154C149.708 18.582 149.539 18.164 149.202 17.9C148.864 17.636 148.336 17.504 147.618 17.504H142.03V20.826ZM155.229 30V18.56H158.133V19.594C158.866 18.7727 159.996 18.362 161.521 18.362H162.621V21.068H160.641C159.746 21.068 159.101 21.3173 158.705 21.816C158.324 22.3147 158.133 23.136 158.133 24.28V30H155.229ZM165.047 28.79C164.123 27.8513 163.661 26.348 163.661 24.28C163.661 22.212 164.123 20.7087 165.047 19.77C165.971 18.8313 167.467 18.362 169.535 18.362C171.588 18.362 173.07 18.8313 173.979 19.77C174.903 20.7087 175.365 22.212 175.365 24.28C175.365 24.4853 175.35 24.7933 175.321 25.204H166.631C166.822 26.8613 167.797 27.69 169.557 27.69C170.877 27.69 171.75 27.2427 172.175 26.348H175.167C174.874 27.7707 174.25 28.768 173.297 29.34C172.344 29.912 171.09 30.198 169.535 30.198C167.467 30.198 165.971 29.7287 165.047 28.79ZM169.557 20.87C168.736 20.87 168.083 21.0387 167.599 21.376C167.115 21.7133 166.807 22.2707 166.675 23.048H172.439C172.307 22.2707 171.999 21.7133 171.515 21.376C171.046 21.0387 170.393 20.87 169.557 20.87ZM181.273 30.198C179.792 30.198 178.699 29.9193 177.995 29.362C177.306 28.79 176.961 27.8807 176.961 26.634C176.961 25.358 177.342 24.4487 178.105 23.906C178.868 23.3487 180.1 23.07 181.801 23.07H185.233C185.174 22.2927 184.932 21.7353 184.507 21.398C184.096 21.046 183.451 20.87 182.571 20.87C181.148 20.87 180.312 21.376 180.063 22.388H177.203C177.379 20.98 177.9 19.9607 178.765 19.33C179.63 18.6847 180.936 18.362 182.681 18.362C184.588 18.362 185.974 18.758 186.839 19.55C187.704 20.3273 188.137 21.5887 188.137 23.334V30H185.233V28.922C184.397 29.7727 183.077 30.198 181.273 30.198ZM179.865 26.502C179.865 27.294 180.576 27.69 181.999 27.69C182.996 27.69 183.744 27.514 184.243 27.162C184.756 26.7953 185.086 26.2307 185.233 25.468V25.204H182.571C180.767 25.204 179.865 25.6367 179.865 26.502ZM194.375 18.56H197.499V21.266H194.375V25.666C194.375 26.238 194.507 26.656 194.771 26.92C195.035 27.1693 195.475 27.294 196.091 27.294H197.697V30H196.003C194.419 30 193.268 29.6847 192.549 29.054C191.83 28.4233 191.471 27.4113 191.471 26.018V21.266H189.799V18.56H191.471V16.074H194.375V18.56ZM202.541 30H199.637V13.5H202.541V19.704C203.304 18.8093 204.536 18.362 206.237 18.362C207.851 18.362 209.024 18.78 209.757 19.616C210.505 20.4373 210.879 21.75 210.879 23.554V30H207.975V23.554C207.975 22.6887 207.763 22.058 207.337 21.662C206.927 21.266 206.274 21.068 205.379 21.068C204.382 21.068 203.656 21.3247 203.201 21.838C202.761 22.3367 202.541 23.1507 202.541 24.28V30Z" fill="#495E4C"/>
</svg>
