<svg width="43" height="43" viewBox="0 0 43 43" fill="none" xmlns="http://www.w3.org/2000/svg">
<g clip-path="url(#clip0_48_963)">
<path d="M10.4999 5.4979C13.3742 2.62355 17.271 1.00628 21.3359 1.00065C25.4009 1.00628 29.2977 2.62355 32.172 5.4979C35.0464 8.37225 36.6637 12.2691 36.6693 16.334C36.6693 19.0693 35.7793 22.0207 34.3943 24.9469C33.0119 27.8676 31.1557 30.7231 29.2688 33.2557C25.4996 38.3149 21.6495 42.0311 21.3359 42.3315C21.0224 42.0311 17.1723 38.3149 13.403 33.2557C11.5162 30.7231 9.65996 27.8676 8.27758 24.9469C6.89265 22.0208 6.0027 19.0697 6.0026 16.3344C6.00812 12.2694 7.6254 8.37235 10.4999 5.4979ZM21.3359 24.334L21.3363 24.334C23.4576 24.3327 25.4916 23.4895 26.9915 21.9896C28.4915 20.4896 29.3347 18.4556 29.3359 16.3344V16.334C29.3359 14.7517 28.8668 13.205 27.9877 11.8894C27.1087 10.5738 25.8592 9.54846 24.3974 8.94295C22.9356 8.33745 21.3271 8.17903 19.7752 8.48771C18.2234 8.79639 16.7979 9.55832 15.6791 10.6771C14.5603 11.796 13.7983 13.2214 13.4897 14.7733C13.181 16.3251 13.3394 17.9337 13.9449 19.3955C14.5504 20.8573 15.5758 22.1067 16.8914 22.9858C18.207 23.8648 19.7537 24.334 21.3359 24.334Z" fill="#78C081" stroke="#577A5B" stroke-width="1.33333"/>
</g>
<defs>
<clipPath id="clip0_48_963">
<rect width="42.6667" height="42.6667" fill="white" transform="translate(0.00390625 0.333984)"/>
</clipPath>
</defs>
</svg>
