<svg width="1920" height="330" viewBox="0 0 1920 330" fill="none" xmlns="http://www.w3.org/2000/svg">
<rect width="1920" height="330" fill="#D9FADD"/>
<g opacity="0.3">
<g style="mix-blend-mode:soft-light">
<path fill-rule="evenodd" clip-rule="evenodd" d="M669.78 305.061C669.78 305.061 391.483 293.488 91.6431 218.257Z" fill="white"/>
</g>
<g style="mix-blend-mode:soft-light">
<path fill-rule="evenodd" clip-rule="evenodd" d="M1418.82 236.375C1418.82 236.375 1133.89 273.142 947.632 259.098Z" fill="white"/>
</g>
<g style="mix-blend-mode:soft-light">
<path fill-rule="evenodd" clip-rule="evenodd" d="M849.613 252.883C849.613 252.883 562.588 261.198 378.492 228.731Z" fill="white"/>
</g>
<g style="mix-blend-mode:soft-light">
<path fill-rule="evenodd" clip-rule="evenodd" d="M1663.81 156.594C1663.81 156.594 1378.88 193.36 1192.62 179.317Z" fill="white"/>
</g>
<g style="mix-blend-mode:soft-light">
<path fill-rule="evenodd" clip-rule="evenodd" d="M1356.54 196.749C1356.54 196.749 1121.94 232.713 883.557 216.193C645.179 199.672 211.684 58.0195 211.684 58.0195C211.684 58.0195 582.713 182.502 885.274 205.96C1187.84 229.418 1356.54 196.749 1356.54 196.749Z" fill="white"/>
</g>
<g style="mix-blend-mode:soft-light">
<path fill-rule="evenodd" clip-rule="evenodd" d="M1604.14 247.89C1604.14 247.89 1362.06 275.114 1065.58 274.821L1315.75 271.738C1315.75 271.738 1134.74 290.237 991.318 286.583C991.318 286.583 1368.25 286.074 1595.81 269.626L1604.14 247.89Z" fill="white"/>
</g>
<path fill-rule="evenodd" clip-rule="evenodd" d="M690.54 135.464C690.54 135.464 1079.65 120.575 1234.75 147.417L690.54 135.464Z" fill="white" style="mix-blend-mode:screen"/>
<path fill-rule="evenodd" clip-rule="evenodd" d="M0.00100309 98.1962C0.00100309 98.1962 389.114 83.3071 544.215 110.15L0.00100309 98.1962Z" fill="white" style="mix-blend-mode:screen"/>
<g style="mix-blend-mode:soft-light">
<path fill-rule="evenodd" clip-rule="evenodd" d="M519.916 54.182C519.916 54.182 896.228 26.7499 1139.7 64.7471Z" fill="white"/>
</g>
<g style="mix-blend-mode:soft-light">
<path fill-rule="evenodd" clip-rule="evenodd" d="M882.188 109.785C882.188 109.785 1193.12 61.6194 1504.58 116.258Z" fill="white"/>
</g>
</g>
<g clip-path="url(#clip0_95_3)">
<path d="M1745.77 271.782C1745.57 271.706 1745.37 271.612 1745.19 271.502L1741.51 271.252C1741.23 270.71 1741.02 270.297 1740.88 269.954C1740.38 285 1741.75 319.618 1719 318.442C1719.2 319.548 1719.43 320.654 1719.59 321.76C1742.68 318.564 1747.28 291.056 1747.15 271.631C1746.95 271.777 1746.72 271.867 1746.48 271.894C1746.24 271.92 1745.99 271.882 1745.77 271.782V271.782Z" fill="#EDFFEF"/>
<path d="M1716.06 59.668L1716.62 60.5415C1716.44 60.2589 1716.25 59.9678 1716.06 59.668Z" fill="#EDFFEF"/>
<path d="M1661.9 292.442C1661.52 291.673 1661.16 290.884 1660.84 290.076C1659.65 287.684 1658.33 284.945 1657.19 281.967C1658.22 286.39 1659.92 290.533 1662.57 293.839C1662.31 293.393 1662.08 292.926 1661.9 292.442V292.442Z" fill="#EDFFEF"/>
<path d="M1792.98 123.065L1792.9 123.377L1793.02 123.084L1792.98 123.065Z" fill="#EDFFEF"/>
<path d="M1682.3 309.202C1682.27 309.189 1682.3 309.202 1682.3 309.202V309.202Z" fill="#EDFFEF"/>
<path d="M1757.45 11.3975C1757.15 11.9503 1756.77 12.5032 1756.46 13.0451C1759.5 13.9555 1761.65 15.1092 1764.31 16.6794C1761.63 15.5025 1758.86 14.5509 1756.03 13.8339C1754.59 16.3735 1748.09 15.7247 1748.78 12.4479C1726.1 9.44024 1676.77 15.1055 1672.66 45.0426C1672.24 42.4624 1680.48 19.7977 1681.44 21.0583C1679.82 18.9352 1674.76 26.0158 1674.26 27.2838C1674.56 27.1437 1674.86 27.0037 1675.17 26.8857C1674.86 27.0037 1674.56 27.1437 1674.26 27.2875C1671.28 34.6593 1671 41.7142 1671.91 49.462C1672.07 50.7779 1675.89 66.5094 1676.35 65.7943C1683.84 82.204 1700.63 97.9134 1715.22 110.785C1715.22 110.67 1715.22 110.556 1715.22 110.446C1717.05 110.346 1718.09 111.64 1719.35 112.532C1720.28 111.997 1721.12 112.005 1721.87 112.558C1722.48 113.903 1719.33 113.844 1718.93 113.457H1718.24C1724.5 118.942 1734.63 125.333 1738.6 132.963C1741.74 138.986 1739.99 145.307 1744.73 150.954C1740.44 152.897 1736.97 156.353 1734.95 160.696L1737.34 161.894C1737.82 162.734 1738.3 163.577 1738.78 164.422C1737.44 164.662 1736.62 165.336 1736.66 166.696C1740.04 170.928 1730.33 176.32 1728.54 166.42C1713.82 167.426 1697.52 171.79 1685.92 181.532C1688.43 182.347 1685.1 183.007 1684.42 182.933C1682.39 184.872 1678.75 187.857 1677.6 189.343C1679.4 186.976 1681.19 184.275 1683.37 182.258C1683.15 181.718 1683.52 181.371 1684.48 181.219C1697.16 168.982 1711.77 166.276 1728.5 166.276C1728.21 164.722 1727.61 163.247 1726.73 161.953C1718.08 161.894 1709.31 163.796 1700.85 167.353C1701 167.962 1700.97 168.602 1700.77 169.195C1700.08 171.263 1698.71 168.856 1698.55 168.359C1677.57 177.975 1658.78 197.632 1648.98 222.155C1650.02 221.786 1651.05 221.547 1651.87 221.289C1656.17 222.66 1650.33 226.394 1647.9 224.997C1647.18 226.987 1646.51 229.004 1645.9 231.049C1646.16 230.802 1646.54 231.182 1646.7 231.418C1646.41 231.538 1646.08 231.555 1645.78 231.465C1643.44 239.538 1641.73 248.262 1642.29 256.732C1641.62 253.695 1642.39 223.799 1644.04 224.569C1638.76 222.088 1639.33 248.012 1639.29 247.702C1641.28 264.72 1648.82 281.834 1661.09 293.529C1642.39 275.232 1642.16 239.084 1656.51 218.067C1648.84 229.353 1646.61 250.758 1649.87 264.816C1649.74 255.969 1651.25 243.998 1655.05 235.995C1652.51 241.34 1652.65 253.231 1652.25 259.862C1652.58 259.553 1652.99 259.337 1653.42 259.235C1653.86 259.132 1654.31 259.148 1654.74 259.279C1656.15 249.987 1658.57 239.604 1662.28 230.957C1659.34 237.754 1657.14 251.664 1656.43 259.902C1658 261.011 1657.9 262.212 1656.12 263.507C1655.63 269.176 1655.76 275.84 1657.19 281.974C1658.36 284.944 1659.66 287.683 1660.85 290.083C1655.59 276.725 1658.31 258.557 1663.82 245.966C1660.03 254.654 1658.42 281.399 1661.61 291.568C1662.2 292.729 1662.74 293.78 1663.21 294.734C1662.96 294.463 1662.75 294.165 1662.57 293.846C1659.94 290.529 1658.23 286.397 1657.19 281.974C1655.07 276.566 1653.42 270.396 1653.77 264.193C1653.21 264.048 1652.7 263.74 1652.31 263.304C1652.94 277.609 1654.21 288.207 1666.07 297.952C1655.52 282.925 1664.24 252.556 1671.23 237.448C1664.9 251.2 1656.92 291.019 1671.07 302.567C1664.4 289.15 1665.77 268.022 1672.5 254.624C1672.59 254.425 1672.69 254.233 1672.79 254.045C1672.69 254.233 1672.6 254.432 1672.5 254.624C1667.37 265.295 1667.16 290.304 1670.92 301.664C1673.17 303.297 1675.45 304.826 1677.74 306.256C1666.81 294.189 1672.46 263.433 1677.55 249.265C1677.62 249.071 1677.69 248.883 1677.76 248.701L1677.55 249.265C1673.31 261.395 1669.22 301.605 1681.97 309.01C1673 296.931 1676.23 275.099 1680.42 261.543C1677.25 271.775 1675.97 299.168 1682.29 309.187C1682.53 309.227 1687.03 310.941 1684.39 310.149C1685.56 310.79 1686.72 311.402 1687.87 311.992C1686.68 310.532 1685.8 308.839 1685.26 307.016C1684.19 307.624 1683.47 305.372 1684.72 304.871C1681.28 289.102 1681.75 269.515 1686.11 253.769C1686.18 253.518 1686.24 253.271 1686.31 253.032C1686.24 253.275 1686.18 253.518 1686.11 253.769C1682.78 266.323 1681.26 301.686 1688.7 312.416C1696.98 316.607 1707.18 322.165 1716.66 321.999C1716.38 320.739 1716.55 319.42 1717.11 318.269C1715.73 318.096 1705.96 316.116 1706.5 314.682C1706.68 314.2 1715.42 316.091 1716.87 316.205C1706.55 306.562 1707.11 280.654 1712.85 268.28C1708.68 277.495 1709.5 308.225 1717.03 316.197C1718.17 316.285 1719.32 316.312 1720.47 316.278C1717.55 301.697 1718.32 282.95 1722.76 268.605C1722.48 269.493 1723.03 274.248 1722.76 276.194C1724.06 276.116 1725.37 276.276 1726.62 276.666C1728.42 271.244 1728.14 259.567 1727.52 254.76C1728.52 262.357 1729.19 269.976 1728.6 277.654C1729.64 278.401 1730.5 279.39 1731.11 280.54C1732.11 276.799 1732.16 272.681 1733.26 268.981C1733.32 268.778 1733.38 268.575 1733.45 268.384C1733.38 268.583 1733.32 268.782 1733.26 268.981C1731.55 274.83 1731.83 285.357 1730.39 292.106C1728.56 300.676 1724.74 307.495 1721.35 315.453C1726.01 304.554 1727.81 292.173 1731.04 280.779C1730.21 280.455 1729.33 280.345 1728.45 280.459C1728.45 287.462 1725.86 294.893 1724.48 301.701C1725.77 295.136 1725.09 287.764 1725.96 281.041C1724.63 280.411 1723.68 277.724 1722.68 276.563C1720.96 288.641 1718.92 304.229 1720.53 316.29C1729.68 316.054 1736.79 303.426 1738.06 295.28C1737.02 295.467 1736.19 295.039 1735.54 293.997C1735.27 292.891 1737.92 293.3 1738.31 293.378C1739.56 281.322 1739.9 269.185 1739.33 257.075C1738.63 257.396 1737.96 257.761 1737.25 258.045C1737.97 257.761 1738.63 257.396 1739.33 257.075C1737.85 238.24 1741.41 213.434 1730.31 197.194C1729.35 197.357 1728.44 197.751 1727.65 198.344C1727.82 200.344 1728.62 201.79 1730.05 202.682C1728.61 201.79 1727.81 200.344 1727.65 198.344L1721.61 199.45C1721.34 200.388 1721.27 201.371 1721.38 202.341C1721.5 203.31 1721.81 204.244 1722.3 205.085C1724.96 204.691 1727.1 203.784 1729.55 202.638C1721.59 206.353 1708.47 213.74 1703.91 220.577C1707.25 215.5 1711.52 211.135 1716.47 207.721C1716.05 207.662 1715.63 207.606 1715.21 207.559C1714.74 206.56 1714.27 205.561 1713.73 204.403L1717.66 201.204C1711.37 205.034 1702.09 208.863 1697.84 214.167C1703.22 207.407 1709.77 201.753 1718.1 199.486C1718.1 198.082 1717.55 192.28 1719.49 193.161C1720.98 194.179 1721.63 195.653 1721.41 197.584C1726.63 198.344 1726.39 193.699 1730.42 192.667C1730.52 192.712 1733.4 194.835 1733.37 195.108L1731.8 196.855C1733.33 199.016 1734.58 201.37 1735.52 203.858C1735.72 202.936 1739.07 189.247 1742.16 193.972C1740.05 190.747 1735.67 211.643 1737.23 210.352C1740.71 228.539 1741.54 250.083 1740.93 268.675C1742.51 266.876 1744.54 266.177 1747.03 266.578C1746.52 253.146 1744.52 239.35 1742.91 227.684C1742.36 227.835 1741.79 228.034 1741.22 228.218C1740.28 226.272 1740.36 224.226 1740.53 222.17C1741.07 222.967 1741.72 223.682 1742.46 224.293C1741.64 218.196 1739.41 209.501 1741 203.349C1742.16 198.86 1745.59 197.124 1747.04 192.807C1744.64 191.901 1733.3 184.739 1735.34 180.589C1734.92 179.365 1734.62 178.102 1734.44 176.818C1734.88 177.931 1735.41 179.003 1736.03 180.021C1736.85 179.756 1745.95 187.725 1749.19 188.093C1755.76 188.83 1762.91 185.458 1766.86 180.235C1776.62 167.334 1766.74 161.131 1761.15 151.282C1759.35 150.384 1757.43 149.777 1755.45 149.483C1758.93 149.006 1762.48 149.484 1765.73 150.868C1768.97 152.252 1771.81 154.493 1773.94 157.364C1778.64 153.592 1782.79 149.141 1786.26 144.15C1785.4 144.364 1784.58 144.686 1783.8 145.108C1783.83 144.205 1783.85 143.306 1783.87 142.403C1780.41 144.983 1776.99 148.005 1773.23 150.073C1781.78 145.259 1789.22 132.428 1792.9 123.379L1792.99 123.07C1792.8 122.994 1792.66 122.851 1792.57 122.67C1792.49 122.489 1792.47 122.281 1792.53 122.088C1792.58 121.895 1792.7 121.729 1792.87 121.623C1793.04 121.518 1793.23 121.479 1793.43 121.514C1794.08 119.108 1794.93 116.764 1795.98 114.511C1794.93 116.649 1794.36 119.281 1793.61 121.559C1793.55 121.536 1793.49 121.518 1793.43 121.507C1793.28 122.019 1793.13 122.539 1792.99 123.062L1793.02 123.081L1792.9 123.372C1791.26 129.27 1789.67 135.609 1785.46 140.862C1786.1 141.483 1786.63 142.217 1787.03 143.029C1812.22 105.68 1805.58 27.763 1757.45 11.3975ZM1658.37 227.603C1656.97 229.288 1655.59 229.625 1654.21 228.613C1653.74 226.784 1654.83 225.773 1657.49 225.579C1658.36 226.032 1658.67 226.703 1658.37 227.603ZM1735.05 256.637C1734.84 261.428 1737.47 269.003 1736.83 275.21C1736.11 282.066 1733.29 287.432 1731.65 294.008C1733.02 288.501 1733.19 282.552 1734.3 276.942C1735.63 269.887 1734.74 263.669 1735.05 256.637ZM1681.51 187.374C1686 186.092 1686.15 186.059 1687.61 188.661C1699.76 176.276 1715.1 175.004 1730.97 173.084C1717.07 174.794 1698.86 179.84 1688.22 189.719C1688.55 190.264 1688.9 190.802 1689.25 191.366C1688.24 192.262 1687.45 191.525 1686.85 191.042C1685.13 192.638 1681.68 195.598 1680.82 196.737C1682.42 194.599 1683.99 192.133 1685.91 190.279C1684.71 189.24 1683.54 188.078 1681.51 187.374ZM1732.15 181.558C1715.18 182.424 1693.21 190.979 1683.13 204.58C1696.17 186.976 1711.58 182.66 1732.15 181.558ZM1682.27 248.214C1682.17 249.625 1682.07 251.038 1681.97 252.453L1679 252.427C1679.17 250.896 1679.34 249.367 1679.51 247.838L1674.16 247.554C1673.8 242.214 1677.94 243.271 1681.96 243.282C1684.7 242.457 1684.7 242.457 1686.62 244.757C1685.76 246.89 1684.31 248.042 1682.27 248.214V248.214ZM1688.11 216.493C1687.08 214.919 1691.11 215.959 1689.19 216.906C1688.99 216.936 1688.78 216.913 1688.6 216.841C1688.41 216.769 1688.24 216.649 1688.11 216.493V216.493ZM1716.57 297.919C1716.64 298.064 1716.69 298.216 1716.73 298.372C1716.69 298.216 1716.64 298.064 1716.57 297.919V297.919ZM1716.7 297.731C1716.68 297.794 1716.66 297.856 1716.64 297.915L1716.55 297.838C1716.59 297.79 1716.64 297.753 1716.7 297.731L1716.95 296.994C1717.56 297.521 1717.02 297.576 1716.7 297.716V297.731ZM1718.14 213.298C1718.45 212.044 1720.26 210.26 1721.48 211.565C1722.88 213.04 1719.24 213.865 1718.14 213.301V213.298ZM1710.91 221.008C1711.19 220.64 1711.94 220.618 1712.23 220.522C1712.92 220.64 1717.77 220.625 1717.1 222.464C1721.55 219.645 1728.09 213.725 1732 209.984C1726.21 215.594 1720.67 222.98 1714.22 227.857C1714 228.026 1716.06 223.773 1716.51 223.091C1715.65 223.629 1708.48 224.071 1710.91 221.008V221.008ZM1702.7 259.53C1704.39 258.915 1706.25 259.001 1707.88 259.77C1708.05 258.774 1708.28 257.79 1708.57 256.821C1708.72 256.39 1708.79 259.519 1708.69 260.094C1710.08 260.727 1711.56 261.124 1713.08 261.27C1715.21 259.08 1715.71 258.398 1718.39 260.466C1718.34 259.025 1718.42 257.581 1718.65 256.157C1718.83 255.273 1719.19 260.879 1719.2 261.004L1720.23 261.266C1720.26 261.734 1720.3 262.202 1720.33 262.67L1719.33 262.748C1719.4 263.986 1719.25 265.236 1719.29 266.478C1720.1 266.721 1720.9 266.968 1721.73 267.164C1720.9 266.968 1720.1 266.721 1719.29 266.478C1719.7 280.234 1717.26 294.683 1718.99 308.306C1717.42 296.021 1717.29 284.952 1717.55 272.582C1717.37 272.889 1717.11 273.143 1716.81 273.319C1716.74 272.626 1716.66 271.929 1716.59 271.233C1716.99 271.373 1717.34 271.647 1717.57 272.011C1717.66 269.04 1717.84 265.8 1718.21 262.836L1715.77 263.028C1715.6 263.223 1715.43 263.422 1715.26 263.614C1712.9 263.688 1710.66 263.245 1708.44 262.648V262.7C1708.56 262.752 1708.55 262.774 1708.44 262.77C1708.17 277.551 1704.9 293.293 1708.71 307.871C1704.72 292.714 1703.76 278.14 1707.47 262.619C1705.1 262.136 1699.8 260.621 1702.7 259.53ZM1698.86 279.6C1699.14 275.873 1699.79 272.186 1700.81 268.597C1700.83 268.535 1700.85 268.472 1700.87 268.409C1700.95 268.148 1701.03 267.893 1701.11 267.646C1701.03 267.897 1700.95 268.151 1700.87 268.409C1700.85 268.472 1700.83 268.535 1700.81 268.597C1699.8 271.977 1699.3 275.936 1698.85 279.615C1697.67 293.135 1699.8 310.532 1708.13 317.322C1696.35 307.93 1696.98 296.754 1698.47 282.707C1698.6 281.701 1698.72 280.661 1698.86 279.6ZM1698.09 253.798C1696.34 264.41 1695.22 275.424 1695.67 286.187C1696.32 286.695 1696.92 287.237 1697.6 287.705C1697.21 288.288 1696.83 288.872 1696.44 289.46C1696.26 289.515 1696.08 289.552 1695.9 289.6C1696.61 297.959 1693.79 311.1 1703.6 314.638C1693.91 311.649 1693.24 296.843 1693.38 288.14L1692.7 287.595L1690.6 288.044C1690.68 292.504 1691.27 296.835 1691.63 301.266C1693.43 300.975 1693.87 302.408 1691.82 302.84C1692.95 308.074 1696.43 311.73 1698.84 316.278C1694.38 308.195 1689.19 304.601 1688.49 294.565C1687.92 286.223 1688.68 274.44 1690.9 266.353C1689.59 271.104 1690.45 282.202 1690.6 288.044L1692.69 287.58C1692.95 287.241 1693.17 286.961 1693.37 286.717C1693.22 275.601 1696.45 263.618 1698.09 253.787L1698.09 253.798ZM1735.82 186.188C1735.4 186.243 1734.98 186.291 1734.55 186.335C1717.63 188.499 1705.98 200.618 1693.51 211.031C1707.16 199.66 1713.48 189.177 1733.5 186.42C1733.85 186.394 1734.21 186.361 1734.55 186.328C1734.96 186.28 1735.38 186.228 1735.82 186.188ZM1766.26 17.5861C1766.42 17.6547 1766.57 17.736 1766.72 17.8294C1766.53 17.7299 1766.33 17.6267 1766.13 17.5308L1766.26 17.5861ZM1775.09 49.8011C1770.82 38.806 1756.08 20.0188 1745.57 13.6164C1759.19 21.8434 1769.09 34.3681 1775.09 49.7974V49.8011ZM1749.98 18.1022L1749.86 18.1759L1749.98 18.1022ZM1754.87 29.7128C1755.46 29.5654 1755.91 30.0814 1756.25 30.6269C1758.49 30.9095 1759.34 32.2844 1758.8 34.7515C1766.98 44.4307 1770.4 55.7207 1776.31 66.7084C1770.71 56.1925 1763.83 45.8866 1757.49 35.8278C1756.59 36.1963 1752.13 36.7677 1751.59 35.4334C1751.81 33.7305 1752.84 32.5141 1754.67 31.7843C1752.97 27.4349 1745.64 19.7682 1741.55 19.1416C1748.24 19.923 1750.7 25.4261 1754.87 29.7128ZM1770.69 126.487C1771.57 113.991 1770.84 104.832 1768.39 92.6905C1769.44 97.895 1773.53 104.154 1773.85 111.057C1774.18 118.256 1771.92 123.851 1770.57 130.799C1770.98 128.566 1770.56 128.739 1770.69 126.487V126.487ZM1767.34 65.9638C1764.72 67.5193 1763.51 61.8282 1765.97 60.5382C1768.72 62.0224 1769.18 63.8309 1767.34 65.9638V65.9638ZM1766.98 88.6323C1766.18 89.0414 1764.97 86.0263 1766.35 85.2449C1767.59 85.455 1768.6 87.8214 1766.97 88.6323H1766.98ZM1773 89.4616C1773.01 89.5501 1773.03 89.6348 1773.05 89.7196C1773.07 89.8044 1773.12 89.9887 1773.16 90.1214C1773.16 90.1435 1773.16 90.1656 1773.18 90.1877C1773.56 91.3314 1774.19 92.3688 1775.03 93.2176L1775.14 93.3355C1775.16 93.6304 1775.19 93.9289 1775.21 94.2238L1775.14 93.3355L1775.03 93.2176C1774.19 92.3688 1773.56 91.3314 1773.18 90.1877C1773.18 90.1656 1773.18 90.1435 1773.16 90.1214C1773.12 89.9887 1773.08 89.8523 1773.05 89.7196C1773.02 89.5869 1773.01 89.5501 1773 89.4616C1772.98 89.3731 1772.96 89.3179 1772.95 89.2441C1772.76 88.1148 1772.76 86.9603 1772.95 85.831C1772.76 86.9603 1772.76 88.1148 1772.95 89.2441C1772.96 89.3326 1772.98 89.4063 1773 89.4616ZM1775.29 127.795L1775.32 127.832C1774.61 129.518 1773.63 130.025 1772.4 129.354C1772.42 127.932 1773.39 127.427 1775.29 127.814V127.795ZM1764.24 132.218C1764.36 131.065 1764.24 129.513 1764.33 128.344C1764.35 128.02 1764.37 127.703 1764.38 127.382C1764.05 115.89 1759.45 100.221 1753.35 93.2507C1762.27 103.498 1765.14 114.106 1764.38 127.382C1764.44 129.004 1764.39 130.629 1764.24 132.244V132.218ZM1750.58 110.471C1747.52 104.574 1741.94 97.0104 1736.95 93.8036C1750.63 102.602 1756.75 114.887 1759.22 130.888C1758.25 124.058 1753.81 116.479 1750.58 110.471ZM1751.25 130.655C1743.09 117.018 1733.21 106.929 1721.41 96.8961C1726.65 101.319 1734.64 104.544 1740.02 111.094C1744.95 117.084 1747.35 124.017 1751.25 130.655ZM1757.71 76.841C1756.58 77.0867 1755.86 76.6997 1755.57 75.6799C1755.64 73.9144 1760.88 74.8432 1760.53 76.2144C1760.17 76.5803 1759.72 76.8328 1759.22 76.9425C1758.72 77.0521 1758.21 77.0144 1757.73 76.8336L1757.71 76.841ZM1758.57 91.2788L1758.14 91.4188L1758.21 90.9802L1758.57 91.2788ZM1757.29 86.8188C1756.93 89.292 1753.65 87.4712 1753.88 85.455C1754.2 82.897 1757.27 85.7241 1757.32 86.8114L1757.29 86.8188ZM1761.81 87.9872L1761.88 87.556L1762.24 87.8472L1761.81 87.9872ZM1757.28 41.0691L1756.82 40.9991L1757.13 40.6674L1757.28 41.0691ZM1758.42 49.2851C1754.48 39.3036 1740.12 21.7328 1730.38 16.1855C1743.29 23.4431 1752.78 34.8547 1758.42 49.2851ZM1716.86 18.0321C1720.67 19.9857 1723.37 20.8076 1726.77 23.69C1727.25 22.8717 1727.8 22.5855 1728.43 22.8312C1727.74 22.3152 1724.27 19.0199 1724.13 18.9352C1737.85 27.8809 1747.79 41.2645 1752.99 57.0771C1753.06 53.5091 1760.32 55.5732 1759.79 59.0306C1758.28 59.8268 1754.37 59.2112 1753.17 57.6447C1754.2 61.4302 1755.74 64.9355 1757.26 68.544C1750.45 52.7203 1741.83 35.0648 1729.12 23.432C1729.41 24.3938 1729.62 25.3807 1729.74 26.3807C1735.33 31.4046 1741.2 43.1148 1743.68 50.2655C1741.52 44.0289 1732.8 33.8742 1728.01 28.2532C1725.92 28.9498 1724.13 28.4633 1722.45 30.8038C1731.12 41.9759 1736.43 51.633 1743.36 63.8776C1744.98 62.9303 1748.1 63.0999 1747.98 65.9122C1747.36 66.9259 1743.31 71.1426 1741.82 69.0121C1740.64 67.0831 1741.09 65.411 1743.16 63.9956C1735.49 53.675 1730.6 41.4193 1721.77 31.928C1721.69 32.0718 1721.61 32.2192 1721.53 32.3704C1721.77 33.4663 1722 34.5635 1722.22 35.6619C1719.28 34.8952 1719.28 34.8952 1719.85 32.1676C1719.59 31.1798 1719.07 30.192 1718.91 29.2189C1716.62 27.3501 1713.1 24.0254 1711.34 23.0302C1713.93 24.5046 1716.72 25.8389 1719.02 27.7666C1719.19 27.2872 1719.47 26.8584 1719.85 26.5171C1721.89 26.9963 1723.88 26.296 1725.9 26.2407C1725.99 26.0527 1726.07 25.8721 1726.16 25.6694C1723.26 22.0387 1720.9 20.122 1716.86 18.0321ZM1713.24 29.5175L1712.85 29.3811L1713.16 29.182L1713.24 29.5175ZM1730.19 55.8829C1727.1 46.2995 1711.92 30.8997 1703.73 24.5046C1714.48 32.8237 1725.65 41.8063 1730.19 55.8829V55.8829ZM1719.01 49.7642C1719.27 49.6052 1719.55 49.4719 1719.85 49.3661C1720.16 50.4019 1720.31 50.9843 1720.08 51.316C1723.19 55.4737 1725.94 60.6819 1727.21 65.809C1729.58 66.373 1731.08 67.7847 1732.47 69.7788C1731.22 72.5543 1729.31 68.8757 1728.06 68.3966C1729.18 70.5823 1730.21 72.8197 1731.3 75.0091C1730.13 72.5985 1728.36 70.586 1727.12 68.2086C1726.78 68.2086 1723.06 70.3943 1722.12 69.2075C1721.18 68.0206 1724.79 65.0755 1725.79 65.422C1725.55 64.8519 1725.28 64.2979 1724.97 63.7634L1724.8 63.7265C1724.37 63.7597 1723.93 63.7262 1723.51 63.627C1720.42 63.7154 1717.48 65.7353 1717.36 60.8846C1719.49 60.6119 1721.15 61.2532 1722.18 63.0962C1722.6 63.3476 1723.04 63.5374 1723.51 63.6601C1723.94 63.6456 1724.37 63.6789 1724.8 63.7597H1724.95C1722.68 59.6757 1720.09 55.6986 1717.56 51.7767H1717.39C1717.41 51.7214 1717.44 51.6772 1717.47 51.6219C1712.6 44.0658 1706.7 34.3829 1700.65 28.865C1707.54 35.1016 1713.9 41.8469 1719.01 49.7642V49.7642ZM1716.13 58.2676L1717.39 59.9779L1716.13 58.2676ZM1716.06 59.6683C1716.26 59.9681 1716.44 60.2593 1716.62 60.5419L1716.06 59.6683C1710.82 51.5593 1700.25 38.1093 1692.53 30.6638C1692.01 30.1809 1691.5 29.6981 1690.98 29.2189C1691.48 29.6686 1692 30.1502 1692.53 30.6638C1701.6 39.252 1709.19 48.8575 1716.06 59.6683H1716.06ZM1709.96 64.7106C1713.37 70.199 1716.75 75.6246 1720.15 80.6154C1716.53 75.3814 1713.23 70.0442 1709.96 64.7106C1703.52 54.3495 1697.02 43.7562 1690.19 35.4481C1697.87 44.7551 1703.85 54.7292 1709.98 64.7106H1709.96ZM1692.98 58.9053C1693.29 59.7632 1693.75 60.5589 1694.32 61.2569L1693.42 62.5949C1697.58 71.043 1706.69 82.8675 1714.76 88.0093C1715.05 88.19 1715.33 88.3779 1715.63 88.5401C1715.34 88.3743 1715.05 88.1936 1714.76 88.0093C1702.09 80.1841 1692.28 67.0438 1686.3 52.971C1686.79 54.132 1690.96 58.5773 1692.29 60.4313C1692.51 59.9918 1692.77 59.5715 1693.06 59.1744L1692.98 58.9053ZM1749.54 174.094C1747.39 174.78 1747.29 172.782 1747.39 171.37L1747.15 171.341C1748.29 163.762 1755.78 172.104 1749.54 174.094ZM1751.56 145.912C1751.05 144.761 1751.05 145.067 1751.97 144.566C1752.62 145.27 1752.49 145.716 1751.56 145.912V145.912ZM1755.63 172.203C1756.32 172.94 1756.17 173.412 1755.17 173.619C1754.49 172.885 1754.65 172.417 1755.63 172.203V172.203ZM1758.14 145.528C1758.06 145.497 1757.99 145.447 1757.93 145.383C1757.88 145.32 1757.83 145.243 1757.81 145.16C1758.34 144.614 1758.76 144.621 1759.04 145.182C1758.75 145.32 1758.46 145.436 1758.15 145.528H1758.14ZM1745.81 134.124C1746.32 136.037 1748 148.713 1747.89 148.956C1746.1 148.986 1744.97 147.909 1744.51 145.727C1743.14 141.352 1745.52 137.006 1743.54 132.657C1742.44 131.887 1741.14 129.837 1741.01 128.503C1730.39 113.586 1707.05 99.6053 1691.52 82.7975C1690.15 83.0223 1690.06 82.9191 1690.47 81.6401C1680.06 70.0073 1673.54 56.9997 1677.59 41.4046L1676.7 41.3456C1675.46 38.935 1676.72 37.4422 1679.14 36.8672C1679.8 35.0727 1680.87 33.4704 1682.27 32.2008C1682.03 33.752 1681.56 35.2555 1680.87 36.6571C1681.95 36.6276 1683.02 36.7234 1684.08 36.6939C1683.85 35.5513 1683.5 34.3829 1683.23 33.2439C1683.62 34.8289 1683.94 35.3228 1684.7 36.6534C1684.85 36.6534 1685 36.6534 1685.15 36.6129C1685.25 34.2576 1688.83 34.346 1688.78 37.1952C1688.01 38.7065 1686.89 39.1009 1685.4 38.3784C1689.13 49.3367 1696.38 56.5979 1702.27 66.0486C1696.37 56.6274 1687.01 52.0421 1684.66 38.6622C1683.98 39.596 1683.3 40.5322 1682.63 41.4709C1682.02 41.9968 1681.45 42.127 1680.92 41.8616C1683.94 50.096 1685.19 69.0563 1693.26 73.7596C1683.24 67.8068 1681.01 51.8247 1680.43 41.6257L1680.37 41.5962L1679.57 41.5446C1673.89 70.1068 1703.35 92.3145 1722.3 108.415C1723.24 107.021 1723.95 106.969 1724.41 108.256C1724.31 108.517 1724.13 108.74 1723.9 108.895C1723.67 109.051 1723.41 109.131 1723.13 109.126C1733.24 117.493 1741.4 131.61 1754.26 135.93C1756.53 136.697 1771 137.751 1770.96 138.484C1770.75 142.458 1747.56 135.303 1745.82 134.124H1745.81ZM1768.2 149.653C1772.5 145.919 1777.56 139.369 1779.87 134.172C1778.53 134.338 1777.19 134.489 1775.85 134.64C1774.11 137.847 1772.66 141.131 1771.18 144.485C1778.16 128.514 1782.78 108.982 1780.93 91.4852C1780.29 91.4397 1779.64 91.3498 1779.01 91.2161C1779.01 91.2419 1779.01 91.2677 1779.01 91.2935H1778.89C1778.83 92.72 1777.93 93.3834 1776.48 93.5345C1776.61 91.1421 1777.12 88.7877 1777.99 86.5645C1778.03 86.4521 1778.04 86.3323 1778.03 86.2142C1778.02 86.0961 1777.98 85.9827 1777.92 85.8826C1780.51 83.7742 1780.51 83.7742 1783.55 85.5877L1786.15 85.4661L1787.46 87.7808L1784.33 87.7587C1784.72 89.7324 1785.26 91.673 1785.93 93.564L1782.75 92.4288C1782.5 92.091 1782.16 91.835 1781.77 91.6916C1784.28 105.51 1782.6 122.285 1775.86 134.625C1777.2 134.478 1778.55 134.327 1779.89 134.161C1785.38 121.82 1790.61 107.622 1790.94 94.6735C1790.33 117.124 1785.27 134.798 1768.21 149.653H1768.2ZM1787.32 78.953C1787.28 78.6287 1787.24 78.3043 1787.2 77.98C1787.25 78.3043 1787.29 78.6287 1787.32 78.953C1787.42 79.9521 1787.47 80.9562 1787.46 81.9607V81.9607C1787.37 82.193 1787.29 82.4289 1787.2 82.6611L1787.46 81.9607C1787.41 80.9471 1787.42 79.9446 1787.33 78.953H1787.32ZM1786.51 114.039C1786.13 115.337 1785.29 115.856 1784 115.598C1782.91 113.773 1783.67 112.461 1786.29 111.662C1786.37 112.454 1786.44 113.251 1786.51 114.039H1786.51ZM1784.71 58.2087C1780.93 58.0797 1776.98 59.6425 1773.18 59.9816L1773.26 59.8563C1772.73 49.5615 1779.66 55.4332 1784.09 56.8412C1777.47 43.5276 1772.44 28.3748 1761.72 18.9462C1761.36 18.6403 1761 18.3344 1760.64 18.0321C1761 18.3307 1761.36 18.6366 1761.72 18.9462C1778.23 33.0891 1782.39 51.1059 1790.69 70.833C1788.92 66.5573 1786.57 62.4843 1784.71 58.2087Z" fill="#EDFFEF"/>
<path d="M1795.98 114.525C1794.93 116.779 1794.08 119.122 1793.43 121.529C1793.49 121.54 1793.55 121.557 1793.61 121.58C1794.36 119.284 1794.93 116.652 1795.98 114.525Z" fill="#EDFFEF"/>
<path d="M1661.89 292.441C1662.08 292.927 1662.3 293.397 1662.55 293.846C1662.64 293.949 1662.72 294.056 1662.8 294.159C1662.49 293.602 1662.2 293.024 1661.89 292.441Z" fill="#EDFFEF"/>
<path d="M1677.54 249.265L1677.75 248.701C1677.68 248.883 1677.61 249.071 1677.54 249.265Z" fill="#EDFFEF"/>
<path d="M1672.48 254.625C1672.58 254.433 1672.67 254.234 1672.78 254.046C1672.66 254.223 1672.58 254.426 1672.48 254.625Z" fill="#EDFFEF"/>
<path d="M1686.1 253.773C1686.17 253.53 1686.23 253.287 1686.3 253.036C1686.23 253.276 1686.17 253.523 1686.1 253.773Z" fill="#EDFFEF"/>
<path d="M1662.82 294.16C1662.73 294.056 1662.65 293.949 1662.57 293.846C1662.75 294.165 1662.96 294.463 1663.21 294.735C1662.74 293.791 1662.2 292.729 1661.61 291.568C1661.71 291.873 1661.81 292.164 1661.91 292.442C1662.2 293.024 1662.5 293.603 1662.82 294.16Z" fill="#EDFFEF"/>
<path d="M1661.61 291.569C1661.37 291.078 1661.12 290.58 1660.86 290.076C1661.18 290.885 1661.53 291.673 1661.91 292.443C1661.81 292.167 1661.71 291.876 1661.61 291.569Z" fill="#EDFFEF"/>
<path d="M1733.25 268.995C1733.31 268.796 1733.37 268.597 1733.44 268.397C1733.37 268.597 1733.3 268.792 1733.25 268.995Z" fill="#EDFFEF"/>
<path d="M1761.72 18.9463C1761.36 18.6367 1761 18.3308 1760.64 18.0322C1761.01 18.3234 1761.36 18.6404 1761.72 18.9463Z" fill="#EDFFEF"/>
<path d="M1700.87 268.394C1700.95 268.136 1701.03 267.882 1701.11 267.631C1701.03 267.878 1700.95 268.132 1700.87 268.394Z" fill="#EDFFEF"/>
<path d="M1714.75 88.0098C1715.04 88.1941 1715.34 88.3784 1715.62 88.5405C1715.33 88.3562 1715.04 88.1904 1714.75 88.0098Z" fill="#EDFFEF"/>
<path d="M1698.86 279.599C1699.3 275.913 1699.8 271.962 1700.81 268.582C1699.79 272.175 1699.14 275.867 1698.86 279.599V279.599Z" fill="#EDFFEF"/>
<path d="M1709.98 64.71C1713.25 70.0435 1716.55 75.3991 1720.17 80.6147C1716.75 75.624 1713.37 70.1983 1709.98 64.71Z" fill="#EDFFEF"/>
<path d="M1692.52 30.6646C1691.99 30.1535 1691.48 29.6719 1690.98 29.2197C1691.5 29.6989 1692.01 30.1818 1692.52 30.6646Z" fill="#EDFFEF"/>
<path d="M1734.54 186.337C1734.96 186.292 1735.38 186.244 1735.8 186.188C1735.38 186.229 1734.96 186.281 1734.54 186.337Z" fill="#EDFFEF"/>
<path d="M1723.51 63.6596C1723.93 63.7593 1724.37 63.793 1724.8 63.7596C1724.37 63.6785 1723.94 63.6449 1723.51 63.6596V63.6596Z" fill="#EDFFEF"/>
<path d="M1773.18 90.1992C1773.56 91.3429 1774.19 92.3803 1775.03 93.229C1774.19 92.3803 1773.56 91.3429 1773.18 90.1992V90.1992Z" fill="#EDFFEF"/>
<path d="M1787.33 78.9379C1787.3 78.6136 1787.26 78.2892 1787.21 77.9648C1787.25 78.2892 1787.29 78.6136 1787.33 78.9379Z" fill="#EDFFEF"/>
<path d="M1787.49 81.9463L1787.23 82.6466C1787.3 82.4144 1787.38 82.1785 1787.49 81.9463Z" fill="#EDFFEF"/>
<path d="M1764.24 132.244C1764.39 130.637 1764.44 129.022 1764.38 127.408C1764.36 127.729 1764.35 128.046 1764.32 128.37C1764.24 129.539 1764.36 131.09 1764.24 132.244Z" fill="#EDFFEF"/>
<path d="M1773.05 89.7344C1773.08 89.8671 1773.12 90.0034 1773.16 90.1361C1773.13 90.0034 1773.08 89.8671 1773.05 89.7344Z" fill="#EDFFEF"/>
<path d="M1690.55 81.416C1690.52 81.4971 1690.5 81.5708 1690.48 81.6445C1690.84 82.0316 1691.17 82.4149 1691.53 82.8019L1691.8 82.7577L1690.55 81.416Z" fill="#EDFFEF"/>
<path d="M1772.95 89.2588C1772.95 89.3329 1772.98 89.407 1773 89.4773C1772.98 89.407 1772.96 89.3329 1772.95 89.2588Z" fill="#EDFFEF"/>
<path d="M1707.47 262.619C1707.79 262.692 1708.12 262.743 1708.44 262.77V262.7C1708.14 262.585 1707.83 262.488 1707.52 262.409C1707.5 262.479 1707.49 262.549 1707.47 262.619Z" fill="#EDFFEF"/>
<path d="M1732.73 162.727C1733.09 162.653 1733.43 162.565 1733.77 162.458C1733.22 162.384 1732.68 162.314 1732.12 162.259L1732.73 162.727Z" fill="#EDFFEF"/>
<path d="M1739.34 8.53406C1739.36 10.1964 1747.89 11.0663 1749.34 11.2285C1749.74 10.5113 1750.24 9.86422 1750.84 9.31179C1750.84 9.29341 1750.84 9.27489 1750.84 9.2565C1749.77 8.9948 1739.31 7.10024 1739.34 8.53406Z" fill="#EDFFEF"/>
<path d="M1664.98 184.643C1663.86 185.863 1649.99 202.439 1651.91 203.611C1652.68 204.083 1667.96 184.643 1669.17 183.408C1676.6 175.849 1686.47 167.976 1696.62 164.684C1696.89 164.017 1697.31 163.425 1697.84 162.959C1685.41 167.495 1674.16 174.916 1664.98 184.643V184.643Z" fill="#EDFFEF"/>
<path d="M1698.43 162.73L1699.07 163.836L1699.49 163.663C1700.21 163.408 1727.45 157.327 1727.39 157.983C1727.69 154.566 1700.08 162.052 1698.43 162.73Z" fill="#EDFFEF"/>
<path d="M1820.97 138.853C1818.63 141.103 1816.45 143.513 1814.43 146.066C1813.04 147.791 1821.46 141.374 1823.19 139.844L1821.06 139.081C1821.03 138.985 1821 138.912 1820.97 138.853Z" fill="#EDFFEF"/>
<path d="M1881.59 110.818C1874.6 107.707 1866.05 107.814 1858.77 109.76C1842.43 114.132 1832.73 127.696 1820.97 138.835C1821 138.912 1821.03 138.986 1821.06 139.06L1823.19 139.826C1834.78 129.591 1843.4 115.591 1859 111.076C1864.5 109.488 1870.6 109.031 1876.19 110.56C1877.96 111.043 1897.26 123.771 1896.5 124.397C1898.33 122.908 1882.82 111.364 1881.59 110.818ZM1867.59 109.517L1867.16 109.149C1867.3 109.042 1867.44 108.857 1867.6 108.839C1868.3 109.323 1868.3 109.549 1867.61 109.517H1867.59Z" fill="#EDFFEF"/>
<path d="M1781.63 183.652C1780.14 183.847 1782.16 179.966 1782.65 179.542C1783.11 180.578 1779.39 157.058 1776.77 158.532C1775.21 159.413 1780.77 174.257 1780.15 177.81C1779.64 178.613 1778.61 180.585 1779.14 181.496C1778.09 184.256 1776.47 186.746 1774.38 188.789C1772.29 190.831 1769.79 192.376 1767.06 193.313C1766.25 193.762 1760.1 197.692 1758.8 196.261C1759.43 197.931 1760.13 199.579 1760.9 201.156C1772.7 198.668 1780.79 189.572 1786.92 178.823C1785.69 179.527 1782.79 183.512 1781.63 183.652Z" fill="#EDFFEF"/>
<path d="M1903.58 198.157C1903.53 198.102 1903.46 198.062 1903.38 198.038C1903.45 198.072 1903.52 198.111 1903.58 198.157Z" fill="#EDFFEF"/>
<path d="M1900.62 205.015C1901.28 204.757 1901.92 204.513 1902.52 204.277C1901.9 204.513 1901.27 204.759 1900.62 205.015Z" fill="#EDFFEF"/>
<path d="M1870.54 191.642C1865.75 192.38 1860.45 193.707 1855.64 193.854C1860.4 193.721 1866.89 192.711 1873.75 191.134C1872.7 191.308 1871.63 191.478 1870.54 191.642Z" fill="#EDFFEF"/>
<path d="M1864.2 205.792C1861.14 206.293 1857.74 207.189 1854.58 207.292C1857.59 207.196 1860.59 206.866 1863.56 206.304C1863.75 206.11 1863.97 205.938 1864.2 205.792V205.792Z" fill="#EDFFEF"/>
<path d="M1892.15 128.945C1890.95 128.945 1889.75 129.016 1888.56 129.134C1889.73 129.123 1890.92 129.075 1892.15 128.945Z" fill="#EDFFEF"/>
<path d="M1802.46 173.133C1802.2 173.277 1801.94 173.424 1801.67 173.564C1801.94 173.409 1802.2 173.262 1802.46 173.133Z" fill="#EDFFEF"/>
<path d="M1903.39 198.038C1903.57 198.128 1903.73 198.255 1903.86 198.412C1903.99 198.569 1904.08 198.751 1904.14 198.948C1904.29 198.646 1904.11 198.337 1903.39 198.038Z" fill="#EDFFEF"/>
<path d="M1906.02 186.439L1906.92 186.052L1906.02 186.439Z" fill="#EDFFEF"/>
<path d="M1886.85 120.213C1854.78 101.256 1825.16 139.365 1804.88 159.914C1804.92 159.955 1804.97 159.992 1805.01 160.036C1805.03 160.877 1804.78 161.701 1804.29 162.376C1804.03 162.008 1803.77 161.639 1803.51 161.271C1795.74 169.081 1789.59 174.639 1785.91 174.665C1785.97 175.561 1785.78 176.457 1785.37 177.245L1785.42 177.216C1787.18 176.365 1802.41 164.617 1802.84 164.824C1816.87 149.269 1834.98 132.62 1853.87 123.284C1863.41 118.577 1872.17 116.892 1881.99 120.847C1883.01 121.26 1899.62 131.374 1897.49 132.966C1896.85 133.442 1892.71 129.362 1892.19 128.941H1892.14C1890.91 129.07 1889.72 129.118 1888.55 129.129C1879.61 130.007 1870.53 133.748 1861.89 135.163C1865.24 134.618 1871.42 130.254 1876.14 129.454C1880.45 128.717 1884.41 129.166 1888.55 129.129C1889.75 129.011 1890.95 128.945 1892.14 128.941H1892.19C1887.52 125.183 1882.19 122.375 1876.5 120.667C1867.24 121.772 1853.97 125.974 1846.63 132.093C1847.58 133.663 1847.24 134.841 1845.59 135.628C1843.23 135.241 1843.61 131.186 1845.81 131.647C1855.99 124.507 1863.96 121.153 1876.27 120.589C1856.44 114.865 1833.44 138.259 1820.08 150.445C1811.88 157.928 1803.9 165.86 1797.65 175.163C1796.1 177.555 1788.56 196.722 1790.78 196.147C1784.86 197.82 1796.7 172.498 1798.53 170.168C1796.02 172.561 1793.12 174.404 1790.4 176.482C1790.08 187.949 1771.61 201.178 1761.89 203.073C1772.36 222.814 1794.16 235.907 1818.82 239.781C1809 239.412 1798.8 236.832 1789.83 232.759C1789.04 232.391 1764.6 216.851 1765.87 215.778C1759.82 220.909 1799.65 238.074 1798.69 237.816C1811.93 241.369 1825.17 241.288 1838.71 240.894C1851.91 240.507 1864.99 240.046 1877.41 234.786C1885.81 231.226 1893.45 226.04 1899.44 218.959C1900.71 217.459 1909.4 205.321 1907.36 204.481C1908.24 204.849 1888.98 225.988 1888.15 226.615C1877.83 234.418 1866.04 237.709 1853.48 239.088C1871.07 235.608 1890.13 227.514 1899.86 211.211C1891.39 215.852 1879.98 220.389 1870.15 220.795C1876.44 220.511 1893.16 213.935 1899.88 211.156C1914.43 186.722 1913.72 136.081 1886.85 120.213ZM1857.37 238.9L1858.15 239.467C1856.67 240.238 1856.38 239.069 1857.37 238.915V238.9ZM1904.19 199.424C1903.8 204.057 1878.2 208.27 1874.15 208.532C1878.16 208.281 1886.17 203.371 1891.27 202.265C1891.84 202.144 1903.27 200.574 1904.13 198.948C1904.08 198.751 1903.98 198.568 1903.85 198.412C1903.72 198.255 1903.56 198.127 1903.38 198.038C1904.1 198.336 1904.29 198.646 1904.13 198.948C1904.18 199.101 1904.2 199.263 1904.19 199.424ZM1867.15 205.642C1872.35 207.33 1861.48 208.45 1863.56 206.294C1860.6 206.859 1857.6 207.192 1854.59 207.293C1854.35 207.293 1854.12 207.293 1853.87 207.293H1854.59C1857.74 207.19 1861.15 206.294 1864.21 205.793C1863.98 205.938 1863.76 206.11 1863.56 206.305C1864.69 206.103 1865.84 205.87 1867.02 205.62C1866.8 205.552 1866.58 205.496 1866.36 205.454C1867.86 205.251 1869.32 205.015 1870.77 204.75C1881.63 202.07 1893.62 197.724 1901.31 193.825C1901.77 193.589 1902.22 193.357 1902.68 193.113C1902.24 193.349 1901.78 193.585 1901.31 193.825C1891.26 199.026 1881.73 202.752 1870.77 204.75C1869.5 205.063 1868.26 205.354 1867.02 205.62L1867.15 205.642ZM1865.71 215.538C1863.58 214.801 1863.56 214.742 1864.63 212.992C1865.28 213.677 1865.67 214.583 1865.71 215.538V215.538ZM1848.56 149.656C1849.64 149.564 1850.46 150.202 1851.2 151.101C1851.76 151.451 1852.32 151.82 1852.86 152.207C1852.92 153.024 1852.76 153.842 1852.41 154.577C1866.62 147.647 1882.04 145.421 1896.33 139.409C1892.02 141.182 1888.12 143.376 1883.66 144.905C1883.62 144.979 1883.56 145.053 1883.52 145.13C1883 145.46 1882.4 145.654 1881.78 145.694C1877.86 147.636 1873.51 148.436 1869.38 149.608C1867.58 150.121 1851.66 155.204 1851.65 155.137C1850.72 155.299 1850.45 153.641 1850.39 153.069C1850.67 152.832 1850.88 152.53 1851.03 152.188C1851.17 151.846 1851.22 151.475 1851.2 151.105C1850.35 150.573 1849.47 150.089 1848.56 149.656V149.656ZM1849.49 211.373L1848.41 212.951C1845.78 209.814 1849.24 210.275 1849.49 211.373V211.373ZM1871.14 157.301C1872 157.67 1872.25 158.374 1871.92 159.144C1871.28 160.567 1869.35 158.237 1871.14 157.301V157.301ZM1854.03 161.094L1853.79 161.3C1853.74 161.208 1853.63 161.108 1853.64 161.027C1853.65 160.946 1853.78 160.876 1853.86 160.803C1853.91 160.895 1853.97 160.968 1854.03 161.094V161.094ZM1850.38 158.407C1850.46 158.193 1852.76 156.162 1852.76 158.322C1852.44 158.611 1852.03 158.78 1851.61 158.801C1851.18 158.823 1850.76 158.695 1850.41 158.44L1849.88 158.694L1850.38 158.407ZM1876.37 161.945C1884.07 159.571 1892.1 158.558 1899.52 155.421C1884.81 161.687 1868.63 168.163 1852.54 169.903C1858.89 169.21 1869.21 164.194 1876.37 161.945V161.945ZM1882.34 172.682C1883.34 172.903 1883.62 173.489 1883.64 174.201C1890.08 171.344 1896.72 170.884 1903 167.349C1889.03 175.251 1872.69 182.225 1856.31 182.793C1861.62 182.616 1872.15 178.148 1878.02 176.206C1879.66 175.66 1881.25 175.167 1882.84 174.54C1882.35 174.076 1882.35 173.375 1882.34 172.682V172.682ZM1886.19 170.795C1886.5 170.611 1886.83 170.455 1887.16 170.331L1887.21 170.379C1886 172.557 1886.44 170.618 1886.19 170.795V170.795ZM1855.64 193.843C1860.45 193.707 1865.75 192.391 1870.54 191.632C1871.63 191.465 1872.7 191.291 1873.75 191.112C1885.28 188.454 1897.88 184.182 1905.18 179.722C1894.84 186.077 1885.27 189.121 1873.75 191.112C1866.89 192.701 1860.4 193.71 1855.64 193.843V193.843ZM1869.55 200.282C1867.57 199.766 1867.35 199.051 1868.88 198.137C1870.92 198.668 1871.14 199.383 1869.55 200.282V200.282ZM1865.19 168.134L1865.22 168.16L1865.19 168.134ZM1854.1 185.483C1853.95 185.528 1853.74 185.653 1853.66 185.605C1853.58 185.557 1853.53 185.343 1853.47 185.2C1853.84 184.927 1854.05 185.026 1854.1 185.483V185.483ZM1874.26 196.265C1881.55 196.438 1897.87 189.896 1906.02 186.438L1906.92 186.051L1906.02 186.438C1895.96 190.769 1885.81 196.527 1874.26 196.265V196.265ZM1908.41 174.105C1907.75 174.426 1907.06 174.768 1906.37 175.063C1896.86 179.45 1885.66 183.467 1875.06 182.837C1881.56 183.242 1898.25 177.824 1905.37 175.465C1905.7 175.355 1906.04 175.222 1906.37 175.078C1907.05 174.764 1907.73 174.439 1908.41 174.105ZM1876.39 171.311C1876.63 171.389 1876.65 171.558 1876.41 171.816C1876.28 171.757 1876.08 171.724 1876.05 171.632C1876.03 171.54 1876.1 171.451 1876.17 171.348C1874.61 171.611 1873.03 171.79 1871.46 171.886C1878.31 171.481 1897.06 164.573 1904.01 161.101C1895.61 165.211 1885.97 169.675 1876.37 171.311H1876.39ZM1902.02 147.931C1902.32 147.762 1902.63 147.622 1902.95 147.511V147.482H1902.97H1902.94C1901.86 149.631 1902.22 147.784 1902 147.931H1902.02ZM1899.2 148.388C1899.56 148.335 1899.92 148.262 1900.28 148.167L1903.89 146.914C1902.79 147.319 1901.5 147.85 1900.28 148.167C1893.66 150.46 1886.55 152.819 1879.49 154.009C1879.51 154.043 1879.52 154.084 1879.51 154.124C1879.37 155.255 1876.31 156.177 1876.2 154.835C1876.2 154.702 1876.24 154.571 1876.32 154.466C1874.62 154.666 1872.9 154.777 1871.18 154.798C1873.17 154.725 1875.14 154.453 1877.08 153.987C1877.37 153.885 1877.68 153.816 1877.99 153.781C1884.79 152.185 1893.16 149.199 1899.18 148.388H1899.2ZM1897.21 134.798C1886.5 137.297 1876.04 141.853 1865.43 144.448C1871.89 142.9 1879.15 136.166 1887.51 135.65C1890.96 135.436 1893.79 135.565 1897.21 134.798ZM1862.22 138.359H1862.24C1869.78 134.806 1877.78 134.065 1885.84 132.83C1878.39 133.965 1870.38 137.858 1863.08 139.988C1862.08 142.155 1859.67 144.485 1857.58 142.307C1853.73 144.15 1849.98 146.774 1846.12 148.473C1848.21 147.548 1854.24 142.767 1856.97 140.858C1857.1 139.299 1861.18 138.116 1862.22 138.363V138.359ZM1841.1 143.003C1851.94 129.682 1866.45 127.379 1882 124.909C1865.65 127.452 1852.98 135.211 1840.13 145.053C1839.24 144.431 1839.56 143.748 1841.1 143.003ZM1844.92 153.324C1848.99 155.093 1840.84 158.971 1840.22 159.114C1837.72 159.664 1840.33 151.33 1844.92 153.32V153.324ZM1842.51 186.07C1842.41 186.829 1840.36 187.455 1840.28 186.545C1840.23 185.778 1842.57 185.594 1842.51 186.066V186.07ZM1820.14 154.581L1821.74 155.24L1820.94 156.062C1820.69 155.899 1820.49 155.678 1820.34 155.418C1820.2 155.158 1820.11 154.866 1820.1 154.566L1820.14 154.581ZM1830.65 165.115C1828.31 165.414 1827.15 165.852 1826.62 163.047L1821.56 162.163C1822.01 160.895 1825.39 161.838 1826.18 161.086C1825.79 160.012 1825.63 158.865 1825.71 157.721C1819.72 161.009 1814.22 165.487 1808.5 169.372C1808.83 169.512 1808.94 169.973 1808.65 171.005C1807.77 171.315 1806.98 171.374 1806.39 170.773C1805.09 171.602 1803.78 172.384 1802.44 173.114C1802.18 173.261 1801.91 173.408 1801.65 173.545C1801.91 173.405 1802.18 173.257 1802.44 173.114C1803.76 172.358 1805.02 171.523 1806.24 170.614C1806.15 170.5 1806.07 170.376 1806.01 170.246C1806.6 169.886 1807.22 169.591 1807.87 169.365C1813.41 165.038 1819.13 159.512 1825.98 156.608C1827.42 151.702 1831.88 151.816 1834.06 156.239C1834.36 155.738 1834.69 155.252 1835 154.765C1838.44 155.259 1835.61 158.757 1834.85 159.494C1833.67 158.639 1833.3 158.337 1833.39 157.784C1824.66 159.822 1837.08 163.825 1837.03 163.42C1837.22 164.817 1831.88 164.949 1831.56 164.99C1831.68 165.307 1831.79 165.62 1831.92 165.937L1831.56 164.99L1831.11 165.045C1821.44 174.116 1807.06 175.642 1796.42 180.283C1807.25 175.594 1820.86 171.565 1830.66 165.115H1830.65ZM1815.13 171.171C1815.11 170.457 1815.35 169.761 1815.8 169.214C1815.35 169.761 1815.11 170.457 1815.13 171.171C1815.13 171.285 1815.13 171.4 1815.13 171.518C1814.32 172.087 1813.4 172.465 1812.43 172.623C1813.4 172.465 1814.32 172.087 1815.13 171.518C1815.14 171.4 1815.14 171.289 1815.14 171.171H1815.13ZM1821.17 163.479C1821.17 163.42 1821.63 163.368 1821.67 163.364C1822.01 164.06 1821.87 164.399 1821.24 164.382C1821.2 164.083 1821.18 163.781 1821.18 163.479H1821.17ZM1825.04 163.917C1825.09 163.816 1825.16 163.727 1825.25 163.657C1825.34 163.586 1825.44 163.536 1825.55 163.508C1826.47 164.407 1824.87 164.654 1825.04 163.917ZM1833.69 165.911C1833.32 165.713 1832.89 165.651 1832.49 165.738C1832.89 165.646 1833.32 165.7 1833.69 165.893V165.911ZM1822.62 179.549L1820.98 179.273C1820.67 176.737 1822.48 178.661 1822.62 179.52V179.549ZM1814.48 176.947C1814.45 176.945 1814.42 176.945 1814.39 176.947C1814.01 177.566 1809.15 182.078 1809.59 178.399C1809.73 177.323 1813.78 176.925 1814.39 176.947C1814.4 176.928 1814.42 176.908 1814.43 176.888L1814.48 176.947ZM1838.74 176.32C1823.93 181.248 1808.81 183.821 1794.52 187.028C1809.16 183.711 1824.56 180.99 1838.74 176.291V176.32ZM1837.5 189.092C1837.41 190.393 1835.45 188.978 1836.87 188.237C1837.05 188.282 1837.21 188.389 1837.32 188.538C1837.44 188.688 1837.5 188.873 1837.5 189.063V189.092ZM1794.1 198.753L1794.14 198.639C1794.02 198.942 1793.98 199.272 1794.02 199.597C1793.96 199.46 1793.94 199.311 1793.96 199.164C1793.97 199.017 1794.02 198.876 1794.1 198.753ZM1825.16 231.06C1823.61 230.47 1822.98 229.234 1823.27 227.352C1823.35 226.983 1824.26 221.775 1824.89 220.507C1822.19 220.385 1819.45 219.844 1816.76 219.53C1822.82 217.584 1806.4 222.94 1811.66 218.834C1801.15 217.768 1790.21 212.199 1780.75 207.603C1780.33 208.111 1780.56 208.922 1781.35 210.426C1781.1 211.786 1780.39 213.065 1780.15 214.425C1792.94 225.483 1811.95 235.247 1828.88 235.468C1809.03 235.1 1795.39 228.999 1780.15 216.018C1780.15 216.062 1780.15 216.099 1780.17 216.143C1779.77 216.121 1779.38 216.121 1778.98 216.143C1778.56 214.535 1777.56 213.152 1776.19 212.276C1775.05 211.247 1774.01 210.114 1773.07 208.893C1772.89 208.65 1775.5 210.419 1776.02 210.946C1776.38 205.786 1773.56 203.943 1768.02 204.717V203.548C1770.39 203.942 1772.8 204.084 1775.2 203.972L1773.76 202.055C1773.52 201.58 1776.13 203.688 1776.44 203.946C1779.24 203.891 1782.06 204.112 1784.87 204.197L1786.26 205.056C1786.2 205.793 1786.16 206.53 1786.11 207.267L1785.03 207.415C1784.62 207.132 1784.15 206.942 1783.66 206.858C1783.17 206.774 1782.67 206.798 1782.19 206.928C1789.59 210.437 1797.44 213.29 1805.46 214.945C1806.68 213.736 1808.17 213.349 1809.93 213.784C1809.67 214.429 1809.37 215.056 1809.04 215.664C1811.93 216.309 1814.44 217.463 1817.36 217.289C1818.34 217.212 1818.88 217.544 1819.01 218.292C1821.03 218.789 1823.28 219.63 1825.37 219.766C1826.62 218.391 1829.67 219.176 1831.03 219.939C1829.26 219.995 1833.09 219.888 1833.84 219.914C1832.96 219.905 1832.08 219.955 1831.21 220.065C1832.01 220.71 1825.37 231.093 1825.16 231.06ZM1816.51 211.056C1816.61 211.128 1816.7 211.224 1816.76 211.337C1815.56 213.331 1813.64 209.936 1816.51 211.056ZM1815.75 210.223L1816.22 210.194L1816.03 210.581L1815.75 210.223ZM1827.95 213.854C1826.73 214.083 1825.92 213.485 1825.51 212.096C1825.35 209.497 1830.15 212.708 1827.97 213.854H1827.95ZM1831.83 205.568L1832.19 205.881C1832.19 206.619 1832.2 207.368 1832.22 208.13C1828.2 208.281 1825.45 211.668 1823.75 207.024C1823.89 206.644 1824.1 206.295 1824.37 205.999C1816.78 206.4 1809.18 205.748 1801.76 204.061C1800.35 204.724 1798.96 205.429 1797.59 206.176V203.228C1792.48 201.823 1786.82 201.068 1781.97 198.871C1784.78 200.142 1794.05 201.639 1797.98 201.945L1798.37 200.795C1798.9 200.891 1802.32 201.138 1802.48 202.656C1805.06 203.165 1807.84 203.124 1810.46 203.419C1811.09 202.251 1813.38 202.627 1812.56 203.537C1817.42 203.585 1822.18 204.274 1827.02 204.484C1827.57 204.29 1828.09 204.043 1828.59 203.747C1829.42 203.945 1830.2 204.322 1830.88 204.853C1833.81 204.978 1836.82 203.972 1839.71 203.596C1837 203.902 1834.54 205.222 1831.83 205.568ZM1817.82 200.776C1817.91 199.427 1821.79 198.793 1822.37 199.991C1822.95 201.189 1817.75 201.849 1817.82 200.776ZM1840.43 197.997C1840.14 197.964 1840.1 197.839 1840.28 197.629C1840.56 197.651 1840.59 197.776 1840.42 197.986L1840.43 197.997ZM1823.34 195.705C1822.98 196.641 1821.32 196.965 1821.23 195.808C1813.58 196.294 1804.11 196.884 1796.32 195.808C1795.9 195.752 1795.48 195.693 1795.08 195.623C1795.49 195.693 1795.9 195.752 1796.32 195.808C1809.26 197.5 1830.89 193.578 1843.92 191.016C1837.03 192.391 1830.51 195.218 1823.33 195.693L1823.34 195.705ZM1847.16 156.129C1846.85 156.467 1846.46 156.718 1846.02 156.858C1845.59 156.998 1845.13 157.022 1844.68 156.929C1845.46 156.527 1846.29 156.253 1847.15 156.118L1847.16 156.129ZM1845.83 167.662C1845.58 170.939 1845.23 164.584 1845.83 167.662V167.662ZM1852.49 233.087C1853.31 232.561 1853.74 232.775 1853.78 233.729C1852.74 234.001 1852.9 234.256 1852.48 233.076L1852.49 233.087ZM1870.43 225.752C1878.28 223.172 1888.4 221.996 1894.4 215.988C1883.41 227.286 1860.01 232.748 1844.69 233.382C1851.63 233.083 1862.87 228.13 1870.44 225.741L1870.43 225.752ZM1846.61 220.456C1859.53 222.892 1886.52 210.504 1900.61 205.026C1901.25 204.781 1901.88 204.535 1902.51 204.289C1901.91 204.514 1901.27 204.757 1900.61 205.026C1884.69 211.303 1863.99 223.961 1846.62 220.444L1846.61 220.456Z" fill="#EDFFEF"/>
<path d="M1866.37 205.442C1866.59 205.485 1866.81 205.54 1867.03 205.608C1868.26 205.343 1869.51 205.052 1870.78 204.738C1869.33 205.004 1867.87 205.24 1866.37 205.442Z" fill="#EDFFEF"/>
<path d="M1796.31 195.798C1795.9 195.742 1795.48 195.683 1795.07 195.612C1795.48 195.683 1795.89 195.742 1796.31 195.798Z" fill="#EDFFEF"/>
<path d="M1815.15 171.518C1815.15 171.4 1815.15 171.285 1815.15 171.171C1815.14 171.289 1815.14 171.4 1815.15 171.518Z" fill="#EDFFEF"/>
<path d="M1906.36 175.063C1907.05 174.768 1907.74 174.425 1908.4 174.104C1907.73 174.426 1907.05 174.746 1906.36 175.063Z" fill="#EDFFEF"/>
<path d="M1900.27 148.166C1901.49 147.849 1902.78 147.319 1903.88 146.913L1900.27 148.166Z" fill="#EDFFEF"/>
<path d="M1851.2 151.101C1850.48 150.202 1849.64 149.564 1848.56 149.656C1849.47 150.091 1850.34 150.575 1851.2 151.109V151.101Z" fill="#EDFFEF"/>
<path d="M1901.32 193.813C1901.79 193.573 1902.25 193.337 1902.69 193.102C1902.23 193.345 1901.78 193.577 1901.32 193.813Z" fill="#EDFFEF"/>
<path d="M1807.9 169.376C1807.35 169.804 1806.81 170.217 1806.27 170.615C1806.31 170.67 1806.36 170.723 1806.41 170.773C1807.12 170.316 1807.83 169.849 1808.52 169.372C1808.32 169.307 1808.1 169.308 1807.9 169.376Z" fill="#EDFFEF"/>
<path d="M1876.14 171.348L1876.37 171.311C1876.31 171.29 1876.25 171.276 1876.19 171.271C1876.17 171.298 1876.16 171.324 1876.14 171.348V171.348Z" fill="#EDFFEF"/>
<path d="M1877.97 153.773C1877.66 153.847 1877.36 153.913 1877.06 153.98C1876.77 154.063 1876.51 154.229 1876.31 154.459C1877.36 154.339 1878.42 154.189 1879.48 154.009C1879.35 153.766 1878.68 153.689 1877.97 153.773Z" fill="#EDFFEF"/>
<path d="M1769.87 155.347C1770.42 154.979 1772.63 176.998 1772.23 178.052C1770.64 182.594 1766.78 185.955 1762.76 188.078C1761.99 188.487 1746.74 191.395 1746.8 191.093C1746 195.111 1767.18 187.153 1769.64 184.459C1774.57 179.096 1776.18 172.715 1774.71 165.461C1774.45 164.204 1771.24 154.459 1769.87 155.347Z" fill="#EDFFEF"/>
</g>
<defs>
<clipPath id="clip0_95_3">
<rect width="270.047" height="314" fill="white" transform="translate(1639.29 8.00293)"/>
</clipPath>
</defs>
</svg>
